<svg width="40" height="40" viewBox="0 0 40 40" fill="none" xmlns="http://www.w3.org/2000/svg">
    <g clip-path="url(#clip0_1040_85128)">
        <path d="M20 40C31.0457 40 40 31.0457 40 20C40 8.9543 31.0457 0 20 0C8.9543 0 0 8.9543 0 20C0 31.0457 8.9543 40 20 40Z" fill="#988430"/>
        <path d="M20 39.3593C30.6919 39.3593 39.3594 30.6918 39.3594 19.9999C39.3594 9.3081 30.6919 0.640625 20 0.640625C9.3081 0.640625 0.640625 9.3081 0.640625 19.9999C0.640625 30.6918 9.3081 39.3593 20 39.3593Z" fill="#7A6A2A"/>
        <path d="M19.9998 38.9517C30.4663 38.9517 38.9512 30.4669 38.9512 20.0002C38.9512 9.53369 30.4663 1.04883 19.9998 1.04883C9.53319 1.04883 1.04834 9.53369 1.04834 20.0002C1.04834 30.4669 9.53319 38.9517 19.9998 38.9517Z" fill="#BA9F33"/>
        <path fill-rule="evenodd" clip-rule="evenodd" d="M8.74439 17.8647C8.6311 17.7612 8.51143 17.6576 8.40134 17.5541C8.29127 17.4506 8.1782 17.3469 8.06492 17.2434L7.72828 16.9234C7.67324 16.8684 7.61501 16.8201 7.55996 16.7648C7.50492 16.7163 7.44028 16.6613 7.38524 16.6127C6.93852 16.1888 6.48924 15.7649 6.0487 15.3408C6.50503 15.7583 6.95174 16.1728 7.40807 16.5964L7.56658 16.7552C7.62162 16.8099 7.67985 16.8586 7.73489 16.9137L8.07132 17.2243C8.1846 17.3277 8.29468 17.4314 8.40795 17.5443C8.52124 17.6571 8.63132 17.7611 8.74461 17.8643L8.74439 17.8647ZM2.81564 17.8007C2.81564 17.8007 4.44018 17.9688 5.23313 18.0821C5.96764 18.1857 8.26545 18.5384 8.26545 18.5384L2.81564 17.8007ZM2.81564 17.8007C3.27195 17.8396 3.72828 17.8879 4.1846 17.9366C4.41755 17.9592 4.64092 17.9851 4.86428 18.0076L5.2071 18.0467C5.32039 18.0627 5.43047 18.0788 5.54374 18.0951L6.9031 18.3118L7.58258 18.4251C7.80593 18.4639 8.02929 18.5062 8.26225 18.5449C8.03889 18.5224 7.80593 18.4899 7.58258 18.4576L6.9031 18.3604L5.54374 18.1599C5.43047 18.1437 5.32039 18.1209 5.2071 18.1049L4.86407 18.0654C4.6407 18.0428 4.40774 18.0104 4.18439 17.9843C3.72807 17.9296 3.27174 17.8711 2.81543 17.8001L2.81564 17.8007ZM8.10374 18.9617C8.10374 18.9617 6.36913 19.4019 5.78332 19.5703C5.20732 19.7288 3.46289 20.2596 3.46289 20.2596L8.10353 18.9618L8.10374 18.9617Z" fill="#CFB66C"/>
        <path fill-rule="evenodd" clip-rule="evenodd" d="M8.1037 18.9609C7.71864 19.0742 7.3357 19.1843 6.94509 19.2879L5.78647 19.5986C5.40141 19.7118 5.01847 19.8219 4.63447 19.9352L4.05847 20.0937C3.86754 20.1488 3.67341 20.1972 3.47607 20.2524C3.6668 20.1884 3.86114 20.1229 4.05207 20.0679L4.62807 19.8836C5.01314 19.7637 5.39607 19.6504 5.78007 19.5308C6.17154 19.4337 6.55682 19.3301 6.94829 19.2362C7.32034 19.1423 7.71202 19.0486 8.1037 18.9612V18.9609ZM3.70584 21.3268C3.89655 21.2556 6.0973 20.2298 6.60866 19.9903C6.86466 19.8704 7.60877 19.6063 7.60877 19.6063L3.70584 21.3268Z" fill="#CFB66C"/>
        <path fill-rule="evenodd" clip-rule="evenodd" d="M3.70579 21.3271C3.87389 21.2631 4.03262 21.1847 4.19432 21.1104L4.67325 20.887L5.63453 20.4242C5.95453 20.2721 6.26557 20.1043 6.5956 19.9614C6.76392 19.8904 6.93224 19.8321 7.10034 19.777L7.35634 19.6963C7.4436 19.6736 7.52467 19.6475 7.61234 19.625C7.29234 19.777 6.95549 19.9065 6.63507 20.0553C6.31507 20.2139 5.98782 20.3434 5.65757 20.4857L4.68029 20.916C4.35219 21.0489 4.03219 21.1913 3.70557 21.3271H3.70579ZM3.91912 22.223C3.91912 22.223 5.9125 21.0549 6.59858 20.6794C6.95784 20.4789 8.11965 19.9028 8.11965 19.9028L3.91912 22.223Z" fill="#CFB66C"/>
        <path fill-rule="evenodd" clip-rule="evenodd" d="M3.91895 22.2234C4.25538 22.0162 4.59842 21.8059 4.94146 21.5924L5.45347 21.2815C5.62818 21.178 5.79651 21.081 5.97465 20.9775C6.14936 20.8739 6.31768 20.7704 6.49561 20.6732C6.58031 20.621 6.66905 20.5755 6.761 20.5374L7.03278 20.4015C7.39203 20.2267 7.75128 20.0486 8.12996 19.8965C7.78692 20.1135 7.43406 20.298 7.08142 20.4887C6.9067 20.5859 6.72856 20.6732 6.55385 20.7704C6.37912 20.8674 6.21081 20.9711 6.03267 21.065C5.85795 21.1685 5.68962 21.2655 5.51171 21.3594L4.98413 21.6474L3.91938 22.2234H3.91895ZM8.1033 20.1585C8.1033 20.1585 6.86382 21.11 6.46253 21.4142C6.06126 21.7184 4.88002 22.5727 4.88002 22.5727L8.1033 20.1585Z" fill="#CFB66C"/>
        <path fill-rule="evenodd" clip-rule="evenodd" d="M15.2168 27.8313L14.5825 26.6307L14.9514 25.129L17.5824 24.113L16.4626 21.8153L17.016 19.4948L18.0549 17.417L21.2654 16.9123L23.6244 14.6631L28.7184 15.0482L29.7183 20.4948L27.7928 27.3523L26.6958 30.9027L22.249 31.071L20.1844 29.6406L17.7669 28.6307L15.2168 27.8313Z" fill="#E2CC85"/>
        <path fill-rule="evenodd" clip-rule="evenodd" d="M23.0165 27.7933C23.0165 27.7933 22.4014 28.0749 21.3525 28.01C21.0489 27.6023 18.9228 27.4114 18.9228 27.4114C18.9228 27.4114 18.6574 27.3305 18.1882 27.5247C17.7158 27.7167 17.269 27.693 16.8515 27.7965C16.4342 27.8999 16.0195 27.3564 15.6995 27.243C15.3795 27.1234 14.9553 26.8354 14.9553 26.8354L14.0593 26.7479L12.26 25.9874L9.40158 23.1396L8.62483 24.3557L8.38525 25.8605L9.24947 27.6438L11.5763 29.7634L16.1134 30.9154L18.8028 30.123L22.1717 28.699L23.0165 27.793V27.7933Z" fill="#F1D789"/>
        <path fill-rule="evenodd" clip-rule="evenodd" d="M6.89644 17.728L7.47244 15.9837L8.15874 14.8574L10.3689 14.6729L9.70541 16.6082L7.85773 19.8962L8.62466 22.8315L7.26552 23.511L6.84781 22.8704L6.51138 21.4011L6.48877 19.7506L6.89644 17.728Z" fill="#F4ECB4"/>
        <path fill-rule="evenodd" clip-rule="evenodd" d="M9.37541 27.6726L8.95151 27.0805C8.95151 27.0805 8.83823 26.7989 8.90309 26.5529C8.96709 26.3038 8.95792 26.2875 8.9257 26.1936C8.89349 26.0998 8.62148 25.7761 8.63769 25.4978C8.65369 25.2161 8.61508 25.1223 8.82202 24.8991C9.03876 24.6824 8.97413 24.3069 8.97413 24.3069L9.25573 24.4816L9.31973 24.3845C9.31973 24.3845 9.4232 24.4654 9.4232 24.5918C9.44581 24.417 9.35194 23.6078 9.56549 23.4235C9.77904 23.2391 10.1577 24.2875 10.1577 24.2875L9.92475 22.7664L9.32591 21.2068L8.26115 19.7828L8.19715 18.213V18.0771C8.19715 18.0771 7.7084 18.8281 7.57252 19.4211C7.47544 19.8289 7.7084 20.324 7.65998 20.9098C7.62094 21.4924 7.57252 21.447 7.7148 21.6778C7.8571 21.9086 8.20355 22.3833 8.06767 22.7264C7.94798 23.0209 7.54008 22.8138 7.54008 22.8138C7.54008 22.8138 7.45923 23.0531 7.34915 23.1406C7.31032 22.9984 7.26829 22.9076 7.19064 22.8206C7.18403 22.8756 7.16803 22.9501 7.16803 22.9501C7.16803 22.9501 7.09678 22.7268 7.02552 22.4451C6.92867 22.0699 6.82498 21.5748 6.73112 21.3094C6.69229 21.4615 6.59521 21.9241 6.59521 21.9241L6.65027 22.6363L6.91565 23.6136L7.17165 24.2536L7.42083 25.0368L7.63736 25.5628L7.81209 25.9641L7.96419 26.8671L8.69871 27.6436L9.09039 27.8186L9.37498 27.6729L9.37541 27.6726Z" fill="#F3E19D"/>
        <path fill-rule="evenodd" clip-rule="evenodd" d="M7.28144 16.304C7.28144 16.304 6.75386 17.2 6.60197 18.1033C6.45007 19.0065 6.31397 19.9609 6.40997 21.1905C6.50703 22.4303 6.69157 23.1905 6.84048 23.7344C7.09648 24.6374 7.75952 25.893 7.75952 25.893L7.78213 25.8444C7.67068 25.6331 7.58173 25.4108 7.51674 25.1809C7.42928 24.8379 7.39686 24.4303 7.31599 24.2456C7.24474 24.0614 7.12507 23.9026 7.06682 23.6761C7.01178 23.4594 7.00282 23.1163 6.83386 22.8608C6.76261 22.757 6.67514 22.4853 6.64933 22.2135C6.61691 21.8056 6.66554 21.3493 6.62672 20.974C6.55546 20.3494 6.50703 19.9255 6.57167 19.5985C6.63632 19.2714 6.97317 18.343 7.18032 17.6051C7.31621 17.1325 7.23514 16.7345 7.48432 16.3234C7.73349 15.9158 7.88582 15.5565 7.94064 15.3073C8.00464 15.0808 7.28058 16.304 7.28058 16.304H7.28144Z" fill="#F2E8B0"/>
        <path fill-rule="evenodd" clip-rule="evenodd" d="M9.78312 15.9453C9.78312 15.9453 9.51134 16.0264 9.38185 16.1687C9.25235 16.3046 9.19731 16.4178 9.02259 16.6476C8.84786 16.8773 8.83805 17.0651 8.69555 17.3531C8.55325 17.6347 8.23922 18.0586 8.20039 18.2107C8.16156 18.3628 8.09692 19.0747 8.01607 19.4113C7.94481 19.7479 8.09692 20.1623 8.09692 20.1623L8.28125 20.1233C8.28125 20.1233 8.28125 20.3628 8.46579 20.5247C8.6501 20.6833 8.68252 19.9873 8.68252 19.9873L9.37181 17.6606L10.4105 16.9551L10.5238 16.3854L9.7827 15.9453H9.78312Z" fill="#F5EEC0"/>
        <path fill-rule="evenodd" clip-rule="evenodd" d="M10.2881 17.0004C10.2881 17.0004 9.79932 17.0327 9.55996 17.2076C9.46289 17.2787 9.42407 17.3369 9.32061 17.4243C9.12967 17.5828 8.93533 17.7286 8.84168 17.9363C8.73799 18.1433 8.62472 18.4573 8.54707 19.0496C8.51464 19.2987 8.51464 19.5286 8.49203 19.7293C8.45961 20.0011 8.41117 20.2178 8.43699 20.3693C8.46942 20.6799 8.78983 20.8418 8.82098 21.1944L9.48444 20.8581L10.1091 18.3951L11.436 17.5631L10.6851 16.7217L10.2872 16.9989L10.2881 17.0004Z" fill="#E6DB9D"/>
        <path fill-rule="evenodd" clip-rule="evenodd" d="M6.78782 33.5848C6.79059 33.5604 6.79336 33.5362 6.79614 33.5112C6.89299 32.6792 6.90942 32.0485 6.98046 31.6537C7.08392 31.0939 7.15517 30.8857 7.13896 30.6762C7.11635 30.3398 7.09054 30.0938 7.12296 29.8348C7.17139 29.4918 7.50803 29.084 7.49843 28.8024C7.49182 28.5792 7.37854 28.4337 7.28147 28.2977C7.1844 28.1618 7.10675 28.0485 7.10675 28.0485C7.10675 28.0485 7.77022 27.5923 7.76382 25.7539C7.77736 25.7578 7.7904 25.7632 7.80265 25.7702L8.12947 26.6988L8.35284 26.9705L9.21044 28.5693L10.314 29.6407L11.9449 30.7377L12.9677 31.8505L13.0711 34.8183L11.7346 36.5529L11.5157 36.9493C9.77677 36.0763 8.18216 34.9414 6.7876 33.5845L6.78782 33.5848Z" fill="#E5CB7A"/>
        <path fill-rule="evenodd" clip-rule="evenodd" d="M10.8706 36.4229C10.8706 36.4229 10.8932 36.0541 11.1974 35.8144C11.2461 35.8953 11.2783 35.9732 11.2687 36.0312C11.3237 35.9343 11.7088 35.3129 12.5794 35.1511C13.4501 34.9926 13.6603 34.3583 13.6603 34.3583L15.5081 32.6787L17.6213 30.7337L20.1909 29.8307L21.3917 29.5361C21.3917 29.5361 21.4143 29.6236 21.3691 29.8177C21.5923 29.8017 22.0874 29.6884 22.6019 29.5071C22.8091 29.4262 23.0034 29.3938 23.1069 29.5007C23.2591 29.6429 23.2817 29.9796 23.2912 30.1802C23.5404 30.1251 23.8284 29.8857 24.0592 29.9083C24.4283 29.9472 24.7551 30.3809 25.1306 30.3809C25.6257 30.3809 25.8488 30.0767 26.1953 29.8371C26.4024 29.6948 26.7001 29.5171 26.8684 29.3969C27.2697 29.1024 31.5156 27.8047 31.5156 27.8047L33.0043 27.9017L33.2438 29.5004L33.1158 33.6797C33.1001 33.6948 33.0843 33.7106 33.0683 33.7257L26.2997 37.2609L16.9173 38.6992C14.8156 38.3558 12.7874 37.6582 10.9192 36.6361L10.8713 36.4227L10.8706 36.4229Z" fill="#D8C173"/>
        <path fill-rule="evenodd" clip-rule="evenodd" d="M7.35693 34.117C7.49026 33.8381 7.61016 33.605 7.63127 33.5215C7.64792 33.6896 7.67842 34.0585 7.73986 34.4506C7.61087 34.341 7.48322 34.2296 7.35693 34.1167V34.117Z" fill="#F1D789"/>
        <path fill-rule="evenodd" clip-rule="evenodd" d="M14.2105 38.0492L15.424 37.7117L15.5275 37.7441C15.5275 37.7441 15.5825 37.7766 15.5825 37.8865C15.7346 37.7992 15.8641 37.8152 15.958 37.7572C16.0064 37.8606 16.0549 38.2037 16.2686 38.2457C16.4917 38.2943 16.7312 38.1486 16.9741 37.9643C17.2134 37.7733 17.4861 37.5338 17.6924 37.4367C17.768 37.576 17.8351 37.7196 17.8931 37.8671C18.1649 37.6503 18.6374 36.7701 19.3105 36.7861C19.505 36.3263 19.83 35.9337 20.2454 35.6567C20.87 35.2328 21.2614 35.2003 21.7501 35.2392C21.9442 34.987 22.1835 34.7731 22.4556 34.6081C22.5365 34.6406 22.7599 34.7765 23.0382 34.647C23.3199 34.5177 23.6369 34.016 24.0544 33.9513C24.2794 33.9203 24.5081 33.9683 24.7016 34.0872C24.7016 34.0872 25.9176 32.88 26.7566 32.4786C26.7242 32.3816 26.6596 32.016 27.6432 31.2067C27.6984 31.2553 27.6595 31.3912 27.6984 31.3987C27.7144 31.3987 27.9544 31.2952 28.2581 31.0621C28.6336 30.7807 29.0832 30.4861 29.3551 30.4052C29.8671 30.2531 30.4102 30.5637 30.4102 30.5637C30.4564 30.5313 30.5079 30.5072 30.5624 30.4925C30.6916 30.4698 30.7855 30.4537 30.8567 30.4285C30.8504 30.5968 30.9442 30.8848 30.8567 31.134C30.958 31.191 31.0654 31.2366 31.1767 31.2698C31.1219 31.3896 31.002 31.6938 30.8015 31.8395C30.9696 31.9203 30.9922 32.0142 31.2317 32.0955C31.1347 32.2313 30.9757 32.4646 30.905 32.6075C30.8337 32.7596 30.5779 33.3906 30.4646 33.63C30.345 33.8696 30.1832 34.3097 30.1054 34.398C30.0275 34.4863 29.7461 34.8607 29.5294 35.0451C29.7214 34.9738 30.5069 34.7345 30.8401 34.6437C30.7409 34.7892 30.2381 35.5353 29.7546 36.2527C27.4401 37.64 24.8565 38.5181 22.1759 38.8285C19.4952 39.1387 16.7794 38.8742 14.209 38.0525L14.2105 38.0492Z" fill="#E0CD81"/>
        <path fill-rule="evenodd" clip-rule="evenodd" d="M10.3679 16.9123C10.3679 16.9123 10.0865 16.9123 10.0314 16.951C9.97639 16.9899 10.313 17.0709 10.4165 17.1098C10.52 17.1487 10.7433 17.3265 10.8016 17.469C10.8566 17.6049 12.8242 18.3977 12.8242 18.3977L14.2157 18.3264L14.6956 17.6635L13.783 16.8643L14.423 14.9775L13.5751 15.1134L11.5363 16.3294L10.5136 16.721L10.3679 16.9123Z" fill="#DFC57C"/>
        <path fill-rule="evenodd" clip-rule="evenodd" d="M13.4242 17.5365C13.4443 17.5691 13.4727 17.5958 13.5063 17.614C13.54 17.6321 13.5779 17.6411 13.6162 17.64C13.9042 17.64 14.1693 17.7113 14.2794 17.8568C14.4639 18.0899 14.9753 18.8343 14.9753 18.8343L16.1985 19.2744L16.2775 17.8339L14.9409 16.9053L13.4199 17.465V17.5363H13.4233L13.4242 17.5365Z" fill="#E5CC7C"/>
        <path fill-rule="evenodd" clip-rule="evenodd" d="M13.1842 18.0714C13.1842 18.0714 13.4073 18.0875 13.6889 17.9839C13.9705 17.8801 14.4333 17.657 14.634 17.7445C14.9154 17.8641 14.8572 18.2396 15.1615 18.5765C15.3459 18.7836 15.6825 18.7773 15.8734 19.0006C16.0644 19.224 16.7213 19.1203 16.7213 19.1203L16.9704 20.4643L15.9705 21.746L15.6435 23.3381H14.2914L13.0562 22.8481L12.4478 21.3761L12.7519 19.8874L13.1842 18.0714Z" fill="#D2C281"/>
        <path fill-rule="evenodd" clip-rule="evenodd" d="M15.7995 18.1353C15.833 18.1457 15.8679 18.151 15.903 18.1515C15.8642 18.1839 15.7832 18.2549 15.8155 18.4395C15.8479 18.624 15.9514 18.857 15.8642 18.9993C15.9338 19.0754 15.9858 19.166 16.0163 19.2647C16.0713 19.4234 16.0875 19.5689 16.4465 19.5917C16.3948 19.6235 16.347 19.6617 16.3043 19.7049C16.3043 19.7049 16.5534 19.9217 16.6798 20.1223C16.809 20.1167 17.152 20.01 17.152 20.01L17.2233 20.0587L17.3754 19.9947C17.3754 19.9947 17.2332 19.9397 17.3367 19.5934C17.4337 19.2892 17.5212 19.3054 17.5287 19.2828C17.536 19.2602 17.5999 18.9398 17.5999 18.8103C17.6483 18.6422 17.6872 18.1308 17.6872 18.1308L17.5837 17.0014L17.0013 16.6485L16.5277 16.1914L16.0809 17.0328L15.7868 17.3262L15.7642 18.0542L15.7995 18.1353Z" fill="#E2C270"/>
        <path fill-rule="evenodd" clip-rule="evenodd" d="M17.2007 17.1916C17.2007 17.1916 17.3042 17.4859 17.3432 17.7124C17.3569 17.6684 17.3646 17.6227 17.3658 17.5766C17.3658 17.5766 17.4467 18.0233 17.4627 18.2078C17.4951 18.2012 17.5267 18.1916 17.5339 18.2238C17.5412 18.2561 17.6149 18.6156 17.5979 18.8161C17.7327 18.5937 17.9192 18.4072 18.1414 18.2724C18.2709 18.1914 18.4231 18.1042 18.5818 18.0976C18.8309 18.0912 19.0121 18.2563 19.3099 18.2563C20.0282 18.2563 20.6788 17.7287 21.1578 17.5669C21.5104 17.4471 21.8147 17.3598 22.0282 17.1654C22.1319 17.0782 22.3164 16.8841 22.4846 16.5959C22.7079 16.2119 22.9408 15.8776 23.1741 15.8356C23.0686 15.8549 22.9612 15.8626 22.8541 15.8582C22.8541 15.8582 22.9253 15.7869 23.0461 15.6898C23.1668 15.5928 23.3114 15.4731 23.5183 15.4731C23.8874 15.4731 24.0717 15.5279 24.2788 15.5279C24.4861 15.5216 24.6057 15.4731 24.6057 15.4731C24.6057 15.4731 24.8227 15.6252 25.3112 15.6252C25.7999 15.6316 26.1268 15.6737 26.3826 15.6964C26.6383 15.7193 27.4957 15.6252 27.7417 15.6324C27.9021 15.6387 28.0596 15.6772 28.2047 15.7458L27.4117 13.4418L24.5632 10.9521L22.8674 12.1528L20.2588 14.7612L17.7347 15.6964L17.2071 16.2887V17.1916H17.2007Z" fill="#CCB360"/>
        <path fill-rule="evenodd" clip-rule="evenodd" d="M22.8642 15.8712C22.8642 15.8712 22.9355 15.8002 23.055 15.703C23.1743 15.606 23.3206 15.4862 23.5275 15.4862C23.8963 15.4862 24.0808 15.5412 24.288 15.5412C24.4952 15.5348 24.6148 15.4862 24.6148 15.4862C24.6148 15.4862 24.832 15.638 25.3203 15.638C25.8091 15.6444 26.136 15.6864 26.3917 15.709C26.6475 15.7317 27.5048 15.638 27.7508 15.645C27.9112 15.6512 28.0686 15.6897 28.2136 15.7583L27.8543 14.7194L27.4371 13.9267L26.246 12.6223C26.246 12.6223 24.8167 11.781 24.8057 11.7746C24.7993 11.7682 24.3106 11.6387 24.3106 11.6387L23.0161 12.4218L21.8415 15.4608L21.8188 16.1008L22.5792 16.46C22.7701 16.14 22.9807 15.884 23.178 15.8515C22.9998 15.871 22.864 15.871 22.864 15.871L22.8642 15.8712Z" fill="#D5B457"/>
        <path fill-rule="evenodd" clip-rule="evenodd" d="M22.8479 16.0876C22.7345 16.0941 22.6409 16.0714 22.6149 15.9906C22.5177 15.7188 22.4401 15.6799 22.3589 15.6799C22.2776 15.6799 22.1679 15.8547 22.1029 15.8707C22.0377 15.8867 21.9606 15.6702 21.9606 15.6702L21.8894 15.6377C21.8894 15.6377 21.4719 15.9094 21.1774 16.2299C20.883 16.5503 20.4006 17.0942 20.1839 17.1909C19.9672 17.2878 19.2226 17.3204 18.968 17.3756C18.7132 17.4306 18.4307 17.6151 18.392 17.6571C18.3531 17.6992 18.5054 17.7443 18.528 17.7864C18.5506 17.8252 18.2786 17.8091 18.256 17.8504C18.24 17.8828 18.32 18.0672 18.3597 18.1611C18.4291 18.1264 18.5054 18.1077 18.5829 18.1059C18.832 18.0996 19.0134 18.2647 19.311 18.2647C20.0295 18.2647 20.6799 17.7371 21.1589 17.5752C21.5117 17.4556 21.8159 17.3681 22.0295 17.1739C22.133 17.0867 22.3175 16.8923 22.4857 16.6043C22.6086 16.4069 22.7286 16.2224 22.8485 16.0866L22.8479 16.0876Z" fill="#D2B257"/>
        <path fill-rule="evenodd" clip-rule="evenodd" d="M12.5439 32.1036C12.5439 32.1036 12.4799 31.8641 11.8868 31.246C11.7185 31.0714 11.615 30.926 11.5017 30.8221C11.2201 30.5565 11.055 30.4855 10.8545 30.3334C10.4144 30.0065 9.93545 30.0065 9.5666 29.6052C9.19775 29.204 8.76787 28.4372 8.46921 27.6536C8.17481 26.8705 8.09375 26.6214 8.09375 26.5987C8.09375 26.5761 8.17481 26.424 8.27827 26.4466C8.38175 26.4692 8.38175 26.6697 8.40777 26.7184C8.45932 26.7977 8.51779 26.8725 8.5825 26.9416C8.7346 27.1165 8.95135 27.3256 9.06142 27.6375C9.03881 27.3721 8.94815 27.0776 8.94815 27.0776C8.94815 27.0776 9.51775 27.4369 10.0031 27.8122C10.4918 28.1876 10.6924 28.3171 10.8351 28.5565C10.9778 28.7959 11.314 29.4271 11.4751 29.6116C11.6361 29.7962 13.8431 30.4919 13.8431 30.4919L14.8929 31.2746L15.4141 32.417L15.0061 33.057L14.223 33.2254L12.9511 32.6557L12.5439 32.1034V32.1036Z" fill="#D2B159"/>
        <path fill-rule="evenodd" clip-rule="evenodd" d="M9.71826 28.1678C9.71826 28.1678 9.98365 28.5917 10.6309 28.9929C11.2135 29.3458 12.1357 29.6663 12.958 29.8572C13.4302 29.9704 13.9027 30.0577 14.3267 30.0643C15.4691 30.0803 16.2555 29.7537 17.2297 29.6468C17.7574 29.5918 18.4046 29.5498 19.0776 29.3908C19.9416 29.1837 20.453 28.9506 21.1489 28.6228C21.6536 28.3899 22.1166 28.2152 22.4919 27.9918C23.0194 27.6812 23.4045 27.3349 23.8511 27.2314C23.7961 27.3836 23.7379 27.6554 23.2977 27.9369C23.5307 27.9303 23.8511 27.9143 23.8511 27.9143C23.8511 27.9143 23.5406 28.0987 22.9936 28.5129C22.657 28.7689 22.2104 29.2023 21.7541 29.4903C21.4595 29.6748 21.1391 29.8103 20.9287 29.9208C20.4167 30.2023 20.2102 30.3447 19.8737 30.6888C19.9935 30.6823 20.0032 30.6888 20.0032 30.6888C20.0032 30.6888 19.5791 30.7438 19.2751 30.9056C19.2111 30.9056 19.1002 30.8829 18.9061 30.9379C18.754 30.9863 18.5532 31.0967 18.3464 31.1547C18.0517 31.2422 17.9549 31.2033 17.9549 31.2033L18.0032 31.3004C18.0032 31.3004 17.6192 31.2938 17.4912 31.3068C17.5139 31.3132 17.5075 31.3231 17.5075 31.3231C17.485 31.3268 17.4634 31.3344 17.4435 31.3457C17.3819 31.3856 17.3141 31.4151 17.243 31.4329C17.2041 31.4393 17.1717 31.4393 17.1231 31.4491C17.1392 31.4879 17.2656 31.7051 17.3239 31.8331C17.2754 31.8656 16.5471 32.4157 16.5471 32.4157C16.5696 32.4513 16.5881 32.4893 16.6021 32.5289C16.6247 32.6001 16.6345 32.7037 16.6571 32.7522C16.712 32.8492 16.7444 32.8654 16.7444 32.8654C16.7444 32.8654 16.6571 32.8817 16.5049 32.9204C16.3755 32.9529 16.2169 33.0077 15.9929 33.0402C15.9241 33.0491 15.855 33.0544 15.7857 33.0563C15.8181 33.1276 15.9604 33.3994 15.6982 33.7132C15.436 34.0271 15.3551 34.0727 15.2744 34.2732C15.2336 34.2424 15.1902 34.2153 15.1449 34.1922C15.0576 34.1533 14.9376 34.0953 14.8956 34.0174C14.8711 34.1212 14.8387 34.2228 14.7986 34.3217C14.7177 34.5383 14.598 34.7522 14.5755 34.9138C14.488 34.8168 14.3262 34.6258 14.1029 34.6647C13.8795 34.7034 13.7016 35.0077 13.6627 35.0952C13.6627 35.0402 13.624 34.9981 13.6144 35.0627C13.6077 35.1339 13.4849 35.8781 12.7987 36.4802C12.7924 36.3281 12.7924 35.9914 12.7762 35.8816C12.7122 35.9456 12.6339 36.0401 12.1677 36.2408C11.7114 36.4413 11.7837 36.6421 11.7837 36.6421C11.7837 36.6421 11.7449 36.3221 11.9909 35.9849C12.2401 35.6486 12.3922 35.4898 12.3922 35.4641C12.3882 35.4377 12.3769 35.4131 12.3597 35.3928C12.3273 35.3603 12.2627 35.3216 12.2627 35.2957C12.3015 35.2797 12.6866 35.0952 12.664 34.7131C12.6414 34.3703 12.4959 34.1922 12.3922 34.0661C12.3762 34.0498 12.5445 33.9302 12.5217 33.8913C12.5055 33.8687 12.2985 33.7164 12.2725 33.6353C12.2786 33.5869 12.2895 33.5393 12.3049 33.4931C12.3275 33.4218 12.3437 33.3732 12.3373 33.3247C12.3211 33.2438 12.2337 33.0206 12.2079 32.9979C12.2305 33.0043 12.3922 32.9979 12.3922 32.9979C12.3922 32.9979 12.2629 32.7907 12.2401 32.6937C12.2172 32.5966 12.1688 32.3408 12.143 32.2924C12.198 32.2988 12.3339 32.3084 12.3339 32.2924C12.3405 32.2438 12.2143 32.1629 12.2699 32.1004C12.3088 32.1068 12.3832 32.1392 12.4543 32.2299C12.4154 32.1262 12.3508 31.9257 12.2147 31.8448C12.2787 31.8222 12.4963 31.7638 12.6872 31.8771C12.8781 31.9903 12.9432 32.1488 12.9432 32.1488C12.9432 32.1488 13.0565 32.2363 13.2315 32.3658C13.432 32.5243 13.6875 32.7498 14.0955 32.9093C14.1829 32.9581 14.406 32.9581 14.568 32.9256C14.6385 32.9088 14.7061 32.8816 14.7685 32.8447C14.791 32.8314 14.815 32.8206 14.8397 32.8123C14.805 32.7424 14.765 32.6753 14.7201 32.6116C14.7751 32.6116 14.8397 32.6182 14.8397 32.6182C14.8397 32.6182 14.8786 32.5307 14.7039 32.3622C14.7427 32.3233 14.7914 32.2982 14.7914 32.2327C14.7362 32.2263 14.6392 32.1454 14.6166 32.1129C14.6489 32.0903 14.6975 32.0159 14.7525 31.9933C14.7039 31.9544 14.5842 31.7926 14.5291 31.7766C14.5817 31.7571 14.6326 31.7332 14.6812 31.7053C14.6812 31.7053 14.4095 31.6341 14.322 31.5758C14.2345 31.5118 14.1052 31.4011 14.0276 31.3687C13.9465 31.3362 13.8042 31.3202 13.746 31.2554C13.8009 31.2716 13.8882 31.2554 13.9531 31.2554C14.0016 31.2554 14.0244 31.2618 14.0404 31.2618C14.034 31.2392 14.034 31.1906 14.1602 31.1746C14.221 31.1654 14.28 31.1468 14.335 31.1194C14.335 31.1194 14.2151 31.1131 14.079 30.9836C13.9429 30.8541 13.8299 30.7507 13.7522 30.7344C13.6714 30.7182 13.5192 30.7894 13.4254 30.7828C13.2959 30.7668 13.2409 30.7021 13.2409 30.7021C13.2409 30.7021 12.8105 30.7408 11.8559 30.1584C11.0305 29.6534 10.6712 29.2069 10.6712 29.2069C10.594 29.1789 10.5193 29.1442 10.4481 29.1033C10.1375 28.9416 9.70695 28.6049 9.71996 28.1646L9.71826 28.1678Z" fill="#C2A44D"/>
        <path fill-rule="evenodd" clip-rule="evenodd" d="M21.6243 8.74388C21.699 8.76821 21.7657 8.81307 21.8163 8.87337C21.9683 9.0481 22.0654 9.37812 21.7192 9.73097C21.855 9.7794 21.9112 9.79497 22.0298 9.7794C21.91 9.92191 21.6383 10.2261 21.622 10.4915C21.6059 10.7083 21.7418 10.7731 21.7418 10.7731C21.7418 10.7731 21.5347 11.0125 21.525 11.4131C21.6229 11.3028 21.7299 11.201 21.845 11.1089C22.0847 10.918 22.4147 10.7012 22.638 10.5653C22.6349 10.6223 22.6427 10.6793 22.6607 10.7334C22.6607 10.7334 23.0779 10.3904 23.4287 10.5427C23.5872 10.614 23.5159 10.8371 23.5159 10.8371C23.5159 10.8371 23.7328 10.7563 23.8849 10.9084C24.037 11.0605 24.252 11.4528 24.3624 11.6049C24.4108 11.6761 24.5372 11.812 24.6664 12.0224C24.843 12.3169 24.9905 12.6279 25.1067 12.951C25.1132 12.7828 25.1552 12.5208 25.6343 12.6856C26.1133 12.854 26.6568 13.2068 27.1132 13.9016C27.5694 14.5965 27.6825 15.3809 27.9123 15.6795C28.1453 15.9675 28.3848 16.4465 28.401 16.6473C28.4173 16.848 28.3298 17.495 28.8087 19.2459C28.9447 18.7023 29.1518 17.495 29.1518 17.495L29.265 16.4303L29.3945 13.1358L25.9543 10.2777L23.265 8.32617L21.5142 8.4945L21.624 8.74367L21.6243 8.74388Z" fill="#CAA13E"/>
        <path fill-rule="evenodd" clip-rule="evenodd" d="M28.0164 13.6475C28.0164 13.6475 27.9678 13.3275 27.1588 12.7836C26.3496 12.2464 25.7185 12.2464 25.1361 11.7901C24.6894 11.4309 24.2235 10.6055 23.9201 10.3337C23.6255 10.0651 23.5771 9.28835 23.5771 9.28835L24.5706 8.45635L26.0481 6.32067L27.2973 4.94531L27.8958 5.77731L28.7278 6.75459L29.1905 8.71576L29.3589 11.5864L28.0149 13.6478L28.0164 13.6475Z" fill="#B59544"/>
        <path fill-rule="evenodd" clip-rule="evenodd" d="M29.0163 17.0887C29.0408 16.6534 28.9871 16.2172 28.8577 15.8009C28.6443 15.1374 28.1782 13.9594 27.9617 13.5182C27.8742 13.0295 27.9391 12.9906 28.0329 12.9356C28.1267 12.8805 28.4796 12.6796 28.6729 11.9745C28.8662 11.2694 29.4658 11.2464 29.4658 11.2464L29.8347 10.9746L30.3947 12.3758L30.8832 13.6412L31.0353 14.609L31.1487 15.4341L30.8832 17.1786L29.5727 18.363L29.0162 17.0887H29.0163Z" fill="#C89D3A"/>
        <path fill-rule="evenodd" clip-rule="evenodd" d="M10.7285 36.5313V36.4954C10.7558 36.4784 10.7798 36.4567 10.7996 36.4314C10.8222 36.3989 10.8386 36.3602 10.8546 36.3505C10.887 36.3343 11.0391 36.2865 11.12 36.3019C11.2008 36.3173 11.4146 36.4054 11.5279 36.3989C11.7608 36.3925 12.0326 36.2144 12.4631 36.2955C13.1104 36.4152 13.2625 36.8553 13.638 37.1045C13.894 37.2794 14.1589 37.2015 14.1978 37.2015H14.285C14.3013 37.2015 14.4209 37.0657 14.4858 37.0723C14.6153 37.0787 14.628 37.1855 14.7089 37.1919C14.8998 37.2145 15.2689 37.0949 15.4534 37.1435C15.5081 37.1607 15.5579 37.1908 15.5985 37.2313C15.639 37.2718 15.6691 37.3216 15.6864 37.3763C15.7253 37.4959 15.6928 37.648 15.5989 37.7355C15.3984 37.9198 15.2074 38.0948 15.1686 38.2475C15.218 38.2852 15.2654 38.3253 15.3108 38.3679C13.7095 37.9599 12.1689 37.343 10.7285 36.5332V36.5313Z" fill="#CEB052"/>
        <path fill-rule="evenodd" clip-rule="evenodd" d="M27.9609 30.0646C27.9609 30.0646 28.4657 29.3915 28.6406 29.0581C28.8153 28.7144 28.0872 24.3624 28.0872 24.3624L29.5501 19.5696L29.5109 18.0098C29.5109 18.0098 29.5822 16.5695 29.7506 15.9449C29.9513 16.3041 30.5759 16.7379 30.7118 16.9676C30.7758 16.5274 30.9933 15.5986 30.9611 14.6084C31.0807 14.7928 31.3687 16.6473 31.3687 16.6473L31.6567 17.8963L32.0322 19.2233L32.4497 20.6246L32.6989 21.5923L32.8412 21.8253L32.9611 22.2329L33.0743 22.6733L33.4012 23.7055L33.5932 24.5534L33.7453 26.0906C33.7784 26.2084 33.8022 26.3285 33.8166 26.4499C33.8229 26.6183 33.7939 26.7153 33.7939 26.7445C33.7939 26.7738 33.8489 27.1134 33.8264 27.3691C33.7939 27.6251 33.7939 27.8255 33.5932 28.0091C33.3924 28.1929 33.2663 29.2906 33.2663 29.2906L32.9071 29.0513C32.9071 29.0513 32.9783 28.7243 32.8101 28.4266C32.6417 28.129 32.3149 28.0674 32.1303 28.116C31.9461 28.1549 31.5772 28.2129 31.4573 28.3165C31.3439 28.42 31.0658 28.7405 30.8101 28.8861C30.4899 29.0781 29.9686 29.0933 29.6904 29.1579C29.4088 29.2219 29.0982 29.4139 28.7712 29.6369C28.5147 29.8029 28.2439 29.9456 27.9622 30.0635L27.9609 30.0646Z" fill="#CCA847"/>
        <path fill-rule="evenodd" clip-rule="evenodd" d="M27.9614 37.1361C27.9614 37.1361 27.9827 37.15 28.0239 37.1726C30.3231 36.0953 32.3832 34.5683 34.0826 32.6818C34.0639 32.027 34.0399 31.3556 34.0134 31.1068C33.9585 30.5792 33.9974 30.0421 33.9812 29.7315C33.965 29.4208 33.7903 28.1553 33.7094 27.8286C33.6219 27.5017 33.4534 27.3398 33.4278 27.3398C33.4052 27.3465 33.2691 27.9548 33.2691 28.1078C33.2691 28.2607 33.2367 28.629 33.2367 28.7228C33.214 28.7162 33.2044 28.6588 33.2044 28.6353C33.1721 28.7162 33.1332 28.8587 33.1171 28.875C33.1008 28.8912 33.1396 28.7391 33.1171 28.7066C33.0944 28.6742 33.0531 28.6905 33.0619 28.6096C33.0658 28.5616 33.0733 28.5141 33.0846 28.4672C33.0846 28.4672 32.9876 28.6096 32.9164 28.972C32.8452 29.3312 32.8452 29.3411 32.8194 29.3733C32.7968 29.4123 32.6673 29.5416 32.6607 29.5902C32.6543 29.6775 32.7806 29.765 32.7902 29.8133C32.7966 29.8945 32.6769 30.2697 32.6381 30.4533C32.5992 30.6371 32.6154 30.997 32.574 31.1815C32.5417 31.3498 32.5101 31.4468 32.3993 31.518C32.4802 31.5341 32.5578 31.5567 32.5578 31.5567C32.5578 31.5567 32.6712 32.0357 32.3832 32.4436C32.2797 32.5858 32.2538 32.6507 32.1438 32.7802C31.9268 33.0196 31.7586 33.2922 31.7423 33.4695C31.7311 33.4172 31.7236 33.3642 31.7197 33.3108C31.7197 33.3108 31.3832 33.7025 31.2407 33.9258C31.0564 34.2138 30.8007 34.1976 30.7287 34.2688C30.6568 34.3401 30.6413 34.4693 30.6647 34.5731C30.6007 34.5891 30.4804 34.612 30.3993 34.8611C30.3606 34.9903 30.2634 35.1171 30.1113 35.2041C29.9592 35.2912 29.7747 35.3175 29.6808 35.34C29.7617 35.3626 29.7942 35.3626 29.8329 35.3885C29.7846 35.4693 29.5612 35.5956 29.3119 35.7575C29.0628 35.9096 28.9429 36.1327 28.8814 36.2785C28.8174 36.4143 28.7229 36.5018 28.5709 36.5181C28.6349 36.5568 28.7296 36.6473 28.7781 36.6766C28.7068 36.6927 28.5861 36.6927 28.3703 36.8773C28.1438 37.0651 28.0662 37.1201 27.9624 37.1363L27.9614 37.1361Z" fill="#C39D3C"/>
        <path fill-rule="evenodd" clip-rule="evenodd" d="M23.4582 38.6356C23.582 38.5487 23.7163 38.4776 23.8577 38.4237C24.3624 38.2232 24.8964 38.1843 25.1068 38.1197C25.3075 38.0557 25.466 37.9673 25.7152 37.9189C25.7085 37.9757 25.703 38.0291 25.697 38.0793C24.9624 38.3103 24.2144 38.4961 23.457 38.6356H23.4582Z" fill="#D2BA6B"/>
        <path fill-rule="evenodd" clip-rule="evenodd" d="M32.7679 25.3594C32.7679 25.3594 32.6644 25.9191 32.4799 26.272C32.2954 26.6249 32.0959 27.1134 32.0959 27.1134C32.0972 27.0032 32.1102 26.8936 32.1348 26.7864C31.9018 26.9222 31.3354 27.2492 31.1748 27.3947C31.0227 27.5306 30.7669 27.7702 30.7023 27.8835C30.8543 27.437 31.0128 27.0357 31.0389 26.8512C30.8059 27.0195 29.7183 27.9159 29.1522 28.5081L27.3883 29.9354C27.1848 30.0451 26.9752 30.1432 26.7604 30.2292C26.4564 30.3586 26.0972 30.4686 25.8318 30.5724C25.903 30.3814 26.0162 30.2129 26.1749 30.0511C26.3432 29.8926 26.8479 29.3457 26.9255 29.0911C26.9968 28.8257 27.013 28.6672 26.9192 28.4439C26.8317 28.4665 26.6312 28.4764 26.4953 28.5152C26.3594 28.554 26.2137 28.6995 26.2137 28.6995C26.2137 28.6995 26.3172 28.1072 26.5405 27.5475C26.3722 27.5539 26.0842 27.6024 26.0842 27.6024C26.0842 27.6024 26.4855 26.9292 27.1722 26.4601C26.9619 26.5049 26.7562 26.5687 26.5574 26.6509C26.156 26.8192 25.716 27.0684 25.3892 27.2042C25.5735 26.9482 26.868 25.1007 27.6383 23.379C28.4063 21.6606 28.6933 21.2205 28.8615 20.2982C28.9488 19.842 28.9255 19.1676 28.9488 18.5636C28.9714 17.9649 29.0459 17.4276 28.9975 17.0684C29.198 17.3176 29.9489 18.0199 29.9748 19.5896C29.9974 21.1591 29.2564 23.279 28.4699 24.4211C28.6619 24.4761 29.1594 24.541 29.6705 23.6531C30.1817 22.7652 30.1755 22.5174 30.36 22.1482C30.3827 22.3329 30.376 22.3975 30.376 22.3975C30.376 22.3975 31.1205 21.4946 31.4732 20.3586C31.5444 20.8474 31.7548 21.2779 31.4245 22.1744C31.1302 22.9832 30.7452 23.1809 30.7452 23.1809C30.7452 23.1809 30.936 23.1484 31.2174 22.9801C31.266 23.0997 31.2564 23.2361 31.3373 23.2842C31.4182 23.3325 31.5283 23.4137 31.5444 23.4914C31.6317 23.362 31.7677 23.1969 31.8099 23.074C31.7774 23.3299 31.7548 24.4492 31.8739 25.0189C32.1233 24.9962 32.3788 24.98 32.5535 24.5301C32.4339 24.9705 32.4339 25.2356 32.5147 25.6111C32.6474 25.5206 32.767 25.3587 32.767 25.3587L32.7679 25.3594Z" fill="#C0993A"/>
        <path fill-rule="evenodd" clip-rule="evenodd" d="M24.3591 7.52125C24.3591 7.52125 24.1098 7.62471 23.686 7.62471C23.3171 7.62471 23.4206 7.48242 22.8446 7.48242C21.958 7.48242 18.8608 7.99442 18.3171 7.98717C17.9642 7.98077 19.5078 8.13927 19.5078 8.13927L23.4531 8.19431L24.2458 8.13031L24.5403 7.53085L24.3591 7.52125Z" fill="#A88F33"/>
        <path fill-rule="evenodd" clip-rule="evenodd" d="M14.1294 15.233C14.1294 15.233 13.6244 15.618 13.4109 15.9126C13.1974 16.2073 13.0842 16.4013 12.8413 16.6408C12.8983 16.6429 12.9553 16.6353 13.0097 16.6181C13.0097 16.6181 13.0097 16.6821 12.9708 16.699C13.0044 16.6953 13.0383 16.699 13.0703 16.7101C13.1022 16.7213 13.1312 16.7393 13.1552 16.763C13.0839 16.8019 12.8898 16.9961 13.0419 17.2259C13.1552 17.4006 13.3947 17.4166 13.3947 17.4166C13.3947 17.4166 13.3397 17.5754 13.5694 17.5591C14.0646 17.5365 14.6179 17.3196 14.8736 17.3746C15.1296 17.4386 15.2751 17.4621 15.4562 17.7761C15.6482 18.0868 15.8154 18.1354 15.8154 18.1354C15.8154 18.1354 15.9287 17.8471 15.9029 17.4169C15.9958 17.1849 16.0473 16.9385 16.0551 16.6888L15.8867 15.4493L15.1522 14.5205L14.2007 15.048L14.1294 15.2324V15.233Z" fill="#E3C571"/>
        <path fill-rule="evenodd" clip-rule="evenodd" d="M15.0322 15.0483C15.0322 15.0483 15.1035 15.2167 15.4012 15.2327C15.3689 15.3039 15.3689 15.3137 15.3786 15.3686C15.3851 15.4236 15.3946 15.5044 15.3946 15.5044C15.4275 15.4886 15.4571 15.4669 15.4821 15.4404C15.4984 15.5117 15.4659 15.6247 15.4821 15.7058C15.4921 15.7551 15.5084 15.8029 15.5306 15.8481C15.5352 15.8371 15.5407 15.8263 15.5467 15.8159C15.5531 15.7997 15.6107 15.9906 15.7701 16.1359C15.77 16.1136 15.7755 16.0916 15.7861 16.0719C15.7886 16.1124 15.802 16.1517 15.825 16.1852C15.813 16.1794 15.8021 16.1718 15.7927 16.1626C15.7927 16.1626 15.8087 16.6746 15.8962 16.9393C15.9109 16.9222 15.9239 16.9038 15.935 16.8843C15.935 16.8683 15.9286 17.0268 15.9124 17.1403C15.8899 17.2536 15.906 17.4121 15.906 17.4121C15.9644 17.3661 16.0285 17.3281 16.0967 17.2988C16.1939 17.2597 16.3527 17.1401 16.4496 16.8747C16.5057 16.7243 16.5491 16.5696 16.5791 16.4119C16.6104 16.4722 16.632 16.5369 16.6431 16.6039C16.6497 16.6848 16.8019 16.6428 16.8019 16.6428L16.8342 16.2899L17.0262 15.4906L17.201 14.9954L18.0424 13.6849L19.5626 12.5142L20.8895 12.8183L22.0091 11.2973L20.0804 10.1387L18.255 10.3296L16.5985 12.6241L15.2717 14.7051L15.0322 15.0481V15.0483Z" fill="#D8B65B"/>
        <path fill-rule="evenodd" clip-rule="evenodd" d="M24.5925 11.7288C24.5925 11.7288 24.4791 11.7514 24.1524 11.9208C23.8255 12.0902 23.599 12.144 23.4726 12.3931C23.3464 12.6423 23.3368 12.8399 23.3368 12.8399C23.3368 12.8399 23.5601 12.7428 23.6896 12.7104C23.8255 12.6782 23.9776 12.6878 23.9614 12.7428C23.9459 12.7806 23.9243 12.8154 23.8974 12.8463C23.8974 12.8463 24.1534 12.8398 24.1466 12.9662C24.1398 13.0924 24.0981 13.2316 24.0498 13.2929C24.0011 13.3569 23.8005 13.4517 23.778 13.5262C23.7229 13.6783 23.8005 13.6847 23.7714 13.8076C23.7488 13.9274 23.642 14.1604 23.2924 14.5681C22.9331 14.9759 22.7804 15.2639 22.7804 15.2639C22.7804 15.2639 22.6056 14.9372 22.515 14.6556C22.451 14.6878 22.1074 14.8787 22.1074 14.8787L21.3111 12.1054L21.3271 11.9208C21.3271 11.9208 21.3984 11.8336 21.4146 11.6716C21.295 11.6328 21.2788 11.6004 21.12 11.4485C20.9614 11.2966 20.832 11.1119 20.5669 10.9856C20.528 10.9143 20.4794 10.8175 20.2853 10.7784C20.0911 10.7394 19.9746 10.7074 19.9746 10.7074C19.9746 10.7074 20.0781 10.6683 20.1268 10.5875C20.0069 10.6037 19.91 10.6425 19.6479 10.6361C19.3825 10.6295 19.3533 10.6199 19.2078 10.6425C19.0623 10.6651 18.8878 10.73 18.8226 10.5066C18.7514 10.4516 18.5993 10.5002 18.4698 10.6909C18.3404 10.8817 18.2951 11.034 18.0459 11.1084C18.0284 11.2183 17.99 11.3237 17.9326 11.4191C17.8614 11.539 17.7481 11.6586 17.596 11.8366C17.3564 12.1182 17.3953 12.5809 17.0134 12.9337C16.6284 13.2864 17.0774 11.9562 17.0774 11.9562L17.6923 10.4842L19.443 8.77222L22.1615 8.58789L22.4269 9.9959L23.7539 10.4522L24.592 11.7305L24.5925 11.7288Z" fill="#D3AE4D"/>
        <path fill-rule="evenodd" clip-rule="evenodd" d="M25.0229 12.0391L23.8805 10.392L23.0812 9.77699C23.0812 9.77699 22.5115 8.72867 22.4727 8.69625C22.4403 8.67364 21.9032 8.61539 21.56 8.59277L21.624 8.75129C21.6989 8.7756 21.7655 8.82047 21.816 8.88077C21.9682 9.0555 22.0653 9.38552 21.719 9.73837C21.8549 9.7868 21.911 9.80236 22.0297 9.7868C21.9099 9.9293 21.6382 10.2335 21.6219 10.4989C21.6058 10.7156 21.7417 10.7803 21.7417 10.7803C21.7417 10.7803 21.5345 11.0198 21.5249 11.4203C21.6227 11.31 21.7298 11.2082 21.8449 11.1161C22.0844 10.9241 22.4145 10.7082 22.6378 10.5723C22.6348 10.6293 22.6424 10.6864 22.6604 10.7406C22.6604 10.7406 23.0777 10.3976 23.4284 10.5497C23.5869 10.6209 23.5157 10.8443 23.5157 10.8443C23.5157 10.8443 23.7327 10.7634 23.8848 10.9155C24.0368 11.0676 24.2535 11.4591 24.3637 11.6114C24.412 11.6827 24.5384 11.8186 24.6676 12.0287C24.8443 12.3232 24.9918 12.6344 25.108 12.9575C25.1144 12.828 25.1404 12.6469 25.3639 12.6469L25.0242 12.0385L25.0229 12.0391Z" fill="#CAA13E"/>
        <path fill-rule="evenodd" clip-rule="evenodd" d="M7.89677 16.718C7.89677 16.718 7.81592 16.5174 7.89677 16.1259C7.97762 15.7344 8.10392 15.5499 8.14595 14.9739C8.18797 14.3979 8.56345 13.6794 8.56345 13.6794L9.60217 13.207L10.3369 13.4075L10.5537 14.3915L9.62479 14.9035C9.62479 14.9035 9.57636 15.1203 9.31417 15.2949C9.05199 15.4697 8.68952 15.6055 8.60227 15.7837C8.55011 15.8928 8.51205 16.008 8.489 16.1268C8.489 16.1268 8.2236 16.0717 8.0651 16.2464C7.89677 16.4245 7.90317 16.583 7.89677 16.7189V16.718Z" fill="#F4EFC8"/>
        <path fill-rule="evenodd" clip-rule="evenodd" d="M9.99368 16.4557C9.99368 16.4557 9.90622 16.5108 9.84158 16.6477C9.77758 16.5443 9.62462 15.9292 9.61822 15.3758C9.61182 14.8224 9.57876 14.6853 9.70676 14.4946C9.83476 14.3038 10.3367 14.1029 10.2655 13.7594C10.1942 13.4326 9.89641 13.2967 9.53076 13.3906C9.27476 13.4546 9.08424 13.9991 8.81886 14.2708C8.61812 14.4779 8.37876 14.4456 8.31412 14.5588C8.22664 14.7109 8.30749 14.8631 8.28168 14.9601C8.27507 14.9924 8.19422 15.1672 8.04852 15.3776C7.75412 15.8014 7.25577 16.4003 7.19092 16.9374C7.21353 16.6332 7.19753 16.6268 7.27838 16.2902L7.22974 16.2093L7.54974 15.1608L7.75688 14.2968L8.21982 12.8501L9.03518 11.3712L9.82814 10.4844L10.6533 10.5394L10.7504 11.7789L11.2229 14.1059L12.2164 15.3292L10.6241 16.4007L9.99304 16.4557H9.99368Z" fill="#EBCC73"/>
        <path fill-rule="evenodd" clip-rule="evenodd" d="M10.489 16.8956C10.489 16.8956 10.3532 16.928 10.3045 16.9023C10.2559 16.8764 10.2077 16.8471 10.2237 16.8148C10.2397 16.7824 10.3271 16.7275 10.3271 16.7015C10.3289 16.678 10.3215 16.6546 10.3064 16.6365C10.2913 16.6184 10.2697 16.6069 10.2463 16.6044C10.1718 16.5948 10.1492 16.6433 10.1492 16.6433C10.1492 16.6433 10.078 16.5884 10.0199 16.5793C10.0543 16.575 10.0888 16.5728 10.1234 16.5726C10.034 16.5321 9.9391 16.5049 9.8418 16.4918C9.92265 16.4434 10.0814 16.3009 10.1848 16.3009C10.2883 16.3009 10.3532 16.2849 10.3369 16.2298C10.3207 16.1748 10.2399 16.0939 10.1526 16.0615C10.1848 16.0226 10.2077 15.9644 10.13 15.8055C10.0489 15.647 10.0814 15.54 10.1074 15.5015C10.13 15.4528 10.2109 15.3655 10.2497 15.3105C10.2885 15.2555 10.3209 15.181 10.3856 15.1421C10.418 15.1196 10.5215 15.0781 10.6252 15.0388C10.7384 14.9999 10.8323 14.9513 10.8969 14.9999C10.9682 15.0484 10.9358 15.1131 10.9358 15.1131C10.9358 15.1131 11.1591 15.0321 11.3597 15.1358C11.5604 15.2326 12.0492 15.2943 12.0492 15.2943L12.2243 15.6471L11.0657 16.6406L10.5868 16.8803L10.4897 16.8963L10.489 16.8956Z" fill="#E5C66B"/>
        <path fill-rule="evenodd" clip-rule="evenodd" d="M12.0973 15.2723C12.0973 15.2723 11.738 15.5118 11.6571 15.5991C11.7056 15.6057 11.7864 15.6382 11.754 15.6866C11.7152 15.7351 11.4822 15.9033 11.3527 16.0621C11.2168 16.2206 11.0873 16.4213 11.0421 16.5183C10.9937 16.6056 10.6246 16.8615 10.4985 16.8936C10.7639 16.8936 11.2979 16.5668 11.4984 16.5668C11.492 16.6638 11.5535 16.774 11.6667 16.7836C11.78 16.7932 12.1069 16.8548 12.5469 16.5831C12.9871 16.3176 12.8416 16.1201 13.0259 15.9908C13.3788 15.7576 13.5211 15.5505 13.7152 15.4212C13.9093 15.292 14.0098 15.2625 14.0098 15.2625C14.0098 15.2625 14.0162 15.1655 14.0738 15.1752C14.0896 15.1771 14.1046 15.1831 14.1171 15.1928C14.1297 15.2026 14.1393 15.2155 14.1451 15.2303C14.1451 15.2303 14.4817 14.9907 14.9131 14.9261C14.9029 14.9216 14.8949 14.9135 14.8904 14.9035C14.8904 14.9035 14.9227 14.8872 14.9293 14.8711C14.9293 14.8711 14.9518 14.8386 14.9681 14.8548C14.9843 14.8711 15.0069 14.9907 15.0393 15.0393C15.1106 15.007 15.2464 14.7027 15.2464 14.7027L15.5736 13.7675V12.9131L15.3176 12.9617L13.3976 13.7771L12.2323 14.9843L12.0964 15.2723H12.0973Z" fill="#E6BD62"/>
        <path fill-rule="evenodd" clip-rule="evenodd" d="M17.6244 11.081C17.7282 11.0558 17.8279 11.0154 17.9199 10.9611C17.881 11.0648 17.881 11.1781 17.7127 11.4241C17.5444 11.67 17.538 11.7057 17.4021 11.9612C17.2662 12.2266 17.25 12.6086 17.1205 12.7766C17.1785 12.7484 17.2407 12.7299 17.3049 12.7218C17.3049 12.7218 17.1755 12.8351 17.1205 12.9548C17.0655 13.0744 16.9684 13.3236 16.729 13.4759C16.4896 13.6283 16.1852 13.7251 15.8584 14.0843C15.5314 14.4371 15.195 14.8837 15.0264 15.0443C15.1139 14.8923 15.2336 14.5881 15.266 14.3876C15.2984 14.1869 15.2594 13.9472 15.3144 13.6821C15.3695 13.4168 15.3695 13.2257 15.6344 12.7628C15.8994 12.2998 16.3529 10.6915 16.3529 10.6915L17.3302 10.3809L17.6249 11.08L17.6244 11.081Z" fill="#B6933F"/>
        <path fill-rule="evenodd" clip-rule="evenodd" d="M16.9193 10.4887C16.9193 10.4887 16.6248 10.9126 16.5441 11.288C16.4632 11.6635 16.5374 11.6311 16.4889 11.8156C16.4601 11.9281 16.4601 12.0461 16.4889 12.1587C16.5909 11.9944 16.7306 11.8568 16.8962 11.7572C17.1746 11.5891 17.4012 11.4692 17.5362 11.3269C17.6721 11.1748 17.7854 10.9256 18.0798 10.7347C17.9601 10.7184 17.7918 10.6634 17.7598 10.6707C17.8797 10.5348 18.2387 10.3276 18.6012 10.0784C18.9604 9.82244 18.9378 9.71919 19.5204 9.46362C19.3294 9.49604 19.2388 9.4474 19.0801 9.46362C19.1441 9.32772 19.3681 9.26287 19.5921 9.03972C19.8161 8.81657 19.4498 8.48633 19.4498 8.48633L17.7432 9.51865L16.9179 10.4895L16.9193 10.4887Z" fill="#C49937"/>
        <path fill-rule="evenodd" clip-rule="evenodd" d="M12.2881 9.71859L12.3269 9.40797L12.8156 8.62482L13.327 7.24946V5.36915L13.2882 4.28178L13.3691 3.56967L13.4305 3.34333L13.4954 3.25586L13.9126 3.47261L14.4889 4.25576L14.5439 5.76722L13.9839 8.15228L12.3852 9.89671L12.2881 9.71859Z" fill="#DFC068"/>
        <path fill-rule="evenodd" clip-rule="evenodd" d="M13.5602 3.16818C13.5602 3.16818 13.3042 3.17479 13.2496 4.23954C13.1949 5.30429 13.1686 5.86408 13.1297 6.39165C13.0908 6.91921 13.0004 7.23944 12.9549 7.55026C12.9096 7.86109 12.8837 8.28476 12.7382 8.54375C12.6742 8.66344 12.5374 9.0389 12.217 9.3205C11.8578 9.63111 11.321 9.84808 11.2398 9.86429C11.0973 9.8965 10.3755 9.96775 10.0811 10.1297C9.97768 10.1847 9.79955 10.2494 9.60222 10.4339C9.21053 10.7865 8.68957 11.4176 8.31411 12.1781C7.73811 13.3141 7.16211 16.5212 7.16211 16.5212L7.29161 16.3044C7.29161 16.3044 7.30782 16.0164 7.59582 15.5114C7.87742 15.0067 7.79656 14.4403 8.18803 13.4726C8.34013 13.1038 8.53107 12.6248 8.76403 12.2169C9.1331 11.5535 9.57961 10.9839 10.0295 10.6733C10.764 10.1685 11.5732 10.0584 11.5732 10.0584L12.4438 9.48243C12.4438 9.48243 12.5959 9.18803 12.7967 8.85138C13.0781 8.37906 13.4367 7.85149 13.5149 7.08455C13.6348 5.94855 13.3467 5.20424 13.3628 4.53117C13.3791 3.8581 13.3854 3.36295 13.5216 3.24306C13.6577 3.12316 13.5604 3.1686 13.5604 3.1686L13.5602 3.16818Z" fill="#A88F33"/>
        <path fill-rule="evenodd" clip-rule="evenodd" d="M13.5599 8.24974C13.5599 8.24974 13.9439 7.30468 14.1198 6.46649C14.1522 6.29818 14.2168 6.13007 14.233 5.99418C14.3139 5.20122 14.3365 4.87439 14.233 4.44068C14.1522 4.12068 13.8415 3.83225 13.6797 3.60868C13.5212 3.3755 13.4467 3.28868 13.4792 3.23962C13.5115 3.19055 13.6377 3.11033 13.7605 3.11993C13.8912 3.12374 14.0195 3.15407 14.1382 3.20908C14.2567 3.26409 14.3628 3.34263 14.45 3.43993C14.6992 3.72793 14.8965 4.70543 14.8965 4.70543L15.104 5.99524L15.6317 7.61978L13.5604 8.25103L13.5599 8.24974Z" fill="#C99E3D"/>
        <path fill-rule="evenodd" clip-rule="evenodd" d="M17.1682 7.26584C17.1682 7.26584 17.097 7.29805 16.9677 7.26584C16.9732 7.31868 16.964 7.372 16.9412 7.41995C16.9183 7.4679 16.8827 7.50863 16.8382 7.53763C16.7023 7.48259 15.4302 7.59266 15.4302 7.59266C15.4302 7.59266 14.838 7.48899 14.6535 6.70584C14.5241 6.18466 14.7505 5.46638 14.6761 4.99384C14.5627 4.29795 14.4042 4.16184 14.3881 3.9453C14.3718 3.72878 14.3556 3.67352 14.3556 3.53762C14.2843 3.52141 14.2423 3.4988 14.1713 3.4988C14.1551 3.4348 14.1873 3.3789 14.1162 3.26562C14.1551 3.28184 14.4205 3.31426 14.7311 3.60866C14.9871 3.84824 14.9871 3.93549 15.0257 3.98414C15.0741 4.03256 15.4658 4.36814 15.6341 4.70264C15.8025 5.03715 16.1292 6.10381 16.2037 6.27854C16.2263 6.34979 16.275 6.42104 16.3957 6.58275C16.5835 6.81592 16.8585 7.20141 17.1691 7.26541L17.1682 7.26584Z" fill="#B58634"/>
        <path fill-rule="evenodd" clip-rule="evenodd" d="M15.0713 4C15.2673 4.3167 15.4434 4.6453 15.5987 4.9839C15.7895 5.41419 15.9028 5.76704 16.1424 6.05504C16.0129 5.67979 15.7832 4.94186 15.6473 4.67969C15.4952 4.40235 15.1845 4.10369 15.0713 4.00021V4Z" fill="#A88F33"/>
        <path fill-rule="evenodd" clip-rule="evenodd" d="M12.8703 9.32054C12.8703 9.32054 12.5436 9.40139 11.9351 9.72181C11.7344 9.82527 11.5437 9.91254 11.3591 9.9936C10.8798 10.2103 10.3656 10.4107 9.95775 10.5212C9.99018 10.56 10.0062 10.576 10.0062 10.576C10.0062 10.576 10.0062 10.7347 10.0936 10.8252C10.0452 10.8738 9.39777 11.3139 9.5889 12.7864C9.71819 12.7379 9.87029 12.6731 9.8929 12.6731C9.93194 12.6796 9.94154 12.7864 9.98997 12.7864C10.0384 12.7864 10.1971 12.7224 10.3654 12.5048C10.359 12.5922 10.262 13.4724 10.7829 14.0646C10.88 13.9514 11.126 13.5759 11.126 13.5759L11.1324 13.4562C11.1324 13.4562 11.155 13.0388 11.2911 12.6569C11.4272 12.275 11.6923 11.9934 11.6923 11.9934L13.0771 10.016L12.8699 9.32031L12.8703 9.32054Z" fill="#E6C367"/>
        <path fill-rule="evenodd" clip-rule="evenodd" d="M11.5761 12.2242C11.5127 12.269 11.4428 12.3039 11.3689 12.3277C11.3463 12.2468 11.3139 11.9684 11.5048 11.6966C11.7282 11.3696 12.2167 10.9457 12.3526 10.6086C12.4401 10.3917 12.4012 9.84811 13.1779 9.15221C13.9547 8.45633 14.2587 8.21698 14.2587 8.21698L15.5144 7.58594L17.0581 8.19436L16.2912 11.2002L15.6958 12.6082L13.3277 12.1617L11.5759 12.2242H11.5761Z" fill="#DCBA5A"/>
        <path fill-rule="evenodd" clip-rule="evenodd" d="M12.48 11.4074L12.7746 11.0386V10.7764C12.7746 10.7764 13.1015 10.6889 13.4541 10.3296C13.8067 9.97038 14.2955 9.28109 14.726 9.32313C15.1565 9.37176 15.1985 10.2584 15.2147 10.5078C15.231 10.7572 15.286 11.3231 15.3732 11.6276C15.4703 11.9318 14.3247 13.0838 14.3247 13.0838L13.5466 13.6761L12.48 11.4074Z" fill="#E9CE77"/>
        <path fill-rule="evenodd" clip-rule="evenodd" d="M13.3916 14.4786C13.3916 14.4786 13.6311 14.1031 13.4556 14.0222C13.559 13.7892 13.75 13.5433 13.75 13.5433C13.75 13.5433 13.8859 13.2068 14.326 12.7926C14.766 12.3783 15.038 12.1031 15.1092 11.8249C15.1532 11.6436 15.1771 11.458 15.1805 11.2715C15.2281 11.3104 15.279 11.345 15.3326 11.375C15.4039 11.4074 15.7404 11.6856 15.6919 12.2456C15.6435 12.8056 15.4359 13.0386 15.4359 13.0386C15.4359 13.0386 15.2354 13.2391 15.0931 13.3427C14.9407 13.4462 14.886 13.5659 14.6301 13.5757C14.6565 13.5548 14.686 13.5383 14.7176 13.5271C14.7176 13.5271 14.4522 13.4948 14.3097 13.6241C14.1672 13.7534 13.8642 14.1517 13.7122 14.2716C13.5601 14.3687 13.3922 14.4787 13.3922 14.4787L13.3916 14.4786Z" fill="#CDAE50"/>
        <path fill-rule="evenodd" clip-rule="evenodd" d="M24.1521 8.18367C23.7698 8.04432 23.3679 7.96572 22.9613 7.95071C22.2816 7.9281 21.2881 7.96692 20.314 7.97332C19.2655 7.97972 18.314 7.61407 16.9936 7.54942C16.7769 7.41993 16.2256 6.85353 14.5049 8.05417C14.6084 8.04777 15.7543 7.78878 16.1521 8.28735C16.5534 8.7825 16.4401 9.6239 16.3853 9.82442C16.2816 10.2711 15.9449 10.9216 15.8093 11.3779C15.6736 11.8342 15.7056 12.074 15.6085 12.394C15.5114 12.7141 15.2979 12.8729 15.424 13.2418C15.5923 13.1383 15.68 13.1383 15.9611 12.5073C16.2424 11.8763 16.1845 11.4264 16.6506 10.8924C17.107 10.3552 17.8666 9.62048 18.1555 9.43595C18.4444 9.25141 20.7379 8.06057 23.1394 9.19658C23.7186 9.13515 24.1523 8.18346 24.1523 8.18346L24.1521 8.18367Z" fill="#D2A83E"/>
        <path fill-rule="evenodd" clip-rule="evenodd" d="M15.4726 7.74404C15.4702 7.71971 15.4648 7.69579 15.4566 7.67279C15.4341 7.62545 15.4046 7.5818 15.3691 7.54329C15.3691 7.54329 14.7995 7.43982 14.5115 7.47204C14.0066 7.52707 13.5502 8.15171 13.3367 8.47214C13.1231 8.79256 12.8577 9.28749 12.5697 9.54327C12.5729 9.51835 12.5671 9.49312 12.5535 9.47202C12.5535 9.47202 12.5697 9.49464 12.5375 9.52706C12.5053 9.55949 12.5051 9.57549 12.5213 9.59106L12.57 9.63949C12.586 9.63949 13.0326 9.43874 13.6411 8.87149C14.2883 8.27929 14.7835 7.9755 15.0425 7.87139C15.1806 7.8127 15.325 7.76997 15.4728 7.74404H15.4726Z" fill="#C29637"/>
        <path fill-rule="evenodd" clip-rule="evenodd" d="M26.5213 5.31152C26.5213 5.31152 26.4177 5.4408 26.2882 5.58331C26.0002 5.88752 25.6247 6.23035 25.3043 6.5832C25.0003 6.91985 24.6572 7.18204 24.272 7.62214C23.8867 8.06225 23.4399 8.55079 23.3269 8.69329C23.2234 8.8358 23.1426 9.06876 23.1426 9.18844C23.0876 9.14961 23.0229 9.10759 23.0229 9.10759C23.0501 9.1584 23.0827 9.20616 23.1199 9.2501C23.2008 9.36337 23.3269 9.5061 23.3917 9.59314C23.4713 9.70394 23.5285 9.82925 23.5598 9.96199C23.5987 9.96839 23.8478 10.017 24.1587 9.50567C24.4694 8.99431 24.8769 8.43451 24.8769 8.43451L25.5242 7.47324L25.9321 6.65787L26.4441 5.74522L26.5219 5.31152H26.5213Z" fill="#AC8132"/>
        <path fill-rule="evenodd" clip-rule="evenodd" d="M27.1847 4.65723C27.1847 4.65723 26.793 4.97723 26.6409 5.16923C26.4888 5.36123 26.1289 5.86514 26.1289 5.86514L26.2584 5.84891L26.9154 5.26651L27.1714 4.81019L27.1844 4.65808L27.1847 4.65723Z" fill="#A88F33"/>
        <path fill-rule="evenodd" clip-rule="evenodd" d="M27.0646 30.3747C27.0646 30.3747 27.0582 30.1093 27.2071 29.9508C27.3592 29.792 27.7444 29.5592 28.1197 28.6853C28.4952 27.8115 28.5371 27.6142 28.5371 27.6142C28.5371 27.6142 27.864 28.1902 27.4491 28.326C27.5461 28.1253 27.6011 27.983 27.6499 27.8793C27.5947 27.8309 27.3619 27.7759 27.3392 27.75C27.4685 27.6205 27.5397 27.3033 27.8019 27.093C28.1386 26.837 28.7534 26.3972 29.2312 26.005C29.7091 25.6129 30.6486 24.7009 30.7685 24.4355C30.8397 24.5389 30.8557 24.6037 30.8557 24.6037C30.8557 24.6037 30.3835 25.2187 30.1375 25.6102C29.9205 25.9468 29.9367 26.1377 29.9367 26.1377L30.3835 25.9457C30.3835 25.9457 30.5127 26.4247 29.9271 27.1529C30.1831 27.0559 30.2864 27.1142 30.4319 27.033C30.1924 27.1854 29.8622 27.3925 29.5517 27.9619C29.2475 28.5315 28.8331 29.1949 28.1342 29.609C27.4546 30.0459 27.063 30.3728 27.063 30.3728L27.0646 30.3747Z" fill="#A67A2E"/>
        <path fill-rule="evenodd" clip-rule="evenodd" d="M25.3106 8.5206C25.3106 8.5206 25.0453 9.07376 25.0064 9.50426C25 9.60795 24.974 9.6888 24.974 9.80847C24.9675 10.1935 24.9966 10.6241 24.91 10.8246C24.8775 10.7437 24.8614 10.6887 24.8289 10.6565C24.7805 10.7924 24.693 11.2162 24.6218 11.3748C24.5895 11.2713 24.5183 10.912 24.5249 10.4882C24.5315 10.0643 24.5409 9.9832 24.5409 9.89595C24.5249 10.0252 24.4374 10.2001 24.405 10.3036C24.3566 10.2164 24.3015 10.1031 24.2368 10.0092C24.1979 10.0732 24.1495 10.1677 24.1074 10.2164C24.1008 10.1775 24.0848 10.0739 24.075 9.92837C24.0686 9.76005 24.0588 9.54331 24.0686 9.49786C24.0846 9.41061 24.2208 9.06757 24.5086 8.75355C24.8518 8.37809 25.2046 7.6566 25.308 7.43324C25.4115 7.20989 25.8516 6.28125 25.8516 6.28125H26.1883L25.6995 7.39441C25.6995 7.39441 25.4051 8.00284 25.253 8.22641C25.1009 8.44999 24.7805 9.09061 24.638 9.33979C24.7414 9.2039 24.8289 9.13264 24.9326 9.00315C25.0329 8.91249 25.311 8.52103 25.311 8.52103L25.3106 8.5206Z" fill="#8C6228"/>
        <path fill-rule="evenodd" clip-rule="evenodd" d="M27.1912 4.61426C27.1362 4.78351 27.0493 4.94065 26.9352 5.0772C26.7344 5.31677 26.3039 5.63698 26.0938 5.89256C25.9018 6.14173 25.5178 6.82141 25.6923 7.62717C25.7563 7.45245 25.8768 7.10621 26.1973 6.71453C26.5177 6.32285 26.8607 5.87315 27.0293 5.52371C27.1973 5.17085 27.2199 4.89266 27.2199 4.89266L27.2839 4.81181L27.2452 4.62727L27.19 4.61426H27.1912Z" fill="#CBA94C"/>
        <path fill-rule="evenodd" clip-rule="evenodd" d="M33.7446 26.0811C33.7446 26.0811 33.6151 25.7285 33.5762 25.4081C33.5374 25.0876 33.6402 25.0241 33.5212 24.6574C33.4499 24.434 33.3207 24.4654 33.2882 24.434C33.2558 24.4026 33.2332 24.0651 33.2396 23.8806C33.2459 23.6961 33.2332 23.4567 33.2007 23.3531C33.1523 23.3142 33.1199 23.2819 33.0487 23.0425C32.9678 22.8029 32.9289 22.6832 32.8901 22.6121C32.8513 22.5411 32.7378 22.4762 32.7378 22.405C32.7378 22.2625 32.8673 22.1882 32.8673 22.149C32.8609 22.0681 32.7638 22.133 32.7378 22.1102C32.7056 22.0714 32.8188 21.8384 32.7768 21.806C32.7607 21.79 32.6473 21.9259 32.6181 21.887C32.5857 21.848 32.5468 21.4629 32.4887 21.2074C32.4338 20.9582 32.3753 20.7771 32.3689 20.7026C32.3626 20.6314 31.9222 19.3756 31.8156 19.0715C31.7296 18.8144 31.6572 18.553 31.5988 18.2884C31.5664 18.1362 31.5438 17.8254 31.5276 17.8579C31.5113 17.8902 31.5212 18.0487 31.4952 18.0424C31.4726 18.0357 31.3917 17.4825 31.3658 17.3951C31.3432 17.3076 31.2072 17.0111 31.1738 16.7965C31.1414 16.5795 31.0704 16.0131 31.0217 15.628C30.9731 15.243 30.9504 15.0845 30.9504 14.988C30.9584 14.7522 30.9454 14.5161 30.9117 14.2825C30.8477 13.8746 30.7197 13.3795 30.6074 13.0917C30.3907 12.548 29.8144 11.1564 29.7114 10.8101C29.7114 10.7227 29.8247 10.7713 29.8247 10.7713C29.8247 10.7713 30.1061 11.4768 30.3133 12.0204C30.5141 12.5641 30.7049 13.0431 30.7536 13.0917C30.7924 13.1401 31.0966 13.6741 31.2326 14.548C31.3684 15.4217 31.4168 16.2275 31.4979 16.7647C31.5367 17.0207 31.5692 17.2922 31.6501 17.564C31.7373 17.8586 31.8732 18.1629 32.0513 18.6287C32.2034 19.0205 32.3167 19.3472 32.378 19.6289C32.4494 19.9881 32.4494 20.26 32.4914 20.4381C32.5304 20.5902 32.5884 20.8942 32.7246 21.3341C32.8607 21.774 33.0611 22.3406 33.1969 22.6932C33.4626 23.3987 33.5809 23.9877 33.6211 24.3017C33.6564 24.6254 33.7763 25.7451 33.7439 26.0816L33.7446 26.0811Z" fill="#A88F33"/>
        <path fill-rule="evenodd" clip-rule="evenodd" d="M27.2072 4.57497L27.191 4.61381C27.191 4.61381 27.2393 4.63002 27.2298 4.69487C27.2305 4.78359 27.2251 4.87227 27.2136 4.96026C27.1976 5.07353 27.1652 5.16079 27.1587 5.23204C27.1587 5.38416 27.1813 5.55887 26.9667 5.99258C26.9027 6.11226 26.8633 6.21573 26.8308 6.28698C26.75 6.46171 26.7338 6.48773 26.6626 6.56858C26.7758 6.50458 27.1837 6.24858 27.3906 6.28698C27.2483 6.36783 27.0315 6.52656 26.8955 6.73371C26.928 6.74011 27.0638 6.76613 27.2795 6.73371C27.6387 6.67867 28.04 6.54917 28.3926 6.57498C28.778 6.59759 28.6258 6.11226 28.6258 6.11226L28.1812 5.13498L27.3398 4.54297L27.2072 4.57518V4.57497Z" fill="#BE9C44"/>
        <path fill-rule="evenodd" clip-rule="evenodd" d="M29.4013 11.8957C29.4013 11.8957 29.0258 11.5203 28.8738 10.2317C28.7217 8.93724 28.7541 7.03174 28.7541 7.03174L28.4498 6.28743C28.4498 6.28743 28.3858 5.79228 28.2266 5.60797C28.0672 5.42364 27.7542 5.11282 27.6117 4.96071C27.4692 4.80861 27.3074 4.60146 27.2104 4.56903C27.2588 4.48818 27.4758 4.03186 28.3073 4.02546C29.1389 4.01906 29.3953 4.48178 29.4822 4.65009C29.5691 4.81842 29.9611 5.54609 30.1066 6.93277C30.2426 8.31772 30.2491 8.42141 30.2266 8.90033C30.2103 9.16572 30.1228 9.78054 29.9706 10.4374C29.8314 10.9942 29.6793 11.6156 29.4009 11.897L29.4013 11.8957Z" fill="#A17C34"/>
        <path fill-rule="evenodd" clip-rule="evenodd" d="M28.224 13.0003C28.3491 13.0093 28.4741 12.9811 28.5833 12.9192C28.703 12.9128 29.1368 12.9678 29.47 12.5439C29.4926 12.6408 29.551 12.9032 29.3988 13.1362C29.4798 13.0551 29.5995 13.0229 29.6156 13.0003C29.6221 13.1199 29.7354 13.4888 29.2564 14.3852C29.3858 14.2429 29.5378 14.2493 29.6738 14.2331C29.6804 14.4014 29.7708 14.9676 29.5314 15.2721C29.3729 15.4792 29.1139 15.4143 29.1139 15.4143C29.1176 15.3691 29.1176 15.3237 29.1139 15.2784C29.1075 15.1909 29.0751 15.1037 29.0979 15.0454C28.9728 14.9883 28.8588 14.9093 28.7613 14.8123C28.4796 14.5469 28.114 14.0941 28.0881 13.7574C28.0558 13.3819 28.3924 13.3011 28.3924 13.3011C28.3641 13.2758 28.3401 13.2463 28.3211 13.2136C28.3049 13.1588 28.2886 13.0713 28.224 13.0003Z" fill="#8C6228"/>
        <path fill-rule="evenodd" clip-rule="evenodd" d="M25.728 8.92888C25.728 8.92888 25.7118 8.90627 25.6245 9.00973C25.6408 8.90627 25.657 8.80898 25.6634 8.71512C25.7046 8.62822 25.7581 8.54762 25.8221 8.47575C25.7735 8.5726 25.741 8.66008 25.741 8.66008C25.741 8.66008 25.8609 8.43672 26.0356 8.30083C26.1553 8.20375 26.3074 8.15853 26.372 8.06787C26.4433 7.97079 26.4271 7.95458 26.4433 7.93837C26.4433 7.93837 26.602 7.83491 26.8448 7.53048C26.877 7.49165 26.9256 7.44963 26.9581 7.41079C27.0129 7.38818 27.1424 7.32994 27.2945 7.25208C27.4533 7.16483 27.6311 7.04514 27.7413 6.99608C27.9579 6.89902 28.1879 6.90883 28.2946 6.7565C28.3754 6.73389 28.4626 6.49112 28.4466 6.28418C28.5664 6.33262 29.1811 6.71448 29.3918 7.54947C29.5439 8.14168 29.2719 9.05432 29.1585 9.49464C29.0453 9.93495 29.0293 10.2616 28.8705 10.4621C28.6699 10.7277 28.0228 11.1021 27.8641 11.2875C27.7281 11.4396 27.3205 11.8247 27.3365 12.1029C27.3528 12.31 27.6083 12.4229 27.6635 12.4621C27.7188 12.5014 27.7184 12.5496 27.822 12.5261C27.9258 12.5026 27.9644 12.4549 28.0066 12.4549C28.055 12.4613 28.055 12.4711 28.0776 12.4711C28.094 12.4706 28.1104 12.4684 28.1263 12.4645C28.1263 12.4645 28.11 12.759 27.4208 12.8485C27.3721 12.855 27.3238 12.871 27.262 12.8809C27.3431 12.842 27.3915 12.842 27.479 12.7224C27.382 12.7061 27.1035 12.69 27.0323 12.6674C27.0549 12.6285 27.1294 12.5249 27.1908 12.4764C27.2459 12.428 27.1844 12.4124 27.136 12.4376C27.0526 12.4943 26.9726 12.5559 26.8964 12.6219C26.8155 12.6931 26.7443 12.7903 26.6149 12.8779C26.576 12.7484 26.5824 12.5024 26.7348 12.3245C26.6956 12.3309 26.6213 12.4442 26.5501 12.4216C26.5374 12.3035 26.545 12.1842 26.5728 12.0687C26.6116 11.923 26.822 11.6674 26.822 11.6674L27.838 9.85175L28.0548 8.47639L25.728 8.92845V8.92888Z" fill="#92723A"/>
        <path fill-rule="evenodd" clip-rule="evenodd" d="M25.6735 9.00751C25.6735 9.00751 25.6184 9.04633 25.7285 9.12078C25.7123 9.14339 25.6735 9.22426 25.6248 9.27929C25.57 9.34329 25.5115 9.38297 25.4889 9.43801C25.4405 9.55129 25.4016 9.62894 25.4016 9.67758C25.4016 9.72622 25.3855 10.0368 25.2495 10.2374C25.2009 10.3086 25.1459 10.4283 25.107 10.5092C25.0261 10.6515 24.9549 10.7652 24.9388 10.8292C24.9065 10.9424 24.8839 11.2531 24.8839 11.2531C24.8839 11.2531 24.9551 11.1656 24.981 11.1334C24.9419 11.2142 24.8999 11.3015 24.8384 11.3663C24.8773 11.3339 24.9905 11.2531 25.1815 11.0847C25.4469 10.8616 25.8613 10.4861 26.3661 10.1887C26.2139 10.2438 26.0846 10.2438 25.9811 10.26C26.062 10.1791 26.7901 9.32473 27.172 9.24388C27.1951 9.21448 27.2068 9.17757 27.2044 9.14019L26.8774 9.10798L26.2139 9.25028L26.117 8.73828L25.6735 9.00687V9.00751Z" fill="#B18E3E"/>
        <path fill-rule="evenodd" clip-rule="evenodd" d="M26.7281 11.9191C26.7281 11.9191 26.6407 12.0063 26.5599 12.2233C26.4976 12.1583 26.4442 12.0853 26.4011 12.0063C26.2815 11.8058 26.0971 11.55 25.6666 11.6957C25.6602 11.5598 25.6504 11.4886 25.6666 11.3915C25.7379 11.3755 25.9546 11.2008 26.1714 10.945C26.3236 10.7703 26.466 10.5695 26.563 10.314C26.627 10.2653 26.7377 10.1845 26.883 10.0906C27.0902 9.9483 27.3394 9.75397 27.3782 9.53722C27.2811 9.57604 27.074 9.6731 26.7631 9.6571C26.883 9.60207 27.0674 9.54383 27.0447 9.30425C27.0934 9.27183 27.1322 9.24922 27.1322 9.24922C27.0957 9.23705 27.0574 9.23155 27.019 9.233C27.0124 9.21039 27.0027 9.17818 26.9477 9.19418C26.8926 9.21018 26.8836 9.21039 26.8764 9.233C26.8539 9.23962 26.7794 9.233 26.7244 9.27204C26.6692 9.31108 26.5171 9.44015 26.459 9.46277C26.4815 9.42393 26.5137 9.3659 26.5137 9.3659C26.5137 9.3659 26.3552 9.3819 26.242 9.4299C26.0349 9.50117 25.7955 9.63065 25.5527 9.75673C25.5754 9.7179 25.5851 9.69273 25.6011 9.68548C25.6171 9.67823 25.6561 9.66948 25.6561 9.66287C25.6561 9.65625 25.6401 9.59887 25.6497 9.57562C25.7224 9.42185 25.808 9.2746 25.9057 9.1355C26.019 8.98319 26.0416 8.76644 26.0416 8.76644L26.5367 8.51727L27.9284 8.19727L28.8314 8.2523L28.7181 8.87695L28.1847 9.9675L27.7285 10.961L27.2074 11.5696L26.7284 11.9191H26.7281Z" fill="#543E26"/>
        <path fill-rule="evenodd" clip-rule="evenodd" d="M28.9838 9.21585C28.9838 9.21585 28.4399 9.88891 28.2879 9.99259C28.3849 9.78545 28.9838 8.55237 29.2005 8.20934C29.152 8.17051 29.0872 8.17051 29.2393 7.56934C29.11 7.87334 29.0645 8.03206 28.9579 8.11291C28.8513 8.19376 28.838 8.16795 28.7659 8.16795C28.7795 8.14332 28.7852 8.11506 28.7819 8.0871C28.7819 8.0871 28.3257 8.03206 28.0139 8.03206C27.7023 8.03206 27.0853 8.20037 26.742 8.33627C26.4703 8.44955 26.3182 8.44955 26.2212 8.52059C26.124 8.60145 26.069 8.68891 26.0204 8.71152C25.9815 8.73414 25.7973 8.79237 25.755 8.85381C25.7162 8.91781 25.6515 8.98971 25.6515 9.00592C25.6515 9.02214 25.6353 9.04496 25.6839 9.02854C25.6999 9.02214 25.8199 8.95729 25.9558 8.87642C26.14 8.77296 26.3634 8.65329 26.5253 8.58202C26.988 8.3975 27.1338 8.42992 27.3407 8.3911C27.5574 8.35227 27.8683 8.2616 28.0752 8.2616C28.2823 8.2552 28.674 8.2616 28.7647 8.27781C28.7258 8.31025 28.6934 8.34907 28.7097 8.48496C28.7097 8.52379 28.6772 8.56581 28.6457 8.65969C28.5488 8.92507 28.3643 9.36517 28.2617 9.58854C28.1193 9.89254 27.9577 10.1483 27.8777 10.3068C27.7977 10.4653 27.6217 10.8828 27.4473 11.1062C27.273 11.3295 27.1819 11.4654 27.1273 11.5141C27.0728 11.5627 26.6807 11.8505 26.7099 11.9542C26.7812 11.9316 27.231 11.7622 27.5577 11.3944C27.8843 11.0266 27.9493 10.8022 28.2049 10.6014C28.4604 10.4007 28.6612 10.0643 28.7809 9.78609C28.8812 9.5271 28.8585 9.44625 28.9845 9.21649L28.9838 9.21585Z" fill="#806031"/>
        <path fill-rule="evenodd" clip-rule="evenodd" d="M17.2654 14.239C17.2654 14.239 17.1942 14.5335 17.0322 14.6792C16.8737 14.8217 16.592 14.9445 16.5599 15.1842C16.521 15.4235 16.8415 15.5434 16.8415 15.5434C16.8415 15.5434 16.6665 15.8314 16.6665 16.0482C16.6665 16.2715 16.6602 16.3135 16.6828 16.527C16.657 16.5435 16.6353 16.5654 16.6188 16.591C16.6188 16.591 16.6348 16.7983 16.7935 16.9275C16.9522 17.0568 17.0879 17.1347 17.1688 17.1023C17.181 17.1287 17.1919 17.1557 17.2012 17.1833C17.2012 17.1833 17.321 16.879 17.4019 16.6137C17.4828 16.3419 17.554 16.3805 17.5863 16.0149C17.6184 15.6492 17.9703 15.0214 17.9703 15.0214L18.2103 14.4848L17.8188 14.1807L17.2654 14.2389V14.239Z" fill="#B6903C"/>
        <path fill-rule="evenodd" clip-rule="evenodd" d="M17.9935 14.7676C17.9128 14.8505 17.8383 14.9392 17.7705 15.033C17.667 15.1755 17.5863 15.3048 17.4341 15.3601C17.282 15.4153 17.1849 15.4148 17.1945 15.5672C17.2041 15.7195 17.3466 15.784 17.4275 15.8616C17.515 15.9425 17.5863 16.0783 17.5474 16.2307C17.5958 16.2081 17.6833 16.182 17.7641 16.0073C17.845 15.8326 18.4105 14.7678 18.4105 14.7678H17.9935V14.7676Z" fill="#685026"/>
        <path fill-rule="evenodd" clip-rule="evenodd" d="M20.2241 12.3115C20.2241 12.3115 20.2726 12.1822 20.2241 12.0884C20.1754 11.9913 19.8811 11.9589 19.7353 11.8488C19.5832 11.7355 19.3987 11.6568 19.2466 11.7065C19.2692 11.6514 19.3598 11.5316 19.2854 11.5057C19.2142 11.4831 18.9489 11.6028 18.8777 11.6578C18.8064 11.7129 18.6446 11.7775 18.6123 11.8166C18.5802 11.8556 18.5249 11.9298 18.4924 11.8974C18.4601 11.8748 18.4441 11.8166 18.3889 11.8488C18.3339 11.881 18.0689 12.098 18.0202 12.2242C17.9713 12.3505 17.8614 12.6321 17.5314 12.9524C17.2014 13.2726 17.0588 13.4799 17.1559 13.5996C17.2531 13.7192 17.2984 13.632 17.3147 13.7355C17.3272 13.8371 17.3217 13.94 17.2984 14.0397C17.2596 14.208 17.1949 14.3665 17.2822 14.399C17.5056 14.4702 17.7226 14.335 17.7709 14.3764C17.8681 14.4636 17.7159 14.7776 17.9457 14.8391C18.1788 14.9031 18.4086 14.784 18.4086 14.784L19.2564 14.3277L20.0719 13.8974L20.4893 13.072L20.2654 12.3828L20.2228 12.3115H20.2241Z" fill="#D4B968"/>
        <path fill-rule="evenodd" clip-rule="evenodd" d="M19.4238 14.2812C19.4238 14.2812 19.2813 14.0645 19.4563 13.8734C19.6312 13.6822 19.8802 13.6016 19.9772 13.482C19.9588 13.4591 19.934 13.4422 19.906 13.4335C19.9705 13.3182 20.0687 13.2255 20.1876 13.1679C20.1392 13.1195 20.0743 13.0806 20.0033 13.0806C19.8446 13.0806 19.7473 13.1777 19.6018 13.1777C19.4595 13.1777 19.4433 13.1065 19.4433 13.1065C19.4433 13.1065 19.6828 13.0839 19.6601 12.977C19.6375 12.8637 19.5961 12.8637 19.5961 12.8637C19.5961 12.8637 20.0587 12.6717 20.1396 12.5692C20.2205 12.4669 20.2108 12.3459 20.2271 12.2975C20.2818 12.2975 20.6023 12.1292 20.7318 12.2004C20.8613 12.2717 20.7706 12.4658 20.7706 12.4658C20.7706 12.4658 21.1625 12.1712 21.3622 11.8824C21.537 11.8986 21.6182 11.7627 21.7462 11.7627C21.905 11.7627 22.1541 11.9794 22.2025 12.4422C22.235 12.7075 22.2833 12.8596 22.235 13.329C22.2123 13.5944 22.2187 14.161 22.299 14.4421C22.3537 14.6655 22.4832 14.6429 22.4832 14.6429C22.4633 14.711 22.424 14.7717 22.37 14.8176C22.2825 14.8985 22.2728 15.1122 22.2825 15.1931C22.2953 15.2522 22.3116 15.3105 22.3311 15.3677C22.3311 15.3677 22.2277 15.4875 22.2016 15.5685C22.1791 15.6494 22.0723 15.7044 21.9945 15.7044C21.9166 15.7044 21.9557 15.6979 21.8522 15.7044C21.7487 15.711 21.7163 15.727 21.6515 15.7044C21.5866 15.6819 21.5382 15.6557 21.5642 15.4484C21.5868 15.2412 20.7648 14.7591 20.7648 14.7591L19.4208 14.2802L19.4238 14.2812Z" fill="#CCA849"/>
        <path fill-rule="evenodd" clip-rule="evenodd" d="M17.8805 16.3271C17.8805 16.3271 18.1749 16.7187 19.3854 16.7187C19.9614 16.7187 20.1621 16.6637 20.2814 16.6312C20.4109 16.5988 20.8963 16.4081 21.385 15.8318C21.8251 15.311 21.728 15.0973 21.728 15.0973L21.472 15.0586L20.64 15.1718L18.178 16.2203L17.8794 16.3271H17.8805Z" fill="#585136"/>
        <path fill-rule="evenodd" clip-rule="evenodd" d="M18.7834 16.424C18.7834 16.424 17.7349 16.6571 17.7349 15.9936C17.7349 15.3464 18.3821 14.6668 18.544 14.547C18.7124 14.4271 19.1136 14.291 19.1136 14.291H20.0812L20.2656 14.7798L20.1847 15.8348L18.7834 16.4238V16.424Z" fill="black"/>
        <path fill-rule="evenodd" clip-rule="evenodd" d="M19.751 14.4887C19.751 14.4887 19.5505 14.3042 19.0941 14.5527C18.6377 14.8014 18.2687 15.3209 18.2461 15.7925C18.2235 16.2097 18.5891 16.5206 19.1587 16.5369C19.5826 16.5529 19.8385 16.5044 19.968 16.4729C19.9355 16.434 19.7672 16.2236 19.7672 16.2236L19.7512 14.489L19.751 14.4887Z" fill="#C3B378"/>
        <path fill-rule="evenodd" clip-rule="evenodd" d="M19.5534 14.5918C19.5534 14.5918 19.5049 14.5529 19.3614 14.6305C19.2417 14.6945 19.0669 14.8638 18.9311 14.9834C18.8437 15.0546 18.7886 15.0869 18.7391 15.1419C18.5383 15.3815 18.3701 15.7731 18.4673 15.9673C18.5646 16.1614 18.8848 16.3848 19.7004 16.2326L19.5511 14.592L19.5534 14.5918Z" fill="#E6D89C"/>
        <path fill-rule="evenodd" clip-rule="evenodd" d="M19.2883 14.9926C19.2883 14.9926 19.1588 15.1934 19.1588 15.5139C19.1588 15.8406 19.3434 16.3616 20.0231 16.4004C20.5441 16.4329 20.8934 15.6498 21.2721 15.3455C21.5601 15.1126 21.7348 15.106 21.7348 15.106C21.7348 15.106 21.4404 14.786 20.6541 14.3715C19.8773 13.954 19.0068 13.8989 18.5342 14.5398C18.7576 14.5236 19.4793 14.339 19.4793 14.339L19.8322 14.4523L19.2883 14.9929V14.9926Z" fill="black"/>
        <path fill-rule="evenodd" clip-rule="evenodd" d="M20.3042 15.4173C20.2816 15.3688 20.2653 15.3041 20.3592 15.2881C20.4531 15.2721 20.4951 15.2815 20.5275 15.3521C20.56 15.4226 20.5915 15.4815 20.5435 15.5107C20.4951 15.5366 20.3689 15.5107 20.304 15.4168L20.3042 15.4173ZM20.1521 14.961C20.1521 14.961 20.1197 14.9836 20.1358 14.9383C20.1423 14.8836 20.1845 14.7862 20.288 14.8091C20.3915 14.832 20.369 14.945 20.352 14.9775C20.3349 15.0098 20.2485 15.0647 20.1837 15.0415C20.1755 15.0393 20.1678 15.0353 20.1615 15.0297C20.1551 15.0241 20.1501 15.0171 20.147 15.0092C20.1438 15.0013 20.1426 14.9928 20.1432 14.9843C20.144 14.976 20.1467 14.9677 20.1512 14.9606L20.1521 14.961Z" fill="#6F674D"/>
        <path fill-rule="evenodd" clip-rule="evenodd" d="M11.3921 15.1674C11.3921 15.1674 11.6481 15.3594 11.9455 15.3519C12.2399 15.3453 12.6185 15.0413 12.7932 14.8469C12.8967 14.7337 12.9852 14.6141 13.0812 14.5202C13.1624 14.4393 13.2171 14.4004 13.256 14.3454C13.311 14.2814 13.3692 14.1611 13.3985 14.1221C13.3272 14.1771 13.2237 14.2744 13.1169 14.3391C13.0135 14.4031 12.7901 14.5233 12.6994 14.5558C12.6121 14.5882 11.7059 15.0678 11.7059 15.0678L11.3921 15.1674Z" fill="#AC924C"/>
        <path fill-rule="evenodd" clip-rule="evenodd" d="M11.7832 12.7769C11.7832 12.7769 11.9255 12.6799 12.2007 12.6181C12.4661 12.5541 13.0001 12.5049 13.0001 12.5049L13.4401 12.6969L13.6149 13.3604L13.2949 14.0499L12.8872 14.3059L12.4243 13.5615L11.7843 12.7781L11.7832 12.7769Z" fill="#9F8E57"/>
        <path fill-rule="evenodd" clip-rule="evenodd" d="M11.207 13.3692L11.0547 13.483C11.0547 13.483 11.0937 13.4117 11.1259 13.195C11.1582 12.9782 11.3267 12.4506 11.5727 12.1464C11.8186 11.8422 11.8122 11.8584 11.8122 11.8584C11.7896 11.8543 11.7663 11.855 11.744 11.8606C11.7217 11.8661 11.7008 11.8764 11.6828 11.8906C11.7152 11.819 11.9223 11.563 12.1295 11.435C12.3366 11.307 12.4175 11.2666 12.6343 11.371C12.851 11.4753 12.906 11.5295 13.0648 11.5231C13.2234 11.5167 13.3592 11.3483 13.3592 11.3483C13.3592 11.3483 13.3915 11.4518 13.2719 11.6914C13.1521 11.931 12.6796 12.4195 12.6796 12.4195L11.6958 13.0926L11.207 13.3699V13.3692Z" fill="#EAC970"/>
        <path fill-rule="evenodd" clip-rule="evenodd" d="M11.9349 12.6957C11.9349 12.6957 12.6471 12.7928 12.8638 12.5923C12.8702 12.6148 12.8962 12.6148 12.8962 12.6311C12.8944 12.6433 12.8888 12.6546 12.8801 12.6633C12.9036 12.6596 12.9274 12.6574 12.9513 12.6569C12.9798 12.6654 13.0091 12.6708 13.0387 12.6731C13.0626 12.6726 13.0864 12.6704 13.1099 12.6664C13.1077 12.6826 13.1023 12.6981 13.0939 12.7119C13.0856 12.7259 13.0744 12.7381 13.0613 12.7476C13.0938 12.7476 13.1253 12.7539 13.1253 12.7798C13.1253 12.8056 13.1317 12.8834 13.0929 12.8997C13.0608 12.9086 13.0266 12.9062 12.9958 12.8931C12.9984 12.9543 13.0151 13.0142 13.0444 13.0679C13.1084 13.1877 13.2451 13.3239 13.4284 13.2847C13.4284 13.2847 13.5253 13.5177 13.1177 14.0354C13.0628 14.1067 13.0044 14.2038 12.9333 14.2847C12.9053 14.3458 12.8838 14.4098 12.8693 14.4756C12.8693 14.4756 13.5588 14.2102 13.7562 13.6049C13.9569 12.9966 13.9957 12.3979 13.9569 11.8381C13.9503 11.6794 13.9244 11.5663 13.8857 11.4853C13.7886 11.2845 13.5166 11.317 13.4067 11.4302C13.2481 11.589 12.9827 11.9836 12.6138 12.2554C12.2383 12.5272 12.2223 12.5754 11.9341 12.6957H11.9349Z" fill="#D7BC6B"/>
        <path fill-rule="evenodd" clip-rule="evenodd" d="M11.0812 13.5696C11.0812 13.5696 10.9453 13.6505 10.8741 13.9536C10.8028 14.2642 10.9381 14.6428 11.0164 14.7625C11.0947 14.8822 11.2724 15.2092 11.641 15.2255C11.7323 15.225 11.8225 15.2062 11.9064 15.1705C12.0351 15.1113 12.1558 15.0363 12.2657 14.9471C12.4244 14.8273 12.5536 14.7238 12.5375 14.7141C12.4986 14.6978 11.5602 13.9211 11.5602 13.9211L11.2073 13.5273L11.081 13.57L11.0812 13.5696Z" fill="#585136"/>
        <path fill-rule="evenodd" clip-rule="evenodd" d="M11.9681 14.8583C11.9681 14.8583 12.1591 14.8423 12.2724 14.7711C12.3856 14.6998 11.6089 13.9297 11.6089 13.9297L11.6639 14.7617L11.9681 14.8583Z" fill="#453A25"/>
        <path fill-rule="evenodd" clip-rule="evenodd" d="M11.1423 13.5111C11.1423 13.5111 11.0452 13.6956 11.0452 13.7443C11.029 13.9028 11.0776 14.4011 11.1165 14.5596C11.1553 14.7279 11.3656 14.9835 11.6376 14.9835C11.8057 14.9835 12.0389 14.88 12.0389 14.8543C12.0389 14.8218 11.7993 14.7903 11.7347 14.6696C11.6959 14.6056 11.6796 14.4465 11.6707 14.2856C11.6643 14.1823 11.6643 14.0689 11.7031 14.0296C11.7906 13.9326 11.8066 13.6543 11.8066 13.6543L12.1172 13.0771H11.7087L11.2199 13.3814L11.1423 13.5111Z" fill="#84754B"/>
        <path fill-rule="evenodd" clip-rule="evenodd" d="M11.0225 13.6896C11.0225 13.6896 11.3424 13.2657 11.6309 13.1685C11.9193 13.0711 12.0484 13.1296 12.0484 13.1296L11.88 13.5601L11.6405 13.8255L11.6567 13.9613C11.6567 13.9613 11.6176 14.3206 11.8572 14.5698C12.0968 14.819 12.2747 14.8093 12.3784 14.8093C12.4821 14.8093 12.7796 14.7218 12.9317 14.3626C13.0676 14.0262 13.1809 13.5947 12.9091 13.162C12.6435 12.7315 12.1744 12.7148 12.0838 12.7148C11.9931 12.7148 11.2812 12.7505 11.0225 13.689V13.6896Z" fill="black"/>
        <path fill-rule="evenodd" clip-rule="evenodd" d="M19.2394 15.1297C19.1197 15.0747 19.2331 14.7382 19.3527 14.6346C19.4723 14.531 19.6244 14.4115 19.8901 14.395C19.9869 14.3886 20.0808 14.4501 20.0648 14.515C20.0422 14.6346 19.8738 14.803 19.7218 14.9226C19.5114 15.0877 19.3753 15.1912 19.2394 15.1297Z" fill="#F7F7E7"/>
        <path fill-rule="evenodd" clip-rule="evenodd" d="M12.7667 13.2953C12.8542 13.2889 12.9674 13.3593 12.9901 13.4541C13.0127 13.5574 12.9349 13.7647 12.7667 13.7647C12.6308 13.7647 12.5596 13.5963 12.5596 13.5479C12.5611 13.5081 12.5722 13.4692 12.5919 13.4346C12.5983 13.4248 12.6146 13.3114 12.7667 13.2953Z" fill="#F8F6DE"/>
        <path fill-rule="evenodd" clip-rule="evenodd" d="M11.5048 13.3691C11.5048 13.3691 11.2815 13.4726 11.178 13.6891C11.1041 13.849 11.0817 14.028 11.114 14.2011C11.1302 14.282 11.2111 14.4825 11.2661 14.5538C11.3211 14.625 11.3956 14.6736 11.4506 14.667C11.5057 14.6604 11.6187 14.5149 11.6187 14.4276C11.6187 14.3404 11.6254 13.9714 11.732 13.7706C11.8259 13.5701 11.5055 13.3694 11.5055 13.3694L11.5048 13.3691Z" fill="#D4C38B"/>
        <path fill-rule="evenodd" clip-rule="evenodd" d="M11.5372 13.3523C11.4984 13.3749 11.4338 13.4073 11.4498 13.4493C11.466 13.4882 11.6019 13.5133 11.6505 13.608C11.7055 13.7052 11.7055 13.8085 11.6893 13.8572C11.7316 13.8372 11.77 13.8097 11.8026 13.7762C11.8739 13.6953 11.9611 13.5854 12.0356 13.5854C12.0842 13.5854 12.1326 13.608 12.1781 13.608C12.2493 13.608 12.3204 13.5854 12.3302 13.511C12.3462 13.4139 12.1943 13.3264 12.1068 13.3427C12.123 13.2787 12.1457 13.1842 12.0744 13.1193C12.0032 13.0544 11.78 13.1679 11.7314 13.2004C11.6827 13.2328 11.5372 13.3525 11.5372 13.3525V13.3523Z" fill="#E2D59D"/>
        <path fill-rule="evenodd" clip-rule="evenodd" d="M16.68 20.1522L17.1589 20.0107L17.2947 20.1079C17.2947 20.1079 17.3916 20.315 17.544 20.3409C17.4952 20.4442 17.369 20.5329 17.3756 20.6062C17.3822 20.6796 17.4469 20.7357 17.4469 20.7357C17.4469 20.7357 17.0164 21.4476 17.8644 22.165C17.6636 22.2459 17.408 22.357 17.2721 22.421C17.369 22.4436 17.5761 22.485 17.6636 22.5635C17.7511 22.642 17.7511 22.667 17.832 22.7156C17.9127 22.7642 17.9612 22.829 17.9452 22.858C17.8901 22.8255 17.7056 22.7286 17.6735 22.8191C17.6412 22.9096 16.8741 22.8741 16.8741 22.8741L15.5796 23.1234C15.5796 23.1234 15.628 22.9939 15.4921 22.8741C15.3336 22.7319 15.1395 22.8806 14.9324 22.722C14.6605 22.5149 14.6507 22.2754 14.5635 22.1849C14.6507 22.1299 14.8289 22.049 15.2527 21.9929C15.2365 21.9605 15.1815 21.8634 15.2139 21.7761C15.2527 21.6629 15.4145 21.5916 15.366 21.4561C15.4372 21.4399 15.4695 21.4399 15.6476 21.2166C15.816 20.9932 15.9194 20.9447 16.0489 20.9286C16.1784 20.9124 16.256 20.9286 16.4956 20.7052C16.6637 20.5467 16.6089 20.4107 16.6089 20.4107C16.6089 20.4107 16.7187 20.3751 16.6801 20.1519L16.68 20.1522Z" fill="#CBAC5A"/>
        <path fill-rule="evenodd" clip-rule="evenodd" d="M15.2654 20.2245C15.2718 20.192 15.2978 20.1758 15.4725 20.192C15.6473 20.2082 16.754 20.0885 17.055 20.0723C17.3593 20.0497 18.4304 20.0657 18.9517 20.1758C19.4728 20.2858 20.0002 20.4153 20.2558 20.48C20.5118 20.5512 20.5924 20.5768 20.5825 20.6093C20.5762 20.6417 20.5185 20.6733 20.4855 20.6643C20.4533 20.658 19.6053 20.399 19.3433 20.3443C19.0813 20.2897 18.1749 20.1436 17.6793 20.1523C17.2165 20.159 17.032 20.146 16.6405 20.1911C16.2489 20.2398 15.6017 20.3045 15.4075 20.2786C15.2155 20.256 15.2552 20.256 15.2649 20.2236L15.2654 20.2245Z" fill="#D6BC6F"/>
        <path fill-rule="evenodd" clip-rule="evenodd" d="M17.8705 22.7608C17.8705 22.7608 18.5338 23.1201 18.7735 23.5602C18.9482 23.8871 18.67 24.0489 18.67 24.0489C18.67 24.0489 19.0455 24.0489 18.9968 24.2561C18.9742 24.3853 18.3496 24.7348 17.9321 24.9193C17.5082 25.1038 17.5243 25.0942 17.3172 25.1264C17.1165 25.1589 16.5663 25.0624 16.4531 25.2236C16.3397 25.3846 16.3891 25.5506 16.4206 25.5763C16.4531 25.5989 16.7152 25.6314 16.7152 25.6314C16.7152 25.6314 16.6602 25.7836 16.1166 25.7997C15.5731 25.8159 15.437 25.8546 15.4045 25.9131C15.3721 25.9678 15.508 25.9356 15.7573 25.9771C16.0066 26.0158 16.356 26.0411 16.356 26.0411C16.356 26.0411 16.2427 26.1381 15.9483 26.2157C15.6117 26.3029 15.0841 26.3841 14.9256 26.4811C15.0065 26.5362 15.1263 26.6169 15.1816 26.6234C15.0457 26.6558 14.8546 26.7271 14.8223 26.7529C14.8707 26.7853 14.9356 26.8242 14.9356 26.8242C14.9356 26.8242 14.6636 27.1509 14.5051 27.2321C14.3466 27.3131 13.434 27.7368 13.12 27.6559C12.3368 27.4488 12.2397 26.5912 12.0488 26.5266C11.7608 26.4294 11.6249 26.6234 11.3691 26.4876C11.4824 26.4067 11.544 26.3582 11.6637 26.3032C11.5342 26.2392 10.8644 25.8144 10.8644 25.8144C10.7943 25.6618 10.7166 25.5127 10.6314 25.3679C10.5019 25.1446 10.3114 24.8468 10.1685 24.5846C9.85787 24.0086 9.84166 23.7432 9.56006 23.4164C9.6087 23.3524 9.77681 23.3613 9.77681 23.3613L12.1363 24.1381L16.32 24.2593L17.408 22.7061L17.8706 22.7611L17.8705 22.7608Z" fill="#DFC677"/>
        <path fill-rule="evenodd" clip-rule="evenodd" d="M11.6733 25.1294C11.6986 25.1575 11.728 25.1815 11.7606 25.2006C11.8417 25.2556 11.9613 25.3205 12.0422 25.4174C12.0746 25.369 12.1555 25.2815 12.2982 25.4174C12.4409 25.5532 12.6181 25.4564 12.7285 25.4886C12.8418 25.5276 12.8481 25.5436 12.8481 25.5436C12.8481 25.5436 12.9121 25.4886 13.0553 25.4304C13.1428 25.398 13.2463 25.3754 13.3595 25.3431C13.463 25.3205 13.5763 25.2881 13.6541 25.2881C13.7254 25.3365 13.981 25.6081 15.0069 25.2072C15.9745 24.8317 16.1978 24.7897 16.3596 24.8477C16.3759 24.809 16.392 24.7345 16.6413 24.7444C16.6413 24.6409 16.4341 24.288 16.4341 24.288L15.2916 23.8965H14.6669L12.7931 24.2396L11.7548 24.832L11.674 25.1306L11.6733 25.1294Z" fill="#C4A859"/>
        <path fill-rule="evenodd" clip-rule="evenodd" d="M11.0488 24.4732C11.0488 24.4732 11.0714 24.648 11.3304 24.8325C11.5864 25.0169 11.6669 25.1269 11.6669 25.1269C11.6669 25.1269 11.7155 25.0629 11.7543 24.9976C11.7931 24.9264 11.8256 24.8455 11.8902 24.8229C12.0197 24.7679 12.3141 24.8714 12.379 24.8551C12.434 24.8391 12.4178 24.7259 12.476 24.7259C12.6119 24.7192 12.6992 24.8131 12.7478 24.8131C12.7964 24.8131 12.9159 24.8066 12.9322 24.7809C12.9483 24.755 12.9547 24.4862 13.1393 24.3567C13.3401 24.2145 13.5859 24.2759 13.6513 24.3084C13.6513 24.3567 13.6577 24.4766 13.7872 24.483C13.9167 24.4895 13.9294 24.4669 14.0432 24.5056C14.1568 24.5445 14.2923 24.4992 14.3538 24.69C14.4088 24.674 14.5383 24.6577 14.5059 24.4732C14.5699 24.4249 14.6258 24.3924 14.7619 24.2015C14.7943 24.153 14.8492 24.098 14.8914 24.0267C15.0047 24.0267 15.1406 24.0041 15.3217 24.1626C15.2667 24.2015 15.2342 24.2266 15.2182 24.2661C15.2656 24.313 15.3088 24.3639 15.3474 24.4182C15.3962 24.4822 15.4286 24.5607 15.4899 24.5769C15.6259 24.6157 15.8492 24.5607 16.0984 24.5769C16.3379 24.5931 16.5386 24.6804 16.6259 24.7354C16.6584 24.7194 16.6584 24.7129 16.7393 24.729C16.8202 24.7452 16.8816 24.7516 16.7943 24.6481C16.8427 24.6707 16.8978 24.7194 16.9464 24.6707C16.9951 24.6221 17.0337 24.5511 17.1696 24.5349C17.3054 24.5186 17.3541 24.5412 17.4092 24.399C17.4804 24.2242 17.2344 24.2242 17.2344 24.2242C17.2344 24.2242 17.3477 24.1206 17.4739 23.9847C17.6261 23.8424 17.8008 23.6579 17.8428 23.4314C17.9141 23.0139 17.5064 22.959 17.5064 22.959L15.5291 23.5674L13.1116 23.4475L11.0501 24.4735L11.0488 24.4732Z" fill="#927D49"/>
        <path fill-rule="evenodd" clip-rule="evenodd" d="M9.2716 18.7603C9.2716 18.7603 9.2076 18.8412 9.16814 19.0322C9.12868 19.223 9.14553 19.2004 9.1131 19.3364C9.08068 19.4723 8.68238 20.825 8.83172 21.2813C8.98105 21.7377 9.2396 21.906 9.40132 22.2749C9.43374 22.3557 9.46532 22.4044 9.48217 22.4757C9.5372 22.7149 9.48878 22.8995 9.55342 23.139C9.57603 23.2199 9.63449 23.3138 9.72174 23.4109C9.91374 23.6114 10.2267 23.8024 10.3617 23.9383C10.5525 24.139 10.8245 24.5469 11.1707 24.5855C11.3552 24.6082 11.6174 24.5304 11.8342 24.4012C12.0262 24.2813 12.1448 24.1132 12.3462 24.0172C12.4884 23.9459 12.6405 23.9202 12.7765 23.8877C13.058 23.8327 13.3139 23.8237 13.466 23.8553C13.6989 23.9039 14.2491 24.0722 14.554 24.0722C14.7921 24.0684 15.029 24.0358 15.2594 23.9752C15.7221 23.8393 16.2819 23.606 16.651 23.5027C16.8677 23.4387 17.0425 23.4218 17.2206 23.3829C17.5247 23.3117 17.7804 23.2147 17.9261 23.03C17.829 22.9168 17.7094 22.742 17.0619 22.7484C16.3274 22.7647 15.4794 23.1724 15.0619 23.2372C14.6444 23.302 14.4632 23.3569 13.9971 23.1885C13.5401 23.0185 13.525 22.9062 13.525 22.9062C13.525 22.9062 13.0452 22.5705 12.8445 21.715C12.6437 20.8595 12.8445 20.2362 13.3656 19.6438C13.5016 19.4917 13.4691 19.3558 13.4691 19.3558C13.4691 19.3558 13.8121 18.893 13.7184 18.4598C13.6149 18.0293 12.9514 18.1167 12.9514 18.1167L9.27182 18.7603H9.2716Z" fill="#6E6342"/>
        <path fill-rule="evenodd" clip-rule="evenodd" d="M9.8254 20.2002C9.79688 20.2539 9.78345 20.3143 9.78658 20.3749C9.79298 20.4622 9.819 20.5754 10.081 20.8312C10.3043 21.0543 10.2557 21.3036 10.2557 21.3036C10.2557 21.3036 10.3681 21.3262 10.6732 21.1834C10.9128 21.0702 10.9932 21.2709 10.9932 21.2709C11.0629 21.2343 11.1385 21.2102 11.2166 21.1997C11.2873 21.1931 11.3557 21.1713 11.4171 21.1357C11.4171 21.1357 11.6987 21.4236 11.9447 21.5596C12.168 21.6794 12.2975 21.7602 12.4076 21.6794C12.511 21.6082 12.511 21.4624 12.5044 21.3978C12.4788 21.3382 12.4463 21.2817 12.4076 21.2294C12.3363 21.1261 12.2231 21.0062 12.2156 20.9096C12.1994 20.6864 12.3839 20.4208 12.3449 20.3562C12.3058 20.2916 12.1605 20.2753 11.8013 20.4048C11.4292 20.5277 9.82391 20.2009 9.82391 20.2009L9.8254 20.2002Z" fill="#39331F"/>
        <path fill-rule="evenodd" clip-rule="evenodd" d="M10.6734 21.6476C10.6734 21.6476 10.4892 21.473 10.5538 20.6251C10.632 20.624 10.7101 20.6316 10.7867 20.6477C10.7867 20.6477 10.8871 21.3047 10.6734 21.6476Z" fill="#292311"/>
        <path fill-rule="evenodd" clip-rule="evenodd" d="M9.35913 18.1137C9.38485 18.0947 9.4087 18.0732 9.43038 18.0497C9.36638 18.1694 9.07092 18.6484 9.31049 19.4025C9.55007 20.1531 10.1519 20.713 10.893 20.739C11.6341 20.765 12.0237 20.4024 12.4691 19.8587C12.6439 19.642 12.8446 19.37 13.0225 19.1857C13.2879 18.8975 13.495 18.8166 13.495 18.5385C13.495 17.9689 12.9124 17.7131 12.0548 17.4575C11.1972 17.202 10.4237 17.2335 10.0224 17.4085C9.63092 17.5991 9.46259 17.7999 9.35892 18.114L9.35913 18.1137Z" fill="black"/>
        <path fill-rule="evenodd" clip-rule="evenodd" d="M12.1134 21.9029L12.1774 21.8704C12.1774 21.8704 12.1934 21.6144 12.2971 21.6212C12.4006 21.6375 12.4492 21.7735 12.4394 21.822C12.433 21.8704 12.4072 21.9515 12.3035 21.9416C12.1676 21.9449 12.1128 21.9029 12.1128 21.9029H12.1134Z" fill="#3F3824"/>
        <path fill-rule="evenodd" clip-rule="evenodd" d="M11.8252 20.8156C11.8252 20.8156 11.8892 20.7929 11.9675 20.8706C12.0315 20.8706 12.3105 20.8382 12.398 20.8932C12.4855 20.9483 12.5113 20.9967 12.5113 20.9967C12.5113 20.9967 12.1844 21.0681 12.0063 20.9967C11.8252 20.9353 11.8252 20.8156 11.8252 20.8156Z" fill="#2D2815"/>
        <path fill-rule="evenodd" clip-rule="evenodd" d="M13.2655 20.864C13.2655 20.8479 13.0908 20.7281 12.9063 20.6891C12.8738 20.6828 12.8671 20.7054 12.8423 20.7054C12.826 20.699 12.8196 20.6504 12.8196 20.6504L12.7146 20.7056C12.7146 20.7056 12.6984 20.7281 12.7535 20.7695C12.8019 20.8084 12.883 20.8408 12.9056 20.9054C12.9283 20.97 12.9283 20.9926 12.938 21.0025C12.9444 21.0089 13.0578 21.0025 13.1128 20.97C13.1678 20.9376 13.2715 20.8848 13.2649 20.8634L13.2655 20.864Z" fill="#82764F"/>
        <path fill-rule="evenodd" clip-rule="evenodd" d="M11.6313 21.5218C11.6313 21.5218 11.6636 21.2988 11.8805 21.2889C12.1037 21.2728 12.1459 21.4894 12.1459 21.4894L12.0164 21.6188C12.0164 21.6157 11.9193 21.4798 11.6324 21.5218H11.6313Z" fill="#2D2816"/>
        <path fill-rule="evenodd" clip-rule="evenodd" d="M13.0391 20.5599C13.0391 20.5599 12.9191 20.6894 12.654 20.7282C12.6314 20.6958 12.5828 20.6312 12.654 20.5277C12.7253 20.4243 12.8061 20.3918 12.887 20.4241C12.9226 20.4298 12.9559 20.4457 12.9829 20.4698C13.0099 20.4938 13.0294 20.5251 13.0391 20.5599Z" fill="#574F35"/>
        <path fill-rule="evenodd" clip-rule="evenodd" d="M13.5275 20.7184C13.5342 20.6859 13.5115 20.6796 13.5275 20.6634C13.5435 20.6472 13.6312 20.6149 13.6474 20.6309C13.6538 20.6376 13.6474 20.6634 13.6474 20.6949C13.6474 20.7266 13.6474 20.7589 13.6312 20.7822C13.6087 20.8147 13.5439 20.8308 13.5115 20.8212C13.4792 20.8117 13.4727 20.7662 13.4727 20.7572C13.4887 20.7508 13.5275 20.7347 13.5275 20.7184ZM14.08 20.3691C14.08 20.3528 14.1352 20.3203 14.1675 20.3203C14.2159 20.3203 14.2159 20.3592 14.2225 20.3691C14.2385 20.3754 14.2385 20.3624 14.2548 20.3916C14.271 20.4208 14.2938 20.4724 14.2774 20.5049C14.261 20.5373 14.1965 20.5597 14.1805 20.5533C14.1579 20.5371 14.0867 20.3916 14.08 20.3691Z" fill="#82764F"/>
        <path fill-rule="evenodd" clip-rule="evenodd" d="M12.9678 20.7931C12.9678 20.7931 13.039 20.8091 13.1361 20.8902C13.1038 20.9128 13.055 20.9386 13.055 20.9386C13.055 20.9386 13.0486 20.8642 12.9678 20.793V20.7931Z" fill="#6E6342"/>
        <path fill-rule="evenodd" clip-rule="evenodd" d="M12.8092 20.0805C12.793 20.0645 12.8577 20.0257 12.8965 20.032C12.9353 20.0385 12.9515 20.0645 12.9935 20.0709C13.0355 20.0773 13.0422 20.0547 13.0575 20.0385C13.0729 20.0223 13.1288 20.032 13.1384 20.0385C13.1444 20.0455 13.1498 20.0532 13.1547 20.061C13.1553 20.0488 13.1585 20.0368 13.164 20.0258C13.1695 20.0148 13.1773 20.005 13.1868 19.997C13.1993 19.988 13.2135 19.9818 13.2287 19.979C13.2439 19.9762 13.2594 19.9768 13.2743 19.9809C13.2807 20.0035 13.3132 20.0844 13.3068 20.1005C13.3003 20.1168 13.2033 20.1397 13.1868 20.1232C13.203 20.1622 13.2743 20.243 13.2839 20.259C13.2935 20.275 13.2127 20.3142 13.1804 20.3077C13.1352 20.3045 12.8568 20.1425 12.8084 20.0812L12.8092 20.0805ZM13.2332 19.5433C13.2272 19.527 13.2157 19.5133 13.2007 19.5045C13.178 19.4982 13.1037 19.5045 13.1037 19.5433C13.1037 19.5822 13.1677 19.7993 13.2395 19.9124C13.3205 20.0257 13.3754 20.1193 13.4304 20.1454C13.4478 20.1533 13.4674 20.1543 13.4854 20.1483C13.5034 20.1423 13.5184 20.1297 13.5275 20.1129C13.5339 20.0968 13.5502 19.977 13.5438 19.6954C13.5373 19.4138 13.5275 19.142 13.5113 19.1258C13.4952 19.1097 13.4304 19.1098 13.4078 19.142C13.3853 19.1743 13.2395 19.4949 13.2329 19.5433H13.2332Z" fill="#585136"/>
        <path fill-rule="evenodd" clip-rule="evenodd" d="M12.9451 21.2007C12.9451 21.2007 12.8318 21.1295 12.7217 21.1781C12.6182 21.2267 12.6246 21.4177 12.6246 21.4177C12.648 21.4269 12.6731 21.4301 12.698 21.4272C12.7227 21.4245 12.7465 21.4156 12.7672 21.4015C12.8385 21.3531 12.9288 21.2722 12.9451 21.201V21.2007Z" fill="#574F35"/>
        <path fill-rule="evenodd" clip-rule="evenodd" d="M13.1587 21.4562C13.1524 21.3922 13.0947 21.3922 13.0947 21.359C13.0987 21.3433 13.1079 21.3293 13.1207 21.3193C13.1336 21.3093 13.1495 21.3039 13.1657 21.304C13.1982 21.304 13.2297 21.3429 13.2695 21.368C13.3082 21.3907 13.3665 21.432 13.373 21.4813C13.3794 21.5307 13.309 21.6657 13.2306 21.6657C13.1524 21.6657 13.1756 21.5199 13.1594 21.4553L13.1587 21.4562ZM13.7834 21.3687C13.7834 21.3687 13.6539 21.4075 13.6635 21.3687C13.6731 21.3299 13.7025 21.3203 13.7446 21.3203C13.7659 21.2979 13.7946 21.284 13.8254 21.2813C13.843 21.2804 13.8604 21.2862 13.8739 21.2974C13.8739 21.2974 13.9614 21.2587 13.9871 21.2813C14.013 21.3038 13.9937 21.3038 14.0097 21.3299C14.0301 21.3588 14.0435 21.392 14.0487 21.4269C14.0487 21.4528 13.9517 21.5078 13.8739 21.4982C13.7834 21.4788 13.7994 21.3849 13.7834 21.3687ZM14.5374 21.223C14.5374 21.223 14.5761 21.2455 14.5439 21.2717C14.5214 21.2943 14.408 21.3357 14.3107 21.3429C14.2137 21.3429 14.1265 21.3589 14.1265 21.3267C14.1265 21.2944 14.2072 21.2295 14.2557 21.2134C14.2654 21.2012 14.2777 21.1914 14.2917 21.1847C14.3059 21.1779 14.3212 21.1745 14.3367 21.1745C14.3756 21.1745 14.5275 21.1583 14.5697 21.1519C14.6086 21.1453 14.641 21.1679 14.6181 21.2004C14.6086 21.223 14.5374 21.223 14.5374 21.223ZM14.7606 20.2237C14.7606 20.2237 14.712 20.3272 14.6572 20.3272C14.6021 20.3208 14.6021 20.3045 14.6021 20.2883C14.6021 20.2658 14.6572 20.2075 14.6506 20.1913C14.6346 20.1913 14.5955 20.1913 14.6021 20.1524C14.6021 20.12 14.6572 20.0812 14.7056 20.0884C14.7422 20.0584 14.7877 20.0413 14.8351 20.04C14.8901 20.04 14.9386 20.056 14.9386 20.0884C14.9386 20.1209 14.8746 20.1919 14.8511 20.2083C14.8254 20.2342 14.7929 20.251 14.7606 20.2243V20.2237ZM14.0227 22.1363C14.0227 22.1363 13.9587 22.1429 13.9587 22.1752C13.9587 22.1913 13.9747 22.1913 13.9976 22.1818C14.0107 22.181 14.0237 22.1788 14.0364 22.1752C14.0429 22.1818 14.0429 22.2139 14.0915 22.2139C14.1314 22.2085 14.1699 22.1954 14.2047 22.1752C14.2435 22.1592 14.276 22.1427 14.276 22.1112C14.2597 22.056 14.2274 22.03 14.1789 22.03C14.1541 22.0285 14.1294 22.0342 14.1076 22.0463C14.1076 22.0463 14.0915 22.0138 14.0364 22.0463C13.9814 22.0787 13.9877 22.0787 14.004 22.0949C14.033 22.1207 14.0234 22.1375 14.0234 22.1375L14.0227 22.1363ZM13.6571 22.4729C13.6571 22.4568 13.738 22.4243 13.7606 22.4342C13.7831 22.4405 13.8479 22.5634 13.8479 22.5764C13.8479 22.5927 13.767 22.6314 13.7345 22.6314C13.7021 22.6314 13.6472 22.5764 13.6472 22.5674C13.6472 22.561 13.6861 22.5514 13.6861 22.5448C13.6957 22.5288 13.6571 22.4898 13.6571 22.4735V22.4729ZM13.4011 22.0004C13.4174 21.994 13.4174 21.9778 13.4399 21.9615C13.447 21.9569 13.4551 21.9538 13.4635 21.9527C13.472 21.9517 13.4805 21.9524 13.4886 21.9552C13.4942 21.945 13.5021 21.9362 13.5117 21.9294C13.5212 21.9227 13.5321 21.9182 13.5436 21.9162C13.5825 21.9097 13.6149 21.9162 13.6076 21.9323C13.6076 21.981 13.64 22.0132 13.64 22.052C13.64 22.0908 13.6174 22.1395 13.5366 22.1719C13.4557 22.1945 13.3456 22.1945 13.3294 22.1882C13.3132 22.1818 13.297 22.1169 13.3132 22.0844C13.3294 22.052 13.3746 22.0167 13.4006 22.0004H13.4011Z" fill="#82764F"/>
        <path fill-rule="evenodd" clip-rule="evenodd" d="M13.5039 22.0225C13.5039 22.0225 13.4489 22.0548 13.4489 22.0711C13.444 22.0867 13.4418 22.1031 13.4425 22.1195C13.4425 22.1291 13.5138 22.1131 13.5234 22.1032C13.5265 22.0968 13.5039 22.0392 13.5039 22.0225Z" fill="#6E6342"/>
        <path fill-rule="evenodd" clip-rule="evenodd" d="M13.0227 21.8704C13.0549 21.877 13.11 21.8704 13.152 21.8866C13.1844 21.9029 13.207 21.9353 13.1746 21.9741C13.1421 22.0129 13.1106 22.0711 13.0387 22.0614C12.9579 22.0549 12.8802 22.0129 12.8802 21.9805C12.8789 21.96 12.8816 21.9394 12.8882 21.92C12.8949 21.9005 12.9054 21.8826 12.919 21.8673C12.9515 21.8414 12.9675 21.8576 13.0225 21.8704H13.0227Z" fill="#585136"/>
        <path fill-rule="evenodd" clip-rule="evenodd" d="M12.9841 21.9033C12.9841 21.9033 12.8806 21.9841 12.8546 22.0232C12.8221 22.0619 12.6636 22.2626 12.6152 22.3046C12.6314 22.2762 12.6496 22.2492 12.6701 22.2237C12.6061 22.2646 12.5581 22.3263 12.5342 22.3984C12.4954 22.5183 12.7511 22.5829 12.9192 22.6316C13.0872 22.6802 13.1524 22.6956 13.1524 22.6956C13.0905 22.6026 13.0374 22.5041 12.9936 22.4012C12.9296 22.2491 12.8966 22.2328 12.9386 22.1616C12.971 22.0903 13.0197 22.0419 13.0197 21.9869C13.0002 21.9357 12.9841 21.9033 12.9841 21.9033Z" fill="#574F35"/>
        <path fill-rule="evenodd" clip-rule="evenodd" d="M9.29437 22.1588C9.31793 22.1632 9.34207 22.1632 9.36563 22.1588C9.41406 22.1522 9.91901 21.9668 10.4466 22.0001C10.8415 22.024 11.233 22.0883 11.6148 22.1921C12.2783 22.3668 13.1034 22.7131 13.6374 22.9107C13.7796 22.9655 13.919 23.0627 14.0214 23.1013C14.4293 23.2601 14.4453 23.2601 14.6849 23.3021C14.9664 23.341 15.2544 23.2471 15.5555 23.1825C15.9243 23.1013 16.5554 23.0626 17.1088 22.9817C17.2876 22.9568 17.4641 22.9168 17.6363 22.862C17.6363 22.862 17.1961 23.3021 16.141 23.4606C15.7145 23.5255 15.2811 23.5308 14.8531 23.4768C14.5165 23.4445 14.2934 23.3958 14.125 23.3473C13.9341 23.2923 13.5425 23.1466 13.0603 23.0273C12.7236 22.9398 12.3482 22.8752 11.9179 22.7943C10.8564 22.6001 9.7044 22.3768 9.29395 22.1601L9.29437 22.1588Z" fill="black"/>
        <path fill-rule="evenodd" clip-rule="evenodd" d="M8.10338 20.1582C7.84738 20.375 7.5758 20.5821 7.31064 20.7826L6.51128 21.3968C6.23949 21.5973 5.9741 21.8045 5.70212 22.0052C5.43012 22.206 5.15854 22.3967 4.87012 22.5812C5.12612 22.3645 5.39769 22.1637 5.66947 21.9665C5.94125 21.7691 6.22307 21.5756 6.48526 21.3755L7.28461 20.7605C7.55959 20.56 7.82498 20.3527 8.10338 20.1586V20.1582ZM6.6892 22.4236C6.6892 22.4236 6.9772 22.184 7.33645 21.8476C7.78295 21.4303 8.32994 20.8961 8.50465 20.7993L6.68899 22.4238L6.6892 22.4236Z" fill="#CFB66C"/>
        <path fill-rule="evenodd" clip-rule="evenodd" d="M6.68896 22.424C6.83148 22.2817 6.98358 22.1426 7.13569 22.0066L7.36864 21.806C7.4399 21.742 7.52097 21.6701 7.592 21.5988C7.7343 21.4566 7.8736 21.3042 8.0159 21.1588C8.08643 21.0856 8.16099 21.0165 8.23926 20.9516C8.27839 20.917 8.32184 20.8876 8.36854 20.8642C8.40758 20.8416 8.4496 20.8002 8.50443 20.793C8.47222 20.8416 8.43339 20.8642 8.40096 20.9062C8.36214 20.9386 8.32971 20.9775 8.2975 21.0097C8.22624 21.081 8.14539 21.1456 8.07414 21.2105C7.92203 21.3398 7.76353 21.4663 7.61141 21.6018C7.45931 21.7373 7.31701 21.8835 7.1647 22.0193C6.99979 22.1586 6.84769 22.2945 6.68896 22.4246V22.424ZM8.62433 21.1296C8.62433 21.1296 7.56939 22.1621 7.35243 22.3301L8.62433 21.1296Z" fill="#CFB66C"/>
        <path fill-rule="evenodd" clip-rule="evenodd" d="M8.62444 21.1289C8.52954 21.2387 8.42779 21.3424 8.31979 21.4395L7.99979 21.7437C7.89633 21.8472 7.79905 21.9508 7.68918 22.0543C7.5759 22.1514 7.47244 22.2463 7.35254 22.3359L7.66315 22.0317C7.76684 21.9283 7.88011 21.841 7.99019 21.7373L8.30081 21.433C8.40748 21.3264 8.51115 21.2228 8.62444 21.1289ZM8.67286 21.6887C8.57563 21.96 8.46104 22.2249 8.32983 22.4817C8.05804 23.0254 7.65035 23.7049 7.47223 24.0513L8.67286 21.6887Z" fill="#CFB66C"/>
        <path fill-rule="evenodd" clip-rule="evenodd" d="M8.67302 21.6895C8.67302 21.8091 8.6406 21.9128 8.60177 22.0162C8.56392 22.1198 8.52077 22.2213 8.47249 22.3205C8.42385 22.4176 8.36881 22.5212 8.31377 22.6151C8.25874 22.709 8.1941 22.8058 8.14545 22.9031L7.81862 23.4792C7.70535 23.6712 7.59526 23.8643 7.47559 24.0488C7.55644 23.8417 7.66652 23.6475 7.7702 23.4566C7.88347 23.2646 7.98695 23.0726 8.0902 22.874C8.14061 22.775 8.18597 22.6735 8.2261 22.5698C8.27452 22.4662 8.32295 22.3691 8.36199 22.2752C8.41041 22.1718 8.44924 22.0745 8.49787 21.9808C8.55271 21.8803 8.59815 21.7833 8.6726 21.6895H8.67302Z" fill="#CFB66C"/>
        <path fill-rule="evenodd" clip-rule="evenodd" d="M9.82541 24.3428C9.82541 24.3428 9.50541 24.7666 9.53741 25.3038C9.62466 25.0224 9.73474 24.5919 9.82541 24.3428ZM10.1296 24.7676C10.1296 24.7676 10.0163 25.9196 9.92247 26.4861C10.0552 25.8314 10.081 25.8864 10.1296 24.7676ZM12.2493 26.5541C12.2493 26.5541 11.7703 27.9621 11.7605 28.3534C11.8642 27.951 12.0647 27.129 12.2493 26.553V26.5541Z" fill="#DEC270"/>
        <path fill-rule="evenodd" clip-rule="evenodd" d="M13.3691 24.2568C13.3691 24.2568 14.1459 25.5383 14.7285 26.6321C14.5709 26.0817 14.2081 25.0722 13.3691 24.2568Z" fill="#CBAF59"/>
        <path fill-rule="evenodd" clip-rule="evenodd" d="M15.4561 26.1426C15.8826 26.8965 16.2672 27.6732 16.6081 28.4695C16.5434 27.9192 16.3686 26.9776 15.4561 26.1426Z" fill="#E3C677"/>
        <path fill-rule="evenodd" clip-rule="evenodd" d="M21.5926 28.0326C21.7219 27.9518 21.9776 27.5114 22.201 27.4016C22.4241 27.2883 22.5925 27.2657 22.7932 27.0423C22.9937 26.8092 23.0492 26.6668 23.4889 26.4826C24.1039 26.2169 23.6809 25.8739 23.6809 25.8739C23.7486 25.8073 23.8211 25.7458 23.8976 25.6896C24.0564 25.5699 24.2406 25.4242 24.2246 25.1684C24.2021 24.7381 24.1212 24.1134 23.7684 23.7511C24.1114 23.6798 24.7682 23.6313 25.1764 23.5278C25.6487 23.4079 25.8656 23.2397 25.8656 23.2397C25.8656 23.2397 25.5939 22.7769 26.034 22.3111C26.4741 21.8451 26.8334 21.5667 27.0987 21.0456C26.7945 21.0067 26.3307 20.8449 25.1471 21.2947C25.211 21.3248 25.2727 21.3593 25.3316 21.3982C25.3316 21.3982 24.6036 21.5989 24.3381 21.8223C23.8752 22.2137 23.817 22.5342 23.3155 22.7737C22.8139 23.0133 22.309 22.9484 21.8916 23.1426C21.4744 23.3367 21.4127 23.5018 21.2604 23.5731C21.2929 23.6119 21.254 23.6766 21.3155 23.7316C21.2766 23.7867 21.05 24.1554 20.8202 24.1554C20.8429 24.2429 21.037 24.3076 21.037 24.3076C21.037 24.3076 20.8947 24.4113 20.5322 24.4371C20.7166 24.6291 20.8915 24.8383 21.3736 25.1426C21.3349 25.2234 21.1729 25.3433 21.2377 25.4954C21.309 25.6476 21.4937 25.8547 22.2312 26.0231C21.8559 26.0391 21.4159 26.1264 20.8232 26.0457C20.2311 25.9743 20.134 25.9323 19.7684 26.0231C19.8071 26.0618 19.9106 26.0618 20.0012 26.1653C19.9042 26.1717 19.2957 26.0941 19.0886 26.3661C18.8719 26.6474 18.778 27.1103 18.7942 27.4209C18.681 27.4761 18.5709 27.5731 18.626 27.7738C18.681 27.9746 18.969 28.0392 19.1535 28.1653C19.3379 28.3012 19.354 28.3497 19.529 28.3174C19.7132 28.2786 19.9851 28.0943 20.1437 28.0943C20.3025 28.0943 20.4156 28.2139 20.4156 28.2139C20.4156 28.2139 20.8461 28.0068 20.8881 28.0457C20.927 28.0844 20.8945 28.3337 20.9365 28.3724C20.9792 28.4017 21.4641 28.1137 21.5936 28.0326H21.5926Z" fill="#ECD592"/>
        <path fill-rule="evenodd" clip-rule="evenodd" d="M31.0003 15.0816C28.9776 9.8583 23.9775 8.89062 23.9775 8.89062H9.71213L9.76716 14.2109H12.6082V26.0913H9.71191V31.4019H23.5827C26.9255 31.4019 29.6053 28.0427 29.6053 28.0427C33.8964 21.9522 31 15.0816 31 15.0816H31.0003ZM23.657 24.4633C23.657 24.4633 22.569 26.0331 21.3853 26.0331H19.0173L18.9612 14.2239H22.0002C22.0002 14.2239 23.4082 14.5183 24.3918 17.3047C24.3918 17.3047 25.6959 21.294 23.657 24.4633Z" fill="white" fill-opacity="0.8"/>
    </g>
    <defs>
        <clipPath id="clip0_1040_85128">
            <rect width="40" height="40" fill="white"/>
        </clipPath>
    </defs>
</svg>
