<svg width="24" height="24" viewBox="0 0 24 24" fill="none" xmlns="http://www.w3.org/2000/svg">
    <g clip-path="url(#clip0_694_49556)">
        <path d="M12 24C18.6274 24 24 18.6274 24 12C24 5.37258 18.6274 0 12 0C5.37258 0 0 5.37258 0 12C0 18.6274 5.37258 24 12 24Z" fill="#26A17B"/>
        <path fill-rule="evenodd" clip-rule="evenodd" d="M13.2165 13.173V13.1715C13.134 13.1775 12.7088 13.203 11.76 13.203C11.0025 13.203 10.4693 13.1805 10.2818 13.1715V13.1738C7.36575 13.0455 5.18925 12.5378 5.18925 11.9303C5.18925 11.3235 7.36575 10.8158 10.2818 10.6853V12.6682C10.4723 12.6817 11.0183 12.714 11.7728 12.714C12.678 12.714 13.1318 12.6765 13.2165 12.669V10.6868C16.1265 10.8165 18.2978 11.3243 18.2978 11.9303C18.2978 12.5378 16.1265 13.044 13.2165 13.173V13.173ZM13.2165 10.4805V8.706H17.277V6H6.22125V8.706H10.2818V10.4798C6.98175 10.6313 4.5 11.2852 4.5 12.0682C4.5 12.8512 6.98175 13.5045 10.2818 13.6567V19.3433H13.2165V13.6552C16.5113 13.5037 18.987 12.8505 18.987 12.0682C18.987 11.286 16.5113 10.6328 13.2165 10.4805" fill="white"/>
    </g>
    <defs>
        <clipPath id="clip0_694_49556">
            <rect width="24" height="24" fill="white"/>
        </clipPath>
    </defs>
</svg>
