<svg width="24" height="24" viewBox="0 0 24 24" fill="none" xmlns="http://www.w3.org/2000/svg">
    <g clip-path="url(#clip0_694_49546)">
        <path d="M12 24C18.6274 24 24 18.6274 24 12C24 5.37258 18.6274 0 12 0C5.37258 0 0 5.37258 0 12C0 18.6274 5.37258 24 12 24Z" fill="#2775C9"/>
        <path d="M11.8125 20.625C6.945 20.625 3 16.68 3 11.8125C3 6.945 6.945 3 11.8125 3C16.68 3 20.625 6.945 20.625 11.8125C20.625 14.1497 19.6965 16.3912 18.0439 18.0439C16.3912 19.6965 14.1497 20.625 11.8125 20.625V20.625ZM11.2875 8.5425C10.8053 8.56641 10.3495 8.7697 10.0095 9.11245C9.66956 9.4552 9.46999 9.91265 9.45 10.395C9.45 11.3025 10.005 11.895 11.1825 12.1425L12.0075 12.3375C12.81 12.525 13.14 12.795 13.14 13.2525C13.14 13.71 12.5625 14.16 11.8125 14.16C11.5461 14.1844 11.2782 14.1334 11.0395 14.0127C10.8007 13.892 10.6008 13.7065 10.4625 13.4775C10.4215 13.3906 10.3569 13.317 10.2759 13.2653C10.195 13.2136 10.1011 13.1857 10.005 13.185H9.5625C9.52847 13.1913 9.49603 13.2043 9.46703 13.2232C9.43803 13.2421 9.41306 13.2665 9.39354 13.2951C9.37402 13.3236 9.36035 13.3558 9.3533 13.3897C9.34626 13.4236 9.34599 13.4585 9.3525 13.4925C9.46029 13.9324 9.7109 14.3242 10.0651 14.6065C10.4193 14.8887 10.8571 15.0456 11.31 15.0525V15.6825C11.31 15.8227 11.3657 15.9572 11.4649 16.0564C11.564 16.1555 11.6985 16.2112 11.8387 16.2112C11.979 16.2112 12.1135 16.1555 12.2126 16.0564C12.3118 15.9572 12.3675 15.8227 12.3675 15.6825V15.045C12.8796 15.0392 13.3692 14.8337 13.732 14.4723C14.0948 14.1109 14.3022 13.6221 14.31 13.11C14.31 12.1575 13.7625 11.61 12.465 11.3325L11.715 11.1675C10.965 10.98 10.6125 10.7325 10.6125 10.3125C10.6125 9.8925 11.0625 9.4275 11.8125 9.4275C12.0487 9.40283 12.287 9.44706 12.4986 9.55487C12.7102 9.66267 12.8861 9.82942 13.005 10.035C13.0532 10.1377 13.1295 10.2246 13.2251 10.2856C13.3207 10.3467 13.4316 10.3794 13.545 10.38H13.8975C13.9776 10.3604 14.0469 10.3101 14.0904 10.24C14.1338 10.1699 14.1481 10.0855 14.13 10.005C14.0284 9.59883 13.8011 9.23512 13.4806 8.96576C13.16 8.6964 12.7626 8.53514 12.345 8.505V7.9875C12.345 7.84727 12.2893 7.71278 12.1901 7.61362C12.091 7.51446 11.9565 7.45875 11.8163 7.45875C11.676 7.45875 11.5415 7.51446 11.4424 7.61362C11.3432 7.71278 11.2875 7.84727 11.2875 7.9875V8.5425V8.5425ZM5.205 11.8125C5.20586 13.1941 5.64073 14.5404 6.44819 15.6614C7.25565 16.7825 8.39489 17.6215 9.705 18.06H9.81C9.89951 18.06 9.98536 18.0244 10.0486 17.9611C10.1119 17.8979 10.1475 17.812 10.1475 17.7225V17.565C10.1477 17.4254 10.1065 17.2888 10.0291 17.1727C9.95165 17.0565 9.84147 16.966 9.7125 16.9125C8.6922 16.5007 7.81826 15.7933 7.20284 14.8813C6.58742 13.9692 6.25861 12.894 6.25861 11.7938C6.25861 10.6935 6.58742 9.6183 7.20284 8.70624C7.81826 7.79417 8.6922 7.08683 9.7125 6.675C9.84087 6.62285 9.9508 6.53366 10.0283 6.41878C10.1058 6.30391 10.1473 6.16856 10.1475 6.03V5.8575C10.148 5.80685 10.1363 5.75683 10.1133 5.71169C10.0903 5.66654 10.0568 5.62759 10.0156 5.59815C9.97439 5.56871 9.92668 5.54965 9.87653 5.54257C9.82637 5.53549 9.77525 5.54061 9.7275 5.5575C8.41197 5.99257 7.26697 6.83108 6.45512 7.95393C5.64328 9.07679 5.20586 10.4269 5.205 11.8125V11.8125ZM18.42 11.8125C18.4176 10.4322 17.982 9.08754 17.1746 7.96801C16.3673 6.84849 15.2289 6.0106 13.92 5.5725H13.8075C13.714 5.5725 13.6244 5.60964 13.5582 5.67574C13.4921 5.74185 13.455 5.83151 13.455 5.925V6.0375C13.458 6.18215 13.5028 6.32284 13.584 6.44261C13.6652 6.56237 13.7793 6.6561 13.9125 6.7125C14.9305 7.12553 15.802 7.83292 16.4157 8.74413C17.0293 9.65534 17.3571 10.7289 17.3571 11.8275C17.3571 12.9261 17.0293 13.9997 16.4157 14.9109C15.802 15.8221 14.9305 16.5295 13.9125 16.9425C13.7818 16.9995 13.6701 17.0925 13.5904 17.2108C13.5107 17.329 13.4663 17.4675 13.4625 17.61V17.7375C13.4631 17.7931 13.4769 17.8478 13.5027 17.897C13.5285 17.9463 13.5656 17.9887 13.611 18.0209C13.6563 18.0531 13.7086 18.0741 13.7636 18.0822C13.8187 18.0903 13.8748 18.0853 13.9275 18.0675C15.2374 17.6273 16.3759 16.7866 17.182 15.6642C17.9882 14.5418 18.4212 13.1944 18.42 11.8125V11.8125Z" fill="white"/>
    </g>
    <defs>
        <clipPath id="clip0_694_49546">
            <rect width="24" height="24" fill="white"/>
        </clipPath>
    </defs>
</svg>
