<svg width="756" height="48" viewBox="0 0 756 48" fill="none" xmlns="http://www.w3.org/2000/svg">
<path fillRule="evenodd" clipRule="evenodd" d="M34.9259 36.7325L24.0004 17.809L13.0749 36.7325L34.9259 36.7325ZM24.7386 17.3827C24.4105 16.8145 23.5903 16.8145 23.2622 17.3827L12.3367 36.3063C12.0086 36.8746 12.4187 37.5849 13.0749 37.5849H34.9259C35.5821 37.5849 35.9922 36.8746 35.6641 36.3063L24.7386 17.3827Z" fill="black"/>
<path fillRule="evenodd" clipRule="evenodd" d="M30.7902 34.3462L23.9986 22.5829L17.2071 34.3462H30.7902ZM24.7368 22.1567C24.4087 21.5884 23.5885 21.5884 23.2604 22.1567L16.4689 33.92C16.1408 34.4882 16.5509 35.1986 17.2071 35.1986H30.7902C31.4463 35.1986 31.8565 34.4882 31.5284 33.92L24.7368 22.1567Z" fill="black"/>
<path fillRule="evenodd" clipRule="evenodd" d="M27.2495 32.3001L24.0013 26.6742L20.7532 32.3001H27.2495ZM24.7396 26.248C24.4115 25.6797 23.5912 25.6797 23.2631 26.248L20.015 31.8739C19.6869 32.4422 20.097 33.1525 20.7532 33.1525H27.2495C27.9057 33.1525 28.3158 32.4422 27.9877 31.8739L24.7396 26.248Z" fill="black"/>
<path d="M23.4083 30.0841C23.6708 29.6295 24.327 29.6295 24.5894 30.0841C24.8519 30.5387 24.5238 31.107 23.9989 31.107C23.4739 31.107 23.1458 30.5387 23.4083 30.0841Z" fill="black"/>
<path fillRule="evenodd" clipRule="evenodd" d="M38.4699 38.7786L24.001 13.7176L9.53203 38.7786H38.4699ZM24.7392 13.2914C24.4111 12.7232 23.5908 12.7232 23.2627 13.2914L8.79382 38.3524C8.46572 38.9206 8.87584 39.631 9.53203 39.631H38.4699C39.1261 39.631 39.5362 38.9206 39.2081 38.3524L24.7392 13.2914Z" fill="black"/>
<path fillRule="evenodd" clipRule="evenodd" d="M42.0139 40.8241L24.0015 9.62585L5.98918 40.8241H42.0139ZM24.7397 9.19964C24.4116 8.63137 23.5914 8.63137 23.2633 9.19964L5.25097 40.3979C4.92288 40.9662 5.33299 41.6765 5.98918 41.6765H42.0139C42.67 41.6765 43.0802 40.9662 42.7521 40.3979L24.7397 9.19964Z" fill="black"/>
<path fillRule="evenodd" clipRule="evenodd" d="M46.1463 43.211L24 4.85241L1.85368 43.211H46.1463ZM24.7382 4.42621C24.4101 3.85793 23.5899 3.85793 23.2618 4.42621L1.11547 42.7848C0.78738 43.353 1.1975 44.0634 1.85368 44.0634H46.1463C46.8025 44.0634 47.2126 43.353 46.8845 42.7848L24.7382 4.42621Z" fill="black"/>
<path d="M73.26 34.5V14.9H77.74V19.632L76.424 23.356H77.124L81.016 14.9H85.888L81.52 23.916L85.748 34.5H80.96L78.328 27.752L77.74 29.096V34.5H73.26ZM87.8473 34.5V14.9H93.6713C96.1633 14.9 97.9273 15.768 98.8793 17.364C99.3833 18.232 99.6353 19.324 99.6353 20.584C99.6353 21.564 99.3833 22.488 98.9353 23.244C98.3753 24.224 97.3113 24.924 96.0233 25.26V25.876L97.5073 26.184L100.083 34.5H95.0713L92.5793 26.296H92.3273V34.5H87.8473ZM92.3273 22.88H93.2513C93.9233 22.88 94.5393 22.572 94.8473 22.04C95.0153 21.76 95.1273 21.396 95.1273 20.976C95.1273 20.584 95.0433 20.276 94.8753 19.996C94.5673 19.436 93.9513 19.1 93.2513 19.1H92.3273V22.88ZM101.212 34.5L103.732 14.9H111.992L114.512 34.5H109.724L109.22 29.6H106.504L106 34.5H101.212ZM106.952 25.4H108.772L108.212 19.856V17.7H107.512V19.856L106.952 25.4ZM117.433 34.5L115.249 14.9H120.037L121.269 28.424V31.14H121.969V28.424L123.201 14.9H127.989L125.805 34.5H117.433ZM130.414 32.54C130.414 31.6813 130.647 31.084 131.114 30.748C131.581 30.3933 132.15 30.216 132.822 30.216C133.475 30.216 134.035 30.3933 134.502 30.748C134.969 31.084 135.202 31.6813 135.202 32.54C135.202 33.3613 134.969 33.9587 134.502 34.332C134.035 34.6867 133.475 34.864 132.822 34.864C132.15 34.864 131.581 34.6867 131.114 34.332C130.647 33.9587 130.414 33.3613 130.414 32.54ZM130.414 21.256C130.414 20.3973 130.647 19.8 131.114 19.464C131.581 19.1093 132.15 18.932 132.822 18.932C133.475 18.932 134.035 19.1093 134.502 19.464C134.969 19.8 135.202 20.3973 135.202 21.256C135.202 22.0773 134.969 22.6747 134.502 23.048C134.035 23.4027 133.475 23.58 132.822 23.58C132.15 23.58 131.581 23.4027 131.114 23.048C130.647 22.6747 130.414 22.0773 130.414 21.256ZM137.783 34.5L140.303 14.9H148.563L151.083 34.5H146.295L145.791 29.6H143.075L142.571 34.5H137.783ZM143.523 25.4H145.343L144.783 19.856V17.7H144.083V19.856L143.523 25.4ZM153.319 34.5V14.9H160.319L161.271 26.072V31.14H161.971V26.072L162.923 14.9H169.923V34.5H166.003V18.26H165.303L165.163 24.476L164.127 34.5H159.115L158.079 24.476L157.939 18.26H157.239V34.5H153.319ZM172.992 34.5V14.9H178.368C180.888 14.9 182.876 15.908 183.94 17.728C184.472 18.652 184.78 19.8 184.78 21.116C184.78 22.432 184.472 23.58 183.94 24.504C182.876 26.324 180.888 27.36 178.368 27.36H177.472V34.5H172.992ZM177.472 23.16H178.284C179.068 23.16 179.684 22.768 179.992 22.236C180.188 21.9 180.272 21.536 180.272 21.116C180.272 20.696 180.188 20.332 179.992 19.996C179.684 19.464 179.068 19.1 178.284 19.1H177.472V23.16ZM186.951 34.5V14.9H191.431V30.3H196.135V34.5H186.951ZM198.23 34.5V14.9H202.71V34.5H198.23ZM205.79 34.5V14.9H215.254V19.1H210.27V22.6H214.974V26.8H210.27V34.5H205.79ZM217.643 34.5V14.9H222.123V34.5H217.643ZM225.203 34.5V14.9H234.667V19.1H229.683V22.6H234.387V26.8H229.683V30.3H234.667V34.5H225.203ZM237.192 34.5V14.9H242.708C245.704 14.9 247.384 16.132 248.252 18.54C248.868 20.248 249.092 22.516 249.092 24.7C249.092 26.884 248.868 29.152 248.252 30.86C247.384 33.268 245.704 34.5 242.708 34.5H237.192ZM241.672 30.3H242.708C243.352 30.3 243.772 29.88 244.024 29.18C244.416 28.088 244.472 26.128 244.472 24.7C244.472 23.272 244.416 21.312 244.024 20.22C243.772 19.52 243.352 19.1 242.708 19.1H241.672V30.3ZM255.273 34.5L257.793 14.9H266.053L268.573 34.5H263.785L263.281 29.6H260.565L260.061 34.5H255.273ZM261.013 25.4H262.833L262.273 19.856V17.7H261.573V19.856L261.013 25.4ZM270.81 34.5V14.9H275.29V30.3H279.994V34.5H270.81ZM282.994 34.5V19.1H279.41V14.9H291.058V19.1H287.474V34.5H282.994ZM298.2 35.004C295.484 35.004 293.804 33.772 292.936 31.364C292.32 29.656 292.096 27.388 292.096 24.7C292.096 22.012 292.32 19.744 292.936 18.036C293.804 15.628 295.484 14.396 298.48 14.396C302.68 14.396 304.248 16.832 304.248 22.152V22.18H299.628V22.124C299.628 19.492 299.32 18.596 298.34 18.596C297.696 18.596 297.304 18.932 297.052 19.604C296.744 20.472 296.716 22.264 296.716 24.7C296.716 27.304 296.772 29.04 297.108 29.964C297.304 30.524 297.612 30.804 298.088 30.804C299.012 30.804 299.376 29.88 299.376 27.22H303.996C303.996 32.792 302.372 35.004 298.2 35.004ZM312.384 35.004C309.388 35.004 307.708 33.772 306.84 31.364C306.224 29.656 306 27.388 306 24.7C306 22.012 306.224 19.744 306.84 18.036C307.708 15.628 309.388 14.396 312.384 14.396C315.38 14.396 317.06 15.628 317.928 18.036C318.544 19.744 318.768 22.012 318.768 24.7C318.768 27.388 318.544 29.656 317.928 31.364C317.06 33.772 315.38 35.004 312.384 35.004ZM310.62 24.7C310.62 26.632 310.676 28.592 311.068 29.684C311.32 30.384 311.74 30.804 312.384 30.804C313.028 30.804 313.448 30.384 313.7 29.684C314.092 28.592 314.148 26.632 314.148 24.7C314.148 22.768 314.092 20.808 313.7 19.716C313.448 19.016 313.028 18.596 312.384 18.596C311.74 18.596 311.32 19.016 311.068 19.716C310.676 20.808 310.62 22.768 310.62 24.7ZM321.284 34.5V14.9H325.764V34.5H321.284ZM328.844 34.5V14.9H335.452L336.404 23.272L336.544 31.14H337.244V14.9H341.164V34.5H334.556L333.548 26.072L333.464 18.26H332.764V34.5H328.844ZM349.296 34.5V14.9H354.672C357.192 14.9 359.18 15.908 360.244 17.728C360.776 18.652 361.084 19.8 361.084 21.116C361.084 22.432 360.776 23.58 360.244 24.504C359.18 26.324 357.192 27.36 354.672 27.36H353.776V34.5H349.296ZM353.776 23.16H354.588C355.372 23.16 355.988 22.768 356.296 22.236C356.492 21.9 356.576 21.536 356.576 21.116C356.576 20.696 356.492 20.332 356.296 19.996C355.988 19.464 355.372 19.1 354.588 19.1H353.776V23.16ZM369.079 35.004C366.083 35.004 364.403 33.772 363.535 31.364C362.919 29.656 362.695 27.388 362.695 24.7C362.695 22.012 362.919 19.744 363.535 18.036C364.403 15.628 366.083 14.396 369.079 14.396C372.075 14.396 373.755 15.628 374.623 18.036C375.239 19.744 375.463 22.012 375.463 24.7C375.463 27.388 375.239 29.656 374.623 31.364C373.755 33.772 372.075 35.004 369.079 35.004ZM367.315 24.7C367.315 26.632 367.371 28.592 367.763 29.684C368.015 30.384 368.435 30.804 369.079 30.804C369.723 30.804 370.143 30.384 370.395 29.684C370.787 28.592 370.843 26.632 370.843 24.7C370.843 22.768 370.787 20.808 370.395 19.716C370.143 19.016 369.723 18.596 369.079 18.596C368.435 18.596 368.015 19.016 367.763 19.716C367.371 20.808 367.315 22.768 367.315 24.7ZM380.087 34.5V19.1H376.503V14.9H388.151V19.1H384.567V34.5H380.087ZM390.105 34.5V14.9H399.569V19.1H394.585V22.6H399.289V26.8H394.585V30.3H399.569V34.5H390.105ZM402.095 34.5V14.9H408.703L409.655 23.272L409.795 31.14H410.495V14.9H414.415V34.5H407.807L406.799 26.072L406.715 18.26H406.015V34.5H402.095ZM419.966 34.5V19.1H416.382V14.9H428.03V19.1H424.446V34.5H419.966ZM429.984 34.5V14.9H434.464V34.5H429.984ZM436.704 34.5L439.224 14.9H447.484L450.004 34.5H445.216L444.712 29.6H441.996L441.492 34.5H436.704ZM442.444 25.4H444.264L443.704 19.856V17.7H443.004V19.856L442.444 25.4ZM452.241 34.5V14.9H456.721V30.3H461.425V34.5H452.241ZM468.882 34.5L467.594 14.9H472.018L472.578 26.128L472.718 31.14H473.418V26.128L474.118 14.9H479.942L480.642 26.128V31.14H481.342L481.482 26.128L482.042 14.9H486.466L485.178 34.5H477.926L477.366 23.356V18.26H476.666V23.356L476.134 34.5H468.882ZM488.976 34.5V14.9H493.456V34.5H488.976ZM499 34.5V19.1H495.416V14.9H507.064V19.1H503.48V34.5H499ZM516.858 34.5V26.8H513.498V34.5H509.018V14.9H513.498V22.6H516.858V14.9H521.338V34.5H516.858ZM529.47 34.5V14.9H534.846C537.366 14.9 539.354 15.908 540.418 17.728C540.95 18.652 541.258 19.8 541.258 21.116C541.258 22.432 540.95 23.58 540.418 24.504C539.354 26.324 537.366 27.36 534.846 27.36H533.95V34.5H529.47ZM533.95 23.16H534.762C535.546 23.16 536.162 22.768 536.47 22.236C536.666 21.9 536.75 21.536 536.75 21.116C536.75 20.696 536.666 20.332 536.47 19.996C536.162 19.464 535.546 19.1 534.762 19.1H533.95V23.16ZM543.428 34.5V14.9H552.892V19.1H547.908V22.6H552.612V26.8H547.908V30.3H552.892V34.5H543.428ZM555.418 34.5V14.9H561.242C563.734 14.9 565.498 15.768 566.45 17.364C566.954 18.232 567.206 19.324 567.206 20.584C567.206 21.564 566.954 22.488 566.506 23.244C565.946 24.224 564.882 24.924 563.594 25.26V25.876L565.078 26.184L567.654 34.5H562.642L560.15 26.296H559.898V34.5H555.418ZM559.898 22.88H560.822C561.494 22.88 562.11 22.572 562.418 22.04C562.586 21.76 562.698 21.396 562.698 20.976C562.698 20.584 562.614 20.276 562.446 19.996C562.138 19.436 561.522 19.1 560.822 19.1H559.898V22.88ZM569.622 34.5V14.9H574.998C577.518 14.9 579.506 15.908 580.57 17.728C581.102 18.652 581.41 19.8 581.41 21.116C581.41 22.432 581.102 23.58 580.57 24.504C579.506 26.324 577.518 27.36 574.998 27.36H574.102V34.5H569.622ZM574.102 23.16H574.914C575.698 23.16 576.314 22.768 576.622 22.236C576.818 21.9 576.902 21.536 576.902 21.116C576.902 20.696 576.818 20.332 576.622 19.996C576.314 19.464 575.698 19.1 574.914 19.1H574.102V23.16ZM583.581 34.5V14.9H593.045V19.1H588.061V22.6H592.765V26.8H588.061V30.3H593.045V34.5H583.581ZM598.171 34.5V19.1H594.587V14.9H606.235V19.1H602.651V34.5H598.171ZM613.873 35.004C610.177 35.004 607.909 32.736 607.909 29.04V14.9H612.389V29.04C612.389 30.076 613.005 30.804 613.873 30.804C614.741 30.804 615.329 30.104 615.329 29.04V14.9H619.809V29.04C619.809 32.708 617.513 35.004 613.873 35.004ZM621.362 34.5L623.882 14.9H632.142L634.662 34.5H629.874L629.37 29.6H626.654L626.15 34.5H621.362ZM627.102 25.4H628.922L628.362 19.856V17.7H627.662V19.856L627.102 25.4ZM636.899 34.5V14.9H641.379V30.3H646.083V34.5H636.899ZM653.222 34.5V14.9H657.702V30.3H662.406V34.5H653.222ZM664.501 34.5V14.9H673.965V19.1H668.981V22.6H673.685V26.8H668.981V30.3H673.965V34.5H664.501ZM677.694 34.5L675.51 14.9H680.298L681.53 28.424V31.14H682.23V28.424L683.462 14.9H688.25L686.066 34.5H677.694ZM690.34 34.5V14.9H699.804V19.1H694.82V22.6H699.524V26.8H694.82V30.3H699.804V34.5H690.34ZM702.329 34.5V14.9H708.153C710.645 14.9 712.409 15.768 713.361 17.364C713.865 18.232 714.117 19.324 714.117 20.584C714.117 21.564 713.865 22.488 713.417 23.244C712.857 24.224 711.793 24.924 710.505 25.26V25.876L711.989 26.184L714.565 34.5H709.553L707.061 26.296H706.809V34.5H702.329ZM706.809 22.88H707.733C708.405 22.88 709.021 22.572 709.329 22.04C709.497 21.76 709.609 21.396 709.609 20.976C709.609 20.584 709.525 20.276 709.357 19.996C709.049 19.436 708.433 19.1 707.733 19.1H706.809V22.88ZM715.694 34.5L718.214 14.9H726.474L728.994 34.5H724.206L723.702 29.6H720.986L720.482 34.5H715.694ZM721.434 25.4H723.254L722.694 19.856V17.7H721.994V19.856L721.434 25.4ZM735.268 35.004C733.784 35.004 732.132 34.304 731.292 31.924C730.676 30.216 730.452 27.36 730.452 24.672C730.452 21.984 730.676 19.744 731.292 18.036C732.16 15.656 733.924 14.396 736.78 14.396C740.672 14.396 742.576 16.776 742.576 21.816H738.096C738.096 19.688 737.648 18.596 736.752 18.596C736.248 18.596 735.8 18.932 735.52 19.716C735.128 20.808 735.072 22.768 735.072 24.7C735.072 26.632 735.128 28.592 735.52 29.684C735.772 30.384 736.192 30.804 736.836 30.804C737.9 30.804 738.46 29.628 738.432 27.696H736.304V23.916H742.352V34.5H738.432L739.58 31.588H738.88C737.9 34.08 736.948 35.004 735.268 35.004ZM745.38 34.5V14.9H754.844V19.1H749.86V22.6H754.564V26.8H749.86V30.3H754.844V34.5H745.38Z" fill="black"/>
</svg>
