<svg width="378" height="24" viewBox="0 0 378 24" fill="none" xmlns="http://www.w3.org/2000/svg">
<path fillRule="evenodd" clipRule="evenodd" d="M17.463 18.3665L12.0002 8.90472L6.53744 18.3665L17.463 18.3665ZM12.3693 8.69162C12.2053 8.40748 11.7951 8.40748 11.6311 8.69162L6.16833 18.1534C6.00429 18.4375 6.20934 18.7927 6.53744 18.7927H17.463C17.791 18.7927 17.9961 18.4375 17.8321 18.1534L12.3693 8.69162Z" fill="black"/>
<path fillRule="evenodd" clipRule="evenodd" d="M15.3951 17.1731L11.9994 11.2914L8.6036 17.1731L15.3951 17.1731ZM12.3685 11.0783C12.2044 10.7942 11.7943 10.7942 11.6303 11.0783L8.23449 16.96C8.07045 17.2441 8.27551 17.5993 8.6036 17.5993H15.3951C15.7232 17.5993 15.9283 17.2441 15.7642 16.96L12.3685 11.0783Z" fill="black"/>
<path fillRule="evenodd" clipRule="evenodd" d="M13.6247 16.1503L12.0006 13.3373L10.3765 16.1503H13.6247ZM12.3697 13.1242C12.2057 12.8401 11.7956 12.8401 11.6315 13.1242L10.0074 15.9372C9.8434 16.2213 10.0485 16.5765 10.3765 16.5765H13.6247C13.9528 16.5765 14.1578 16.2213 13.9938 15.9372L12.3697 13.1242Z" fill="black"/>
<path d="M11.7041 15.0421C11.8354 14.8148 12.1635 14.8148 12.2947 15.0421V15.0421C12.426 15.2694 12.2619 15.5535 11.9994 15.5535V15.5535C11.737 15.5535 11.5729 15.2694 11.7041 15.0421V15.0421Z" fill="black"/>
<path fillRule="evenodd" clipRule="evenodd" d="M19.2351 19.3893L12.0007 6.85882L4.7662 19.3893L19.2351 19.3893ZM12.3698 6.64572C12.2057 6.36158 11.7956 6.36158 11.6316 6.64572L4.39709 19.1762C4.23305 19.4603 4.4381 19.8155 4.7662 19.8155H19.2351C19.5632 19.8155 19.7683 19.4603 19.6042 19.1762L12.3698 6.64572Z" fill="black"/>
<path fillRule="evenodd" clipRule="evenodd" d="M21.007 20.4121L12.0009 4.81293L2.99471 20.4121H21.007ZM12.37 4.59982C12.2059 4.31568 11.7958 4.31568 11.6318 4.59982L2.62561 20.199C2.46156 20.4831 2.66662 20.8383 2.99471 20.8383H21.007C21.3351 20.8383 21.5402 20.4831 21.3762 20.199L12.37 4.59982Z" fill="black"/>
<path fillRule="evenodd" clipRule="evenodd" d="M23.0732 21.6055L12 2.42621L0.926842 21.6055H23.0732ZM12.3691 2.2131C12.2051 1.92897 11.7949 1.92897 11.6309 2.2131L0.557737 21.3924C0.39369 21.6765 0.598748 22.0317 0.926842 22.0317H23.0732C23.4013 22.0317 23.6063 21.6765 23.4423 21.3924L12.3691 2.2131Z" fill="black"/>
<path d="M36.63 17.5V7.7H38.87V10.066L38.212 11.928H38.562L40.508 7.7H42.944L40.76 12.208L42.874 17.5H40.48L39.164 14.126L38.87 14.798V17.5H36.63ZM43.9237 17.5V7.7H46.8357C48.0817 7.7 48.9637 8.134 49.4397 8.932C49.6917 9.366 49.8177 9.912 49.8177 10.542C49.8177 11.032 49.6917 11.494 49.4677 11.872C49.1877 12.362 48.6557 12.712 48.0117 12.88V13.188L48.7537 13.342L50.0417 17.5H47.5357L46.2897 13.398H46.1637V17.5H43.9237ZM46.1637 11.69H46.6257C46.9617 11.69 47.2697 11.536 47.4237 11.27C47.5077 11.13 47.5637 10.948 47.5637 10.738C47.5637 10.542 47.5217 10.388 47.4377 10.248C47.2837 9.968 46.9757 9.8 46.6257 9.8H46.1637V11.69ZM50.6059 17.5L51.8659 7.7H55.9959L57.2559 17.5H54.8619L54.6099 15.05H53.2519L52.9999 17.5H50.6059ZM53.4759 12.95H54.3859L54.1059 10.178V9.1H53.7559V10.178L53.4759 12.95ZM58.7165 17.5L57.6245 7.7H60.0185L60.6345 14.462V15.82H60.9845V14.462L61.6005 7.7H63.9945L62.9025 17.5H58.7165ZM65.2071 16.52C65.2071 16.0907 65.3237 15.792 65.5571 15.624C65.7904 15.4467 66.0751 15.358 66.4111 15.358C66.7377 15.358 67.0177 15.4467 67.2511 15.624C67.4844 15.792 67.6011 16.0907 67.6011 16.52C67.6011 16.9307 67.4844 17.2293 67.2511 17.416C67.0177 17.5933 66.7377 17.682 66.4111 17.682C66.0751 17.682 65.7904 17.5933 65.5571 17.416C65.3237 17.2293 65.2071 16.9307 65.2071 16.52ZM65.2071 10.878C65.2071 10.4487 65.3237 10.15 65.5571 9.982C65.7904 9.80467 66.0751 9.716 66.4111 9.716C66.7377 9.716 67.0177 9.80467 67.2511 9.982C67.4844 10.15 67.6011 10.4487 67.6011 10.878C67.6011 11.2887 67.4844 11.5873 67.2511 11.774C67.0177 11.9513 66.7377 12.04 66.4111 12.04C66.0751 12.04 65.7904 11.9513 65.5571 11.774C65.3237 11.5873 65.2071 11.2887 65.2071 10.878ZM68.8913 17.5L70.1513 7.7H74.2813L75.5413 17.5H73.1473L72.8953 15.05H71.5373L71.2853 17.5H68.8913ZM71.7613 12.95H72.6713L72.3913 10.178V9.1H72.0413V10.178L71.7613 12.95ZM76.6596 17.5V7.7H80.1596L80.6356 13.286V15.82H80.9856V13.286L81.4616 7.7H84.9616V17.5H83.0016V9.38H82.6516L82.5816 12.488L82.0636 17.5H79.5576L79.0396 12.488L78.9696 9.38H78.6196V17.5H76.6596ZM86.4962 17.5V7.7H89.1842C90.4442 7.7 91.4382 8.204 91.9702 9.114C92.2362 9.576 92.3902 10.15 92.3902 10.808C92.3902 11.466 92.2362 12.04 91.9702 12.502C91.4382 13.412 90.4442 13.93 89.1842 13.93H88.7362V17.5H86.4962ZM88.7362 11.83H89.1422C89.5342 11.83 89.8422 11.634 89.9962 11.368C90.0942 11.2 90.1362 11.018 90.1362 10.808C90.1362 10.598 90.0942 10.416 89.9962 10.248C89.8422 9.982 89.5342 9.8 89.1422 9.8H88.7362V11.83ZM93.4755 17.5V7.7H95.7155V15.4H98.0675V17.5H93.4755ZM99.1148 17.5V7.7H101.355V17.5H99.1148ZM102.895 17.5V7.7H107.627V9.8H105.135V11.55H107.487V13.65H105.135V17.5H102.895ZM108.821 17.5V7.7H111.061V17.5H108.821ZM112.601 17.5V7.7H117.333V9.8H114.841V11.55H117.193V13.65H114.841V15.4H117.333V17.5H112.601ZM118.596 17.5V7.7H121.354C122.852 7.7 123.692 8.316 124.126 9.52C124.434 10.374 124.546 11.508 124.546 12.6C124.546 13.692 124.434 14.826 124.126 15.68C123.692 16.884 122.852 17.5 121.354 17.5H118.596ZM120.836 15.4H121.354C121.676 15.4 121.886 15.19 122.012 14.84C122.208 14.294 122.236 13.314 122.236 12.6C122.236 11.886 122.208 10.906 122.012 10.36C121.886 10.01 121.676 9.8 121.354 9.8H120.836V15.4ZM127.637 17.5L128.897 7.7H133.027L134.287 17.5H131.893L131.641 15.05H130.283L130.031 17.5H127.637ZM130.507 12.95H131.417L131.137 10.178V9.1H130.787V10.178L130.507 12.95ZM135.405 17.5V7.7H137.645V15.4H139.997V17.5H135.405ZM141.497 17.5V9.8H139.705V7.7H145.529V9.8H143.737V17.5H141.497ZM149.1 17.752C147.742 17.752 146.902 17.136 146.468 15.932C146.16 15.078 146.048 13.944 146.048 12.6C146.048 11.256 146.16 10.122 146.468 9.268C146.902 8.064 147.742 7.448 149.24 7.448C151.34 7.448 152.124 8.666 152.124 11.326V11.34H149.814V11.312C149.814 9.996 149.66 9.548 149.17 9.548C148.848 9.548 148.652 9.716 148.526 10.052C148.372 10.486 148.358 11.382 148.358 12.6C148.358 13.902 148.386 14.77 148.554 15.232C148.652 15.512 148.806 15.652 149.044 15.652C149.506 15.652 149.688 15.19 149.688 13.86H151.998C151.998 16.646 151.186 17.752 149.1 17.752ZM156.192 17.752C154.694 17.752 153.854 17.136 153.42 15.932C153.112 15.078 153 13.944 153 12.6C153 11.256 153.112 10.122 153.42 9.268C153.854 8.064 154.694 7.448 156.192 7.448C157.69 7.448 158.53 8.064 158.964 9.268C159.272 10.122 159.384 11.256 159.384 12.6C159.384 13.944 159.272 15.078 158.964 15.932C158.53 17.136 157.69 17.752 156.192 17.752ZM155.31 12.6C155.31 13.566 155.338 14.546 155.534 15.092C155.66 15.442 155.87 15.652 156.192 15.652C156.514 15.652 156.724 15.442 156.85 15.092C157.046 14.546 157.074 13.566 157.074 12.6C157.074 11.634 157.046 10.654 156.85 10.108C156.724 9.758 156.514 9.548 156.192 9.548C155.87 9.548 155.66 9.758 155.534 10.108C155.338 10.654 155.31 11.634 155.31 12.6ZM160.642 17.5V7.7H162.882V17.5H160.642ZM164.422 17.5V7.7H167.726L168.202 11.886L168.272 15.82H168.622V7.7H170.582V17.5H167.278L166.774 13.286L166.732 9.38H166.382V17.5H164.422ZM174.648 17.5V7.7H177.336C178.596 7.7 179.59 8.204 180.122 9.114C180.388 9.576 180.542 10.15 180.542 10.808C180.542 11.466 180.388 12.04 180.122 12.502C179.59 13.412 178.596 13.93 177.336 13.93H176.888V17.5H174.648ZM176.888 11.83H177.294C177.686 11.83 177.994 11.634 178.148 11.368C178.246 11.2 178.288 11.018 178.288 10.808C178.288 10.598 178.246 10.416 178.148 10.248C177.994 9.982 177.686 9.8 177.294 9.8H176.888V11.83ZM184.539 17.752C183.041 17.752 182.201 17.136 181.767 15.932C181.459 15.078 181.347 13.944 181.347 12.6C181.347 11.256 181.459 10.122 181.767 9.268C182.201 8.064 183.041 7.448 184.539 7.448C186.037 7.448 186.877 8.064 187.311 9.268C187.619 10.122 187.731 11.256 187.731 12.6C187.731 13.944 187.619 15.078 187.311 15.932C186.877 17.136 186.037 17.752 184.539 17.752ZM183.657 12.6C183.657 13.566 183.685 14.546 183.881 15.092C184.007 15.442 184.217 15.652 184.539 15.652C184.861 15.652 185.071 15.442 185.197 15.092C185.393 14.546 185.421 13.566 185.421 12.6C185.421 11.634 185.393 10.654 185.197 10.108C185.071 9.758 184.861 9.548 184.539 9.548C184.217 9.548 184.007 9.758 183.881 10.108C183.685 10.654 183.657 11.634 183.657 12.6ZM190.044 17.5V9.8H188.252V7.7H194.076V9.8H192.284V17.5H190.044ZM195.053 17.5V7.7H199.785V9.8H197.293V11.55H199.645V13.65H197.293V15.4H199.785V17.5H195.053ZM201.047 17.5V7.7H204.351L204.827 11.886L204.897 15.82H205.247V7.7H207.207V17.5H203.903L203.399 13.286L203.357 9.38H203.007V17.5H201.047ZM209.983 17.5V9.8H208.191V7.7H214.015V9.8H212.223V17.5H209.983ZM214.992 17.5V7.7H217.232V17.5H214.992ZM218.352 17.5L219.612 7.7H223.742L225.002 17.5H222.608L222.356 15.05H220.998L220.746 17.5H218.352ZM221.222 12.95H222.132L221.852 10.178V9.1H221.502V10.178L221.222 12.95ZM226.121 17.5V7.7H228.361V15.4H230.713V17.5H226.121ZM234.441 17.5L233.797 7.7H236.009L236.289 13.314L236.359 15.82H236.709V13.314L237.059 7.7H239.971L240.321 13.314V15.82H240.671L240.741 13.314L241.021 7.7H243.233L242.589 17.5H238.963L238.683 11.928V9.38H238.333V11.928L238.067 17.5H234.441ZM244.488 17.5V7.7H246.728V17.5H244.488ZM249.5 17.5V9.8H247.708V7.7H253.532V9.8H251.74V17.5H249.5ZM258.429 17.5V13.65H256.749V17.5H254.509V7.7H256.749V11.55H258.429V7.7H260.669V17.5H258.429ZM264.735 17.5V7.7H267.423C268.683 7.7 269.677 8.204 270.209 9.114C270.475 9.576 270.629 10.15 270.629 10.808C270.629 11.466 270.475 12.04 270.209 12.502C269.677 13.412 268.683 13.93 267.423 13.93H266.975V17.5H264.735ZM266.975 11.83H267.381C267.773 11.83 268.081 11.634 268.235 11.368C268.333 11.2 268.375 11.018 268.375 10.808C268.375 10.598 268.333 10.416 268.235 10.248C268.081 9.982 267.773 9.8 267.381 9.8H266.975V11.83ZM271.714 17.5V7.7H276.446V9.8H273.954V11.55H276.306V13.65H273.954V15.4H276.446V17.5H271.714ZM277.709 17.5V7.7H280.621C281.867 7.7 282.749 8.134 283.225 8.932C283.477 9.366 283.603 9.912 283.603 10.542C283.603 11.032 283.477 11.494 283.253 11.872C282.973 12.362 282.441 12.712 281.797 12.88V13.188L282.539 13.342L283.827 17.5H281.321L280.075 13.398H279.949V17.5H277.709ZM279.949 11.69H280.411C280.747 11.69 281.055 11.536 281.209 11.27C281.293 11.13 281.349 10.948 281.349 10.738C281.349 10.542 281.307 10.388 281.223 10.248C281.069 9.968 280.761 9.8 280.411 9.8H279.949V11.69ZM284.811 17.5V7.7H287.499C288.759 7.7 289.753 8.204 290.285 9.114C290.551 9.576 290.705 10.15 290.705 10.808C290.705 11.466 290.551 12.04 290.285 12.502C289.753 13.412 288.759 13.93 287.499 13.93H287.051V17.5H284.811ZM287.051 11.83H287.457C287.849 11.83 288.157 11.634 288.311 11.368C288.409 11.2 288.451 11.018 288.451 10.808C288.451 10.598 288.409 10.416 288.311 10.248C288.157 9.982 287.849 9.8 287.457 9.8H287.051V11.83ZM291.79 17.5V7.7H296.522V9.8H294.03V11.55H296.382V13.65H294.03V15.4H296.522V17.5H291.79ZM299.086 17.5V9.8H297.294V7.7H303.118V9.8H301.326V17.5H299.086ZM306.937 17.752C305.089 17.752 303.955 16.618 303.955 14.77V7.7H306.195V14.77C306.195 15.288 306.503 15.652 306.937 15.652C307.371 15.652 307.665 15.302 307.665 14.77V7.7H309.905V14.77C309.905 16.604 308.757 17.752 306.937 17.752ZM310.681 17.5L311.941 7.7H316.071L317.331 17.5H314.937L314.685 15.05H313.327L313.075 17.5H310.681ZM313.551 12.95H314.461L314.181 10.178V9.1H313.831V10.178L313.551 12.95ZM318.449 17.5V7.7H320.689V15.4H323.041V17.5H318.449ZM326.611 17.5V7.7H328.851V15.4H331.203V17.5H326.611ZM332.25 17.5V7.7H336.982V9.8H334.49V11.55H336.842V13.65H334.49V15.4H336.982V17.5H332.25ZM338.847 17.5L337.755 7.7H340.149L340.765 14.462V15.82H341.115V14.462L341.731 7.7H344.125L343.033 17.5H338.847ZM345.17 17.5V7.7H349.902V9.8H347.41V11.55H349.762V13.65H347.41V15.4H349.902V17.5H345.17ZM351.165 17.5V7.7H354.077C355.323 7.7 356.205 8.134 356.681 8.932C356.933 9.366 357.059 9.912 357.059 10.542C357.059 11.032 356.933 11.494 356.709 11.872C356.429 12.362 355.897 12.712 355.253 12.88V13.188L355.995 13.342L357.283 17.5H354.777L353.531 13.398H353.405V17.5H351.165ZM353.405 11.69H353.867C354.203 11.69 354.511 11.536 354.665 11.27C354.749 11.13 354.805 10.948 354.805 10.738C354.805 10.542 354.763 10.388 354.679 10.248C354.525 9.968 354.217 9.8 353.867 9.8H353.405V11.69ZM357.847 17.5L359.107 7.7H363.237L364.497 17.5H362.103L361.851 15.05H360.493L360.241 17.5H357.847ZM360.717 12.95H361.627L361.347 10.178V9.1H360.997V10.178L360.717 12.95ZM367.634 17.752C366.892 17.752 366.066 17.402 365.646 16.212C365.338 15.358 365.226 13.93 365.226 12.586C365.226 11.242 365.338 10.122 365.646 9.268C366.08 8.078 366.962 7.448 368.39 7.448C370.336 7.448 371.288 8.638 371.288 11.158H369.048C369.048 10.094 368.824 9.548 368.376 9.548C368.124 9.548 367.9 9.716 367.76 10.108C367.564 10.654 367.536 11.634 367.536 12.6C367.536 13.566 367.564 14.546 367.76 15.092C367.886 15.442 368.096 15.652 368.418 15.652C368.95 15.652 369.23 15.064 369.216 14.098H368.152V12.208H371.176V17.5H369.216L369.79 16.044H369.44C368.95 17.29 368.474 17.752 367.634 17.752ZM372.69 17.5V7.7H377.422V9.8H374.93V11.55H377.282V13.65H374.93V15.4H377.422V17.5H372.69Z" fill="black"/>
</svg>
