<svg width="14" height="19" viewBox="0 0 14 19" fill="none" xmlns="http://www.w3.org/2000/svg">
    <svg width="14" height="19" viewBox="0 0 14 19" fill="none" xmlns="http://www.w3.org/2000/svg">
        <g clip-path="url(#clip0_1614_33100)">
            <path d="M5.81927 13.5048C5.6622 13.0456 5.73162 12.6201 5.89608 12.2194C6.00542 12.2558 6.15295 12.1932 6.25318 12.1718C6.59728 12.0989 6.94137 12.026 7.28589 11.9532C7.98362 11.8056 8.68135 11.658 9.37908 11.5104C9.74747 11.4324 10.118 11.3605 10.4873 11.2843C10.4869 11.2834 10.4864 11.2825 10.486 11.2811C10.4782 11.2624 10.4869 11.2488 10.5029 11.2418C10.5203 11.2348 10.5354 11.2437 10.5385 11.261C10.5394 11.2652 10.5385 11.2694 10.5381 11.2736C10.5854 11.2638 10.6322 11.254 10.6795 11.2442C10.6786 11.2432 10.6773 11.2423 10.6769 11.2414C10.6734 11.2334 10.6795 11.2157 10.6869 11.2101C10.6925 11.2059 10.706 11.2138 10.7212 11.218C10.7186 11.2245 10.7164 11.2311 10.7147 11.2367C10.952 11.1862 11.1885 11.1335 11.4232 11.0746C11.5018 11.055 11.5803 11.0331 11.6575 11.0069C11.6506 11.0046 11.645 10.998 11.6424 10.9887C11.6393 10.9793 11.645 10.9579 11.6502 10.9565C11.6628 10.9532 11.6771 10.9579 11.6975 10.9607C11.6901 10.9784 11.6879 10.9915 11.6823 10.9985C11.8888 10.9261 12.0858 10.8247 12.2485 10.6655C12.4195 10.4983 12.5397 10.2848 12.6382 10.062C12.8573 9.56553 12.9732 9.03541 13.3442 8.6356C13.5056 8.46138 13.6648 8.24046 13.5754 7.9803C13.555 7.92145 13.5273 7.87661 13.4934 7.84299C13.142 8.08586 12.8226 8.38011 12.5406 8.72014C12.4924 8.77805 12.4451 8.83737 12.3982 8.89669C12.4 8.89715 12.4017 8.89809 12.4034 8.89902C12.4212 8.91023 12.4325 8.92938 12.426 8.9518C12.4234 8.95974 12.4078 8.96955 12.3995 8.96815C12.3822 8.96535 12.3705 8.95507 12.364 8.94059C12.0546 9.33573 11.7586 9.74908 11.3673 10.0536C10.8856 10.4282 10.3076 10.5977 9.73575 10.7341C9.51012 10.7878 9.28535 10.842 9.06146 10.8995C9.07881 10.9429 9.06015 10.9868 9.01763 11.0036C8.97554 11.02 8.92998 10.9962 8.91002 10.9471C8.90915 10.9448 8.90829 10.942 8.90785 10.9392C8.56983 11.0288 8.23442 11.1274 7.90248 11.247C7.52888 11.3815 7.16136 11.5356 6.80121 11.7066C6.77778 11.6617 6.75565 11.6164 6.73526 11.5697C7.15008 11.3731 7.57401 11.1989 8.00575 11.0489C8.10729 11.0134 8.20969 10.9807 8.31209 10.949C8.30862 10.9448 8.30602 10.9401 8.30428 10.935C8.29777 10.9149 8.31513 10.8883 8.34116 10.8785C8.36676 10.8691 8.39236 10.8799 8.40018 10.9032C8.40234 10.9088 8.40278 10.9149 8.40234 10.921C8.8688 10.7813 9.34089 10.6725 9.81429 10.5557C10.4287 10.4044 11.0266 10.1956 11.5039 9.73414C11.937 9.31518 12.2585 8.78459 12.672 8.34508C12.7783 8.23205 12.8903 8.12509 13.0066 8.02467C13.0079 8.02094 13.0131 8.01113 13.0179 8.00132C13.0205 8.00366 13.0235 8.00599 13.0261 8.00786C13.1272 7.92145 13.2318 7.83925 13.3389 7.76218C13.2313 7.7407 13.1072 7.76405 12.9953 7.79394C12.3605 7.96442 11.8463 8.42448 11.3607 8.87333C11.1004 9.11387 10.8401 9.35675 10.5524 9.55899C10.2647 9.76123 9.95661 9.92844 9.63986 10.0714C8.92217 10.3955 8.16369 10.5949 7.4191 10.8322C7.33319 10.8598 7.2399 10.8869 7.14357 10.9163C7.14574 10.9312 7.14357 10.9471 7.13619 10.9602C7.12144 10.9859 7.08629 11.0041 7.0633 10.9948C7.05288 10.9905 7.0403 10.9817 7.03596 10.9714C7.03336 10.9653 7.03075 10.9588 7.02772 10.9527C6.85025 11.0088 6.66627 11.0737 6.49748 11.1587C6.90622 10.5235 7.33362 9.90135 7.78359 9.29883C8.93562 9.339 10.1276 9.02093 11.0896 8.32827C11.5551 7.99291 11.9552 7.56088 12.2021 7.01441C12.4351 6.49923 12.5327 5.92194 12.5401 5.35165C12.5436 5.0929 12.5293 4.83554 12.5037 4.57912C12.5028 4.34933 12.4915 4.11906 12.4755 3.88973C12.4611 3.68703 12.4421 3.48479 12.4221 3.28208C12.4082 3.13916 12.3922 2.97615 12.2637 2.90796C12.2611 3.42687 12.2177 3.94438 12.1227 4.45348C11.9292 5.48617 11.5113 6.47448 10.85 7.25822C10.5958 7.55948 10.3089 7.81309 10.0017 8.03355C10.0087 8.03869 10.0152 8.04523 10.0204 8.05317C10.0464 8.09193 10.0395 8.15265 10.0048 8.18488C9.99567 8.19328 9.98438 8.19936 9.97657 8.20496C9.96659 8.20963 9.95922 8.21337 9.95141 8.21617C9.91149 8.23065 9.86983 8.22038 9.85074 8.19188C9.84249 8.17974 9.83816 8.16433 9.83729 8.14751C9.41292 8.43009 8.95515 8.65755 8.49173 8.86726C8.48045 8.84484 8.46483 8.82476 8.44574 8.80748C8.42491 8.7888 8.40712 8.76824 8.39106 8.74676C8.81977 8.55573 9.24413 8.35162 9.64463 8.09894C10.535 7.53752 11.2124 6.6982 11.6211 5.67906C11.976 4.79444 12.1184 3.83228 12.121 2.87293C11.8367 2.87106 11.8064 3.33906 11.7599 3.56559C11.7478 3.6249 11.7335 3.68329 11.7183 3.74167C11.7343 3.74401 11.7504 3.74588 11.7604 3.75522C11.7803 3.77343 11.7947 3.80239 11.8038 3.82948C11.8155 3.86311 11.7916 3.89767 11.7573 3.90561C11.7265 3.91262 11.7014 3.90234 11.6827 3.87665C11.6823 3.87572 11.6814 3.87479 11.681 3.87385C11.6497 3.97707 11.6133 4.07843 11.5734 4.17791C11.5825 4.18352 11.5907 4.18959 11.5985 4.19659C11.6345 4.22882 11.6411 4.29001 11.6146 4.32504C11.5912 4.3568 11.5374 4.36661 11.5018 4.34466C11.4614 4.43246 11.4185 4.51887 11.3729 4.60341C11.2957 4.74587 11.2119 4.88225 11.123 5.0149C11.1225 5.01536 11.1217 5.0163 11.1212 5.01723C10.7559 5.56136 10.3033 6.03404 9.86029 6.50531C9.71232 6.66271 9.56436 6.82011 9.41683 6.97751C9.41683 6.97751 9.4177 6.97798 9.4177 6.97844C9.41683 6.98872 9.41162 6.999 9.40815 7.00974C9.40338 7.00694 9.39817 7.00413 9.39427 7.0018C9.00331 7.41749 8.61279 7.83364 8.22184 8.24933C8.62321 7.41889 8.82931 6.48008 8.79677 5.54268C8.77464 4.90747 8.65271 4.28254 8.43489 3.6917C8.20665 3.07283 7.8426 2.55252 7.52064 1.9897C7.34013 1.67397 7.17872 1.33861 7.11884 0.969631C7.09758 0.838852 7.0902 0.707139 7.07414 0.580097C7.04984 0.56048 7.04377 0.527785 7.05375 0.500696C7.05549 0.495558 7.05809 0.490887 7.06069 0.486684C7.03249 0.320875 6.97999 0.166276 6.85111 0.0387665C6.87715 0.192899 6.88973 0.349833 6.89494 0.5063C6.90622 0.833247 6.88192 1.15973 6.86977 1.48574C6.85806 1.7954 6.85719 2.106 6.90492 2.41287C6.95742 2.74962 7.05939 3.07423 7.18262 3.3881C7.42431 4.00416 7.74367 4.58239 7.96453 5.20873C8.2444 6.00181 8.32164 6.85888 8.19277 7.68652C8.20709 7.68558 8.22184 7.68792 8.23702 7.69352C8.28302 7.71081 8.31079 7.74537 8.31166 7.78647C8.31296 7.83878 8.29343 7.88175 8.25308 7.90884C8.22054 7.93079 8.18452 7.92379 8.15371 7.90183C8.12204 8.0597 8.08299 8.21664 8.03569 8.37124C7.98796 8.3647 7.94023 8.35489 7.89337 8.34181C7.90682 8.29838 7.9194 8.25494 7.93155 8.2115C7.92895 8.21057 7.92591 8.20963 7.92331 8.20823C7.87558 8.18208 7.83956 8.14051 7.81179 8.07839C7.81353 8.06578 7.80962 8.04009 7.82004 8.02654C7.83045 8.013 7.85562 8.00459 7.87254 8.00739C7.8951 8.01113 7.9207 8.02234 7.93632 8.03962C7.94717 8.05176 7.95715 8.06437 7.96713 8.07745C8.02962 7.82617 8.07257 7.56928 8.0947 7.31053C8.0908 7.31567 8.08559 7.32174 8.08168 7.32688C8.07387 7.31894 8.06259 7.3124 8.05956 7.30306C8.05695 7.29465 8.06346 7.28251 8.0691 7.25775C8.08169 7.2755 8.09123 7.28577 8.096 7.29558C8.12377 6.96116 8.1177 6.62301 8.07561 6.28859C7.98406 5.56417 7.70505 4.91261 7.40652 4.26339C7.10408 3.60482 6.79167 2.92617 6.73352 2.18307C6.68276 1.53291 6.80555 0.87902 6.73266 0.230264C6.72398 0.152731 6.71183 0.0756648 6.69664 0C6.65802 0.0186827 6.62461 0.0551139 6.60943 0.0948146C6.38466 0.675846 6.18549 1.29891 6.10479 1.92945C6.12258 1.93506 6.1382 1.9486 6.14341 1.96775C6.15165 1.99578 6.1356 2.02987 6.10826 2.04248C6.10262 2.04529 6.09698 2.04622 6.0909 2.04622C6.03146 2.61511 6.07224 3.1882 6.28226 3.73934C6.5131 4.34559 6.92575 4.84628 7.17872 5.44133C7.40218 5.96678 7.53452 6.5366 7.57574 7.11249C7.61566 7.67297 7.5636 8.23812 7.42561 8.77945C7.31627 7.9747 6.85459 7.22879 6.44541 6.56649C6.12995 6.05599 5.80409 5.55109 5.47041 5.05413C5.1619 4.59407 4.81998 4.15036 4.36828 3.84676C3.92699 3.55017 3.41454 3.38857 2.89472 3.37689C2.83527 3.37549 2.78146 3.42827 2.77886 3.48899C3.20279 3.59314 3.58463 3.82294 3.91614 4.12887C4.69197 4.84488 5.10332 5.88084 5.65135 6.78461C5.95596 7.28718 6.32218 7.69399 6.73005 8.09941C6.97955 8.34742 7.21864 8.61785 7.37311 8.93919C7.33753 8.98029 7.30455 9.02466 7.27461 9.0709C7.08412 8.62812 6.71487 8.29697 6.38336 7.96676C5.65222 7.2386 5.23306 6.28905 4.70586 5.39742C4.2637 4.65058 3.67098 3.91168 2.85653 3.66788C3.6085 5.09336 4.38086 6.53286 5.43179 7.73089C5.69604 8.03215 5.97852 8.31285 6.27445 8.57768C6.42415 8.7122 6.57645 8.84344 6.72571 8.97889C6.87715 9.11668 7.12535 9.29323 7.14314 9.52256C7.15745 9.70611 7.01687 9.87099 6.92444 10.0125C6.79644 10.2087 6.668 10.4044 6.54 10.6005C6.48663 10.6823 6.43326 10.764 6.37989 10.8458C6.32348 10.9322 6.25232 11.0998 6.1369 11.0209C5.98763 10.9191 6.03536 10.6276 6.00889 10.4679C5.88089 9.70238 5.1888 9.27501 4.58784 8.98216C4.25763 8.82102 3.91831 8.67203 3.62282 8.44176C3.30867 8.19749 3.07175 7.85933 2.85783 7.51604C2.73894 7.32501 2.16575 6.23441 1.7787 6.09055C1.94966 6.52072 2.12973 6.94762 2.34452 7.3549C2.59141 7.82197 2.88864 8.26335 3.2618 8.62345C3.62455 8.97375 4.04675 9.24138 4.45679 9.52116C5.12589 9.97748 5.83316 10.5445 6.0896 11.3745C6.08136 11.3824 6.07355 11.3908 6.0666 11.4006C6.03796 11.4413 6.00933 11.4819 5.98069 11.5225C5.85052 11.0209 5.5394 10.6029 5.17448 10.2624C4.4581 9.59355 3.54819 9.21383 2.89862 8.45391C2.61571 8.12323 2.384 7.75237 2.18223 7.36191C2.17963 7.36564 2.17616 7.36891 2.17356 7.37265C2.16705 7.36985 2.16054 7.36751 2.15403 7.36471C2.15924 7.3563 2.16488 7.34836 2.17008 7.33995C2.17008 7.33995 2.17008 7.33995 2.17052 7.33995C1.96441 6.93828 1.78954 6.51605 1.62292 6.09429C1.60079 6.10596 1.57997 6.12325 1.56087 6.14707C1.47626 6.25216 1.51835 6.39414 1.54916 6.51371C1.59862 6.70708 1.65764 6.89811 1.72489 7.08587C1.8581 7.45766 2.02689 7.81449 2.22649 8.14985C2.27422 8.22972 2.32369 8.30865 2.37446 8.38618C2.3814 8.38105 2.38834 8.37591 2.39615 8.37171C2.41351 8.36236 2.44388 8.37311 2.44735 8.38945C2.44822 8.39366 2.44996 8.39786 2.44952 8.40206C2.44779 8.42729 2.44041 8.44971 2.42913 8.46839C2.82529 9.05269 3.31474 9.56273 3.87752 9.96067C4.49107 10.3946 5.37495 10.7379 5.65005 11.5244C5.66827 11.5235 5.68737 11.5244 5.70689 11.5291C5.73336 11.5347 5.74768 11.5557 5.75158 11.5837C5.7633 11.6617 5.75028 11.7173 5.70993 11.7561C5.7134 11.7757 5.71731 11.7953 5.71991 11.8154C5.72642 11.864 5.75419 11.8915 5.78717 11.9013C5.67088 12.1386 5.57976 12.3852 5.53463 12.6449C5.47215 13.005 5.52942 13.3553 5.65352 13.6841C5.04561 13.0298 4.44031 12.3721 3.82285 11.7285C3.49568 11.3871 3.14769 11.0597 2.73764 10.8392C2.34105 10.6258 1.91061 10.5099 1.47539 10.4305C1.25366 10.3899 1.0302 10.3586 0.806737 10.3296C0.697391 10.3156 0.562445 10.3142 0.478266 10.3862C0.778533 10.5085 1.07706 10.636 1.36995 10.7776C1.76481 10.9686 2.15056 11.1848 2.51027 11.4455C2.65173 11.5482 2.78754 11.6585 2.91988 11.7734C2.91771 11.7509 2.93203 11.7266 2.95633 11.715C2.98497 11.7019 3.01447 11.7117 3.02706 11.7393C3.04008 11.7677 3.02966 11.8004 3.00276 11.8145C2.99321 11.8196 2.98367 11.8215 2.97456 11.8215C3.17242 11.9966 3.36334 12.1806 3.55469 12.3642C3.91614 12.7112 4.2867 13.0386 4.70282 13.3081C4.87378 13.4188 5.04865 13.5211 5.22568 13.6197C5.22395 13.6239 5.22178 13.6276 5.22004 13.6318C5.20312 13.6757 5.19097 13.722 5.18316 13.7691C4.96317 13.6482 4.74621 13.5202 4.5362 13.3796C4.40473 13.2913 4.27889 13.196 4.15609 13.0966C4.14828 13.1157 4.1318 13.1316 4.11097 13.1391C4.09361 13.1451 4.06888 13.132 4.06237 13.1129C4.05196 13.0825 4.05803 13.0555 4.08103 13.0344C3.49872 12.5482 2.98844 11.9658 2.36925 11.5291C1.75917 11.0994 1.08574 10.7962 0.405369 10.5202C0.405369 10.5216 0.404935 10.5225 0.404502 10.5239C0.37109 10.7182 0.548994 10.8668 0.660943 10.9854C0.850128 11.1853 1.03931 11.3848 1.2285 11.5847C1.60687 11.984 1.9848 12.3833 2.36317 12.7827C2.69165 13.1297 3.01187 13.4973 3.38417 13.7915C3.70483 14.0452 4.04805 14.1844 4.42295 14.2549C4.42425 14.2423 4.42902 14.2273 4.43033 14.2138C4.45246 14.2091 4.46894 14.2007 4.48326 14.204C4.51884 14.2119 4.55356 14.2236 4.58784 14.2367C4.6078 14.2441 4.61908 14.2619 4.61864 14.2852C4.65813 14.2899 4.69762 14.2946 4.73753 14.2983C4.95449 14.3179 5.17795 14.3305 5.39534 14.3674C5.39057 14.3576 5.3871 14.3464 5.38623 14.3371C5.38493 14.3268 5.40402 14.3072 5.41704 14.3025C5.47779 14.2806 5.55459 14.3212 5.57498 14.3861C5.57672 14.3917 5.57585 14.3983 5.57455 14.4053C5.79454 14.4609 6.00369 14.5524 6.18506 14.7173" fill="#0C0C0C"/>
            <path d="M6.71638 18.6C6.70901 18.5916 6.71812 15.8032 6.17443 14.9583C5.61772 14.0933 5.58388 13.4641 5.58301 13.438L5.79693 13.452C5.79693 13.4581 5.75353 14.0662 6.35277 14.8252C7.18761 15.8826 7.04789 18.019 7.05483 18.0269L6.71638 18.5995V18.6Z" fill="#0D0A0A"/>
            <path d="M6.30935 15.0344C6.35057 14.9186 6.61786 14.5099 6.71463 14.4417C7.15808 14.1307 7.80374 13.5889 8.22594 13.3035C8.47544 13.1349 8.73795 12.9789 9.03605 12.9023C9.3246 12.8285 9.6292 12.8233 9.93511 12.8425C10.0909 12.8523 10.2475 12.8682 10.4033 12.8859C10.4797 12.8948 10.573 12.9158 10.6259 12.9761C10.4102 13.0064 10.1955 13.041 9.98371 13.0854C9.6982 13.1452 9.41702 13.2227 9.15103 13.3334C9.04646 13.3768 8.94493 13.4268 8.84556 13.4796C8.8486 13.4651 8.84035 13.4473 8.8243 13.4357C8.80564 13.4221 8.78438 13.424 8.77397 13.4399C8.76312 13.4562 8.76789 13.4791 8.78568 13.4927C8.79176 13.4973 8.79827 13.5001 8.80477 13.502C8.65638 13.5833 8.51188 13.672 8.36696 13.7603C8.09359 13.927 7.81546 14.0793 7.50955 14.1867C7.38415 14.2306 7.25615 14.2689 7.12727 14.3039C7.12814 14.3067 7.12944 14.3096 7.13031 14.3128C7.13899 14.3441 7.1442 14.3763 7.14637 14.4081C7.30648 14.3651 7.46486 14.3175 7.61933 14.2605C7.71609 14.2245 7.80938 14.1834 7.90137 14.1386C7.90571 14.1521 7.91569 14.1652 7.92958 14.1736C7.94129 14.1806 7.95908 14.176 7.96472 14.1648C7.97383 14.147 7.97167 14.1279 7.95735 14.111C8.39256 13.8901 8.78481 13.5945 9.24216 13.4118C9.69256 13.232 10.1781 13.1447 10.6667 13.0765C10.678 13.2096 10.5439 13.2783 10.458 13.3371C10.3135 13.4361 10.1694 13.5352 10.0249 13.6342C9.73638 13.8322 9.44783 14.0298 9.15928 14.2278C8.90848 14.3997 8.66245 14.5865 8.38518 14.7168C8.14653 14.8294 7.90007 14.864 7.63625 14.8485C7.63625 14.8401 7.63408 14.8294 7.63408 14.8205C7.61933 14.814 7.60848 14.8056 7.59807 14.8056C7.5729 14.8051 7.54817 14.807 7.52344 14.8098C7.50912 14.8116 7.5 14.821 7.4987 14.8364C7.47137 14.8331 7.4436 14.8294 7.41583 14.8257C7.26482 14.8032 7.10948 14.7747 6.95718 14.7635C6.96109 14.7579 6.96456 14.7509 6.96586 14.7453C6.96716 14.7388 6.95588 14.7229 6.94677 14.7178C6.90641 14.6935 6.85044 14.7075 6.83222 14.7463C6.83048 14.7495 6.83091 14.7542 6.83135 14.7589C6.67557 14.7589 6.65344 15.2876 6.51676 15.3651L6.30762 15.0344H6.30935Z" fill="#0C0C0C"/>
        </g>
        <defs>
            <clipPath id="clip0_1614_33100">
                <rect width="13.2" height="18.6" fill="white" transform="translate(0.400391)"/>
            </clipPath>
        </defs>
    </svg>

</svg>
