<svg width="120" height="140" viewBox="0 0 120 140" fill="none" xmlns="http://www.w3.org/2000/svg">
    <g clip-path="url(#clip0_1459_95018)">
        <path d="M112.358 45.9419C112.103 45.8768 111.947 45.7104 111.9 45.4608C111.9 45.4535 111.9 45.4427 111.896 45.4355C111.305 46.0323 110.68 46.6003 110.034 47.1393C110.081 47.2116 110.125 47.284 110.157 47.3636C110.313 47.7217 110.15 48.1667 109.831 48.315C109.544 48.4452 109.108 48.315 108.916 48.0292C108.309 48.4886 107.688 48.9263 107.049 49.3387C105.978 50.0369 104.874 50.6699 103.749 51.2596C103.742 51.2596 103.734 51.2668 103.727 51.2704C99.1013 53.6797 94.0689 55.2605 89.1164 56.8739C87.4644 57.4129 85.8087 57.9519 84.1567 58.4873C84.1567 58.4873 84.1567 58.4946 84.1567 58.4982C84.1131 58.5669 84.0405 58.6175 83.9751 58.679C83.9497 58.6429 83.9207 58.6031 83.8989 58.5705C79.5273 59.9922 75.1558 61.4175 70.7842 62.8391C76.6735 58.585 81.4844 52.8513 84.5016 46.2349C86.5458 41.7529 87.8057 36.9706 88.2305 32.0653C88.6771 26.9248 87.7585 21.9653 87.3083 16.8682C87.0541 14.0068 87.0142 11.0803 87.8493 8.30205C88.1434 7.3181 88.5464 6.37756 88.8732 5.43701C88.7606 5.20911 88.8296 4.96312 88.9966 4.80757C89.0293 4.77863 89.062 4.75693 89.0983 4.73522C89.465 3.47996 89.6102 2.21384 89.091 0.850051C88.7497 2.0185 88.2995 3.14715 87.7948 4.2541C86.7419 6.55843 85.4275 8.73253 84.2002 10.9464C83.0347 13.0482 81.9491 15.197 81.2411 17.4977C80.4605 20.0263 80.0974 22.6562 79.9267 25.2861C79.5927 30.4555 79.9703 35.6502 79.4474 40.8123C78.783 47.3491 76.3794 53.5748 72.5379 58.8274C72.6468 58.8744 72.7485 58.9431 72.8465 59.0444C73.1298 59.3374 73.2205 59.6775 73.0826 59.9669C72.9119 60.3322 72.6142 60.5565 72.2184 60.5963C71.8989 60.6289 71.652 60.4444 71.4995 60.1767C70.7116 61.1534 69.8729 62.0903 68.9833 62.9875C68.6493 62.7632 68.3261 62.5208 68.0211 62.2531C68.2717 62.0035 68.5186 61.7503 68.7618 61.4934C68.7437 61.4754 68.7255 61.4609 68.711 61.4428C68.4459 61.0847 68.3189 60.6614 68.3261 60.1297C68.3806 60.0501 68.4459 59.8547 68.5694 59.8005C68.6928 59.7462 68.9107 59.7824 69.0269 59.862C69.183 59.9705 69.3355 60.1441 69.39 60.3214C69.4299 60.4444 69.459 60.571 69.488 60.6976C70.8314 59.1891 72.0441 57.5685 73.1116 55.861C73.0644 55.8827 73.0027 55.9044 72.9591 55.9261C72.9264 55.8429 72.8647 55.7561 72.8756 55.6765C72.8865 55.6078 72.9773 55.5463 73.1043 55.398C73.137 55.568 73.1733 55.6729 73.1733 55.7597C74.5458 53.5458 75.675 51.1836 76.521 48.7093C78.3546 43.3482 78.5325 37.7953 78.5579 32.1846C78.5833 26.4943 78.6087 20.6304 80.7582 15.2621C82.639 10.5666 85.8305 6.49693 87.5443 1.73272C87.7476 1.16115 87.9255 0.585975 88.0744 0.0035609C87.7186 -0.010909 87.3446 0.115703 87.0904 0.336369C83.3869 3.51975 79.7307 7.09743 76.9313 11.1599C77.0475 11.2648 77.1128 11.4167 77.0874 11.5686C77.0511 11.7929 76.8114 11.9702 76.5645 11.9557C76.5137 11.9557 76.4665 11.9376 76.4229 11.9195C73.9975 15.6383 72.3128 19.7622 71.9679 24.3637C71.5866 29.4209 72.9337 34.4311 72.7594 39.4956C72.6033 43.9704 71.6121 48.409 69.9201 52.551C68.268 56.5845 65.9116 60.3033 62.9996 63.5373C64.9821 57.554 64.118 50.6663 63.3591 44.5528C62.7745 39.8392 62.0919 35.1293 61.3258 30.441C60.6178 26.1037 59.6012 21.7555 57.2774 17.968C55.0081 14.2673 51.7331 11.2358 47.888 9.21728C47.4487 8.98576 46.8605 9.14854 46.6317 9.56094C49.442 11.8653 51.5007 14.8822 52.9167 18.232C56.2317 26.0856 55.7089 34.7965 56.6638 43.0986C57.1975 47.7181 58.5228 51.8999 60.1639 56.2264C61.1661 58.8744 62.0157 61.6418 62.0556 64.4417C61.6453 64.5936 61.2459 64.7781 60.8611 64.9879C60.9773 61.2113 59.3652 57.5395 58.0326 54.0161C55.0916 46.2458 55.2623 38.1028 54.4163 29.9635C53.7083 23.1409 51.8384 15.8119 46.5918 11.0839C47.2635 23.7632 48.0332 36.6124 51.7294 48.8323C52.659 51.9071 53.7954 54.9024 55.088 57.8434C55.7416 59.3338 56.4242 60.8097 57.0668 62.3038C57.7204 63.8231 58.9658 65.9719 58.3013 67.6287C57.7676 68.9563 56.1446 69.5713 54.9609 70.2079C53.3198 71.087 51.6786 71.966 50.0411 72.8487C49.3585 73.2141 48.6723 73.583 47.9897 73.9484C47.2671 74.3355 46.1524 75.2326 45.5606 74.2559C44.7981 72.997 46.167 71.1557 46.5228 69.9475C48.2293 64.1668 44.5367 58.6248 41.0547 54.3525C39.1413 52.0048 37.1225 49.7077 35.7101 47.0127C34.2105 44.1476 33.6114 40.9245 33.2084 37.7447C32.9833 35.9758 32.4895 26.2845 30.0895 23.8464C29.8717 27.4638 29.7337 31.0922 29.9298 34.7133C30.1512 38.8697 30.8411 43.0335 32.3806 46.9186C33.8765 50.6989 36.1059 54.1283 38.2009 57.5938C41.6211 63.2515 44.9434 69.8173 43.9739 76.5241C43.8832 76.5494 43.796 76.5783 43.7125 76.6217C43.3567 76.7954 43.0009 76.969 42.645 77.1463C43.4148 73.1887 42.5397 69.1299 40.9966 65.4112C37.9612 58.1039 32.475 52.0844 30.2565 44.3936C29.2907 41.0475 28.8478 37.6145 28.6953 34.1562C28.6626 34.1706 28.6263 34.1815 28.5936 34.1996C28.5537 34.1562 28.5137 34.1128 28.4774 34.073C28.5464 34.0368 28.6154 33.997 28.6844 33.9608C28.6844 33.9608 28.6844 33.9608 28.6844 33.9644C28.5391 30.4121 28.6989 26.8344 28.9204 23.2929C28.7134 23.2929 28.4992 23.3327 28.2704 23.4267C27.272 23.8391 27.094 24.9822 26.9052 25.9228C26.6039 27.4494 26.3788 28.9904 26.2335 30.5387C25.9394 33.6099 25.9612 36.7101 26.2844 39.7813C26.3606 40.5121 26.4586 41.2428 26.5712 41.9699C26.6402 41.9591 26.7128 41.9518 26.7854 41.9482C26.9488 41.9482 27.1376 42.1363 27.1049 42.2593C27.0977 42.2919 27.094 42.328 27.0795 42.3534C26.9779 42.5198 26.8435 42.65 26.6947 42.7368C27.6278 48.2643 29.5158 53.6218 32.3406 58.4765C35.4232 63.7688 40.8441 69.4447 40.1652 75.9199C40.3068 75.9814 40.4411 76.061 40.5754 76.1659C40.7534 76.3034 40.786 76.5023 40.7207 76.7122C40.5391 77.2946 40.2487 77.6346 39.8093 77.7504C39.7658 77.8987 39.7258 78.0506 39.675 78.199C39.5552 78.5607 39.6641 78.8537 39.8783 79.0454C38.1863 80.2537 36.6396 81.6247 35.4015 83.2562C33.6841 85.5171 32.8925 88.1579 32.6783 90.8963C30.4054 84.0954 28.1615 77.2837 25.7797 70.5227C24.5198 66.9377 23.0565 63.3709 20.7509 60.3141C18.5252 57.355 15.7077 54.9494 12.7231 52.7753C11.2018 51.6684 9.64049 50.6157 8.06833 49.5811C7.29858 49.0746 6.29284 48.5646 5.41417 48.7454C7.23686 50.7134 9.02688 52.7102 10.7261 54.783C13.0172 57.5793 15.1521 60.5167 16.9349 63.6603C17.6393 64.8975 18.271 66.1708 18.8593 67.4623C18.921 67.2959 19.1134 67.1837 19.3349 67.1946C19.5963 67.2091 19.7815 67.3899 19.7779 67.6287C19.7779 67.8747 19.5854 68.0592 19.3349 68.0592C19.2478 68.0592 19.1679 68.0375 19.0989 68.0049C19.9703 69.9547 20.7582 71.9443 21.5534 73.9267C23.0529 77.6816 24.6868 81.3317 26.8617 84.7502C27.7549 86.1538 28.7062 87.5176 29.6901 88.856C29.6611 88.8777 29.632 88.8958 29.6066 88.9175C29.327 89.1563 29.0765 89.4348 28.8514 89.7315C27.6278 88.071 26.4478 86.3781 25.3658 84.62C24.6868 83.5203 24.0768 82.388 23.5031 81.2412C23.376 81.3425 23.2018 81.3932 23.0166 81.3642C22.8641 81.3425 22.7261 81.158 22.7443 81.0025C22.7733 80.7565 22.9113 80.5865 23.1546 80.5286C20.4895 74.9902 18.6959 69.0503 15.5806 63.7182C12.5125 58.4656 8.52582 53.8533 4.39389 49.4038C4.38663 49.4111 4.383 49.4183 4.37574 49.4255C3.44987 50.6446 4.26318 52.3412 4.69163 53.5784C5.41417 55.6657 6.13308 57.7566 6.85562 59.8439C8.29707 64.0221 9.73852 68.1966 11.18 72.3748C12.4326 76.0031 13.5509 79.7436 15.3119 83.1694C16.8296 86.1212 18.9137 88.3677 21.4771 90.2524C21.5316 90.1692 21.6187 90.0824 21.6768 89.9919C21.8583 90.0426 22.0108 90.0462 22.1089 90.1222C22.3485 90.3103 22.5664 90.5201 22.7806 90.7407C22.904 90.8674 22.9258 91.0338 22.8423 91.1929C23.1183 91.3738 23.3978 91.5511 23.6847 91.7247C25.2387 92.6689 26.8689 93.5913 28.3649 94.6585C28.3649 94.5717 28.3757 94.4812 28.4012 94.4125C28.4302 94.3365 28.6372 94.2714 28.7534 94.2895C29.2835 94.3655 29.7155 94.9298 29.6465 95.4579C29.6393 95.505 29.6102 95.5448 29.5739 95.5882C31.0299 96.7928 32.2717 98.2072 33.0596 100.027C33.2084 100.374 33.4735 100.504 33.7494 100.493C34.2178 102.317 34.8242 104.104 35.5576 105.836C35.5322 105.782 35.5177 105.724 35.5177 105.659C35.5177 105.388 35.7537 105.185 36.0623 105.182C36.3745 105.178 36.6251 105.37 36.6396 105.63C36.6541 105.898 36.4326 106.086 36.0913 106.093C35.8335 106.101 35.6411 106.003 35.5612 105.844C36.6214 108.343 37.9431 110.727 39.508 112.948C35.9642 110.691 32.3298 108.553 28.5028 106.857C28.4883 106.857 28.4738 106.86 28.4593 106.86C28.314 106.857 28.1797 106.781 28.078 106.669C26.2444 105.876 24.3673 105.185 22.432 104.639C16.6154 102.99 10.2832 102.7 4.53913 104.56C4.56454 104.617 4.57907 104.683 4.57181 104.758C4.54639 105.07 4.32491 105.269 4.05622 105.229C3.8529 105.196 3.71855 105.059 3.68588 104.853C2.56757 105.261 1.47468 105.753 0.414469 106.339C0.196617 106.459 0.0659063 106.647 0.0078125 106.857C7.01538 105.909 14.3098 104.798 21.212 106.303C24.803 107.085 27.8856 108.806 30.9391 110.778C33.0559 112.142 35.2127 113.578 37.5691 114.457C37.5546 114.884 37.5691 115.307 37.6054 115.73C32.0102 113.856 27.5443 109.132 21.7058 107.645C17.77 106.643 13.649 106.69 9.62597 107.012C6.60872 107.255 3.60237 107.62 0.596012 107.996C7.1824 111.957 15.2937 110.702 22.3158 113.393C28.5573 115.785 35.9025 121.142 42.6378 117.658C42.7068 117.774 42.8048 117.883 42.9464 117.966C47.8263 120.936 51.3591 125.809 52.7751 131.322C53.1128 132.642 53.3307 133.988 53.4069 135.348C53.4723 136.534 53.1527 137.992 53.7264 139.081C54.1585 139.902 55.1533 140.293 55.9703 139.725C56.8744 139.096 57.2302 137.598 57.4226 136.585C58.472 131.007 55.0481 126.076 51.2211 122.368C51.2102 122.379 51.1957 122.39 51.1848 122.401C51.1231 122.336 51.0069 122.271 51.0069 122.206C51.0069 122.195 51.0142 122.184 51.0178 122.173C50.8798 122.039 50.7419 121.909 50.6003 121.779C48.4835 119.814 46.2323 117.998 44.239 115.908C43.1788 114.063 42.1367 112.051 42.0895 109.895C41.9189 110.12 41.6284 110.246 41.2181 110.243C41.1273 110.228 40.9567 110.214 40.7969 110.163C40.4665 110.058 40.2487 109.725 40.2559 109.378C40.2668 109.016 40.4774 108.709 40.8114 108.6C40.9385 108.557 41.0765 108.532 41.2108 108.513C41.6574 108.459 41.9842 108.589 42.1476 108.864C42.3909 107.16 43.3748 105.493 45.1068 104.994C47.4232 104.324 49.9612 105.703 52.0962 106.441C54.4308 107.251 56.8272 107.873 59.249 108.376C64.1506 109.4 69.1576 110.051 74.1319 110.63C77.977 111.075 81.9237 111.284 85.747 110.619C85.7615 110.34 85.8813 110.054 86.0701 109.881C86.3098 109.657 86.8326 109.664 87.1049 109.892C87.2284 109.997 87.3046 110.138 87.3264 110.286C87.6714 110.203 88.0127 110.112 88.354 110.015C90.2057 109.468 95.3869 107.562 95.5031 105.037C92.9034 105.782 90.2856 106.459 87.635 106.99C82.9222 107.935 78.0859 108.437 73.2822 108.087C68.6602 107.75 64.3068 106.444 59.9497 104.939C57.7095 104.165 55.4438 103.355 53.1382 102.715C53.0003 102.816 52.8332 102.82 52.7098 102.722C52.6553 102.678 52.6045 102.621 52.5609 102.559C50.524 102.024 48.4544 101.633 46.3449 101.535C44.475 101.448 42.2674 101.622 40.8405 102.979C40.2523 103.539 39.9255 104.209 39.7839 104.928C39.37 104.994 38.9561 105.059 38.5385 105.124C38.6293 104.382 38.858 103.666 39.2792 103.004C40.2995 101.401 42.1512 100.667 43.9703 100.428C48.4726 99.8387 53.229 101.391 57.4335 102.809C61.1261 104.053 64.7824 105.413 68.5839 106.224C68.5839 106.213 68.5766 106.205 68.5766 106.195C68.5694 106.09 68.6638 105.902 68.7509 105.876C69.1648 105.761 69.5897 105.652 70.0181 105.612C70.3267 105.583 70.5409 105.949 70.4574 106.26C70.4284 106.368 70.3848 106.462 70.3195 106.549C70.9186 106.647 71.5249 106.73 72.1349 106.791C78.9573 107.493 85.678 106.401 92.2571 104.686C92.2717 104.646 92.2862 104.61 92.3116 104.599C92.3406 104.588 92.3878 104.617 92.4351 104.643C93.3573 104.4 94.2759 104.147 95.1945 103.883C95.0638 103.655 94.8859 103.424 94.6608 103.192C93.2883 101.781 90.9464 101.503 89.0801 101.561C86.7854 101.629 84.5488 102.259 82.3158 102.729C77.367 103.767 72.2656 103.999 67.2369 103.474C66.7467 103.424 66.2638 103.359 65.7809 103.29C65.7591 103.304 65.7446 103.322 65.7192 103.333C65.4868 103.456 65.2145 103.507 65.0874 103.55C64.5863 103.561 64.2959 103.406 64.1906 103.149C64.1724 103.105 64.1615 103.065 64.1506 103.022C60.2947 102.302 56.6093 101.072 52.8441 99.8423C48.7158 98.493 42.8302 96.8 38.8835 99.5457C37.511 100.501 36.7485 101.966 36.5561 103.55C34.9476 99.3069 34.0508 94.6549 34.5446 90.2705C34.9658 86.5047 36.9664 83.8169 39.5915 81.6536C40.2813 82.312 41.6066 82.4314 42.4272 82.6557C45.2556 83.4334 48.0841 84.2148 50.9125 84.9926C56.6456 86.5734 62.3824 88.1506 68.1155 89.7315C71.1437 90.5671 74.1646 91.4498 77.1963 92.2999C77.1963 92.2926 77.1963 92.2818 77.1963 92.2746C77.2036 92.119 77.3161 92.0539 77.4577 92.0684C77.6102 92.0828 77.6937 92.2022 77.6574 92.3361C77.6502 92.365 77.632 92.3939 77.6102 92.4193C77.9987 92.5278 78.3836 92.6363 78.7721 92.7412C78.7721 92.7304 78.7612 92.7195 78.7648 92.7123C78.7648 92.6472 78.8738 92.5422 78.9464 92.5314C79.0009 92.5205 79.0771 92.6291 79.1751 92.7159C79.1316 92.7521 79.0953 92.7882 79.0626 92.8208C81.0124 93.3562 82.9658 93.8699 84.9301 94.3401C85.5836 94.4957 86.2481 94.6368 86.9198 94.7453C86.8762 94.7019 86.858 94.6404 86.8689 94.5644C86.8798 94.4885 86.996 94.3582 87.0396 94.3691C87.1449 94.3908 87.2356 94.4812 87.3773 94.5717C87.2611 94.6693 87.1993 94.7489 87.1304 94.7779C88.9276 95.0492 90.7576 95.0781 92.5258 94.5825C94.3848 94.0616 96.0296 93.0306 97.5401 91.8549C100.906 89.2323 103.618 85.9946 107.783 84.6091C109.598 84.005 111.555 83.0681 111.795 80.9338C111.849 80.449 111.795 80.0366 111.66 79.6785C108.186 80.0475 104.773 80.8976 101.48 82.1999C100.917 82.4242 100.358 82.6557 99.7984 82.8908C99.8093 82.9017 99.8202 82.9125 99.8311 82.927C99.9255 83.0717 99.9437 83.2453 99.8166 83.3756C99.7694 83.4226 99.6169 83.4298 99.5624 83.39C99.4426 83.3032 99.3882 83.1911 99.3918 83.0681C95.7028 84.6525 92.0502 86.4106 88.0635 87.0582C83.1582 87.8576 78.242 86.8773 73.4856 85.6871C71.6121 85.2169 69.7385 84.7538 67.865 84.3161C67.865 84.3161 67.865 84.3161 67.865 84.3197C67.8432 84.6851 67.5527 84.9202 67.1751 84.8768C66.8012 84.8334 66.5434 84.5006 66.5652 84.0846C66.5652 84.0629 66.5724 84.0412 66.576 84.0231C63.7367 83.3828 60.8829 82.8148 57.9818 82.4061C54.7176 81.943 51.4317 81.6428 48.1422 81.4836C48.1204 81.0857 48.1167 80.6878 48.124 80.2898C51.911 80.4743 55.6907 80.8506 59.4414 81.4185C60.3273 81.5524 61.206 81.7079 62.081 81.8707C62.0701 81.8309 62.0665 81.7875 62.0701 81.7441C62.0883 81.5813 62.317 81.4619 62.5458 81.4909C62.7709 81.5198 62.9234 81.6898 62.9016 81.8852C62.898 81.9322 62.8798 81.9756 62.8544 82.0154C66.8302 82.7859 70.7443 83.7952 74.691 84.7538C79.8142 85.9982 85.0172 86.7832 90.1948 85.3652C94.8931 84.081 99.1449 81.5994 103.767 80.1017C104.958 79.7147 106.163 79.3927 107.383 79.1286C107.405 79.1069 107.481 79.0599 107.55 79.0093C107.561 79.0346 107.576 79.0599 107.59 79.0852C108.647 78.8646 109.714 78.6837 110.785 78.5535C110.056 78.0036 109.046 77.7034 108.102 77.4935C102.758 76.3034 97.3077 77.5767 92.1155 78.8754C89.3307 79.57 86.5385 80.2826 83.681 80.6118C80.8235 80.941 77.937 80.9482 75.0723 80.7565C68.573 80.326 62.2045 78.8754 55.8069 77.7468C55.0662 77.6165 54.2747 77.4574 53.4505 77.3018C53.4142 77.414 53.3415 77.5152 53.2435 77.5767C53.0438 77.6997 52.717 77.6925 52.5754 77.5442C52.5101 77.4755 52.452 77.3669 52.452 77.2801C52.452 77.2259 52.452 77.1716 52.4556 77.1209C50.9307 76.846 49.3294 76.6109 47.7718 76.5711C53.0402 73.6952 58.403 70.9785 63.8674 68.486C72.3491 73.0621 82.3739 75.3014 91.9848 74.0931C96.636 73.5071 101.131 72.0058 104.882 69.1444C108.418 66.4421 111.156 62.8102 113.196 58.8889C114.122 57.1091 114.91 55.275 115.611 53.4011C116.406 51.8058 117.121 50.1707 117.797 48.5212C118.392 47.0633 118.955 45.591 119.51 44.1151C119.903 43.0732 120.349 41.8831 119.627 40.9317C117.8 44.5166 115.68 47.9387 113.193 51.1113C108.153 57.5432 101.588 62.8283 93.9164 65.791C90.9646 66.9305 87.9364 67.6142 84.872 67.9977C84.9083 68.0592 84.9337 68.1279 84.9446 68.2039C85.0027 68.5692 84.7412 68.9671 84.3709 69.0576C84.2729 69.0829 84.1676 69.0829 84.0877 69.0901C83.9969 69.0829 83.9279 69.0829 83.859 69.0757C83.5104 69.025 83.2344 68.8007 83.1909 68.5331C83.1727 68.4209 83.1909 68.2943 83.2417 68.1749C79.0844 68.5511 74.8653 68.4173 70.668 68.1424C70.6608 67.947 70.6136 67.7481 70.5301 67.5563C70.4393 67.3501 70.3776 67.1403 70.334 66.9305C74.2081 67.2054 78.0895 67.3755 81.9673 67.1186C90.5833 66.5507 98.5712 63.2624 105.176 57.7276C110.909 52.9236 115.32 46.792 118.679 40.1539C116.559 39.0796 114.703 42.2087 113.57 43.605C113.273 43.9704 112.964 44.3213 112.648 44.6686C112.761 44.7445 112.873 44.8169 112.917 44.9218C113.004 45.1207 113.008 45.374 112.986 45.5982C112.957 45.8768 112.655 46.0251 112.372 45.9528L112.358 45.9419ZM83.917 39.2243C83.957 39.0868 84.1022 38.9819 84.1676 38.9023C84.4907 38.9023 84.7049 39.1266 84.6868 39.3617C84.6759 39.5245 84.5125 39.6728 84.3419 39.6728C84.0841 39.6728 83.8481 39.4485 83.9134 39.2243H83.917ZM82.3521 43.3554C82.5845 43.2071 82.8314 43.1094 83.1183 43.1492C83.3543 43.1818 83.5757 43.3735 83.6229 43.5905C83.6665 43.7895 83.5431 44.0934 83.3325 44.1874C83.1219 44.2815 82.8895 44.3249 82.7806 44.3575C82.3848 44.343 82.1633 44.191 82.1125 43.9776C82.0544 43.7425 82.1488 43.4893 82.3521 43.359V43.3554ZM75.0033 56.3024C75.0686 56.2987 75.1449 56.3964 75.2502 56.4796C75.1413 56.5628 75.065 56.6605 74.9996 56.6569C74.9307 56.6496 74.8689 56.5411 74.8072 56.4796C74.8726 56.4181 74.9343 56.3096 75.0033 56.306V56.3024ZM76.4701 36.8222C76.2813 36.8259 76.1071 36.6233 76.1143 36.4135C76.1252 36.1566 76.3104 35.9794 76.5718 35.9758C76.7788 35.9758 76.9385 36.153 76.9276 36.3773C76.9167 36.6161 76.7098 36.8186 76.4701 36.8259V36.8222ZM78.9355 11.6555C79.3785 11.6338 79.7307 11.9485 79.7452 12.3753C79.7633 12.9216 79.4329 13.2471 78.8665 13.2508C78.3691 13.2508 78.0314 12.9758 78.0314 12.5671C78.0314 12.0787 78.4272 11.6808 78.9319 11.6555H78.9355ZM76.4774 22.3957C76.5173 22.4428 76.5573 22.4934 76.6009 22.5404C76.5282 22.5802 76.4593 22.62 76.3866 22.6562C76.3649 22.5983 76.3176 22.5332 76.3285 22.4826C76.3394 22.4428 76.4229 22.4211 76.4774 22.3921V22.3957ZM76.5936 25.6623C76.8913 25.6587 77.1237 25.8758 77.1055 26.1435C77.0874 26.3967 76.8405 26.6101 76.5573 26.6137C76.3249 26.6137 76.1325 26.422 76.1143 26.1724C76.0962 25.8758 76.2886 25.6696 76.5936 25.6659V25.6623ZM48.7376 11.2105C48.429 11.2431 48.1785 11.0622 48.1567 10.7873C48.1313 10.4581 48.3636 10.1831 48.6832 10.1723C48.9555 10.1614 49.1878 10.3821 49.2133 10.6715C49.2387 10.9609 49.0426 11.1779 48.7376 11.2105ZM55.3131 21.0754C55.2369 21.0066 55.1933 20.9668 55.1461 20.927C55.2078 20.8656 55.2623 20.7968 55.3313 20.7462C55.3385 20.7389 55.4583 20.8366 55.4511 20.8583C55.4257 20.9343 55.3639 20.9994 55.3131 21.0754ZM57.7567 43.3301C57.5098 43.3409 57.2774 43.1564 57.2665 42.9358C57.2556 42.7441 57.419 42.5559 57.6223 42.527C57.8547 42.4944 58.0254 42.6826 58.0254 42.9756C58.0254 43.1709 57.9092 43.3229 57.753 43.3301H57.7567ZM56.3189 58.7514C56.1119 58.7333 55.9449 58.585 55.9086 58.3824C55.8795 58.2232 56.0248 58.0822 56.2208 58.0785C56.4641 58.0749 56.6021 58.1979 56.613 58.4258C56.6238 58.6067 56.4786 58.7622 56.3189 58.7514ZM30.3836 29.5764C30.2711 29.5077 30.1948 29.4571 30.1149 29.41C30.1658 29.3377 30.213 29.2219 30.2747 29.2111C30.3473 29.1966 30.4381 29.2798 30.5216 29.3196C30.4816 29.3956 30.4381 29.4751 30.3836 29.5801V29.5764ZM32.2971 37.6507C31.963 37.6507 31.7452 37.4227 31.7307 37.0646C31.7125 36.7173 31.8686 36.5184 32.17 36.5003C32.5912 36.475 32.8526 36.6848 32.8599 37.061C32.8671 37.401 32.6311 37.6507 32.2971 37.647V37.6507ZM41.4468 60.6469C41.4033 60.618 41.3597 60.5818 41.3198 60.5493C41.3561 60.5131 41.3924 60.4805 41.4287 60.4444C41.4541 60.4914 41.4832 60.5348 41.4977 60.5855C41.5013 60.5999 41.4505 60.6469 41.4468 60.6469ZM27.94 36.0192C27.9219 35.9975 27.8892 35.9721 27.8928 35.9541C27.9074 35.907 27.9328 35.8636 27.9546 35.8166C27.9727 35.8383 27.9872 35.86 28.0054 35.8817C27.9836 35.9287 27.9618 35.9721 27.94 36.0192ZM30.4526 50.2395C30.3582 50.1635 30.2565 50.1201 30.2239 50.0441C30.1766 49.932 30.3291 49.7764 30.4671 49.809C30.5397 49.8271 30.6414 49.9356 30.6378 50.0007C30.6378 50.0731 30.5288 50.1418 30.449 50.2358L30.4526 50.2395ZM14.0774 56.2662C13.5074 56.3385 12.9664 55.9261 12.9119 55.3799C12.8611 54.8626 13.1987 54.3489 13.6235 54.2983C14.1791 54.2332 14.8471 54.7251 14.898 55.2352C14.9379 55.6476 14.4877 56.2119 14.0774 56.2626V56.2662ZM19.7234 65.3497C19.5164 65.3605 19.3058 65.2014 19.2768 65.0132C19.2369 64.76 19.462 64.5068 19.7633 64.4598C19.9594 64.4272 20.1773 64.6009 20.1954 64.7998C20.2208 65.0892 20.0102 65.3352 19.7234 65.3533V65.3497ZM20.6783 64.1306C20.6202 64.0582 20.4714 63.9497 20.4423 63.8159C20.3915 63.5699 20.6456 63.3347 20.878 63.3854C21.0704 63.4288 21.1503 63.5735 21.1503 63.7616C21.1503 63.9931 20.9869 64.1451 20.6747 64.1306H20.6783ZM23.3071 68.1098C23.2127 67.9434 23.111 67.8457 23.1146 67.7517C23.1183 67.6106 23.2417 67.5238 23.3942 67.5419C23.5394 67.56 23.6484 67.6612 23.6084 67.8023C23.5794 67.9 23.4523 67.9687 23.3071 68.1098ZM24.4762 72.7474C24.2838 72.8596 24.0405 72.8957 23.7754 72.9789C23.6847 72.8704 23.5576 72.7872 23.5358 72.6787C23.4232 72.165 23.8989 71.7345 24.3854 71.9045C24.5924 71.9769 24.7449 72.1288 24.7122 72.3495C24.6904 72.4942 24.5924 72.6751 24.4762 72.7438V72.7474ZM26.2589 80.7059C26.2263 80.8072 26.1101 80.8831 25.9866 81.0206C25.8668 80.8867 25.7288 80.7963 25.7325 80.7167C25.7397 80.619 25.8487 80.4924 25.9503 80.4418C26.0919 80.3731 26.3098 80.5575 26.2626 80.7059H26.2589ZM28.4992 87.0039C28.4701 87.0003 28.4593 86.9026 28.4375 86.852C28.5173 86.8303 28.5972 86.7977 28.6807 86.7977C28.6989 86.7977 28.7207 86.899 28.7497 86.9858C28.659 86.9967 28.5754 87.022 28.4992 87.0075V87.0039ZM10.944 65.7331C10.7624 65.8019 10.6027 65.6246 10.5736 65.3858C10.5518 65.1977 10.6608 65.0422 10.8242 65.035C11.0456 65.0241 11.1909 65.1579 11.2127 65.4763C11.1546 65.5378 11.0711 65.6897 10.9476 65.7331H10.944ZM11.3688 68.3558C11.2235 68.392 11.1146 68.2907 11.1074 68.1532C11.1074 68.0845 11.1981 68.0085 11.2962 67.871C11.3978 67.9904 11.4959 68.0664 11.5285 68.1641C11.5431 68.2111 11.4414 68.3413 11.3724 68.3558H11.3688ZM11.2962 62.6112C11.0602 62.6329 10.8387 62.4521 10.8133 62.2133C10.7806 61.8697 10.9839 61.5983 11.2925 61.5766C11.5576 61.5586 11.7972 61.8009 11.7936 62.0795C11.79 62.3616 11.583 62.5823 11.2962 62.6112ZM12.1603 72.7908C12.1095 72.7149 11.9715 72.5991 11.9679 72.4761C11.9606 72.2988 12.1204 72.2012 12.3055 72.1976C12.4653 72.1976 12.6069 72.364 12.5924 72.5231C12.5779 72.6787 12.4181 72.8017 12.1603 72.7908ZM18.4671 75.5546C18.4344 75.6161 18.3219 75.6378 18.2456 75.674C18.2202 75.6161 18.1585 75.5473 18.173 75.5075C18.2057 75.4316 18.2783 75.3737 18.38 75.2616C18.4272 75.4026 18.4962 75.5003 18.4707 75.5546H18.4671ZM24.1167 87.1594C24.095 87.1558 24.0841 87.1197 24.0659 87.0979C24.1058 87.0835 24.1458 87.069 24.1894 87.0545C24.1894 87.0799 24.1894 87.1088 24.193 87.1341C24.1676 87.145 24.1385 87.1667 24.1167 87.1594ZM27.2865 92.4193C27.2139 92.3758 27.1376 92.2782 27.134 92.2022C27.1231 92.0575 27.232 91.9381 27.3736 91.9707C27.468 91.9924 27.537 92.1226 27.5878 92.1696C27.5479 92.3903 27.4027 92.4916 27.2901 92.4193H27.2865ZM29.5703 89.8183C29.4432 89.6627 29.3452 89.5868 29.3161 89.4927C29.3016 89.4457 29.4069 89.3299 29.4795 89.2974C29.6139 89.2395 29.7555 89.2974 29.7664 89.4457C29.7736 89.5397 29.6683 89.641 29.5703 89.8219V89.8183ZM32.337 96.0114C32.1809 96.0187 32.0792 95.9318 32.0502 95.7799C32.0175 95.6063 32.1482 95.429 32.3878 95.4001C32.4387 95.4616 32.5512 95.5448 32.5875 95.6533C32.6493 95.8269 32.5149 96.0006 32.337 96.0078V96.0114ZM12.7158 104.86C12.5052 104.86 12.3237 104.643 12.3745 104.455C12.4254 104.259 12.636 104.118 12.9192 104.154C12.97 104.238 13.0971 104.361 13.1116 104.494C13.137 104.704 12.9373 104.856 12.7158 104.856V104.86ZM35.1546 112.797C35.0928 112.8 34.9694 112.677 34.9767 112.619C34.9839 112.543 35.0856 112.471 35.18 112.362C35.2562 112.467 35.3543 112.551 35.347 112.616C35.3361 112.688 35.2272 112.789 35.1582 112.797H35.1546ZM37.0426 112.218C37.0027 112.225 36.9446 112.153 36.8974 112.116C36.9518 112.055 37.0027 111.99 37.0826 111.896C37.1661 111.983 37.2242 112.044 37.2822 112.102C37.2024 112.142 37.1298 112.2 37.0462 112.214L37.0426 112.218ZM3.30464 108.973C3.23202 108.973 3.1594 108.875 3.08678 108.821C3.14851 108.756 3.20297 108.647 3.27559 108.636C3.34458 108.626 3.42808 108.712 3.55153 108.785C3.44261 108.872 3.37362 108.973 3.30464 108.973ZM8.38058 107.62C8.34064 107.548 8.29707 107.475 8.25713 107.403C8.31523 107.381 8.38058 107.334 8.42778 107.349C8.47135 107.363 8.48951 107.446 8.51855 107.497C8.47135 107.537 8.42415 107.58 8.37695 107.62H8.38058ZM16.1978 111.841C15.911 111.831 15.6859 111.606 15.675 111.328C15.6677 111.06 15.8456 110.847 16.0853 110.843C16.4012 110.839 16.6481 111.078 16.6735 111.415C16.688 111.624 16.4411 111.849 16.1978 111.838V111.841ZM17.6211 112.113C17.5812 112.095 17.5412 112.077 17.5013 112.059C17.5195 112.037 17.5376 112.019 17.5558 111.997C17.5812 112.008 17.6175 112.015 17.6284 112.033C17.6393 112.051 17.6248 112.084 17.6211 112.113ZM26.1827 111.476C26.1573 111.708 26.0738 111.939 25.9866 112.16C25.8922 112.395 25.6998 112.54 25.4529 112.594C24.7594 112.749 24.1603 112.569 23.6883 112.04C23.2417 111.538 23.3978 110.774 24.0114 110.492C24.2838 110.366 24.596 110.326 24.763 110.282C25.0063 110.297 25.108 110.304 25.2096 110.308C25.9721 110.337 26.2408 110.908 26.1827 111.476ZM28.0417 112.822C27.5878 112.941 27.1304 113.028 26.5567 113.158C26.7128 112.833 26.8544 112.612 26.9234 112.373C26.9996 112.116 26.9924 111.834 27.0468 111.57C27.1049 111.295 27.3264 111.132 27.6423 111.1C27.9291 111.071 28.2087 111.107 28.354 111.386C28.4593 111.592 28.5391 111.827 28.5682 112.055C28.6154 112.424 28.4012 112.728 28.0417 112.822ZM28.6045 115.531C28.521 115.361 28.452 115.267 28.4375 115.166C28.4338 115.13 28.5791 115.028 28.6408 115.043C28.7062 115.057 28.786 115.166 28.7897 115.238C28.7897 115.307 28.7062 115.379 28.6045 115.531ZM30.1585 114.312C30.1186 114.247 30.0205 114.149 30.0024 114.041C29.977 113.882 30.1912 113.701 30.3291 113.762C30.4272 113.806 30.5325 113.932 30.5543 114.037C30.5869 114.204 30.3945 114.352 30.1585 114.312ZM53.7409 127.805C53.8789 127.744 54.0423 127.907 54.0532 128.124C54.0133 128.171 53.9697 128.265 53.8971 128.297C53.7591 128.359 53.5921 128.207 53.603 128.019C53.6066 127.943 53.6756 127.834 53.7446 127.805H53.7409ZM49.9031 124.043C50.052 124.011 50.1464 124.101 50.1573 124.3C50.1028 124.34 50.0411 124.43 49.9612 124.445C49.8124 124.474 49.6962 124.383 49.7179 124.228C49.7288 124.155 49.8305 124.058 49.9031 124.04V124.043ZM40.4956 115.343C40.55 115.126 40.7279 114.992 40.9313 115.01C41.0838 115.025 41.1854 115.191 41.16 115.394C41.1346 115.629 40.9639 115.759 40.7461 115.712C40.5718 115.672 40.452 115.499 40.4919 115.34L40.4956 115.343ZM89.7664 108.072C89.9443 108.05 90.1549 108.224 90.1912 108.427C90.2202 108.586 90.0859 108.741 89.8971 108.77C89.7192 108.796 89.5776 108.68 89.5558 108.484C89.5304 108.282 89.6284 108.09 89.7664 108.072ZM71.7791 108.293C71.819 108.325 71.8553 108.358 71.8953 108.39C71.8771 108.412 71.8626 108.437 71.8444 108.459C71.8045 108.427 71.7645 108.398 71.7319 108.358C71.7282 108.354 71.7645 108.314 71.7791 108.293ZM55.7161 104.961C55.8723 104.983 55.9993 105.182 55.9485 105.352C55.894 105.525 55.7851 105.648 55.5854 105.648C55.4148 105.648 55.2732 105.478 55.295 105.305C55.3204 105.088 55.5092 104.936 55.7161 104.961ZM40.4629 105.066C40.6771 105.066 40.8623 105.24 40.8478 105.431C40.8332 105.638 40.6517 105.829 40.4738 105.826C40.2232 105.818 40.0163 105.616 40.0272 105.392C40.0381 105.218 40.2378 105.066 40.4593 105.066H40.4629ZM84.9155 103.879C84.9409 103.822 85.0535 103.793 85.1334 103.782C85.1588 103.782 85.235 103.89 85.2205 103.919C85.1842 103.992 85.1152 104.046 85.0245 104.144C84.97 104.024 84.8937 103.93 84.9155 103.879ZM79.4148 103.406C79.5237 103.427 79.6145 103.532 79.6762 103.576C79.6871 103.818 79.5419 103.973 79.3676 103.97C79.2151 103.963 79.1207 103.876 79.1098 103.724C79.0989 103.554 79.255 103.373 79.4148 103.406ZM62.5385 103.565C62.8036 103.536 63.0686 103.764 63.0832 104.028C63.0941 104.245 62.8943 104.444 62.6366 104.473C62.3207 104.505 62.0701 104.342 62.0411 104.082C62.0157 103.84 62.2517 103.594 62.5385 103.565ZM46.7733 99.5095C46.7842 99.5385 46.7951 99.5674 46.806 99.5963C46.777 99.6072 46.7406 99.6325 46.7225 99.6217C46.7043 99.6108 46.7007 99.5674 46.6898 99.5421C46.7189 99.5312 46.7479 99.5204 46.7733 99.5095ZM38.1972 103.286C38.2589 103.156 38.3824 103.084 38.5059 103.163C38.593 103.217 38.6366 103.344 38.7455 103.51C38.5422 103.55 38.4223 103.612 38.3207 103.586C38.1863 103.554 38.1282 103.424 38.1936 103.286H38.1972ZM43.7633 81.6573C43.6508 81.6283 43.5164 81.5306 43.4765 81.4257C43.4002 81.2376 43.6217 80.988 43.8105 81.0459C43.9158 81.0785 43.9921 81.2015 44.0393 81.2449C44.0538 81.5234 43.9267 81.6971 43.7633 81.6573ZM45.0087 61.866C44.9071 61.819 44.8018 61.7033 44.7763 61.5983C44.74 61.4536 44.9434 61.3053 45.1903 61.3343C45.2229 61.3958 45.3101 61.4934 45.3246 61.602C45.3464 61.7756 45.1576 61.9348 45.0087 61.866ZM45.6514 82.5761C45.4989 82.5544 45.3645 82.3808 45.3718 82.2071C45.3827 81.943 45.5715 81.7658 45.8293 81.7766C46.0435 81.7839 46.2287 81.9575 46.2323 82.1529C46.236 82.3988 45.9382 82.6159 45.6514 82.5761ZM95.1473 88.2374C95.1872 88.2953 95.3071 88.3966 95.2962 88.4762C95.2816 88.5775 95.1655 88.7186 95.0747 88.733C94.9912 88.7475 94.8387 88.639 94.7951 88.5449C94.7261 88.4039 94.8895 88.2374 95.1473 88.2338V88.2374ZM91.4293 91.0193C91.5745 90.9976 91.6871 91.1097 91.6798 91.2653C91.6762 91.4136 91.5745 91.5366 91.4257 91.5149C91.3204 91.5004 91.2296 91.3883 91.0553 91.2617C91.2296 91.1423 91.3204 91.0338 91.4257 91.0193H91.4293ZM68.7655 85.0541C68.7655 85.0541 68.8127 85.1047 68.809 85.1192C68.7909 85.1662 68.7582 85.206 68.7291 85.2458C68.7001 85.206 68.6674 85.1662 68.6384 85.1264C68.6819 85.1011 68.7219 85.0722 68.7655 85.0541ZM103.353 79.8666C103.364 79.8883 103.375 79.91 103.382 79.9317C103.368 79.9498 103.353 79.9679 103.339 79.986C103.342 79.9462 103.349 79.9064 103.353 79.863V79.8666ZM99.8057 79.2191C99.8856 79.2227 99.9872 79.2878 100.031 79.3565C100.103 79.4723 100.002 79.6279 99.8239 79.6568C99.7767 79.6206 99.6786 79.5808 99.6387 79.5121C99.5733 79.4036 99.6859 79.2082 99.8093 79.2191H99.8057ZM94.1343 83.3502C94.1851 83.4117 94.3013 83.4986 94.3231 83.6071C94.3558 83.7662 94.2142 83.8386 94.0726 83.8386C93.9237 83.8386 93.8148 83.7518 93.8111 83.5962C93.8111 83.4407 93.9092 83.3575 94.1343 83.3502ZM87.4826 81.1653C87.5515 81.1653 87.6314 81.1581 87.6823 81.1906C88.0344 81.4077 88.3794 81.357 88.757 81.2521C89.0293 81.1761 89.2798 81.4474 89.2798 81.7368C89.2798 81.9575 89.1164 82.1529 88.9167 82.1529C88.8151 82.1529 88.7062 82.1529 88.6154 82.1167C88.3285 82.0045 88.0962 82.0805 87.8565 82.2541C87.7294 82.3446 87.5479 82.3988 87.3918 82.4025C87.0759 82.4061 86.7963 82.0986 86.8108 81.8128C86.829 81.4836 87.163 81.158 87.4789 81.1653H87.4826ZM84.7521 80.9446C84.9301 80.8325 85.1406 80.7565 85.3149 80.9121C85.4529 81.035 85.5328 81.2232 85.5945 81.3172C85.58 81.8562 85.2822 82.1963 84.8611 82.2324C84.6723 82.2505 84.4435 82.0914 84.3963 81.9141C84.2947 81.5234 84.4217 81.1544 84.7521 80.9482V80.9446ZM82.2795 82.8764C82.6281 82.88 82.8968 83.1621 82.9004 83.5203C82.9004 83.8531 82.6462 84.0991 82.3304 84.0701C82.0217 84.0412 81.8402 83.806 81.8366 83.4334C81.8329 83.1115 82.0217 82.8727 82.2795 82.8764ZM81.4481 84.3197C81.488 84.3559 81.5243 84.3921 81.5642 84.4282C81.5207 84.4572 81.4771 84.4934 81.4299 84.5151C81.419 84.5187 81.3609 84.468 81.3645 84.4608C81.3863 84.4102 81.419 84.3667 81.4481 84.3197ZM79.9376 83.6143C80.1736 83.6143 80.3733 83.8133 80.3878 84.0701C80.4024 84.3053 80.1918 84.5331 79.9558 84.5404C79.7234 84.5476 79.4983 84.3233 79.5019 84.0882C79.5055 83.8422 79.7125 83.6143 79.934 83.6107L79.9376 83.6143ZM67.8759 79.9968C68.1264 80.0005 68.2862 80.1958 68.268 80.4707C68.2535 80.7022 68.0901 80.8759 67.8977 80.8614C67.6471 80.8397 67.4257 80.6444 67.4148 80.4309C67.4039 80.2139 67.6399 79.9932 67.8759 79.9968ZM61.2859 56.306C61.1552 56.3385 61.0317 56.2915 61.0281 56.1287C61.0281 56.0817 61.0934 55.9913 61.1297 55.9913C61.2387 55.9913 61.344 56.031 61.5328 56.0708C61.4021 56.2011 61.3549 56.2915 61.2859 56.306ZM61.6562 53.5241C61.6272 53.6073 61.5255 53.6652 61.4529 53.7267C61.4311 53.7448 61.3912 53.7376 61.3585 53.7412C61.1261 53.6833 60.9555 53.3071 61.0644 53.09C61.0789 53.0611 61.1152 53.0213 61.137 53.0249C61.2641 53.0358 61.4093 53.0249 61.511 53.0864C61.6707 53.1769 61.7179 53.3541 61.6562 53.5278V53.5241ZM62.2953 58.5741C62.0556 58.5488 61.8813 58.3426 61.8922 58.0966C61.9031 57.8543 62.1173 57.6589 62.3461 57.6806C62.5821 57.7023 62.7491 57.9085 62.7419 58.1617C62.7346 58.415 62.5313 58.6031 62.2916 58.5778L62.2953 58.5741ZM62.8689 44.3972C62.8689 44.3972 62.8943 44.3177 62.9052 44.3177C62.9561 44.3177 63.0069 44.3394 63.0614 44.3538C63.0396 44.4081 63.0142 44.4587 62.9924 44.513C62.9488 44.4732 62.9016 44.4407 62.8689 44.3972ZM114.532 51.3537C114.725 51.3537 114.892 51.5562 114.859 51.766C114.83 51.9469 114.718 52.0591 114.522 52.0554C114.329 52.0518 114.217 51.9433 114.195 51.7552C114.169 51.5418 114.336 51.35 114.529 51.3537H114.532ZM114.587 52.92C114.874 52.9598 115.092 53.2094 115.063 53.4771C115.034 53.7882 114.758 53.9582 114.376 53.904C114.111 53.8678 113.948 53.6761 113.959 53.4192C113.973 53.0864 114.242 52.873 114.587 52.92ZM108.157 61.9384C108.182 61.9854 108.215 62.0324 108.229 62.0831C108.233 62.0976 108.182 62.1482 108.175 62.1446C108.128 62.1156 108.088 62.0795 108.044 62.0469C108.08 62.0107 108.117 61.9746 108.157 61.9384ZM88.7352 72.2808C88.7751 72.2663 88.9059 72.3676 88.924 72.4327C88.9603 72.5702 88.8768 72.6895 88.7316 72.6931C88.6626 72.6931 88.5863 72.6063 88.452 72.5159C88.5682 72.411 88.6408 72.3169 88.7352 72.2808ZM89.5667 64.6696C89.5558 64.6226 89.5413 64.5755 89.5413 64.5285C89.5413 64.514 89.603 64.4851 89.6139 64.4923C89.6538 64.5249 89.6829 64.5647 89.7155 64.6045C89.6683 64.6262 89.6175 64.6479 89.5703 64.6696H89.5667ZM91.3639 59.0046C91.255 59.3627 90.9573 59.54 90.449 59.5328C90.38 59.5147 90.2783 59.4966 90.1875 59.4568C89.9334 59.3555 89.8499 58.9793 90.0314 58.7695C90.3146 58.4367 90.714 58.339 91.1388 58.4982C91.3313 58.5705 91.4329 58.7912 91.3676 59.001L91.3639 59.0046ZM91.8795 61.0557C91.6798 61.0666 91.462 60.9074 91.4257 60.6614C91.491 60.6108 91.5745 60.5022 91.6798 60.4661C91.9195 60.3901 92.1046 60.5023 92.141 60.7048C92.17 60.8821 92.0502 61.0449 91.8795 61.0557ZM99.8311 54.2766C99.6205 54.2766 99.4426 54.0957 99.4353 53.8931C99.4281 53.6616 99.6423 53.5024 99.9364 53.5169C100.125 53.5278 100.281 53.6652 100.281 53.8244C100.281 54.074 100.078 54.2802 99.8311 54.2766ZM103.092 54.1174C103.004 54.2693 102.841 54.3815 102.725 54.4972C102.612 54.4394 102.54 54.4213 102.503 54.3779C102.347 54.197 102.373 53.8931 102.558 53.7629C102.7 53.6652 102.885 53.6363 103.008 53.7774C103.081 53.8606 103.139 54.0451 103.095 54.121L103.092 54.1174ZM105.448 54.3272C105.415 54.2802 105.354 54.2332 105.357 54.1898C105.357 54.1427 105.415 54.074 105.463 54.0595C105.499 54.0487 105.553 54.1102 105.633 54.1644C105.568 54.2259 105.51 54.2766 105.448 54.3308V54.3272Z" fill="#0C0C0C"/>
    </g>
    <defs>
        <clipPath id="clip0_1459_95018">
            <rect width="120" height="140" fill="white"/>
        </clipPath>
    </defs>
</svg>
