<svg width="24" height="24" viewBox="0 0 24 24" fill="none" xmlns="http://www.w3.org/2000/svg">
    <g clip-path="url(#clip0_2083_56723)">
        <path fill-rule="evenodd" clip-rule="evenodd" d="M9.31773 3.60063C9.44949 3.23525 9.74312 3 10.0685 3H16.5568C17.1668 3 17.5645 3.79083 17.2912 4.46354L15.4457 9.00633H18.177C18.9091 9.00633 19.2751 10.0955 18.7578 10.7321L9.03549 22.6977C8.4222 23.4525 7.4006 22.6757 7.67552 21.6637L9.748 14.0116H6.82148C6.68462 14.0116 6.54994 13.9695 6.42966 13.8892C6.30937 13.8088 6.2073 13.6928 6.13272 13.5516C6.05814 13.4103 6.0134 13.2484 6.00257 13.0805C5.99175 12.9126 6.01518 12.744 6.07073 12.5901L9.31773 3.60063Z" fill="#FFC977"/>
    </g>
    <defs>
        <clipPath id="clip0_2083_56723">
            <rect width="24" height="24" fill="white"/>
        </clipPath>
    </defs>
</svg>
