<?xml version="1.0" encoding="utf-8"?>
<!-- Generator: Adobe Illustrator 25.0.0, SVG Export Plug-In . SVG Version: 6.00 Build 0)  -->
<svg version="1.1" id="collection_icon_close" xmlns="http://www.w3.org/2000/svg" xmlns:xlink="http://www.w3.org/1999/xlink"
	 x="0px" y="0px" viewBox="0 0 16 16" style="enable-background:new 0 0 16 16;" xml:space="preserve">
<style type="text/css">
	.st0{fill-rule:evenodd;clip-rule:evenodd;fill:#E0E0E0;}
</style>
<path id="line" class="st0" d="M4.4,3.1l8.5,8.5c0.4,0.4,0.4,1,0,1.4c-0.4,0.4-1,0.4-1.4,0L3,4.5c-0.4-0.4-0.4-1,0-1.4
	C3.4,2.7,4,2.7,4.4,3.1z"/>
<path id="line-2" class="st0" d="M3.1,11.5L11.6,3c0.4-0.4,1-0.4,1.4,0l0,0c0.4,0.4,0.4,1,0,1.4l-8.5,8.5c-0.4,0.4-1,0.4-1.4,0l0,0
	C2.7,12.5,2.7,11.9,3.1,11.5z"/>
</svg>
