<svg width="1139" height="212" viewBox="0 0 1139 212" fill="none" xmlns="http://www.w3.org/2000/svg">
    <g clip-path="url(#clip0_1380_94592)">
        <rect width="1440" height="212" transform="translate(-235)" fill="#2832F5"/>
        <path d="M-181.26 176.24C-198.72 176.24 -209.52 168.32 -215.1 152.84C-219.06 141.86 -220.5 127.28 -220.5 110C-220.5 92.72 -219.06 78.14 -215.1 67.16C-209.52 51.68 -198.72 43.76 -179.46 43.76C-152.46 43.76 -142.38 59.42 -142.38 93.62V93.8H-172.08V93.44C-172.08 76.52 -174.06 70.76 -180.36 70.76C-184.5 70.76 -187.02 72.92 -188.64 77.24C-190.62 82.82 -190.8 94.34 -190.8 110C-190.8 126.74 -190.44 137.9 -188.28 143.84C-187.02 147.44 -185.04 149.24 -181.98 149.24C-176.04 149.24 -173.7 143.3 -173.7 126.2H-144C-144 162.02 -154.44 176.24 -181.26 176.24ZM-93.6787 176.24C-112.939 176.24 -123.739 168.32 -129.319 152.84C-133.279 141.86 -134.719 127.28 -134.719 110C-134.719 92.72 -133.279 78.14 -129.319 67.16C-123.739 51.68 -112.939 43.76 -93.6787 43.76C-74.4187 43.76 -63.6187 51.68 -58.0387 67.16C-54.0787 78.14 -52.6387 92.72 -52.6387 110C-52.6387 127.28 -54.0787 141.86 -58.0387 152.84C-63.6187 168.32 -74.4187 176.24 -93.6787 176.24ZM-105.019 110C-105.019 122.42 -104.659 135.02 -102.139 142.04C-100.519 146.54 -97.8187 149.24 -93.6787 149.24C-89.5387 149.24 -86.8387 146.54 -85.2187 142.04C-82.6987 135.02 -82.3387 122.42 -82.3387 110C-82.3387 97.58 -82.6987 84.98 -85.2187 77.96C-86.8387 73.46 -89.5387 70.76 -93.6787 70.76C-97.8187 70.76 -100.519 73.46 -102.139 77.96C-104.659 84.98 -105.019 97.58 -105.019 110ZM-40.0641 173V47H4.93594L11.0559 118.82V151.4H15.5559V118.82L21.6759 47H66.6759V173H41.4759V68.6H36.9759L36.0759 108.56L29.4159 173H-2.80406L-9.46406 108.56L-10.3641 68.6H-14.8641V173H-40.0641ZM82.807 173V47H111.607V173H82.807ZM127.807 173V47H170.287L176.407 100.82L177.307 151.4H181.807V47H207.007V173H164.527L158.047 118.82L157.507 68.6H153.007V173H127.807ZM250.616 176.24C241.076 176.24 230.456 171.74 225.056 156.44C221.096 145.46 219.656 127.1 219.656 109.82C219.656 92.54 221.096 78.14 225.056 67.16C230.636 51.86 241.976 43.76 260.336 43.76C285.356 43.76 297.596 59.06 297.596 91.46H268.796C268.796 77.78 265.916 70.76 260.156 70.76C256.916 70.76 254.036 72.92 252.236 77.96C249.716 84.98 249.356 97.58 249.356 110C249.356 122.42 249.716 135.02 252.236 142.04C253.856 146.54 256.556 149.24 260.696 149.24C267.536 149.24 271.136 141.68 270.956 129.26H257.276V104.96H296.156V173H270.956L278.336 154.28H273.836C267.536 170.3 261.416 176.24 250.616 176.24ZM372.894 176.24C348.414 176.24 335.454 163.1 335.454 138.08V132.32H364.254V138.08C364.254 145.64 367.134 149.24 372.894 149.24C376.314 149.24 378.474 147.98 379.914 145.64C380.994 143.84 381.534 141.68 381.534 139.34C381.534 136.64 381.174 134.48 379.914 132.32C378.474 129.8 375.954 127.82 371.454 125.66L356.514 118.28C350.214 115.22 345.534 110.9 342.294 105.32C338.874 99.38 337.074 92 337.074 83.18C337.074 74 339.054 66.08 342.654 59.78C348.594 49.52 359.394 43.76 375.054 43.76C399.354 43.76 412.134 56.9 412.134 81.92V87.68H383.334V81.92C383.334 74.36 380.634 70.76 375.054 70.76C371.994 70.76 369.834 72.02 368.394 74.36C367.314 76.16 366.774 78.32 366.774 80.66C366.774 83.36 367.134 85.52 368.394 87.68C369.834 90.2 372.354 92.18 376.854 94.34L391.794 101.72C398.094 104.78 402.774 109.1 406.014 114.68C409.434 120.62 411.234 128 411.234 136.82C411.234 146 409.254 153.92 405.654 160.22C399.714 170.48 388.914 176.24 372.894 176.24ZM460.735 176.24C441.475 176.24 430.675 168.32 425.095 152.84C421.135 141.86 419.695 127.28 419.695 110C419.695 92.72 421.135 78.14 425.095 67.16C430.675 51.68 441.475 43.76 460.735 43.76C479.995 43.76 490.795 51.68 496.375 67.16C500.335 78.14 501.775 92.72 501.775 110C501.775 127.28 500.335 141.86 496.375 152.84C490.795 168.32 479.995 176.24 460.735 176.24ZM449.395 110C449.395 122.42 449.755 135.02 452.275 142.04C453.895 146.54 456.595 149.24 460.735 149.24C464.875 149.24 467.575 146.54 469.195 142.04C471.715 135.02 472.075 122.42 472.075 110C472.075 97.58 471.715 84.98 469.195 77.96C467.575 73.46 464.875 70.76 460.735 70.76C456.595 70.76 453.895 73.46 452.275 77.96C449.755 84.98 449.395 97.58 449.395 110ZM551.79 176.24C532.53 176.24 521.73 168.32 516.15 152.84C512.19 141.86 510.75 127.28 510.75 110C510.75 92.72 512.19 78.14 516.15 67.16C521.73 51.68 532.53 43.76 551.79 43.76C571.05 43.76 581.85 51.68 587.43 67.16C591.39 78.14 592.83 92.72 592.83 110C592.83 127.28 591.39 141.86 587.43 152.84C581.85 168.32 571.05 176.24 551.79 176.24ZM540.45 110C540.45 122.42 540.81 135.02 543.33 142.04C544.95 146.54 547.65 149.24 551.79 149.24C555.93 149.24 558.63 146.54 560.25 142.04C562.77 135.02 563.13 122.42 563.13 110C563.13 97.58 562.77 84.98 560.25 77.96C558.63 73.46 555.93 70.76 551.79 70.76C547.65 70.76 544.95 73.46 543.33 77.96C540.81 84.98 540.45 97.58 540.45 110ZM605.405 173V47H647.885L654.005 100.82L654.905 151.4H659.405V47H684.605V173H642.125L635.645 118.82L635.105 68.6H630.605V173H605.405Z" fill="white"/>
        <g clip-path="url(#clip1_1380_94592)">
            <path d="M774.723 54.9393C774.495 54.9273 774.277 55.1496 774.046 55.1356C773.82 55.1216 773.739 54.9473 773.497 54.9293C773.147 54.9052 772.986 55.1676 772.871 55.4601C773.699 55.4922 774.527 55.5262 775.355 55.5583C775.236 55.2538 775.071 54.9553 774.723 54.9373V54.9393Z" fill="white"/>
            <path d="M802.345 109.238C802.351 109.22 802.355 109.2 802.361 109.182C801.456 106.418 798.307 105.154 795.622 104.529C793.86 104.12 792.075 104.208 790.364 104.803C788.883 105.318 787.289 106.618 787.917 108.353C787.917 108.357 787.919 108.363 787.921 108.367C788.38 109.136 789.073 109.751 789.794 110.3C790.828 111.087 791.923 111.794 793.058 112.433C793.454 112.511 793.854 112.584 794.254 112.642C794.642 112.698 795.03 112.746 795.42 112.782C796.458 112.878 797.501 112.894 798.529 112.816C799.559 112.736 800.616 112.473 801.303 111.652C801.727 111.141 801.982 110.492 802.182 109.827C802.24 109.631 802.295 109.435 802.347 109.24L802.345 109.238Z" fill="white"/>
            <path d="M773.921 57.0105C774.44 57.0986 775.263 56.7801 775.442 56.2252C774.582 56.1912 773.723 56.1571 772.863 56.123C773.046 56.5698 773.398 56.9223 773.921 57.0105Z" fill="white"/>
            <path d="M769.798 123.871C769.745 124.128 769.697 124.384 769.653 124.64C769.622 124.819 769.592 124.997 769.566 125.175C769.545 125.297 769.529 125.418 769.515 125.542C769.539 125.52 769.564 125.496 769.588 125.474C769.719 125.516 770.065 125.502 770.164 125.414C770.349 125.251 770.206 124.935 770.149 124.757C770.105 124.614 769.992 124.035 769.8 123.871H769.798Z" fill="white"/>
            <path d="M741.21 93.5403C741.764 95.5815 743.463 96.8215 745.376 97.5306C746.776 98.0494 748.257 98.382 749.742 98.6825C749.96 98.7265 750.178 98.7686 750.396 98.8127C750.497 98.0935 750.632 97.3784 750.804 96.6712C750.784 96.6152 750.776 96.5531 750.79 96.4809C751.071 95.1448 750.091 93.9729 749.174 93.1196C748.311 92.3183 747.297 91.6573 746.188 91.2446C745.119 90.846 743.893 90.6136 742.758 90.842C742.057 90.9842 741.376 91.3848 741.004 91.9537C741.006 92.4826 741.071 93.0134 741.214 93.5423L741.21 93.5403Z" fill="white"/>
            <path d="M799.392 50.9754C799.707 50.5948 800.034 50.1982 800.355 49.7875C800.564 49.5231 800.766 49.2507 800.962 48.9742C800.242 46.7046 799.17 44.5592 797.758 42.6281C796.974 41.5584 796.137 40.7131 794.899 40.1842C793.939 39.7756 792.919 39.4951 792.032 38.9343C791.25 38.4415 790.636 37.7704 790.36 36.881C790.04 35.8493 790.172 34.7316 789.757 33.724C789.37 32.7825 788.62 32.0333 787.747 31.5205C786.806 30.9656 785.834 30.8253 784.78 30.631C783.911 30.4708 783.184 30.0561 782.844 29.2128C782.62 28.6539 782.608 28.075 782.689 27.498C782.61 27.498 782.531 27.498 782.452 27.5001C780.901 27.9167 779.436 28.6379 778.406 29.7817C777.917 30.3245 777.384 30.8294 776.863 31.3442C776.881 31.3822 776.893 31.4263 776.895 31.4744C776.99 33.4535 779.881 32.6603 781.071 32.6182C782.222 32.5781 783.234 32.9968 783.927 33.9243C784.596 34.8177 784.814 35.9275 784.82 37.0212C784.824 37.7023 784.679 38.3894 784.713 39.0685C784.751 39.8437 785.265 40.3745 785.935 40.7071C786.939 41.2059 788.101 41.3281 789.125 41.7948C790.046 42.2135 790.921 42.8004 791.555 43.5917C792.224 44.423 792.479 45.3505 792.59 46.3941C792.721 47.6261 792.951 48.7178 793.697 49.7415C794.804 51.2619 796.525 52.0712 798.333 52.2054C798.693 51.8007 799.046 51.3901 799.39 50.9714L799.392 50.9754Z" fill="white"/>
            <path d="M786.576 50.848C786.968 52.0279 787.711 53.1096 788.487 54.0752C789.473 55.3011 790.8 56.4249 792.303 56.8335C792.36 56.8255 792.416 56.8175 792.473 56.8075C792.636 56.7795 792.802 56.7414 792.97 56.6913C794.22 56.3227 795.214 55.4293 796.123 54.5379C796.228 54.4357 796.331 54.3296 796.434 54.2254C796.683 53.977 796.927 53.7286 797.17 53.4762C797.378 53.2578 797.582 53.0395 797.786 52.8171C796.109 52.5868 794.533 51.8136 793.414 50.4614C792.693 49.592 792.208 48.5584 792.036 47.4426C791.828 46.0884 791.83 44.8465 790.838 43.7848C790.022 42.9114 788.909 42.3465 787.776 41.9939C786.643 41.6434 785.378 41.4551 784.572 40.4995C783.711 39.4779 784.174 38.1177 784.148 36.9098C784.119 35.5857 783.675 34.0292 782.323 33.4723C780.96 32.9094 779.447 33.7227 778.034 33.4203C777.214 33.244 776.519 32.6991 776.297 31.9219C776.085 32.1442 775.881 32.3706 775.685 32.605C774.913 33.5384 774.297 34.5821 773.691 35.6258C773.675 37.3465 775.822 37.5368 777.097 37.5408C778.19 37.5448 779.366 37.5408 780.317 38.1558C781.117 38.6726 781.43 39.4839 781.594 40.3833C781.701 40.9763 781.76 41.6013 782.061 42.1361C782.358 42.663 782.853 43.0376 783.378 43.326C784.22 43.7908 785.236 44.0131 785.905 44.7463C786.556 45.4594 786.622 46.3949 786.519 47.3104C786.382 48.5383 786.17 49.6381 786.572 50.848H786.576Z" fill="white"/>
            <path d="M773.105 35.308C773.762 34.1762 774.436 33.0484 775.287 32.0468C775.764 31.4859 776.319 31.0212 776.846 30.5124C777.345 30.0316 777.757 29.4727 778.246 28.982C778.772 28.4551 779.4 28.0224 780.087 27.6719C779.519 27.75 778.955 27.8562 778.402 28.0024C777.974 28.1146 777.551 28.2468 777.135 28.409C774.489 29.4407 772.376 31.4499 770.372 33.387C768.339 35.3521 766.277 37.7079 766.093 40.6505C765.919 43.459 767.586 45.8869 769.273 48.0183C769.287 48.0363 769.301 48.0543 769.317 48.0724C769.469 47.7198 769.616 47.3632 769.733 46.9946C769.962 46.2855 769.996 45.6124 769.768 44.8953C769.549 44.2042 769.246 43.5672 769.166 42.838C768.828 39.8032 771.048 37.3873 773.016 35.3741C773.044 35.3461 773.073 35.3261 773.101 35.31L773.105 35.308Z" fill="white"/>
            <path d="M802.546 43.6417C802.287 42.4158 801.566 41.3481 800.812 40.3665C799.964 39.2607 799.115 38.191 798.426 36.9791C797.061 34.5753 796.022 31.889 793.911 29.996C791.707 28.0188 788.836 27.7484 785.994 27.5982C785.15 27.5541 784.295 27.512 783.436 27.5C783.418 27.5 783.398 27.5 783.38 27.5C783.232 28.5857 783.418 29.6474 784.75 29.9539C785.792 30.1923 786.776 30.2744 787.748 30.7672C789.344 31.5785 790.455 32.9887 790.699 34.7616C790.859 35.9154 790.861 37.0773 791.786 37.9246C792.604 38.6738 793.697 39.0003 794.711 39.3969C795.671 39.7715 796.552 40.2323 797.269 40.9795C798.004 41.7447 798.62 42.6501 799.184 43.5435C800.119 45.0259 800.867 46.6164 801.432 48.2711C802.315 46.8628 802.897 45.3144 802.546 43.6417Z" fill="white"/>
            <path d="M743.745 153.411C743.564 153.826 743.426 154.256 743.339 154.699C743.061 156.115 743.113 157.716 743.525 159.136C745.984 160.909 749.222 161.294 752.224 161.424C754.006 161.502 755.798 161.51 757.57 161.734C758.947 161.909 760.303 162.255 761.422 163.106C763.511 164.691 764.317 167.343 765.196 169.687C765.754 171.173 766.319 172.646 767.75 173.511C769.176 174.374 770.842 174.915 772.376 175.56C774.077 176.277 775.776 176.995 777.477 177.71C779.014 178.357 780.758 179.312 782.471 178.938C781.812 176.938 780.644 175.128 779.612 173.305C778.493 171.326 777.372 169.348 776.253 167.369C775.277 165.645 774.307 163.916 773.321 162.195C772.39 160.568 771.412 158.958 770.166 157.544C767.923 155.002 765.071 153.113 762.495 150.935C761.188 149.829 760.022 148.621 758.887 147.345C758.519 146.933 758.145 146.526 757.758 146.139C757.725 146.117 757.699 146.089 757.675 146.057C756.885 145.28 756.03 144.587 755.012 144.078C753.499 143.321 751.832 142.886 750.259 142.279C750.269 142.418 750.281 142.556 750.299 142.696C750.303 142.736 750.313 142.774 750.325 142.81C749.481 144.098 747.786 144.695 746.533 145.504C745.127 146.414 744.143 147.718 744.03 149.421C744.006 149.803 744.036 150.186 744.107 150.56C744.2 151.059 744.584 151.652 744.432 152.161C744.305 152.59 743.931 152.99 743.747 153.407L743.745 153.411ZM747.941 152.776C750.808 152.948 753.657 153.515 756.323 154.583C758.596 155.492 760.729 156.746 762.554 158.377C764.39 160.02 765.794 162.043 767.105 164.106C768.42 166.177 769.669 168.321 771.317 170.156C773.212 172.265 775.602 173.521 778.154 174.693C778.543 174.873 778.204 175.444 777.816 175.266C775.111 174.024 772.616 172.668 770.646 170.4C767.487 166.764 765.719 162.097 762.081 158.846C758.234 155.404 753.044 153.746 747.941 153.439C747.513 153.413 747.511 152.75 747.941 152.776Z" fill="white"/>
            <path d="M793.026 152.368C791.305 152.589 789.57 152.703 787.842 152.493C786.275 152.302 784.743 151.906 783.212 151.531C781.558 151.127 779.903 150.72 778.253 150.305C774.907 149.466 771.572 148.586 768.267 147.607C766.673 147.134 765.095 146.555 763.469 146.199C761.875 145.85 760.253 145.876 758.646 146.099C759.242 146.736 759.81 147.403 760.4 148.044C761.576 149.314 762.893 150.437 764.246 151.517C766.901 153.639 769.669 155.652 771.707 158.404C772.84 159.937 773.76 161.613 774.695 163.268L775.129 164.035C775.176 164.005 775.228 163.983 775.295 163.979C776.378 163.895 777.483 163.975 778.402 164.604C779.297 165.217 779.996 166.102 780.818 166.805C782.55 168.288 784.535 169.338 786.849 169.494C789.129 169.646 791.382 169.554 793.655 169.884C796.614 170.315 799.491 171.13 802.289 172.162C802.523 172.124 802.758 172.082 802.988 172.032C804.184 171.769 805.331 171.315 806.18 170.531C807.4 169.406 807.99 167.667 807.741 166.04C807.578 164.973 806.939 164.097 807.43 163.005C807.624 162.575 807.939 162.256 807.99 161.767C808.046 161.225 807.887 160.638 807.727 160.125C807.388 159.041 806.917 158.013 806.628 156.91C806.362 155.888 806.156 154.85 805.82 153.847C805.455 152.755 804.869 151.748 804.323 150.74C804.154 150.425 803.907 150.231 803.62 150.115C803.174 149.935 802.626 149.951 802.111 150.021C802.099 149.969 802.085 149.919 802.073 149.869C800.582 150.281 799.244 151.149 797.747 151.559C796.216 151.98 794.604 152.168 793.028 152.368H793.026ZM804.309 162.234C804.62 162.208 804.717 162.605 804.545 162.799C802.988 164.566 800.206 165.227 797.952 165.495C795.723 165.76 793.428 165.562 791.281 164.908C789.16 164.263 787.289 163.142 785.521 161.836C783.766 160.538 782.095 159.109 780.194 158.019C778.016 156.772 775.644 156.329 773.184 156C773.105 156 773.026 156 772.945 156.006C772.586 156.024 772.529 155.568 772.77 155.401C772.822 155.337 772.905 155.299 773.018 155.315C773.073 155.321 773.125 155.329 773.18 155.337C774.269 155.331 775.307 155.668 776.378 155.842C777.525 156.028 778.525 156.367 779.62 156.735C781.624 157.409 783.747 157.557 785.836 157.779C787.887 157.995 789.881 158.372 791.851 158.989C793.891 159.628 795.873 160.431 797.891 161.13C799.96 161.848 802.095 162.425 804.307 162.232L804.309 162.234Z" fill="white"/>
            <path d="M784.992 158.357C783.713 158.227 782.426 158.092 781.17 157.832C784.529 159.923 787.289 162.91 791.143 164.172C793.259 164.865 795.517 165.098 797.731 164.861C799.602 164.661 801.893 164.168 803.434 162.938C801.347 162.942 799.321 162.343 797.36 161.65C795.345 160.937 793.362 160.142 791.315 159.523C789.24 158.894 787.145 158.579 784.992 158.359V158.357Z" fill="white"/>
            <path d="M743.346 178.72C744.323 180.771 746.861 181.426 748.895 181.883C751.853 182.546 754.865 182.94 757.881 183.213C763.99 183.762 770.137 183.956 776.261 184.276C779.37 184.439 782.499 184.657 785.604 184.332C787.081 184.178 788.529 183.866 789.994 183.629C790.408 183.563 790.822 183.511 791.236 183.469C791.095 183.439 790.992 183.315 791.002 183.155C791.004 183.099 791.004 183.036 791.03 182.99C791.164 182.752 791.202 182.508 791.148 182.233C791.111 182.047 791.251 181.873 791.432 181.887C791.705 181.907 791.895 181.796 792.085 181.632C792.192 181.54 792.331 181.55 792.457 181.628C792.582 181.706 792.624 181.823 792.612 181.965C792.594 182.157 792.477 182.251 792.267 182.235C792.21 182.231 792.156 182.207 792.101 182.203C792.067 182.201 792.03 182.221 791.986 182.233C791.804 182.437 791.752 182.67 791.784 182.952C791.81 183.201 791.677 183.373 791.465 183.443C792.501 183.351 793.539 183.331 794.584 183.369C796.24 183.429 797.905 183.681 799.562 183.669C800.78 183.661 801.843 183.151 802.008 181.851C802.109 181.071 802.051 180.258 802.057 179.473C802.061 178.603 802.067 177.734 802.071 176.865C802.079 175.506 802.087 174.148 802.095 172.79C801.02 172.393 799.933 172.029 798.832 171.706C796.679 171.075 794.471 170.599 792.236 170.364C791.16 170.252 790.069 170.256 788.98 170.244C788.986 170.286 788.99 170.332 788.992 170.38C789 170.727 788.786 170.939 788.434 170.933C788.115 170.927 787.921 170.725 787.915 170.396C787.915 170.334 787.921 170.276 787.933 170.224C787.154 170.198 786.376 170.144 785.61 170.008C784.414 169.797 783.303 169.319 782.277 168.69C782.202 168.702 782.125 168.698 782.045 168.672C781.889 168.625 781.784 168.517 781.748 168.359C781.748 168.355 781.748 168.349 781.746 168.345C781.35 168.075 780.968 167.786 780.6 167.482C779.832 166.849 779.176 166.105 778.426 165.46C777.558 164.711 776.568 164.561 775.467 164.625C776.222 165.959 776.978 167.293 777.731 168.627C778.721 170.378 779.713 172.127 780.703 173.878C781.653 175.555 782.659 177.219 783.212 179.074C783.265 179.252 783.148 179.427 782.978 179.481C781.125 180.084 779.305 179.19 777.622 178.481C775.679 177.662 773.735 176.843 771.792 176.023C770.228 175.364 768.455 174.829 767.059 173.848C765.881 173.02 765.295 171.781 764.788 170.48C763.806 167.964 763.047 164.809 760.554 163.309C759.255 162.528 757.679 162.345 756.17 162.251C756.097 162.404 755.946 162.492 755.727 162.494C755.487 162.494 755.315 162.38 755.273 162.201C753.483 162.109 751.687 162.105 749.903 161.923C747.822 161.71 745.701 161.214 743.903 160.166C744.146 160.677 744.467 161.154 744.853 161.558C744.853 161.572 744.849 161.586 744.847 161.602C744.451 164.519 744.063 167.438 743.687 170.358C743.487 171.919 743.287 173.481 743.093 175.042C742.939 176.278 742.784 177.548 743.339 178.714L743.346 178.72ZM794.127 171.432C794.307 171.418 794.443 171.548 794.443 171.734C794.443 171.887 794.305 172.033 794.168 172.023C794.045 172.015 793.929 171.871 793.913 171.702C793.901 171.566 793.998 171.442 794.127 171.432ZM793.184 171.6C793.198 171.608 793.212 171.614 793.226 171.622C793.22 171.636 793.214 171.65 793.206 171.664C793.192 171.656 793.17 171.652 793.166 171.642C793.162 171.632 793.176 171.614 793.182 171.6H793.184ZM793.091 180.502C793.21 180.508 793.295 180.607 793.285 180.727C793.275 180.849 793.184 180.927 793.061 180.923C792.941 180.919 792.861 180.825 792.869 180.699C792.877 180.579 792.97 180.496 793.093 180.502H793.091ZM792.285 175.414C792.392 175.408 792.459 175.458 792.477 175.563C792.495 175.663 792.432 175.749 792.291 175.765C792.255 175.727 792.18 175.677 792.152 175.607C792.113 175.516 792.192 175.42 792.285 175.414ZM791.057 180.268C791.186 180.258 791.303 180.372 791.305 180.508C791.305 180.637 791.194 180.751 791.061 180.763C790.931 180.773 790.806 180.653 790.814 180.524C790.82 180.388 790.925 180.278 791.057 180.27V180.268ZM788.972 176.612C789.069 176.628 789.141 176.684 789.148 176.833C789.107 176.859 789.053 176.915 788.992 176.923C788.907 176.935 788.816 176.827 788.826 176.738C788.834 176.658 788.885 176.596 788.972 176.612ZM786.119 176.22C786.139 176.097 786.269 176.017 786.422 176.031C786.6 176.047 786.721 176.167 786.707 176.316C786.693 176.466 786.546 176.586 786.392 176.576C786.21 176.562 786.089 176.404 786.117 176.22H786.119ZM785.946 183.269C786.053 183.257 786.172 183.353 786.184 183.461C786.2 183.617 786.079 183.746 785.913 183.75C785.804 183.752 785.697 183.645 785.699 183.533C785.701 183.403 785.812 183.285 785.946 183.269ZM784.612 172.484C784.717 172.432 784.826 172.422 784.921 172.508C784.948 172.53 784.956 172.57 784.988 172.628C784.948 172.69 784.915 172.79 784.849 172.828C784.778 172.868 784.671 172.86 784.586 172.846C784.552 172.84 784.513 172.764 784.505 172.716C784.489 172.62 784.519 172.53 784.614 172.484H784.612ZM782.863 183.169C782.905 183.125 782.998 183.101 783.059 183.113C783.198 183.141 783.192 183.269 783.206 183.409C783.19 183.451 783.178 183.531 783.129 183.579C783.085 183.625 783.004 183.653 782.937 183.657C782.895 183.659 782.826 183.617 782.806 183.575C782.737 183.431 782.748 183.283 782.861 183.167L782.863 183.169ZM778.459 182.58C778.544 182.594 778.566 182.668 778.533 182.74C778.517 182.78 778.469 182.808 778.396 182.88C778.37 182.776 778.337 182.716 778.346 182.66C778.352 182.626 778.422 182.574 778.457 182.58H778.459ZM775.574 183.605C775.681 183.605 775.774 183.718 775.756 183.834C775.739 183.934 775.677 183.996 775.568 183.994C775.461 183.992 775.398 183.932 775.386 183.828C775.372 183.71 775.465 183.603 775.572 183.605H775.574ZM774.424 179.827C774.511 179.897 774.63 179.948 774.667 180.032C774.715 180.142 774.717 180.282 774.705 180.406C774.689 180.56 774.521 180.643 774.364 180.603C774.222 180.566 774.135 180.474 774.109 180.336C774.081 180.188 774.065 180.036 774.206 179.929C774.263 179.887 774.337 179.867 774.426 179.827H774.424ZM774.028 177.173C774.071 177.189 774.105 177.231 774.168 177.285C774.091 177.319 774.038 177.361 774.002 177.351C773.97 177.341 773.95 177.271 773.944 177.225C773.941 177.211 774.008 177.165 774.028 177.173ZM773.251 177.978C773.366 177.882 773.566 177.888 773.657 177.998C773.689 178.038 773.699 178.097 773.713 178.129C773.689 178.351 773.527 178.485 773.323 178.457C773.275 178.451 773.216 178.415 773.188 178.377C773.101 178.263 773.135 178.075 773.253 177.976L773.251 177.978ZM772.523 181.081C772.689 181.007 772.881 181.033 772.986 181.155C773.047 181.226 773.101 181.304 773.137 181.388C773.224 181.586 773.133 181.833 772.956 181.915C772.784 181.993 772.517 181.905 772.424 181.722C772.376 181.626 772.364 181.512 772.344 181.444C772.358 181.27 772.384 181.143 772.523 181.081ZM769.552 183.501C769.564 183.507 769.566 183.531 769.572 183.547C769.556 183.553 769.535 183.567 769.525 183.561C769.513 183.555 769.511 183.531 769.503 183.515C769.519 183.509 769.539 183.495 769.55 183.501H769.552ZM767.447 181.744C767.628 181.698 767.806 181.63 767.99 181.59C768.109 181.564 768.21 181.62 768.271 181.732C768.319 181.82 768.325 181.907 768.271 181.997C768.164 182.173 768.063 182.349 767.956 182.524C767.927 182.572 767.891 182.618 767.853 182.656C767.715 182.792 767.57 182.914 767.356 182.838C767.119 182.754 766.98 182.566 766.976 182.331C766.972 181.989 767.103 181.829 767.447 181.74V181.744ZM764.594 178.92C764.879 178.93 765.069 179.136 765.065 179.433C765.061 179.701 764.865 179.901 764.61 179.895C764.337 179.889 764.097 179.661 764.095 179.405C764.093 179.126 764.315 178.91 764.594 178.92ZM761.58 174.791C761.733 174.783 761.853 174.897 761.867 175.066C761.883 175.274 761.782 175.428 761.626 175.436C761.459 175.444 761.319 175.314 761.301 175.13C761.283 174.936 761.394 174.801 761.582 174.791H761.58ZM758.539 176.883C758.562 176.807 758.643 176.748 758.679 176.704C758.859 176.704 758.978 176.829 758.968 176.959C758.962 177.049 758.871 177.131 758.778 177.131C758.634 177.131 758.503 177.007 758.539 176.883ZM757.669 179.17C757.798 179.088 757.935 179.034 758.095 179.056C758.224 179.074 758.35 179.18 758.376 179.3C758.4 179.411 758.331 179.579 758.214 179.631C758.097 179.683 757.968 179.707 757.907 179.725C757.687 179.717 757.564 179.633 757.535 179.515C757.503 179.385 757.556 179.244 757.669 179.172V179.17ZM746.897 179.815C746.873 179.795 746.847 179.775 746.828 179.751C746.824 179.745 746.843 179.707 746.849 179.707C746.877 179.707 746.905 179.719 746.935 179.727C746.923 179.757 746.909 179.787 746.897 179.815ZM754.396 175.555C754.291 175.557 754.194 175.444 754.198 175.328C754.204 175.186 754.307 175.088 754.453 175.086C754.568 175.086 754.657 175.184 754.651 175.308C754.645 175.44 754.529 175.553 754.396 175.557V175.555ZM754.4 167.566C754.422 167.592 754.445 167.62 754.469 167.646C754.428 167.668 754.39 167.69 754.35 167.71C754.337 167.678 754.311 167.642 754.317 167.614C754.323 167.592 754.37 167.58 754.4 167.564V167.566ZM754.465 169.375C754.63 169.373 754.76 169.493 754.75 169.641C754.739 169.781 754.602 169.9 754.445 169.902C754.315 169.902 754.208 169.795 754.198 169.657C754.188 169.493 754.297 169.379 754.465 169.377V169.375ZM749.76 174.417C749.845 174.397 749.946 174.465 749.966 174.559C749.992 174.675 749.917 174.791 749.758 174.813C749.717 174.777 749.632 174.733 749.598 174.663C749.552 174.567 749.645 174.445 749.758 174.417H749.76ZM748.75 176.258C748.895 176.242 749.047 176.382 749.047 176.534C749.047 176.696 748.875 176.839 748.693 176.825C748.592 176.817 748.503 176.708 748.497 176.582C748.489 176.416 748.598 176.274 748.75 176.258ZM748.23 179.447C748.245 179.625 748.083 179.803 747.847 179.869C747.681 179.915 747.55 179.847 747.438 179.737C747.321 179.619 747.307 179.469 747.366 179.321C747.428 179.162 747.566 179.108 747.727 179.104C748.014 179.1 748.21 179.232 748.228 179.447H748.23ZM746.737 163.049C747.002 162.756 747.346 162.754 747.624 163.039C747.636 163.053 747.649 163.067 747.659 163.083C747.77 163.257 747.628 163.648 747.432 163.702C747.281 163.744 747.133 163.73 746.99 163.666C746.822 163.589 746.614 163.565 746.566 163.307C746.614 163.233 746.665 163.131 746.739 163.051L746.737 163.049ZM743.909 178.716C744.038 178.698 744.133 178.802 744.133 178.964C744.133 179.07 744.069 179.156 743.982 179.16C743.845 179.166 743.715 179.064 743.709 178.942C743.703 178.836 743.794 178.732 743.907 178.716H743.909Z" fill="white"/>
            <path d="M753.996 70.3526C753.947 70.4588 753.782 70.5389 753.648 70.5389C753.626 70.5509 753.604 70.5629 753.582 70.575C751.644 71.6927 750.412 73.5477 749.194 75.3526C747.879 77.2997 746.618 79.2828 745.432 81.3101C744.242 83.3453 743.083 85.4206 742.111 87.568C741.776 88.3092 741.479 89.0844 741.277 89.8757C741.192 90.2102 741.123 90.5468 741.075 90.8853C741.271 90.7251 741.489 90.5888 741.721 90.4807C743.028 89.8777 744.63 90.046 745.964 90.4666C746.119 90.5147 746.273 90.5708 746.424 90.6269C746.533 90.6289 746.628 90.667 746.699 90.7351C747.852 91.2138 748.905 91.929 749.798 92.7963C750.422 93.4033 750.992 94.1185 751.287 94.9177C751.616 93.822 751.97 92.7062 752.18 91.5864C752.073 91.5664 751.98 91.5223 751.933 91.4001C751.869 91.2218 751.911 91.0496 752.048 90.9334C752.137 90.8573 752.22 90.8172 752.301 90.8072C752.45 89.5732 752.384 88.3372 751.883 87.1173C751.721 86.7227 752.368 86.5504 752.527 86.941C752.644 87.2275 752.737 87.5139 752.812 87.8044C752.846 87.8264 752.877 87.8525 752.905 87.8865C753.01 88.0207 753.012 88.179 752.923 88.3092C753.091 89.2407 753.065 90.1842 752.929 91.1237C752.945 91.1357 752.964 91.1457 752.982 91.1597C753.055 91.2158 753.071 91.302 753.034 91.3921C753.006 91.4642 752.958 91.5103 752.879 91.5223C752.875 91.5223 752.871 91.5223 752.867 91.5223C752.699 92.4818 752.432 93.4334 752.151 94.3668C752.151 94.3829 752.151 94.4029 752.156 94.4249C752.147 94.4249 752.141 94.4249 752.135 94.4229C752.067 94.6493 752 94.8737 751.931 95.096C751.543 96.376 751.222 97.6681 751.04 98.9902C751.143 101.196 751.452 103.399 752.448 105.386C752.459 105.406 752.469 105.424 752.479 105.444C752.491 105.469 752.505 105.493 752.519 105.519C752.539 105.533 752.56 105.551 752.576 105.575C752.6 105.611 752.61 105.647 752.606 105.681C752.877 106.176 753.19 106.652 753.547 107.097C755.905 108.748 758.917 109.383 761.768 108.762C762.188 108.67 762.366 109.309 761.945 109.401C759.139 110.014 756.192 109.497 753.776 108.037C753.305 112.299 753.467 116.594 753.844 120.867C753.956 122.121 754.083 123.375 754.216 124.627C754.339 125.799 754.624 127.071 754.493 128.249C754.364 129.419 753.624 130.54 753.156 131.604C752.697 132.644 752.265 133.691 751.859 134.751C751.099 136.734 750.38 138.733 750.246 140.825C750.23 141.081 750.226 141.34 750.228 141.598C752.469 142.524 754.962 142.992 756.913 144.491C757.327 144.807 757.709 145.156 758.077 145.52C759.842 145.24 761.632 145.158 763.396 145.51C765.236 145.879 767.02 146.552 768.816 147.081C772.208 148.078 775.63 148.972 779.061 149.827C780.753 150.25 782.448 150.664 784.141 151.079C785.816 151.488 787.501 151.886 789.234 151.941C791.042 151.999 792.84 151.748 794.622 151.48C796.372 151.217 798.01 150.873 799.626 150.134C800.384 149.787 801.127 149.475 801.899 149.258C801.652 148.409 801.349 147.576 801.085 146.728C801.087 146.672 801.081 146.612 801.059 146.546C800.644 145.352 800.424 144.134 800.396 142.878C800.396 142.878 800.396 142.878 800.398 142.878C800.398 142.864 800.396 142.85 800.394 142.836C800.394 142.738 800.388 142.64 800.39 142.54C800.39 142.475 800.378 142.417 800.36 142.367C800.319 141.7 800.313 141.031 800.263 140.372C800.166 139.082 799.945 137.798 799.602 136.55C798.895 133.984 797.679 131.558 796.034 129.457C795.121 128.291 794.073 127.273 793.537 125.865C792.984 124.411 792.79 122.83 792.709 121.286C792.564 118.539 792.652 115.769 792.727 113.011C791.652 112.406 790.614 111.737 789.622 111.001C788.709 110.324 787.885 109.579 787.339 108.654C785.176 110.21 782.202 110.444 779.612 110.376C778.17 110.338 776.713 110.134 775.349 109.657C774.111 109.225 773.123 108.487 772.145 107.638C771.822 107.356 772.295 106.889 772.618 107.169C773.608 108.031 774.594 108.732 775.863 109.13C777.153 109.537 778.505 109.701 779.857 109.719C782.289 109.751 785.016 109.529 787.038 108.057C786.891 107.706 786.782 107.331 786.719 106.927C786.434 105.032 786.867 102.997 787.259 101.142C788.139 96.975 789.695 92.9927 791.24 89.0344C791.394 88.6397 792.04 88.812 791.885 89.2106C790.044 93.9201 788.176 98.6957 787.477 103.73C787.351 104.639 787.234 105.595 787.331 106.522C787.681 105.697 788.396 105 789.218 104.573C790.895 103.706 792.966 103.429 794.824 103.706C797.703 104.134 801.252 105.457 802.65 108.153C803.461 105.511 804.271 102.868 805.077 100.226C805.877 97.604 806.632 94.9658 806.98 92.2415C807.313 89.6213 807.351 86.8769 806.879 84.2688C806.675 83.139 806.287 82.0412 805.57 81.1278C804.883 80.2524 803.968 79.5813 803.024 79.0004C799.455 76.8029 794.681 75.8454 792.642 71.825C792 70.5589 791.648 69.1547 791.345 67.7785C791.016 66.2781 790.79 64.7557 790.675 63.2233C790.523 61.2161 790.553 59.2029 790.758 57.2057C790.768 57.1135 790.776 57.0234 790.786 56.9312C789.778 56.3864 788.875 55.5911 788.147 54.7157C786.6 52.8567 785.38 50.7474 785.715 48.2694C785.895 46.9433 786.186 45.5551 784.83 44.7478C783.871 44.1769 782.772 43.9365 781.966 43.1112C781.156 42.2819 781.115 41.2342 780.869 40.1685C780.547 38.7823 779.432 38.2875 778.091 38.2174C776.869 38.1533 775.564 38.3456 774.434 37.7607C773.802 37.4322 773.299 36.8973 773.105 36.2383C771.196 38.2214 769.091 40.7394 770.016 43.6381C770.083 43.8444 770.158 44.0467 770.232 44.251C771.19 44.0247 772.151 44.0347 773.107 44.2891C773.523 44.3993 773.345 45.0383 772.929 44.9281C772.099 44.7078 771.277 44.6937 770.446 44.882C770.513 45.1084 770.566 45.3368 770.588 45.5772C770.602 45.7334 770.604 45.8897 770.594 46.0459C770.873 45.9858 771.156 45.9497 771.44 45.9758C771.863 46.0159 772.164 46.2262 772.543 46.3804C772.937 46.5407 772.764 47.1817 772.366 47.0195C772.16 46.9353 771.962 46.8151 771.753 46.731C771.812 47.0375 771.699 47.3981 771.37 47.4742C771.196 47.5142 771.03 47.4441 770.913 47.3239C770.77 47.2218 770.697 47.0375 770.697 46.8632C770.697 46.8312 770.699 46.7991 770.703 46.7691C770.703 46.745 770.703 46.721 770.705 46.6989C770.632 46.715 770.562 46.733 770.491 46.753C770.457 46.8953 770.418 47.0375 770.374 47.1777C770.206 47.6965 769.972 48.1973 769.751 48.7001C769.669 49.3051 769.592 49.9101 769.533 50.515C769.487 50.9998 769.45 51.4826 769.434 51.9653C769.372 53.7602 769.877 55.4389 770.549 57.0855C770.949 58.067 771.335 59.1027 771.943 59.9781C772.01 59.9821 772.079 60.0081 772.139 60.0602C773.861 61.4965 776.133 61.9352 778.331 61.809C780.628 61.6768 783.135 61.1099 785.222 60.1363C785.61 59.9561 785.947 60.527 785.56 60.7092C783.289 61.7689 780.59 62.3859 778.083 62.4841C776.681 62.5382 775.275 62.3559 773.984 61.8671C773.984 62.1055 773.994 62.3479 774.008 62.5963C774.103 64.2529 774.374 66.0738 773.305 67.3338C771.968 68.9103 769.184 69.0946 767.279 69.327C764.794 69.6295 762.309 69.6295 759.816 69.4592C757.774 69.319 755.816 69.4392 753.99 70.3566L753.996 70.3526ZM744.919 88.6578C744.885 88.6618 744.848 88.6517 744.81 88.6477C744.82 88.6097 744.83 88.5636 744.834 88.5656C744.869 88.5696 744.905 88.5776 744.937 88.5937C744.941 88.5937 744.929 88.6578 744.919 88.6598V88.6578ZM748.351 77.2696C748.295 77.3417 748.19 77.3538 748.101 77.2736C748.101 77.2336 748.087 77.1614 748.111 77.1074C748.145 77.0332 748.263 77.0272 748.335 77.0793C748.39 77.1194 748.398 77.2095 748.351 77.2676V77.2696ZM749.648 84.4631C749.596 84.5312 749.463 84.5733 749.376 84.5292C749.289 84.4871 749.21 84.423 749.172 84.397C749.069 84.2648 749.059 84.1526 749.115 84.0785C749.176 83.9963 749.285 83.9583 749.382 83.9883C749.493 84.0224 749.592 84.0785 749.657 84.1806C749.709 84.2648 749.707 84.389 749.65 84.4631H749.648ZM750.192 80.3525C750.111 80.4126 749.988 80.4006 749.921 80.3265C749.869 80.2664 749.889 80.1542 749.96 80.1021C750.046 80.036 750.156 80.048 750.226 80.1322C750.283 80.1983 750.267 80.2984 750.192 80.3545V80.3525ZM750.503 91.2399C750.426 91.2339 750.368 91.2459 750.329 91.2238C750.277 91.1918 750.273 91.1317 750.315 91.0796C750.368 91.0175 750.471 91.0035 750.497 91.0616C750.515 91.1036 750.501 91.1597 750.503 91.2399ZM750.816 92.606C750.733 92.6742 750.612 92.6641 750.545 92.582C750.489 92.5139 750.499 92.4077 750.564 92.3496C750.638 92.2855 750.747 92.3116 750.822 92.4117C750.871 92.4758 750.867 92.562 750.816 92.606ZM751.125 83.6378C751.057 83.5536 751.065 83.4174 751.156 83.3794C751.212 83.3553 751.285 83.3733 751.329 83.3733C751.416 83.4775 751.402 83.6077 751.319 83.6658C751.263 83.7059 751.17 83.6938 751.125 83.6378ZM751.481 93.5916C751.406 93.6036 751.327 93.5816 751.257 93.5756C751.244 93.5235 751.232 93.4955 751.236 93.4714C751.252 93.3733 751.36 93.2971 751.452 93.3232C751.523 93.3432 751.582 93.3953 751.57 93.4714C751.562 93.5175 751.517 93.5856 751.481 93.5916ZM752.024 103.772L752.02 103.746L752.042 103.76L752.024 103.77V103.772ZM752.598 93.0307C752.588 93.0247 752.568 93.0187 752.568 93.0107C752.566 93.0007 752.578 92.9887 752.584 92.9766C752.596 92.9826 752.614 92.9887 752.616 92.9967C752.618 93.0067 752.606 93.0187 752.6 93.0307H752.598ZM752.913 100.995C752.889 100.987 752.865 100.977 752.84 100.969C752.857 100.939 752.873 100.911 752.887 100.881C752.907 100.897 752.941 100.909 752.945 100.927C752.949 100.947 752.923 100.971 752.911 100.995H752.913ZM753.042 106.194C753.022 106.204 752.992 106.194 752.964 106.194C752.968 106.166 752.964 106.128 752.976 106.122C752.996 106.112 753.026 106.122 753.052 106.126C753.048 106.15 753.052 106.188 753.042 106.196V106.194ZM753.285 77.5961C753.22 77.522 753.232 77.4078 753.309 77.3337C753.4 77.2476 753.521 77.2556 753.604 77.3518C753.687 77.4479 753.679 77.5801 753.586 77.6462C753.497 77.7083 753.362 77.6863 753.283 77.5961H753.285ZM753.85 84.423C753.735 84.5332 753.594 84.5512 753.513 84.4631C753.426 84.3709 753.436 84.2247 753.535 84.1245C753.64 84.0184 753.776 84.0184 753.871 84.1245C753.949 84.2107 753.941 84.3349 753.848 84.425L753.85 84.423ZM755.671 113.644C755.636 113.718 755.541 113.762 755.457 113.736C755.406 113.72 755.36 113.686 755.337 113.676C755.259 113.579 755.252 113.481 755.305 113.419C755.356 113.359 755.42 113.341 755.493 113.367C755.533 113.381 755.572 113.399 755.606 113.423C755.677 113.473 755.701 113.571 755.667 113.646L755.671 113.644ZM755.998 113.135C756.117 113.029 756.279 113.041 756.372 113.163C756.444 113.259 756.426 113.389 756.331 113.465C756.218 113.555 756.083 113.545 755.99 113.437C755.905 113.341 755.909 113.213 755.998 113.135ZM756.741 114.603C756.677 114.695 756.59 114.769 756.535 114.829C756.438 114.898 756.372 114.952 756.301 114.996C756.216 115.05 756.083 114.97 756.085 114.869C756.087 114.723 756.133 114.591 756.222 114.477C756.333 114.335 756.58 114.321 756.717 114.455C756.747 114.485 756.764 114.573 756.741 114.603ZM757.713 112.099C757.652 112.057 757.665 111.961 757.717 111.911C757.768 111.863 757.869 111.867 757.903 111.933C757.929 111.987 757.925 112.057 757.939 112.161C757.836 112.135 757.764 112.133 757.715 112.099H757.713ZM760.646 110.905C760.578 110.967 760.477 110.971 760.416 110.917C760.358 110.863 760.366 110.751 760.43 110.693C760.497 110.631 760.598 110.627 760.659 110.683C760.719 110.739 760.713 110.845 760.646 110.905ZM773.19 50.2386C773.313 48.636 773.517 47.0435 773.909 45.483C774.012 45.0683 774.657 45.2446 774.553 45.6593C774.279 46.759 774.093 47.8728 773.972 48.9986C773.903 49.6456 773.349 52.3059 774.418 52.3559C774.846 52.376 774.848 53.039 774.418 53.019C772.947 52.9509 773.111 51.2742 773.19 50.2386ZM776.149 56.0318C776.107 56.9813 775.097 57.6724 774.184 57.6965C773.107 57.7265 772.255 56.8631 772.095 55.8495C772.085 55.7874 772.093 55.7313 772.111 55.6792C772.109 55.6392 772.113 55.5971 772.129 55.549C772.452 54.6296 773.22 53.7842 774.119 54.4292C774.547 54.295 774.976 54.1648 775.4 54.4413C775.82 54.7157 775.964 55.3187 776.143 55.7514C776.18 55.8375 776.176 55.9116 776.147 55.9717C776.147 55.9897 776.151 56.0058 776.149 56.0258V56.0318ZM781.56 47.4682C781.063 47.1096 780.543 46.733 779.958 46.5587C779.974 46.5868 779.99 46.6168 780.004 46.6469C780.259 47.2278 779.84 48.0711 779.119 47.8087C778.582 47.6124 778.402 47.0455 778.586 46.5727C777.992 46.761 777.45 47.1557 776.994 47.5483C776.671 47.8267 776.196 47.36 776.521 47.0795C777.252 46.4505 778.097 45.8917 779.087 45.8055C780.166 45.7114 781.063 46.2943 781.897 46.8953C782.242 47.1436 781.907 47.7186 781.56 47.4682ZM782.174 45.3448C780.479 44.4193 778.446 44.3011 776.663 45.0583C776.271 45.2246 775.931 44.6537 776.325 44.4854C778.339 43.6301 780.586 43.7222 782.511 44.7719C782.889 44.9782 782.551 45.5491 782.174 45.3448ZM785.871 88.159C785.919 87.9727 786.174 87.9026 786.315 88.0368C786.329 88.0608 786.347 88.0828 786.353 88.1089C786.39 88.2271 786.279 88.3673 786.123 88.4114C786.018 88.4394 785.897 88.3593 785.873 88.2431C785.867 88.2171 785.865 88.187 785.873 88.161L785.871 88.159ZM784.521 90.8933C784.582 90.8252 784.685 90.8172 784.749 90.8753C784.82 90.9394 784.826 91.0476 784.762 91.0996C784.693 91.1537 784.596 91.1477 784.527 91.0856C784.473 91.0375 784.471 90.9494 784.519 90.8933H784.521ZM783.887 88.6598C783.941 88.6037 784.052 88.6077 784.115 88.6658C784.176 88.7239 784.17 88.824 784.099 88.8841C784.036 88.9362 783.972 88.9342 783.911 88.8821C783.842 88.822 783.834 88.7138 783.889 88.6598H783.887ZM782.846 91.2299C782.846 91.2299 782.895 91.2198 782.943 91.2118C782.953 91.2799 782.97 91.348 782.972 91.4141C782.972 91.4322 782.935 91.4622 782.911 91.4662C782.889 91.4702 782.842 91.4482 782.84 91.4342C782.834 91.3661 782.838 91.296 782.844 91.2278L782.846 91.2299ZM780.289 81.2219C780.323 81.1017 780.4 80.9936 780.457 80.8794C780.679 81.1438 780.903 81.4102 781.125 81.6766C780.974 81.7748 780.806 81.8028 780.63 81.7648C780.36 81.7067 780.212 81.4843 780.289 81.2219ZM779.6 85.9094C779.622 85.9234 779.657 85.9374 779.661 85.9534C779.665 85.9735 779.638 85.9995 779.626 86.0236C779.602 86.0176 779.578 86.0135 779.553 86.0075C779.57 85.9755 779.586 85.9414 779.602 85.9094H779.6ZM778.549 80.5569C778.652 80.4727 778.756 80.4747 778.798 80.5549C778.818 80.5929 778.806 80.667 778.778 80.7031C778.717 80.7792 778.588 80.7872 778.556 80.7211C778.531 80.671 778.549 80.5969 778.549 80.5569ZM775.986 92.0932C776.135 91.957 776.331 91.949 776.448 92.0752C776.545 92.1814 776.539 92.3617 776.432 92.4638C776.303 92.588 776.107 92.576 775.972 92.4358C775.875 92.3336 775.881 92.1914 775.986 92.0952V92.0932ZM775.386 94.8196C775.543 94.7194 775.703 94.7434 775.82 94.8676C775.939 94.9918 775.951 95.1521 775.852 95.3023C775.82 95.3504 775.782 95.3925 775.739 95.4426C775.679 95.4706 775.614 95.5047 775.545 95.5267C775.402 95.5728 775.291 95.5367 775.2 95.4185C775.099 95.2903 775.077 95.1381 775.166 95.0199C775.224 94.9418 775.303 94.8716 775.386 94.8176V94.8196ZM774.644 74.9459C774.764 74.8478 774.933 74.8498 775.034 74.9519C775.164 75.0821 775.162 75.2524 775.034 75.3666C774.881 75.5008 774.697 75.4968 774.578 75.3586C774.471 75.2344 774.499 75.0681 774.646 74.9459H774.644ZM764.98 104.164C764.905 104.227 764.782 104.219 764.711 104.146C764.642 104.076 764.652 103.946 764.731 103.886C764.816 103.824 764.929 103.83 765 103.902C765.069 103.972 765.059 104.096 764.98 104.162V104.164ZM765.216 99.455C765.121 99.5191 764.978 99.493 764.909 99.3989C764.828 99.2867 764.863 99.1384 764.986 99.0663C765.067 99.0183 765.178 99.0543 765.244 99.1505C765.321 99.2626 765.309 99.3909 765.216 99.455ZM770.501 125.983C770.105 126.222 769.147 126.3 768.903 125.801C768.764 125.518 768.903 125.108 768.949 124.819C769.026 124.345 769.115 123.872 769.214 123.401C769.257 123.197 769.432 123.137 769.59 123.175C770.244 123.091 770.517 123.696 770.689 124.246C770.875 124.837 771.178 125.577 770.499 125.985L770.501 125.983ZM771.988 87.4558C772.079 87.3877 772.202 87.3957 772.263 87.4719C772.325 87.55 772.309 87.6882 772.232 87.7443C772.139 87.8104 771.984 87.7804 771.925 87.6842C771.885 87.6181 771.913 87.5119 771.988 87.4558ZM771.45 101.388C771.525 101.314 771.646 101.31 771.715 101.38C771.81 101.476 771.8 101.62 771.689 101.711C771.598 101.785 771.446 101.775 771.384 101.691C771.329 101.614 771.358 101.478 771.448 101.386L771.45 101.388ZM771.164 100.951C771.151 100.955 771.141 100.957 771.129 100.961C771.127 100.949 771.119 100.935 771.123 100.927C771.127 100.919 771.145 100.919 771.156 100.917C771.158 100.929 771.162 100.941 771.164 100.953V100.951ZM770.42 88.9322C770.802 88.9923 771.145 89.3989 771.137 89.7836C771.131 90.1101 770.885 90.3084 770.558 90.2483C770.372 90.2142 770.22 90.1241 770.089 89.9658C769.913 89.7535 769.852 89.5111 769.925 89.2447C769.988 89.0163 770.186 88.8941 770.418 88.9322H770.42ZM769.857 79.6534C769.935 79.5993 770.044 79.6414 770.105 79.7476C770.143 79.8157 770.127 79.8958 770.067 79.9359C769.974 79.996 769.857 79.9719 769.804 79.8818C769.76 79.8037 769.784 79.7035 769.857 79.6534ZM769.299 97.2715C769.507 97.0952 769.727 97.1052 769.903 97.2995C770.077 97.4918 770.052 97.6982 769.832 97.8885C769.63 98.0627 769.4 98.0407 769.234 97.8344C769.083 97.6461 769.107 97.4337 769.299 97.2715ZM768.814 82.6943C768.865 82.6462 768.972 82.6422 769.002 82.7023C769.028 82.7544 769.016 82.8245 769.022 82.9166C768.939 82.9166 768.881 82.9306 768.84 82.9086C768.756 82.8645 768.749 82.7564 768.814 82.6923V82.6943ZM768.469 102.251C768.523 102.309 768.527 102.374 768.475 102.436C768.424 102.496 768.343 102.5 768.265 102.426C768.271 102.386 768.263 102.318 768.289 102.267C768.325 102.201 768.418 102.199 768.469 102.251ZM768.323 92.7643C768.305 93.0267 768.02 93.2671 767.751 93.2431C767.61 93.231 767.511 93.1489 767.457 93.0227C767.408 92.9105 767.42 92.7963 767.497 92.6982C767.539 92.6421 767.594 92.594 767.642 92.5439C767.705 92.5039 767.764 92.4578 767.828 92.4278C768.073 92.3076 768.341 92.4919 768.323 92.7663V92.7643ZM767.301 72.2276C767.362 72.0814 767.582 72.0293 767.703 72.1254C767.772 72.1795 767.782 72.2877 767.725 72.3558C767.616 72.488 767.42 72.486 767.307 72.3398C767.305 72.3097 767.287 72.2636 767.301 72.2276ZM767.317 86.7828C767.337 86.7627 767.36 86.7447 767.38 86.7247C767.57 86.5664 767.749 86.5524 767.879 86.6866C768.008 86.8208 767.998 87.0031 767.852 87.1894C767.834 87.2115 767.816 87.2335 767.796 87.2535C767.655 87.3877 767.463 87.3937 767.331 87.2695C767.17 87.1153 767.164 86.937 767.315 86.7828H767.317ZM766.273 96.4181C766.321 96.362 766.39 96.336 766.463 96.368C766.543 96.4041 766.604 96.4622 766.6 96.5603C766.6 96.5864 766.58 96.6104 766.562 96.6565C766.505 96.6625 766.43 96.6946 766.374 96.6725C766.317 96.6505 766.269 96.5864 766.234 96.5283C766.22 96.5063 766.246 96.4462 766.271 96.4181H766.273ZM766.002 100.887C766.052 100.853 766.115 100.851 766.147 100.911C766.184 100.975 766.188 101.045 766.103 101.122C766.069 101.11 766.008 101.108 765.974 101.076C765.925 101.031 765.945 100.927 766.002 100.889V100.887ZM765.859 105.198C765.913 105.27 765.897 105.366 765.82 105.42C765.743 105.473 765.652 105.459 765.594 105.386C765.539 105.314 765.556 105.222 765.632 105.166C765.707 105.112 765.802 105.126 765.857 105.2L765.859 105.198ZM765.43 72.3257C765.511 72.2797 765.626 72.2997 765.661 72.3638C765.697 72.4299 765.65 72.5361 765.564 72.5761C765.495 72.6082 765.422 72.6102 765.37 72.5441C765.317 72.48 765.347 72.3718 765.43 72.3257ZM765.271 87.9847C765.301 87.8805 765.382 87.8164 765.483 87.8084C765.558 87.8044 765.636 87.8465 765.683 87.8585C765.772 87.9787 765.723 88.1249 765.614 88.171C765.501 88.2191 765.351 88.173 765.281 88.0628C765.267 88.0408 765.263 88.0067 765.269 87.9827L765.271 87.9847ZM765.164 88.4354C765.281 88.3513 765.38 88.3653 765.463 88.4735C765.578 88.6217 765.58 88.7739 765.467 88.8541C765.345 88.9402 765.2 88.9041 765.093 88.7639C765.002 88.6437 765.026 88.5336 765.164 88.4354ZM764.693 78.2432C764.76 78.1871 764.865 78.1911 764.931 78.2492C765.014 78.3233 765.018 78.4355 764.937 78.5116C764.85 78.5937 764.751 78.5937 764.673 78.5076C764.602 78.4295 764.612 78.3093 764.693 78.2412V78.2432ZM764.259 81.5705C764.368 81.4863 764.549 81.5144 764.638 81.6306C764.729 81.7488 764.689 81.9391 764.551 82.0412C764.459 82.1093 764.273 82.0813 764.202 81.9911C764.113 81.875 764.141 81.6626 764.261 81.5705H764.259ZM764.57 82.6021C764.541 82.6582 764.446 82.6622 764.432 82.6121C764.422 82.5761 764.428 82.52 764.45 82.4959C764.471 82.4739 764.523 82.4819 764.58 82.4759C764.578 82.53 764.586 82.5741 764.57 82.6041V82.6021ZM763.551 75.8654C763.594 75.7632 763.695 75.7171 763.794 75.7292C763.974 75.7532 764.081 75.9455 764.004 76.1158C763.972 76.1879 763.897 76.222 763.826 76.2019C763.733 76.1739 763.65 76.1218 763.543 76.0717C763.543 75.9956 763.527 75.9235 763.549 75.8674L763.551 75.8654ZM763.465 83.5076C763.467 83.5196 763.471 83.5336 763.473 83.5456C763.45 83.5476 763.428 83.5516 763.408 83.5516C763.404 83.5516 763.402 83.5276 763.4 83.5156C763.422 83.5136 763.442 83.5096 763.465 83.5076ZM763.893 104.912C763.984 104.799 764.156 104.795 764.236 104.908C764.358 105.076 764.515 105.132 764.705 105.164C764.81 105.182 764.873 105.268 764.887 105.378C764.901 105.489 764.855 105.571 764.764 105.633C764.64 105.715 764.529 105.695 764.436 105.565C764.412 105.531 764.4 105.487 764.374 105.453C764.358 105.43 764.329 105.42 764.299 105.4C764.091 105.394 763.927 105.479 763.776 105.633C763.624 105.789 763.428 105.775 763.271 105.645C763.147 105.543 763.151 105.37 763.279 105.276C763.313 105.25 763.349 105.22 763.39 105.212C763.596 105.172 763.758 105.078 763.893 104.912ZM763.115 91.346C763.158 91.326 763.214 91.332 763.242 91.33C763.307 91.3981 763.299 91.4742 763.248 91.5003C763.188 91.5303 763.131 91.5123 763.103 91.4562C763.089 91.4262 763.095 91.354 763.113 91.346H763.115ZM762.418 95.4926C762.475 95.4305 762.596 95.4185 762.65 95.4666C762.719 95.5267 762.719 95.6489 762.655 95.737C762.614 95.7931 762.525 95.7991 762.465 95.751C762.374 95.6809 762.353 95.5628 762.418 95.4906V95.4926ZM762.061 81.2119C762.107 81.1979 762.176 81.1979 762.21 81.2239C762.238 81.246 762.232 81.3141 762.25 81.4042C762.16 81.3802 762.103 81.3782 762.063 81.3541C762.012 81.3221 762.01 81.2259 762.059 81.2119H762.061ZM761.384 105.981C761.303 106.043 761.168 106.025 761.115 105.945C761.077 105.887 761.095 105.791 761.149 105.753C761.222 105.703 761.313 105.717 761.382 105.789C761.432 105.841 761.434 105.941 761.382 105.981H761.384ZM761.392 87.2936C761.273 87.3817 761.166 87.4098 761.046 87.3857C760.951 87.3657 760.865 87.2695 760.857 87.1774C760.85 87.0853 760.925 86.9891 761.028 86.957C761.166 86.915 761.281 86.957 761.384 87.0492C761.463 87.1173 761.455 87.2475 761.392 87.2916V87.2936ZM761.606 83.7519C761.628 83.8481 761.58 83.9122 761.483 83.9923C761.436 84.0104 761.362 84.0504 761.281 84.0725C761.194 84.0945 761.083 84.0224 761.042 83.9322C761.01 83.8601 761.038 83.77 761.113 83.7079C761.19 83.6438 761.273 83.5937 761.38 83.5977C761.489 83.6017 761.584 83.6638 761.606 83.7539V83.7519ZM760.62 82.8605C760.758 82.7463 760.956 82.7644 761.085 82.9006C761.2 83.0228 761.16 83.2051 760.99 83.3433C760.834 83.4695 760.667 83.4735 760.57 83.3533C760.442 83.1971 760.465 82.9907 760.622 82.8605H760.62ZM760.471 102.38C760.549 102.318 760.673 102.324 760.747 102.394C760.806 102.45 760.808 102.566 760.749 102.626C760.665 102.712 760.529 102.704 760.446 102.61C760.392 102.548 760.404 102.434 760.471 102.38ZM760.461 106.46C760.499 106.456 760.539 106.48 760.6 106.498C760.618 106.588 760.644 106.68 760.65 106.775C760.652 106.803 760.606 106.853 760.576 106.859C760.543 106.867 760.483 106.845 760.469 106.819C760.428 106.747 760.4 106.666 760.382 106.584C760.37 106.528 760.392 106.466 760.463 106.458L760.461 106.46ZM754.162 101.512C754.101 101.546 753.992 101.524 753.976 101.462C753.964 101.414 753.976 101.348 754 101.306C754.038 101.248 754.143 101.264 754.188 101.322C754.232 101.378 754.218 101.478 754.16 101.512H754.162ZM754.323 98.209C754.303 98.215 754.275 98.1929 754.25 98.1809C754.255 98.1569 754.257 98.1308 754.261 98.1068C754.293 98.1188 754.325 98.1308 754.358 98.1449C754.345 98.1669 754.339 98.205 754.323 98.209ZM754.58 76.4042C754.596 76.3962 754.626 76.4183 754.648 76.4283C754.644 76.4543 754.638 76.4804 754.634 76.5064C754.602 76.4944 754.57 76.4824 754.537 76.4683C754.551 76.4463 754.56 76.4123 754.578 76.4042H754.58ZM754.665 96.9089C754.778 96.8228 754.919 96.8528 754.998 96.977C755.063 97.0812 755.038 97.2174 754.945 97.2815C754.836 97.3556 754.705 97.3135 754.62 97.1753C754.562 97.0812 754.578 96.975 754.665 96.9089ZM755.228 106.296C755.174 106.36 755.111 106.418 755.034 106.498C754.968 106.536 754.883 106.586 754.796 106.632C754.756 106.654 754.663 106.586 754.677 106.544C754.735 106.388 754.79 106.226 754.869 106.079C754.937 105.955 755.147 105.973 755.23 106.1C755.273 106.164 755.277 106.236 755.226 106.296H755.228ZM755.448 96.7526C755.382 96.7927 755.313 96.7867 755.263 96.7226C755.212 96.6585 755.216 96.5944 755.273 96.5363C755.337 96.4702 755.444 96.4722 755.495 96.5363C755.545 96.6004 755.525 96.7086 755.448 96.7526ZM755.616 94.0423C755.541 94.1886 755.351 94.2567 755.216 94.1946C755.087 94.1345 755.008 93.9342 755.071 93.7919C755.103 93.7178 755.166 93.6537 755.196 93.6096C755.305 93.5315 755.392 93.4854 755.497 93.5375C755.622 93.5976 755.699 93.7218 755.679 93.842C755.667 93.9101 755.646 93.9802 755.616 94.0423ZM755.996 70.5169C755.949 70.587 755.836 70.595 755.772 70.5329C755.709 70.4748 755.711 70.3666 755.774 70.3065C755.824 70.2585 755.907 70.2665 755.962 70.3266C756.012 70.3827 756.042 70.4448 755.996 70.5169ZM756.44 108.083C756.376 108.119 756.301 108.099 756.255 108.033C756.208 107.966 756.22 107.886 756.279 107.844C756.353 107.792 756.452 107.818 756.497 107.9C756.531 107.965 756.507 108.047 756.44 108.083ZM757.162 94.2707C757.119 94.3528 757.038 94.4229 756.96 94.475C756.861 94.5411 756.731 94.485 756.677 94.3729C756.628 94.2727 756.64 94.1786 756.709 94.0964C756.782 94.0083 756.865 93.9241 756.996 93.9542C757.048 93.9662 757.097 94.0003 757.164 94.0323C757.164 94.1165 757.194 94.2106 757.162 94.2727V94.2707ZM757.446 97.8344C757.414 97.8444 757.376 97.8304 757.297 97.8223C757.345 97.7562 757.366 97.7082 757.402 97.6861C757.424 97.6721 757.491 97.6901 757.503 97.7122C757.537 97.7683 757.503 97.8163 757.444 97.8344H757.446ZM757.434 92.7222C757.414 92.6902 757.408 92.6401 757.416 92.604C757.44 92.4979 757.57 92.4258 757.683 92.4478C757.796 92.4678 757.891 92.588 757.869 92.6922C757.861 92.7302 757.832 92.7643 757.818 92.7883C757.675 92.8825 757.517 92.8544 757.434 92.7222ZM757.863 101.62C757.83 101.672 757.776 101.678 757.723 101.642C757.675 101.608 757.665 101.524 757.711 101.508C757.756 101.492 757.808 101.498 757.875 101.492C757.871 101.552 757.881 101.596 757.865 101.622L757.863 101.62ZM758.137 73.3734C758.214 73.3053 758.341 73.3213 758.404 73.4035C758.477 73.4996 758.452 73.6479 758.353 73.7039C758.271 73.752 758.147 73.724 758.085 73.6398C758.028 73.5637 758.048 73.4495 758.135 73.3734H758.137ZM758.539 92.6421C758.483 92.6141 758.43 92.604 758.42 92.578C758.41 92.554 758.442 92.5099 758.465 92.4818C758.473 92.4738 758.531 92.4899 758.537 92.5059C758.549 92.5379 758.539 92.578 758.537 92.6421H758.539ZM758.883 91.7286C758.749 91.8448 758.572 91.8068 758.44 91.6365C758.353 91.5243 758.378 91.4041 758.505 91.306C758.665 91.1818 758.834 91.1818 758.925 91.302C759.022 91.4342 759.004 91.6225 758.885 91.7286H758.883ZM759.43 100.641C759.481 100.735 759.402 100.795 759.327 100.871C759.295 100.881 759.24 100.913 759.19 100.911C759.141 100.907 759.085 100.875 759.05 100.837C759.028 100.813 759.02 100.753 759.034 100.721C759.085 100.611 759.18 100.545 759.303 100.555C759.349 100.559 759.41 100.601 759.432 100.641H759.43ZM759.145 87.542C759.182 87.5881 759.156 87.6702 759.089 87.7183C759.024 87.7643 758.937 87.7623 758.911 87.6982C758.895 87.6582 758.901 87.5881 758.927 87.556C758.984 87.4859 759.101 87.4879 759.145 87.542ZM758.808 74.7797C758.634 74.9319 758.438 74.9139 758.285 74.7316C758.149 74.5713 758.147 74.387 758.283 74.2769C758.444 74.1446 758.679 74.1647 758.824 74.3229C758.951 74.4612 758.945 74.6595 758.808 74.7777V74.7797Z" fill="white"/>
        </g>
        <path d="M899.74 176.24C882.28 176.24 871.48 168.32 865.9 152.84C861.94 141.86 860.5 127.28 860.5 110C860.5 92.72 861.94 78.14 865.9 67.16C871.48 51.68 882.28 43.76 901.54 43.76C928.54 43.76 938.62 59.42 938.62 93.62V93.8H908.92V93.44C908.92 76.52 906.94 70.76 900.64 70.76C896.5 70.76 893.98 72.92 892.36 77.24C890.38 82.82 890.2 94.34 890.2 110C890.2 126.74 890.56 137.9 892.72 143.84C893.98 147.44 895.96 149.24 899.02 149.24C904.96 149.24 907.3 143.3 907.3 126.2H937C937 162.02 926.56 176.24 899.74 176.24ZM987.321 176.24C968.061 176.24 957.261 168.32 951.681 152.84C947.721 141.86 946.281 127.28 946.281 110C946.281 92.72 947.721 78.14 951.681 67.16C957.261 51.68 968.061 43.76 987.321 43.76C1006.58 43.76 1017.38 51.68 1022.96 67.16C1026.92 78.14 1028.36 92.72 1028.36 110C1028.36 127.28 1026.92 141.86 1022.96 152.84C1017.38 168.32 1006.58 176.24 987.321 176.24ZM975.981 110C975.981 122.42 976.341 135.02 978.861 142.04C980.481 146.54 983.181 149.24 987.321 149.24C991.461 149.24 994.161 146.54 995.781 142.04C998.301 135.02 998.661 122.42 998.661 110C998.661 97.58 998.301 84.98 995.781 77.96C994.161 73.46 991.461 70.76 987.321 70.76C983.181 70.76 980.481 73.46 978.861 77.96C976.341 84.98 975.981 97.58 975.981 110ZM1040.94 173V47H1085.94L1092.06 118.82V151.4H1096.56V118.82L1102.68 47H1147.68V173H1122.48V68.6H1117.98L1117.08 108.56L1110.42 173H1078.2L1071.54 108.56L1070.64 68.6H1066.14V173H1040.94ZM1163.81 173V47H1192.61V173H1163.81ZM1208.81 173V47H1251.29L1257.41 100.82L1258.31 151.4H1262.81V47H1288.01V173H1245.53L1239.05 118.82L1238.51 68.6H1234.01V173H1208.81ZM1331.62 176.24C1322.08 176.24 1311.46 171.74 1306.06 156.44C1302.1 145.46 1300.66 127.1 1300.66 109.82C1300.66 92.54 1302.1 78.14 1306.06 67.16C1311.64 51.86 1322.98 43.76 1341.34 43.76C1366.36 43.76 1378.6 59.06 1378.6 91.46H1349.8C1349.8 77.78 1346.92 70.76 1341.16 70.76C1337.92 70.76 1335.04 72.92 1333.24 77.96C1330.72 84.98 1330.36 97.58 1330.36 110C1330.36 122.42 1330.72 135.02 1333.24 142.04C1334.86 146.54 1337.56 149.24 1341.7 149.24C1348.54 149.24 1352.14 141.68 1351.96 129.26H1338.28V104.96H1377.16V173H1351.96L1359.34 154.28H1354.84C1348.54 170.3 1342.42 176.24 1331.62 176.24ZM1453.89 176.24C1429.41 176.24 1416.45 163.1 1416.45 138.08V132.32H1445.25V138.08C1445.25 145.64 1448.13 149.24 1453.89 149.24C1457.31 149.24 1459.47 147.98 1460.91 145.64C1461.99 143.84 1462.53 141.68 1462.53 139.34C1462.53 136.64 1462.17 134.48 1460.91 132.32C1459.47 129.8 1456.95 127.82 1452.45 125.66L1437.51 118.28C1431.21 115.22 1426.53 110.9 1423.29 105.32C1419.87 99.38 1418.07 92 1418.07 83.18C1418.07 74 1420.05 66.08 1423.65 59.78C1429.59 49.52 1440.39 43.76 1456.05 43.76C1480.35 43.76 1493.13 56.9 1493.13 81.92V87.68H1464.33V81.92C1464.33 74.36 1461.63 70.76 1456.05 70.76C1452.99 70.76 1450.83 72.02 1449.39 74.36C1448.31 76.16 1447.77 78.32 1447.77 80.66C1447.77 83.36 1448.13 85.52 1449.39 87.68C1450.83 90.2 1453.35 92.18 1457.85 94.34L1472.79 101.72C1479.09 104.78 1483.77 109.1 1487.01 114.68C1490.43 120.62 1492.23 128 1492.23 136.82C1492.23 146 1490.25 153.92 1486.65 160.22C1480.71 170.48 1469.91 176.24 1453.89 176.24ZM1541.74 176.24C1522.48 176.24 1511.68 168.32 1506.1 152.84C1502.14 141.86 1500.7 127.28 1500.7 110C1500.7 92.72 1502.14 78.14 1506.1 67.16C1511.68 51.68 1522.48 43.76 1541.74 43.76C1561 43.76 1571.8 51.68 1577.38 67.16C1581.34 78.14 1582.78 92.72 1582.78 110C1582.78 127.28 1581.34 141.86 1577.38 152.84C1571.8 168.32 1561 176.24 1541.74 176.24ZM1530.4 110C1530.4 122.42 1530.76 135.02 1533.28 142.04C1534.9 146.54 1537.6 149.24 1541.74 149.24C1545.88 149.24 1548.58 146.54 1550.2 142.04C1552.72 135.02 1553.08 122.42 1553.08 110C1553.08 97.58 1552.72 84.98 1550.2 77.96C1548.58 73.46 1545.88 70.76 1541.74 70.76C1537.6 70.76 1534.9 73.46 1533.28 77.96C1530.76 84.98 1530.4 97.58 1530.4 110ZM1632.79 176.24C1613.53 176.24 1602.73 168.32 1597.15 152.84C1593.19 141.86 1591.75 127.28 1591.75 110C1591.75 92.72 1593.19 78.14 1597.15 67.16C1602.73 51.68 1613.53 43.76 1632.79 43.76C1652.05 43.76 1662.85 51.68 1668.43 67.16C1672.39 78.14 1673.83 92.72 1673.83 110C1673.83 127.28 1672.39 141.86 1668.43 152.84C1662.85 168.32 1652.05 176.24 1632.79 176.24ZM1621.45 110C1621.45 122.42 1621.81 135.02 1624.33 142.04C1625.95 146.54 1628.65 149.24 1632.79 149.24C1636.93 149.24 1639.63 146.54 1641.25 142.04C1643.77 135.02 1644.13 122.42 1644.13 110C1644.13 97.58 1643.77 84.98 1641.25 77.96C1639.63 73.46 1636.93 70.76 1632.79 70.76C1628.65 70.76 1625.95 73.46 1624.33 77.96C1621.81 84.98 1621.45 97.58 1621.45 110ZM1686.4 173V47H1728.88L1735 100.82L1735.9 151.4H1740.4V47H1765.6V173H1723.12L1716.64 118.82L1716.1 68.6H1711.6V173H1686.4Z" fill="white"/>
    </g>
    <defs>
        <clipPath id="clip0_1380_94592">
            <rect width="1440" height="212" fill="white" transform="translate(-235)"/>
        </clipPath>
        <clipPath id="clip1_1380_94592">
            <rect width="67" height="157" fill="white" transform="translate(741 27.5)"/>
        </clipPath>
    </defs>
</svg>
