<svg width="24" height="24" viewBox="0 0 24 24" fill="none" xmlns="http://www.w3.org/2000/svg">
    <path fill-rule="evenodd" clip-rule="evenodd" d="M5.49233 3H5.4231C5.10602 3 4.83325 3 4.59232 3.05677C4.21935 3.14589 3.87834 3.33653 3.60706 3.60756C3.33579 3.87859 3.14484 4.21943 3.05539 4.59232C3 4.83325 3 5.10463 3 5.4231V8.88467C3 9.20175 3 9.47452 3.05677 9.71545C3.14589 10.0884 3.33653 10.4294 3.60756 10.7007C3.87859 10.972 4.21943 11.1629 4.59232 11.2524C4.83325 11.3078 5.10463 11.3078 5.4231 11.3078H8.88467C9.20175 11.3078 9.47452 11.3078 9.71545 11.251C10.0884 11.1619 10.4294 10.9712 10.7007 10.7002C10.972 10.4292 11.1629 10.0883 11.2524 9.71545C11.3078 9.47452 11.3078 9.20313 11.3078 8.88467V5.4231C11.3078 5.10602 11.3078 4.83325 11.251 4.59232C11.1619 4.21935 10.9712 3.87834 10.7002 3.60706C10.4292 3.33579 10.0883 3.14484 9.71545 3.05539C9.47452 3 9.20313 3 8.88467 3H5.49233ZM4.91494 4.40401C4.97448 4.39017 5.06725 4.38463 5.49233 4.38463H8.81544C9.2419 4.38463 9.33329 4.38878 9.39283 4.40401C9.51721 4.43376 9.63092 4.49737 9.72135 4.5878C9.81178 4.67823 9.8754 4.79194 9.90514 4.91633C9.91899 4.97448 9.92314 5.06587 9.92314 5.49233V8.81544C9.92314 9.2419 9.91899 9.33329 9.90376 9.39283C9.87401 9.51721 9.8104 9.63092 9.71997 9.72135C9.62954 9.81178 9.51582 9.8754 9.39144 9.90514C9.33467 9.9176 9.24329 9.92314 8.81544 9.92314H5.49233C5.06587 9.92314 4.97448 9.91899 4.91494 9.90376C4.79056 9.87401 4.67685 9.8104 4.58642 9.71997C4.49599 9.62954 4.43237 9.51583 4.40263 9.39144C4.39017 9.33467 4.38463 9.24329 4.38463 8.81544V5.49233C4.38463 5.06587 4.38878 4.97448 4.40401 4.91494C4.43376 4.79056 4.49737 4.67685 4.5878 4.58642C4.67823 4.49599 4.79194 4.43237 4.91633 4.40263L4.91494 4.40401ZM15.1847 3H15.1155C14.7984 3 14.5256 3 14.2847 3.05677C13.9117 3.14589 13.5707 3.33653 13.2995 3.60756C13.0282 3.87859 12.8372 4.21943 12.7478 4.59232C12.6924 4.83325 12.6924 5.10463 12.6924 5.4231V8.88467C12.6924 9.20175 12.6924 9.47452 12.7492 9.71545C12.8383 10.0884 13.0289 10.4294 13.3 10.7007C13.571 10.972 13.9118 11.1629 14.2847 11.2524C14.5256 11.3078 14.797 11.3078 15.1155 11.3078H18.5771C18.8941 11.3078 19.1669 11.3078 19.4078 11.251C19.7808 11.1619 20.1218 10.9712 20.3931 10.7002C20.6644 10.4292 20.8553 10.0883 20.9448 9.71545C21.0002 9.47452 21.0002 9.20313 21.0002 8.88467V5.4231C21.0002 5.10602 21.0002 4.83325 20.9434 4.59232C20.8543 4.21935 20.6636 3.87834 20.3926 3.60706C20.1216 3.33579 19.7807 3.14484 19.4078 3.05539C19.1669 3 18.8955 3 18.5771 3H15.1847ZM14.6073 4.40401C14.6669 4.39017 14.7596 4.38463 15.1847 4.38463H18.5078C18.9343 4.38463 19.0257 4.38878 19.0852 4.40401C19.2096 4.43376 19.3233 4.49737 19.4137 4.5878C19.5042 4.67823 19.5678 4.79194 19.5975 4.91633C19.6114 4.97448 19.6155 5.06587 19.6155 5.49233V8.81544C19.6155 9.2419 19.61 9.33329 19.5962 9.39283C19.5664 9.51721 19.5028 9.63092 19.4124 9.72135C19.3219 9.81178 19.2082 9.8754 19.0838 9.90514C19.0257 9.91899 18.9343 9.92314 18.5078 9.92314H15.1847C14.7583 9.92314 14.6669 9.91899 14.6073 9.90376C14.483 9.87401 14.3692 9.8104 14.2788 9.71997C14.1884 9.62954 14.1248 9.51583 14.095 9.39144C14.0826 9.33467 14.077 9.24329 14.077 8.81544V5.49233C14.077 5.06587 14.0812 4.97448 14.0964 4.91494C14.1262 4.79056 14.1898 4.67685 14.2802 4.58642C14.3706 4.49599 14.4843 4.43237 14.6087 4.40263L14.6073 4.40401ZM5.4231 12.6924H8.88467C9.20175 12.6924 9.47452 12.6924 9.71545 12.7492C10.0884 12.8383 10.4294 13.0289 10.7007 13.3C10.972 13.571 11.1629 13.9118 11.2524 14.2847C11.3078 14.5256 11.3078 14.797 11.3078 15.1155V18.5771C11.3078 18.8941 11.3078 19.1669 11.251 19.4078C11.1619 19.7808 10.9712 20.1218 10.7002 20.3931C10.4292 20.6644 10.0883 20.8553 9.71545 20.9448C9.47452 21.0002 9.20313 21.0002 8.88467 21.0002H5.4231C5.10602 21.0002 4.83325 21.0002 4.59232 20.9434C4.21935 20.8543 3.87834 20.6636 3.60706 20.3926C3.33579 20.1216 3.14484 19.7807 3.05539 19.4078C3 19.1669 3 18.8955 3 18.5771V15.1155C3 14.7984 3 14.5256 3.05677 14.2847C3.14589 13.9118 3.33653 13.5707 3.60756 13.2995C3.87859 13.0282 4.21943 12.8372 4.59232 12.7478C4.83325 12.6924 5.10463 12.6924 5.4231 12.6924ZM5.49233 14.077C5.06587 14.077 4.97448 14.0812 4.91494 14.0964C4.79056 14.1262 4.67685 14.1898 4.58642 14.2802C4.49599 14.3706 4.43237 14.4843 4.40263 14.6087C4.39017 14.6655 4.38463 14.7569 4.38463 15.1847V18.5078C4.38463 18.9343 4.38878 19.0257 4.40401 19.0852C4.43376 19.2096 4.49737 19.3233 4.5878 19.4137C4.67823 19.5042 4.79194 19.5678 4.91633 19.5975C4.97448 19.6114 5.06587 19.6155 5.49233 19.6155H8.81544C9.2419 19.6155 9.33329 19.61 9.39283 19.5962C9.51721 19.5664 9.63092 19.5028 9.72135 19.4124C9.81178 19.3219 9.8754 19.2082 9.90514 19.0838C9.91899 19.0257 9.92314 18.9343 9.92314 18.5078V15.1847C9.92314 14.7583 9.91899 14.6669 9.90376 14.6073C9.87401 14.483 9.8104 14.3692 9.71997 14.2788C9.62954 14.1884 9.51582 14.1248 9.39144 14.095C9.33467 14.0826 9.24329 14.077 8.81544 14.077H5.49233ZM15.1847 12.6924H15.1155C14.7984 12.6924 14.5256 12.6924 14.2847 12.7492C13.9117 12.8383 13.5707 13.0289 13.2995 13.3C13.0282 13.571 12.8372 13.9118 12.7478 14.2847C12.6924 14.5256 12.6924 14.797 12.6924 15.1155V18.5771C12.6924 18.8941 12.6924 19.1669 12.7492 19.4078C12.8383 19.7808 13.0289 20.1218 13.3 20.3931C13.571 20.6644 13.9118 20.8553 14.2847 20.9448C14.5256 21.0016 14.7984 21.0016 15.1155 21.0016H18.5771C18.8941 21.0016 19.1669 21.0016 19.4078 20.9448C19.7806 20.8554 20.1213 20.6647 20.3923 20.3937C20.6633 20.1227 20.854 19.7819 20.9434 19.4092C21.0002 19.1683 21.0002 18.8955 21.0002 18.5785V15.1155C21.0002 14.7984 21.0002 14.5256 20.9434 14.2847C20.8543 13.9118 20.6636 13.5707 20.3926 13.2995C20.1216 13.0282 19.7807 12.8372 19.4078 12.7478C19.1669 12.6924 18.8955 12.6924 18.5771 12.6924H15.1847ZM14.6073 14.0964C14.6669 14.0826 14.7596 14.077 15.1847 14.077H18.5078C18.9343 14.077 19.0257 14.0812 19.0852 14.0964C19.2096 14.1262 19.3233 14.1898 19.4137 14.2802C19.5042 14.3706 19.5678 14.4843 19.5975 14.6087C19.6114 14.6669 19.6155 14.7583 19.6155 15.1847V18.5078C19.6155 18.9343 19.61 19.0257 19.5962 19.0852C19.5664 19.2096 19.5028 19.3233 19.4124 19.4137C19.3219 19.5042 19.2082 19.5678 19.0838 19.5975C19.0257 19.6114 18.9343 19.6155 18.5078 19.6155H15.1847C14.7583 19.6155 14.6669 19.61 14.6073 19.5962C14.483 19.5664 14.3692 19.5028 14.2788 19.4124C14.1884 19.3219 14.1248 19.2082 14.095 19.0838C14.0826 19.0271 14.077 18.9357 14.077 18.5078V15.1847C14.077 14.7583 14.0812 14.6669 14.0964 14.6073C14.1262 14.483 14.1898 14.3692 14.2802 14.2788C14.3706 14.1884 14.4843 14.1248 14.6087 14.095L14.6073 14.0964Z" fill="#2832F5"/>
</svg>
