<svg width="20" height="20" viewBox="0 0 20 20" fill="none" xmlns="http://www.w3.org/2000/svg">
    <path d="M16.9566 3.28705C19.2154 6.60805 20.3309 10.354 19.9139 14.6665C19.9121 14.6848 19.9026 14.7015 19.8876 14.7125C18.1771 15.9685 16.5199 16.7308 14.8859 17.2363C14.8732 17.2401 14.8596 17.2399 14.847 17.2357C14.8344 17.2314 14.8234 17.2233 14.8156 17.2125C14.4382 16.6873 14.0952 16.1335 13.7947 15.552C13.7774 15.5178 13.7932 15.4765 13.8287 15.463C14.3734 15.2578 14.8914 15.0118 15.3896 14.7205C15.4289 14.6975 15.4314 14.6413 15.3951 14.6143C15.2894 14.5358 15.1846 14.4533 15.0844 14.3708C15.0656 14.3555 15.0404 14.3525 15.0191 14.3628C11.7844 15.8565 8.24091 15.8565 4.96792 14.3628C4.94667 14.3533 4.92142 14.3565 4.90317 14.3715C4.80317 14.454 4.69817 14.5358 4.59342 14.6143C4.55717 14.6413 4.56017 14.6975 4.59967 14.7205C5.09792 15.0063 5.61592 15.2578 6.15991 15.464C6.19517 15.4775 6.21192 15.5178 6.19442 15.552C5.90042 16.1343 5.55742 16.688 5.17292 17.2133C5.15617 17.2345 5.12867 17.2443 5.10267 17.2363C3.47642 16.7308 1.81917 15.9685 0.108676 14.7125C0.0944255 14.7015 0.0841756 14.684 0.0826756 14.6658C-0.265824 10.9355 0.444425 7.15855 3.03717 3.2863C3.04342 3.27605 3.05292 3.26805 3.06392 3.2633C4.33967 2.6778 5.70642 2.24705 7.13491 2.00105C7.16091 1.99705 7.18691 2.00905 7.20041 2.03205C7.37691 2.34455 7.57866 2.7453 7.71516 3.0728C9.22091 2.8428 10.7502 2.8428 12.2874 3.0728C12.4239 2.7523 12.6187 2.34455 12.7944 2.03205C12.8007 2.02064 12.8104 2.0115 12.8221 2.00594C12.8339 2.00037 12.8471 1.99866 12.8599 2.00105C14.2892 2.2478 15.6559 2.67855 16.9306 3.2633C16.9419 3.26805 16.9511 3.27605 16.9566 3.28705ZM8.48066 10.3795C8.49641 9.27679 7.69241 8.36429 6.68316 8.36429C5.68217 8.36429 4.88592 9.26879 4.88592 10.3795C4.88592 11.49 5.69792 12.3945 6.68316 12.3945C7.68441 12.3945 8.48066 11.49 8.48066 10.3795ZM15.1261 10.3795C15.1419 9.27679 14.3379 8.36429 13.3289 8.36429C12.3277 8.36429 11.5314 9.26879 11.5314 10.3795C11.5314 11.49 12.3434 12.3945 13.3289 12.3945C14.3379 12.3945 15.1261 11.49 15.1261 10.3795Z" fill="#757575"/>
</svg>
