<svg width="120" height="140" viewBox="0 0 120 140" fill="none" xmlns="http://www.w3.org/2000/svg">
    <path d="M63.588 73.6316C64.1568 73.6094 64.7256 73.5961 65.2988 73.5917C65.5966 73.5917 66.7564 73.7827 67.0008 73.5472C67.4363 73.5561 67.4096 73.3206 66.9208 72.8407C66.6231 72.7607 66.3253 72.6896 66.0232 72.6318C65.3922 72.503 64.7567 72.4096 64.1168 72.3474C62.8859 72.2274 61.6373 72.2186 60.4019 72.3208C59.1488 72.423 53.6653 73.0318 53.332 74.8892C55.5005 74.4493 57.6868 74.1071 59.8909 73.8894C61.1218 73.7694 62.3527 73.685 63.588 73.6361V73.6316Z" fill="#0C0C0C"/>
    <path d="M28.9098 80.355C29.4919 80.7016 31.3538 79.9328 32.0115 79.7951C34.1622 79.3329 36.3129 78.8708 38.4637 78.4131C36.2063 77.3599 33.4379 77.1155 31.2294 77.6843C30.7628 77.8043 30.3006 77.9732 29.8785 78.2087C29.443 78.4531 27.6344 79.5995 28.9053 80.3594L28.9098 80.355Z" fill="#0C0C0C"/>
    <path d="M33.9133 43.2192C32.5891 45.2677 31.5448 47.5384 29.6518 49.147C27.6922 50.809 25.1948 51.6755 23.3329 53.4663C21.4577 55.2704 20.249 57.6522 19.3914 60.0829C17.3028 66.0241 16.0586 73.2406 17.2273 79.7373C19.5869 81.8747 22.3286 83.6922 24.9237 85.2741C23.8173 80.2172 22.2886 75.1914 22.6353 69.9923C22.9552 65.1443 24.866 60.0118 29.2385 57.4389C31.7226 55.977 34.6465 55.617 37.2327 54.4039C40.1789 53.0175 41.6853 50.7068 41.4986 47.4184C41.3564 44.8589 40.1389 42.1527 40.4499 39.5887C37.7482 38.6289 35.2508 41.1573 33.9133 43.2281V43.2192Z" fill="#0C0C0C"/>
    <path d="M59.4824 111.234C55.5986 111.678 51.8037 112.598 48.1377 113.963C51.8837 116.966 57.5094 115.7 59.4824 111.234Z" fill="#0C0C0C"/>
    <path d="M101.644 83.4922C109.527 75.0181 112.313 62.4825 107.901 51.3378C106.51 47.8228 104.332 44.9167 102.342 41.7439C101.342 40.1486 100.489 38.4822 100.075 36.6292C99.6221 34.5985 99.6709 32.4877 99.7243 30.4214C99.8176 26.7954 99.9687 23.076 98.3823 19.7077C97.0758 16.9393 94.694 14.7575 92.01 13.3399C84.598 9.42949 76.2706 11.4158 68.6719 13.7354C72.2268 17.3526 75.4529 21.2897 78.3991 25.4312C78.4213 25.4223 78.4435 25.4134 78.4702 25.4045C84.6336 23.6804 90.9613 27.9907 91.3079 34.4607C91.4146 36.4204 90.948 38.3489 90.9258 40.3041C90.9036 42.606 91.8456 44.0146 93.2454 45.7299C95.2406 48.1694 95.8627 51.08 94.3608 53.9595C94.3385 53.9995 94.3119 54.0351 94.2897 54.0706C95.3295 56.3236 96.3604 58.5765 97.378 60.8384C98.1379 62.5269 100.324 65.7486 98.2223 67.3039C98.2045 67.3172 98.1912 67.3261 98.1734 67.335C100.04 70.6233 98.5156 74.476 98.5867 78.062C98.64 80.6749 99.8709 82.4168 101.648 83.4833L101.644 83.4922Z" fill="#0C0C0C"/>
    <path d="M11.0909 66.0685C10.5444 70.8899 12.5173 74.8004 15.5168 78.0442C15.0236 73.3206 15.6812 68.5437 16.7699 63.94C17.7298 59.8741 19.1118 55.6081 22.1379 52.5864C23.7287 50.9956 25.7462 50.0891 27.5947 48.8537C29.8432 47.3518 31.003 45.1211 32.3939 42.8859C34.1047 40.1308 36.9709 37.3713 40.317 38.0601C41.2501 36.1715 38.2062 35.1006 36.8242 34.8384C35.4112 34.5718 33.9492 34.6295 32.5183 34.6918C25.6573 36.6114 19.4006 40.473 15.1169 46.3608C14.9703 46.5653 14.7658 46.6586 14.5659 46.6763C13.2328 48.7071 12.5351 51.1289 12.744 53.6262C12.9306 55.8836 14.3704 58.1277 13.295 60.3229C12.3396 62.2736 11.3442 63.8556 11.0909 66.073V66.0685Z" fill="#0C0C0C"/>
    <path d="M56.9455 107.955C55.448 107.19 54.2171 107.497 52.9684 108.483C52.0708 109.19 51.5953 109.083 50.5244 109.061C48.5869 109.021 48.0537 110.878 47.8359 112.509C51.502 111.154 55.2924 110.252 59.1718 109.794C58.5185 109.07 57.8075 108.394 56.9455 107.955Z" fill="#0C0C0C"/>
    <path d="M96.5555 67.5528C95.5067 67.0551 94.7469 65.4198 94.2136 64.5622C92.765 62.2248 91.1742 59.9763 89.4545 57.8345C85.9706 53.5063 81.9669 49.5781 77.5543 46.1965C69.4002 39.9531 59.6196 35.194 49.3681 33.7275C46.693 34.0786 44.9644 36.296 44.96 38.7222C45.0666 38.8067 45.151 38.9355 45.1777 39.1222C46.0842 45.25 53.3718 45.8232 58.251 45.9388C67.3027 46.1476 76.9189 48.7472 82.0113 56.8924C84.562 60.9673 85.2641 65.8597 87.557 70.0501C89.6367 73.8495 93.0849 76.6801 97.1598 78.071C97.1642 74.4805 98.7106 70.6545 96.5555 67.5528Z" fill="#0C0C0C"/>
    <path d="M86.4112 71.0145C83.9094 66.5753 83.2518 61.3095 80.3723 57.0658C77.5194 52.8621 72.9647 50.0937 68.1477 48.7028C65.4593 47.9252 62.6865 47.5608 59.8914 47.4541C57.203 47.3564 54.479 47.4275 51.8306 46.8587C49.5287 46.361 47.218 45.2101 45.6494 43.4548C45.876 45.9833 45.6494 49.2938 47.4447 51.1157C49.1866 52.8799 52.1416 53.0709 54.4434 53.4442C57.3674 53.9241 60.2869 54.4929 63.1397 55.3017C68.2322 56.7459 73.138 59.0077 77.0706 62.616C78.857 64.2557 80.4256 66.1709 81.6076 68.2905C82.8918 70.5923 83.3584 73.0453 84.145 75.5293C84.6204 77.0312 85.3847 78.5465 86.8689 79.2664C88.4242 80.0218 89.6462 79.1375 90.966 78.3777C91.5748 78.0266 92.1969 77.7733 92.819 77.6356C90.1839 76.0092 87.9576 73.7562 86.4157 71.0189L86.4112 71.0145Z" fill="#0C0C0C"/>
    <path d="M41.8991 37.0959C42.3079 36.8871 42.7967 36.8382 43.3566 37.0559C43.4677 37.1004 43.5655 37.1492 43.6632 37.207C44.0454 35.6739 44.9741 34.3097 46.2939 33.3899C45.7518 33.3499 45.2141 33.3144 44.672 33.2921C42.4368 33.1988 40.1838 33.301 37.9531 33.5854C38.5308 33.7454 39.0951 33.9542 39.6373 34.2431C40.8015 34.8607 41.7347 35.905 41.8947 37.0959H41.8991Z" fill="#0C0C0C"/>
    <path d="M87.2105 28.7861C85.1042 26.7509 82.1047 26.0799 79.3008 26.7154C81.1449 29.3816 82.8735 32.1322 84.5043 34.9273C87.7749 40.5352 90.681 46.3519 93.4317 52.2309C93.445 52.2576 93.4539 52.2843 93.4672 52.3109C93.9427 50.8623 93.8227 49.2937 93.0317 47.9295C92.3741 46.7963 91.3698 45.9076 90.6455 44.8189C89.0635 42.446 89.4679 39.6909 89.7301 37.0069C90.0278 33.9274 89.5212 31.0124 87.2105 28.7817V28.7861Z" fill="#0C0C0C"/>
    <path d="M18.5381 20.9031C15.0409 27.9285 15.0543 35.8116 15.5475 43.4814C19.849 38.5533 25.5636 35.1806 31.7847 33.3676C31.8914 33.292 32.0247 33.2387 32.1846 33.2298C32.2113 33.2298 32.238 33.2298 32.2646 33.2298C36.024 32.1855 39.9611 31.7101 43.8759 31.7945C45.7512 31.8389 47.6131 31.99 49.4572 32.2389C49.6261 32.2211 49.7994 32.2122 49.9727 32.2078C50.186 32.2033 50.3459 32.2744 50.4659 32.3855C51.8612 32.6032 53.2432 32.8832 54.6163 33.212C54.5896 33.1276 54.5674 33.0432 54.5674 32.9454C54.5674 32.3455 55.0518 31.8567 55.6694 31.8256C56.2116 31.7989 56.6426 32.1855 56.6604 32.7099C56.6737 33.132 56.5182 33.4475 56.2294 33.6253C72.8665 38.1489 87.5306 50.5246 96.2135 65.0243C96.3513 65.2598 96.489 65.4953 96.6357 65.7308C96.9379 65.4553 97.24 65.1798 97.5422 64.9043C97.5955 64.7488 97.1334 63.8956 97.0134 63.6201C96.7157 62.9402 96.4046 62.2648 96.098 61.5893C95.4892 60.234 94.876 58.8831 94.2583 57.5278C92.9474 54.6572 91.6188 51.791 90.2412 48.9515C87.7439 43.7969 85.0777 38.7133 82.1182 33.8075C82.0604 33.7364 82.0116 33.6608 81.976 33.5764C81.776 33.2476 81.5805 32.9187 81.3806 32.5899C77.0302 25.5467 71.9644 18.8767 65.9965 13.14C61.7173 10.5271 56.9803 8.65184 52.0523 7.70089C39.7211 5.32797 24.5682 8.79848 18.5381 20.9031ZM18.7114 31.279C18.3337 31.319 18.0271 31.0968 18.0004 30.7591C17.9693 30.3547 18.2537 30.017 18.6448 30.0037C18.978 29.9904 19.2624 30.2614 19.2935 30.6169C19.3246 30.9724 19.0847 31.239 18.7114 31.279ZM88.015 50.4801C88.1749 50.0935 88.486 49.9202 88.877 49.858C89.1792 49.8136 89.4547 50.0713 89.4369 50.2935C89.4147 50.7201 89.277 51.0134 89.0059 51.2311C88.7882 51.4089 88.4104 51.4178 88.1883 51.2622C87.9705 51.1067 87.895 50.7556 88.015 50.4713V50.4801ZM84.7933 38.6378C84.8288 38.6555 84.8599 38.6733 84.8955 38.6911C84.8599 38.7444 84.8288 38.8022 84.7888 38.8466C84.7844 38.8555 84.7266 38.8155 84.6911 38.7977C84.7266 38.7444 84.7577 38.6911 84.7933 38.6378ZM81.1406 43.4325C81.3494 43.197 81.6649 43.1036 81.9049 43.2236C82.1626 43.3525 82.216 43.5836 82.2115 43.9435C82.1671 44.0812 82.1182 44.3212 82.016 44.539C81.9049 44.7745 81.5405 44.8811 81.2606 44.8056C81.0384 44.7434 80.8917 44.5167 80.8873 44.2323C80.8873 43.9391 80.9273 43.6635 81.1361 43.4325H81.1406ZM79.0343 42.7926C79.5187 42.7615 79.8564 43.1925 79.8475 43.828C79.843 44.4101 79.5409 44.7878 79.0965 44.7834C78.5099 44.7745 78.0878 44.3434 78.0878 43.748C78.0878 43.2325 78.4922 42.8237 79.0343 42.7926ZM77.0613 37.478C77.1191 37.3491 77.2435 37.1936 77.3679 37.1669C77.4701 37.1447 77.6123 37.2824 77.8478 37.4113C77.6256 37.5713 77.519 37.6868 77.3901 37.7312C77.2257 37.789 77.0035 37.6068 77.0657 37.478H77.0613ZM75.7282 25.5822C76.0481 25.5378 76.3059 25.7378 76.3281 26.0577C76.3548 26.4043 76.1681 26.6221 75.8304 26.6354C75.5282 26.6487 75.2705 26.3999 75.2705 26.0977C75.2705 25.8444 75.4705 25.6178 75.7238 25.5822H75.7282ZM67.9918 23.4137C68.3784 23.0582 69.0049 23.1782 69.2449 23.667C69.3471 23.8759 69.2849 24.1025 69.1071 24.2225C68.8761 24.378 68.6005 24.4669 68.2939 24.6046C68.1251 24.4624 67.934 24.3647 67.8496 24.2091C67.6985 23.9247 67.7829 23.6137 67.9918 23.4182V23.4137ZM63.908 12.9933C64.1213 13.0377 64.2768 13.3355 64.2057 13.6021C64.148 13.8154 64.0236 13.9798 63.7747 13.9754C63.5303 13.9754 63.3526 13.7043 63.397 13.4332C63.4414 13.1711 63.6992 12.9489 63.908 12.9889V12.9933ZM52.8388 31.0435C53.1899 31.0613 53.4743 31.3901 53.421 31.7145C53.3765 31.99 53.0832 32.2078 52.7811 32.19C52.5011 32.1766 52.2878 31.9145 52.2789 31.5812C52.27 31.2835 52.5367 31.0302 52.8388 31.0435ZM42.645 14.5219C42.8983 14.5486 43.085 14.7752 43.0539 15.1263C42.9561 15.1929 42.8183 15.3485 42.6495 15.3885C42.4184 15.4418 42.2407 15.1929 42.2584 14.8952C42.2718 14.673 42.4495 14.4997 42.645 14.5175V14.5219ZM41.4364 30.7369C41.6541 30.728 41.8496 30.7769 41.9207 31.0169C41.9918 31.2524 41.8007 31.5145 41.543 31.5456C41.2942 31.5768 41.0587 31.3723 41.0409 31.1191C41.0275 30.9191 41.1964 30.7502 41.4364 30.7369Z" fill="#0C0C0C"/>
    <path d="M32.9402 108.879C33.7756 111.803 34.8288 114.753 36.1885 117.54C37.3439 119.904 38.7259 122.139 40.3789 124.134C40.4678 124.214 40.5611 124.294 40.65 124.374C41.7387 125.329 42.9029 126.205 44.1338 126.987C45.0048 127.542 45.898 128.04 46.8134 128.489C52.3857 131.222 58.7269 132.013 64.7703 130.857C67.4542 130.342 70.0804 129.444 72.5511 128.16C81.4785 123.516 87.2864 114.114 87.7485 104.106C87.7752 103.506 88.3439 103.249 88.855 103.471C89.9748 103.96 91.1968 103.969 92.2899 103.6C93.6497 102.142 94.7917 100.467 95.6627 98.694C97.5379 94.868 98.2311 90.6865 98.4666 86.4605C98.4755 86.4517 98.4844 86.4428 98.4933 86.4383C98.48 85.7362 98.4444 85.0341 98.3555 84.332C97.9734 81.3148 95.5427 77.591 92.0766 79.4262C89.9703 80.5371 88.1706 81.7902 85.8244 80.3905C83.527 79.0174 82.8116 76.4001 82.1939 73.9738C79.4299 63.109 69.1073 57.9766 58.9313 55.777C56.3673 55.2215 53.7633 54.9149 51.1993 54.3772C49.2796 53.9729 47.2933 53.2841 46.0091 51.7199C44.5471 49.938 44.596 47.5651 44.396 45.3877C44.2449 43.7391 44.0183 42.0949 43.6939 40.473C43.6939 40.4685 43.6939 40.4641 43.6939 40.4596C43.6095 40.1441 43.5428 39.8242 43.5073 39.5087C43.4584 39.3354 43.3962 39.171 43.3073 39.0377C42.5608 37.9267 42.0231 38.9355 41.9164 39.6642C41.5743 41.9749 42.7163 44.6145 42.9252 46.9385C43.1251 49.1515 42.7874 51.4222 41.3343 53.1819C37.9927 57.2301 31.9093 56.528 28.2033 60.0385C24.8483 63.2201 23.844 68.2326 24.0795 72.6852C24.3462 77.7643 25.9681 82.6523 26.8702 87.647C29.8074 94.3525 30.9406 101.893 32.9358 108.883L32.9402 108.879ZM91.2146 83.2389C95.2716 85.9051 94.6095 90.9842 93.2098 94.9613C92.8987 95.85 91.4767 95.4634 91.7922 94.5703C92.9387 91.313 93.9163 86.7761 90.4725 84.5098C89.6859 83.9899 90.4236 82.719 91.2146 83.2389ZM80.292 118.571C80.5142 118.611 80.6653 118.797 80.6431 119.01C80.6075 119.33 80.332 119.544 80.0387 119.49C79.7854 119.441 79.6032 119.206 79.6255 118.953C79.6477 118.677 79.9454 118.513 80.2964 118.575L80.292 118.571ZM78.6701 98.694C79.1989 98.6495 79.5766 98.9695 79.5943 99.4672C79.6121 100.058 79.2655 100.458 78.7323 100.467C78.2568 100.471 77.9369 100.103 77.9369 99.5472C77.9369 99.0984 78.2568 98.7251 78.6745 98.694H78.6701ZM36.0997 100.391C36.073 100.334 36.0463 100.276 36.0197 100.218C36.0508 100.205 36.1086 100.174 36.1086 100.178C36.1397 100.231 36.1663 100.289 36.193 100.347C36.1619 100.36 36.1308 100.374 36.0997 100.387V100.391ZM39.0592 84.6298C37.806 84.2209 36.544 84.0699 35.3176 84.1587C35.5131 84.292 35.6953 84.452 35.8508 84.652C36.7662 85.8029 36.4507 87.487 35.1843 88.2425C33.9934 88.9535 32.4381 88.518 31.736 87.336C31.3449 86.6827 31.3049 85.9451 31.5227 85.283C30.4606 85.8695 29.4964 86.6694 28.6698 87.6781C28.07 88.4113 27.0346 87.3671 27.63 86.6383C30.5095 83.1189 35.1309 81.8125 39.4458 83.2167C40.3434 83.5099 39.9568 84.9275 39.0547 84.6342L39.0592 84.6298ZM60.7532 125.92C60.5221 126.076 60.2466 126.165 59.94 126.303C59.7711 126.16 59.5756 126.063 59.4956 125.907C59.3445 125.623 59.429 125.312 59.6378 125.116C60.0244 124.761 60.651 124.881 60.8909 125.365C60.9931 125.574 60.9309 125.8 60.7532 125.92ZM61.2109 110.794C61.2109 110.794 61.2109 110.821 61.202 110.834C59.1268 117.313 50.9104 119.233 46.2535 114.211C45.938 113.874 46.0046 113.443 46.2846 113.171C46.4579 111.43 46.7067 109.563 48.1287 108.363C48.7019 107.884 49.444 107.546 50.1994 107.532C50.7993 107.524 51.2926 107.799 51.9236 107.439C52.1858 107.288 52.4035 106.981 52.6568 106.804C55.8518 104.537 59.149 107.475 61.1487 109.848C61.4064 110.154 61.3975 110.532 61.2064 110.794H61.2109ZM67.4764 128.333C67.1743 128.347 66.9165 128.098 66.9165 127.796C66.9165 127.542 67.1165 127.316 67.3698 127.28C67.6897 127.236 67.9475 127.436 67.9741 127.756C68.0008 128.102 67.8142 128.32 67.4764 128.333ZM69.6094 80.1594C67.8408 79.2307 65.9656 78.7819 64.1126 78.7774C64.9613 79.7639 65.0013 81.217 64.1704 82.2568C63.2727 83.3766 61.6597 83.581 60.4821 82.7679C59.4912 82.0835 59.1446 80.8171 59.4823 79.7239C57.7892 80.4527 56.2428 81.5858 54.9808 83.1011C54.3721 83.8299 53.3367 82.7812 53.941 82.0613C57.9981 77.2044 64.7747 75.9602 70.356 78.8885C71.1958 79.3285 70.4493 80.5993 69.6139 80.1594H69.6094ZM58.1003 71.1477C59.9089 70.8188 61.753 70.6988 63.5838 70.8277C64.9658 70.9255 66.8055 70.9832 68.0141 71.7209C68.854 72.2319 69.3428 73.2895 68.7429 74.1782C68.1208 75.1025 66.8366 75.0492 65.859 75.0536C61.5397 75.0847 57.2693 75.5291 53.0434 76.4312C52.6923 76.5067 52.4168 76.3467 52.2613 76.1112C52.0836 76.0401 51.9414 75.889 51.9014 75.6269C51.3726 72.4141 55.7763 71.5698 58.0959 71.1477H58.1003ZM28.9631 77.0355C31.5316 75.4802 35.0287 75.7735 37.7838 76.6223C40.49 77.4577 42.8629 79.2707 43.7206 82.0035C43.845 82.1191 43.9383 82.2746 43.9605 82.4746C44.3116 85.2608 44.6626 88.0469 45.0137 90.8376C45.3381 93.3882 45.6402 95.9745 46.489 98.4185C46.9156 99.6449 47.4932 101.058 48.4131 102.009C49.7106 103.351 50.5372 102.085 51.5992 101.32C52.2702 100.84 52.9634 100.729 53.7677 100.836C54.301 100.907 54.7986 101.129 55.323 101.222C55.6607 101.311 56.0029 101.329 56.3451 101.276C56.4384 100.178 56.034 99.6672 55.123 99.7471C54.1943 99.6405 54.1854 98.1696 55.123 98.2763C56.425 98.4274 57.9314 98.8317 58.2958 100.294C58.5847 101.445 57.8248 102.418 56.7361 102.693C56.1451 102.844 55.5185 102.769 54.932 102.64C54.4298 102.529 53.8344 102.236 53.3145 102.253C52.4879 102.28 52.2924 102.684 51.8125 103.138C50.8749 104.026 49.8306 104.44 48.5731 103.906C45.6358 102.662 44.6404 97.8675 44.1472 95.1257C43.4451 91.1842 43.0629 87.1715 42.5741 83.1945C42.5119 83.1189 42.4675 83.0211 42.4408 82.9056C42.112 81.5059 41.3032 80.3683 40.2278 79.5018C40.1745 79.5284 40.1168 79.5506 40.0457 79.564C37.9482 80.0128 35.8508 80.4616 33.7534 80.9104C32.1804 81.2481 30.3451 81.9591 28.7187 81.7991C27.6656 81.6925 26.8568 81.0171 26.8479 79.915C26.8391 78.653 27.9589 77.6354 28.9498 77.0311L28.9631 77.0355Z" fill="#0C0C0C"/>
    <path d="M23.7437 111.43C23.3444 112.508 22.7987 113.538 22.3835 114.604C21.7191 116.32 21.2881 118.14 20.9006 119.94C20.4814 121.899 20.1493 123.877 19.9674 125.876C19.8369 127.283 19.8053 128.678 20.2995 130.024C20.6673 131.026 21.3435 132.023 22.3953 132.303C22.6998 132.327 23.0082 132.315 23.3206 132.266C26.8953 131.699 27.7455 127.62 27.3501 124.518C26.8083 120.265 25.622 115.995 24.1866 111.977C24.0957 111.718 23.9335 111.543 23.7437 111.43Z" fill="#0C0C0C"/>
</svg>
