<svg width="138" height="20" viewBox="0 0 138 20" fill="none" xmlns="http://www.w3.org/2000/svg">
    <path d="M70.3489 10.6364C70.3489 13.1441 68.316 15.177 65.8083 15.177C63.3005 15.177 61.2676 13.1441 61.2676 10.6364C61.2676 8.12863 63.3005 6.0957 65.8083 6.0957C68.316 6.0957 70.3489 8.12863 70.3489 10.6364Z" fill="#FF5C00"/>
    <path fill-rule="evenodd" clip-rule="evenodd" d="M74.1721 10.6359C74.1721 15.2554 70.4273 19.0003 65.8078 19.0003C61.1882 19.0003 57.4434 15.2554 57.4434 10.6359C57.4434 6.01635 61.1882 2.27148 65.8078 2.27148C70.4273 2.27148 74.1721 6.01635 74.1721 10.6359ZM65.8078 15.1765C68.3155 15.1765 70.3484 13.1436 70.3484 10.6359C70.3484 8.12813 68.3155 6.09521 65.8078 6.09521C63.3 6.09521 61.2671 8.12813 61.2671 10.6359C61.2671 13.1436 63.3 15.1765 65.8078 15.1765Z" fill="#ABAEBC" fill-opacity="0.12"/>
    <path d="M0.0776914 10.6471L0.107314 10.4497C0.37721 8.84344 1.31197 7.57296 2.9116 6.6382C4.51123 5.70343 6.5157 5.23605 8.92502 5.23605C11.2948 5.23605 13.0557 5.70014 14.2077 6.62832C15.3597 7.54992 15.7975 8.77762 15.521 10.3114L15.3828 11.181H2.55613L2.75361 10.0744H10.969L10.9986 10.2127C11.0381 9.65313 10.8834 9.21537 10.5345 8.8994C10.1856 8.58342 9.38253 8.42544 8.1252 8.42544C7.16411 8.42544 6.4005 8.57026 5.83438 8.8599C5.27484 9.14955 4.95228 9.61693 4.8667 10.262L4.77783 10.7953C4.68567 11.4601 4.88974 11.944 5.39004 12.2468C5.89692 12.5496 6.66711 12.701 7.70061 12.701C8.58929 12.701 9.31341 12.6088 9.87295 12.4245C10.4325 12.2402 10.8637 12.0164 11.1665 11.7531L15.0668 12.6615C14.4085 13.7477 13.4507 14.5573 12.1934 15.0906C10.9361 15.6172 9.25416 15.8805 7.14765 15.8805C4.68567 15.8805 2.81944 15.423 1.54895 14.508C0.285051 13.593 -0.20537 12.306 0.0776914 10.6471Z" fill="white"/>
    <path d="M15.2603 5.65077H20.1283L22.1032 10.8742C22.1559 10.9927 22.2151 11.1343 22.2809 11.2988C22.3468 11.4634 22.4126 11.7432 22.4784 12.1382H22.508C22.6199 11.7432 22.722 11.4634 22.8141 11.2988C22.9063 11.1343 23.0017 10.9927 23.1005 10.8742L26.8231 5.65077H31.385L24.2064 15.5843H19.0619L15.2603 5.65077Z" fill="white"/>
    <path d="M29.5543 10.6471L29.5839 10.4497C29.8538 8.84344 30.7886 7.57296 32.3882 6.6382C33.9878 5.70343 35.9923 5.23605 38.4016 5.23605C40.7714 5.23605 42.5324 5.70014 43.6843 6.62832C44.8363 7.54992 45.2741 8.77762 44.9976 10.3114L44.8594 11.181H32.0327L32.2302 10.0744H40.4456L40.4752 10.2127C40.5147 9.65313 40.36 9.21537 40.0111 8.8994C39.6622 8.58342 38.8591 8.42544 37.6018 8.42544C36.6407 8.42544 35.8771 8.57026 35.311 8.8599C34.7514 9.14955 34.4289 9.61693 34.3433 10.262L34.2544 10.7953C34.1623 11.4601 34.3663 11.944 34.8666 12.2468C35.3735 12.5496 36.1437 12.701 37.1772 12.701C38.0659 12.701 38.79 12.6088 39.3496 12.4245C39.9091 12.2402 40.3403 12.0164 40.6431 11.7531L44.5434 12.6615C43.8851 13.7477 42.9273 14.5573 41.67 15.0906C40.4127 15.6172 38.7308 15.8805 36.6243 15.8805C34.1623 15.8805 32.296 15.423 31.0256 14.508C29.7617 13.593 29.2712 12.306 29.5543 10.6471Z" fill="white"/>
    <path d="M44.4605 15.5843L46.1292 5.65077H50.9478L50.701 7.47751H50.6714C51.1717 6.83897 51.8793 6.31235 52.7943 5.89763C53.7159 5.47633 54.8317 5.26568 56.1417 5.26568C57.5768 5.26568 58.6761 5.64419 59.4397 6.40121C60.2033 7.15824 60.4633 8.29378 60.2198 9.80783L59.2225 15.5843H54.394L55.2431 10.6373C55.3156 9.97898 55.1839 9.51489 54.8482 9.245C54.519 8.96852 53.9825 8.83028 53.2387 8.83028C52.6133 8.83028 52.0241 8.96523 51.4712 9.23512C50.9182 9.49844 50.4805 9.82429 50.1579 10.2127L49.2791 15.5843H44.4605Z" fill="white"/>
    <path d="M71.741 10.6768L71.7805 10.4497C72.0373 8.92902 72.791 7.70791 74.0417 6.78631C75.2925 5.85813 76.8296 5.39404 78.653 5.39404C79.8643 5.39404 80.8517 5.56519 81.6153 5.9075C82.3789 6.24323 82.9384 6.6349 83.2939 7.08254L84.4196 1H89.1L86.5327 15.5843H81.8128L82.0103 14.192V14.2315C81.4836 14.666 80.7891 15.0412 79.9268 15.3572C79.0644 15.6731 78.0375 15.8311 76.846 15.8311C75.0028 15.8311 73.6237 15.3736 72.7087 14.4586C71.7937 13.537 71.4711 12.2764 71.741 10.6768ZM76.5794 10.7854C76.5004 11.3778 76.6683 11.8386 77.083 12.1678C77.4977 12.4903 78.1856 12.6516 79.1467 12.6516C79.9235 12.6516 80.6081 12.5562 81.2006 12.3653C81.793 12.1744 82.1979 11.9637 82.4151 11.7333L82.6916 9.57085C82.5138 9.26804 82.1715 9.02776 81.6647 8.85003C81.1578 8.66571 80.5094 8.57355 79.7194 8.57355C78.7452 8.57355 78.0046 8.74799 77.4977 9.09688C76.9909 9.44577 76.7012 9.90986 76.6288 10.4892L76.5794 10.7854Z" fill="white"/>
    <path d="M87.8321 10.6768L87.8716 10.4497C88.1283 8.92902 88.8821 7.70791 90.1328 6.78631C91.3835 5.85813 92.9206 5.39404 94.7441 5.39404C95.9553 5.39404 96.9427 5.56519 97.7064 5.9075C98.47 6.24323 99.0295 6.6349 99.385 7.08254L100.511 1H105.191L102.624 15.5843H97.9038L98.1013 14.192V14.2315C97.5747 14.666 96.8802 15.0412 96.0179 15.3572C95.1555 15.6731 94.1286 15.8311 92.9371 15.8311C91.0939 15.8311 89.7148 15.3736 88.7998 14.4586C87.8848 13.537 87.5622 12.2764 87.8321 10.6768ZM92.6705 10.7854C92.5915 11.3778 92.7594 11.8386 93.1741 12.1678C93.5888 12.4903 94.2767 12.6516 95.2378 12.6516C96.0146 12.6516 96.6992 12.5562 97.2916 12.3653C97.8841 12.1744 98.2889 11.9637 98.5062 11.7333L98.7827 9.57085C98.6049 9.26804 98.2626 9.02776 97.7557 8.85003C97.2489 8.66571 96.6004 8.57355 95.8105 8.57355C94.8362 8.57355 94.0957 8.74799 93.5888 9.09688C93.0819 9.44577 92.7923 9.90986 92.7199 10.4892L92.6705 10.7854Z" fill="white"/>
    <path d="M103.548 12.2468L107.745 12.306L107.715 12.4739C107.662 12.9018 107.916 13.1749 108.475 13.2934C109.035 13.4119 109.802 13.4712 110.776 13.4712C111.888 13.4712 112.662 13.4152 113.096 13.3033C113.537 13.1848 113.774 12.9939 113.807 12.7306C113.834 12.4739 113.646 12.2731 113.244 12.1283C112.843 11.9769 111.918 11.8386 110.47 11.7136C107.672 11.5227 105.947 11.1738 105.296 10.6669C104.651 10.16 104.407 9.45565 104.565 8.5538C104.749 7.49396 105.516 6.67769 106.866 6.10499C108.222 5.5257 110.035 5.23605 112.306 5.23605C114.499 5.23605 116.157 5.55861 117.283 6.20373C118.409 6.84226 118.876 7.65524 118.685 8.64267L118.646 8.90927H114.459L114.499 8.77103C114.531 8.44189 114.304 8.18516 113.817 8.00084C113.33 7.81652 112.57 7.72436 111.536 7.72436C110.529 7.72436 109.825 7.78361 109.423 7.9021C109.028 8.01401 108.814 8.2082 108.781 8.48468C108.755 8.73483 108.936 8.93231 109.324 9.07714C109.713 9.21537 110.69 9.34374 112.257 9.46223C114.969 9.61364 116.714 9.91974 117.49 10.3805C118.267 10.8413 118.577 11.5095 118.419 12.385C118.228 13.4975 117.448 14.3599 116.078 14.9721C114.716 15.5777 112.846 15.8805 110.47 15.8805C108.093 15.8805 106.3 15.5941 105.088 15.0214C103.877 14.4421 103.354 13.6028 103.518 12.5035L103.548 12.2468Z" fill="white"/>
</svg>
