<svg width="24" height="24" viewBox="0 0 24 24" fill="none" xmlns="http://www.w3.org/2000/svg">
    <g clip-path="url(#clip0_576_17410)">
        <path d="M12 2C6.47788 2 2 6.4771 2 12C2 16.4184 4.86531 20.1668 8.83866 21.4891C9.33841 21.5817 9.52193 21.2722 9.52193 21.008C9.52193 20.7696 9.5126 19.9818 9.50836 19.1462C6.72626 19.7511 6.13923 17.9663 6.13923 17.9663C5.68434 16.8105 5.02891 16.5032 5.02891 16.5032C4.12165 15.8825 5.0973 15.8952 5.0973 15.8952C6.1015 15.9658 6.63027 16.9257 6.63027 16.9257C7.52216 18.4546 8.96964 18.0125 9.54028 17.7571C9.63 17.1107 9.88921 16.6696 10.1752 16.4199C7.95406 16.167 5.61909 15.3095 5.61909 11.4778C5.61909 10.3861 6.00974 9.49393 6.64948 8.79364C6.54564 8.54173 6.20338 7.52467 6.74634 6.14723C6.74634 6.14723 7.58608 5.87845 9.49707 7.17229C10.2947 6.95065 11.1502 6.83959 12 6.83583C12.8499 6.83959 13.706 6.95065 14.5052 7.17229C16.4139 5.87845 17.2525 6.14723 17.2525 6.14723C17.7968 7.52467 17.4544 8.54173 17.3505 8.79364C17.9917 9.49393 18.3797 10.386 18.3797 11.4778C18.3797 15.3186 16.0403 16.1644 13.8135 16.4119C14.1722 16.7222 14.4918 17.3308 14.4918 18.2637C14.4918 19.6017 14.4802 20.6786 14.4802 21.008C14.4802 21.2741 14.6602 21.586 15.1671 21.4878C19.1383 20.164 22 16.4169 22 12C22 6.4771 17.5227 2 12 2Z" fill="#757575"/>
        <path d="M5.74538 16.2457C5.72342 16.2954 5.64515 16.3103 5.57401 16.2763C5.50146 16.2436 5.46068 16.1759 5.48421 16.126C5.50578 16.0748 5.58405 16.0606 5.65644 16.0949C5.72914 16.1275 5.77055 16.1959 5.74538 16.2457ZM6.23728 16.6846C6.1896 16.7289 6.09634 16.7083 6.03305 16.6384C5.96764 16.5687 5.95541 16.4755 6.0038 16.4306C6.05297 16.3864 6.1434 16.4071 6.20897 16.4769C6.27438 16.5474 6.28708 16.64 6.2372 16.6847L6.23728 16.6846ZM6.57476 17.2462C6.51343 17.2888 6.4132 17.2488 6.35132 17.1599C6.29006 17.071 6.29006 16.9644 6.35265 16.9216C6.41477 16.8789 6.51343 16.9173 6.57617 17.0056C6.63735 17.096 6.63735 17.2027 6.57468 17.2463L6.57476 17.2462ZM7.14541 17.8966C7.09058 17.957 6.97388 17.9408 6.8884 17.8583C6.80103 17.7777 6.77663 17.6633 6.83161 17.6028C6.88706 17.5422 7.00447 17.5593 7.09058 17.6411C7.1774 17.7215 7.20391 17.8368 7.14548 17.8966H7.14541ZM7.88295 18.1162C7.85887 18.1945 7.7464 18.2301 7.63315 18.1968C7.52006 18.1625 7.44602 18.0708 7.46885 17.9916C7.49237 17.9128 7.60531 17.8757 7.71943 17.9113C7.83236 17.9455 7.90656 18.0365 7.88303 18.1162H7.88295ZM8.72245 18.2093C8.72527 18.2918 8.6292 18.3602 8.5103 18.3617C8.3907 18.3643 8.29399 18.2975 8.29274 18.2164C8.29274 18.1331 8.38662 18.0654 8.50614 18.0634C8.62504 18.0611 8.72245 18.1273 8.72245 18.2093ZM9.54705 18.1777C9.56132 18.2581 9.47866 18.3408 9.36062 18.3628C9.24455 18.3839 9.1371 18.3343 9.12228 18.2545C9.10785 18.172 9.19208 18.0894 9.30792 18.068C9.42619 18.0475 9.53199 18.0959 9.54705 18.1777Z" fill="#757575"/>
    </g>
    <defs>
        <clipPath id="clip0_576_17410">
            <rect width="20" height="20" fill="white" transform="translate(2 2)"/>
        </clipPath>
    </defs>
</svg>
