<svg width="135" height="30" viewBox="0 0 135 30" fill="none" xmlns="http://www.w3.org/2000/svg">
	<g clip-path="url(#clip0_543_88150)">
		<path d="M86.9589 10.5533C86.9589 8.71631 86.6018 3.1626 76.6234 3.1626H64.8485V27.4348H73.7987V17.3045L77.8031 27.4668H88.3983L82.4495 16.5832C85.2093 15.8477 86.9589 13.9431 86.9589 10.5533ZM75.4293 12.7848H73.6761V9.39143H75.4293C77.5253 9.39143 78.3478 10.2264 78.3478 11.1823C78.3478 12.1381 77.5577 12.7848 75.4293 12.7848Z" fill="black"/>
		<path d="M62.2114 3.1626H53.1494L47.648 11.9924V3.1626H38.9142V27.4668H47.648V18.8537L48.052 18.3669L53.3442 27.4668H62.7273L54.7439 14.501L62.2114 3.1626Z" fill="black"/>
		<path d="M95.0722 3.1626L89.8304 27.4668H98.824L99.7655 21.5648H102.543L103.485 27.4668H113.773L105.942 3.1626H95.0685H95.0722ZM100.768 8.68078H100.963L101.252 10.7878L102.219 17.642H100.004L100.577 10.7665L100.772 8.68433L100.768 8.68078Z" fill="black"/>
		<path d="M124.708 3.1626L123.287 15.8761L122.897 19.2765H122.572L122.186 15.8761L120.696 3.1626H110.408L117.915 27.4668H128.139L135 3.1626H124.708Z" fill="black"/>
		<path d="M29.026 26.2124H0V30.0002H29.026V26.2124Z" fill="black"/>
		<path d="M29.026 0H0V3.78775H29.026V0Z" fill="black"/>
		<path d="M29.026 5.14502H0V7.30184H29.026V5.14502Z" fill="black"/>
		<path d="M29.026 22.769H0V24.9259H29.026V22.769Z" fill="black"/>
		<path d="M4.62482 8.60596H0V21.4474H4.62482V8.60596Z" fill="black"/>
		<path d="M10.7252 8.60596H6.10034V21.4474H10.7252V8.60596Z" fill="black"/>
		<path d="M16.8255 8.60596H12.2007V21.4474H16.8255V8.60596Z" fill="black"/>
		<path d="M22.9256 8.60596H18.3008V21.4474H22.9256V8.60596Z" fill="black"/>
		<path d="M29.0259 8.60596H24.4011V21.4474H29.0259V8.60596Z" fill="black"/>
	</g>
	<defs>
		<clipPath id="clip0_543_88150">
			<rect width="135" height="30" fill="white"/>
		</clipPath>
	</defs>
</svg>


