<?xml version="1.0" encoding="iso-8859-1"?>
<svg width="611" height="170" viewBox="0 0 611 170" fill="none" xmlns="http://www.w3.org/2000/svg">
	<path d="M84.7185 169.437C131.507 169.437 169.437 131.507 169.437 84.7185C169.437 37.9298 131.507 0 84.7185 0C37.9298 0 0 37.9298 0 84.7185C0 131.507 37.9298 169.437 84.7185 169.437Z" fill="#231815"/>
	<mask id="mask0_78_3462" style="mask-type:luminance" maskUnits="userSpaceOnUse" x="40" y="51" width="98" height="59">
		<path d="M92.2315 88.2815L111.596 63.6098L95.69 51.1324L61.1198 95.1836V51.192H40.9055V109.107H61.1198V97.6433L75.8334 109.182L90.7556 90.1747V109.346H137.46V88.2815H92.2315Z" fill="white"/>
	</mask>
	<g mask="url(#mask0_78_3462)">
		<path d="M148.417 51.1766H29.9336V52.5779H148.417V51.1766Z" fill="white"/>
		<path d="M148.417 54.8735H29.9333V56.3792H148.417V54.8735Z" fill="white"/>
		<path d="M148.417 58.5555H29.9333V60.1506H148.417V58.5555Z" fill="white"/>
		<path d="M148.417 62.238H29.9333V63.9226H148.417V62.238Z" fill="white"/>
		<path d="M148.417 65.9347H29.9333V67.7236H148.417V65.9347Z" fill="white"/>
		<path d="M148.417 69.6169H29.9333V71.4953H148.417V69.6169Z" fill="white"/>
		<path d="M148.417 73.2988H29.9333V75.2666H148.417V73.2988Z" fill="white"/>
		<path d="M148.417 76.9962H29.9333V79.0683H148.417V76.9962Z" fill="white"/>
		<path d="M148.417 80.678H29.9333V82.8396H148.417V80.678Z" fill="white"/>
		<path d="M148.417 84.3603H29.9333V86.6113H148.417V84.3603Z" fill="white"/>
		<path d="M148.417 88.0573H29.9333V90.3977H148.417V88.0573Z" fill="white"/>
		<path d="M148.417 91.7392H29.9333V94.184H148.417V91.7392Z" fill="white"/>
		<path d="M148.417 95.4218H29.9333V97.956H148.417V95.4218Z" fill="white"/>
		<path d="M148.417 99.1184H29.9333V101.742H148.417V99.1184Z" fill="white"/>
		<path d="M148.417 102.8H29.9333V105.528H148.417V102.8Z" fill="white"/>
		<path d="M148.417 106.483H29.9333V109.3H148.417V106.483Z" fill="white"/>
	</g>
	<path d="M326.122 34.624H373.931C414.458 34.624 415.904 57.5162 415.904 65.0856C415.904 79.0679 408.808 86.9265 397.585 89.949L421.739 134.813H378.714L362.445 92.9189V134.682H326.096V34.5977L326.122 34.624ZM369.094 74.2845C377.741 74.2845 380.948 71.446 380.948 67.6876C380.948 63.7452 377.61 60.3022 369.094 60.3022H361.972V74.2845H369.094Z" fill="#231815"/>
	<path d="M220.781 34.6231H256.263V134.839H220.781V34.6231ZM246.013 87.7403L278.603 34.6231H315.399L279.917 89.3173H264.411L246.013 111.947V87.7666V87.7403ZM251.269 85.7429L277.552 69.0008L317.502 134.839H279.392L251.269 85.7429Z" fill="#231815"/>
	<path d="M448.863 34.6237H493.017L524.819 134.839H483.03L478.036 103.064L478.825 101.198L473.936 66.0578L472.78 57.3845H471.991L471.203 65.9789L468.312 101.198L469.1 103.064L464.107 134.839H427.574L448.863 34.6237ZM460.69 94.3116H483.818V110.475H460.69V94.3116Z" fill="#231815"/>
	<path d="M511.126 34.6237H552.915L558.96 87.0313L560.537 101.066H561.852L563.428 87.0313L569.211 34.6237H611L583.14 134.839H541.614L511.126 34.6237Z" fill="#231815"/>
</svg>


