<svg width="48" height="48" viewBox="0 0 48 48" fill="none" xmlns="http://www.w3.org/2000/svg">
    <circle cx="24" cy="24" r="24" fill="black"/>
    <path d="M26.0364 16.7818C25.7927 16.7746 25.5527 16.8373 25.3501 16.9612C25.1475 17.0851 24.9924 17.264 24.9067 17.4727C24.821 17.6813 24.809 17.9093 24.8723 18.1246C24.9356 18.3398 25.0711 18.5315 25.2598 18.6726L31.0284 23.1893H13.1919C13.0366 23.1862 12.8822 23.2114 12.7377 23.2636C12.5933 23.3158 12.4617 23.3939 12.3507 23.4932C12.2397 23.5925 12.1515 23.711 12.0912 23.8419C12.031 23.9728 12 24.1133 12 24.2553C12 24.3974 12.031 24.538 12.0912 24.6689C12.1515 24.7998 12.2397 24.9183 12.3507 25.0177C12.4617 25.117 12.5933 25.1951 12.7377 25.2472C12.8822 25.2994 13.0366 25.3246 13.1919 25.3215H34.1872C34.4242 25.3201 34.6552 25.2527 34.8493 25.1282C35.0434 25.0037 35.1913 24.8281 35.2735 24.6248C35.3556 24.4214 35.368 24.1999 35.309 23.99C35.25 23.78 35.1224 23.5915 34.9433 23.4495L26.7833 17.0505C26.577 16.8829 26.3123 16.7878 26.0364 16.7818Z" fill="white"/>
    <path d="M26.0364 31.9291C25.7927 31.9364 25.5527 31.8736 25.3501 31.7497C25.1475 31.6258 24.9924 31.4469 24.9067 31.2383C24.821 31.0296 24.809 30.8016 24.8723 30.5864C24.9356 30.3711 25.0711 30.1795 25.2598 30.0383L31.0284 25.5216H13.1919C13.0366 25.5247 12.8822 25.4995 12.7377 25.4474C12.5933 25.3952 12.4617 25.3171 12.3507 25.2178C12.2397 25.1185 12.1515 24.9999 12.0912 24.869C12.031 24.7381 12 24.5976 12 24.4556C12 24.3136 12.031 24.1729 12.0912 24.042C12.1515 23.9111 12.2397 23.7926 12.3507 23.6933C12.4617 23.594 12.5933 23.5159 12.7377 23.4637C12.8822 23.4115 13.0366 23.3863 13.1919 23.3894H34.1872C34.4242 23.3908 34.6552 23.4582 34.8493 23.5827C35.0434 23.7072 35.1913 23.8828 35.2735 24.0862C35.3556 24.2895 35.368 24.511 35.309 24.721C35.25 24.9309 35.1224 25.1195 34.9433 25.2614L26.7833 31.6604C26.577 31.828 26.3123 31.9232 26.0364 31.9291Z" fill="white"/>
</svg>
