<?xml version="1.0" encoding="iso-8859-1"?>
<svg width="14" height="18" viewBox="0 0 14 18" fill="none" xmlns="http://www.w3.org/2000/svg">
	<path d="M7.00114 18C8.01627 18 8.84683 17.1692 8.84683 16.1538H5.15545C5.15545 16.6435 5.34991 17.1131 5.69604 17.4593C6.04217 17.8055 6.51163 18 7.00114 18ZM12.5382 12.4615V7.84615C12.5382 5.01231 11.0247 2.64 8.3854 2.01231V1.38462C8.3854 0.618462 7.7671 0 7.00114 0C6.23518 0 5.61687 0.618462 5.61687 1.38462V2.01231C2.96831 2.64 1.46407 5.00308 1.46407 7.84615V12.4615L0.273602 13.6523C-0.30779 14.2338 0.0982618 15.2308 0.919593 15.2308H13.0735C13.8948 15.2308 14.3101 14.2338 13.7287 13.6523L12.5382 12.4615Z" fill="#757575"/>
</svg>

