<svg width="100" height="115" viewBox="0 0 100 115" fill="none" xmlns="http://www.w3.org/2000/svg">
    <g clip-path="url(#clip0_1459_95083)">
        <path d="M53.4022 9.87689C53.1563 6.10924 51.3431 0.669755 46.6124 0.881746C45.0114 0.954015 43.883 1.79234 43.0825 2.97274C42.6726 3.37263 42.3061 3.82552 41.9975 4.33623C41.0282 5.92134 40.8112 7.75698 40.8305 9.58299C40.8016 9.59744 40.7774 9.6119 40.7485 9.62153C40.7389 10.5803 40.7196 11.5343 40.7244 12.4834C40.7292 14.8105 40.734 17.1376 40.7389 19.4695C40.7485 24.5476 40.763 29.6305 40.7774 34.7087L40.8498 64.5511C40.8884 81.2936 40.9269 98.036 40.9703 114.778C45.2718 114.754 49.5685 114.73 53.87 114.706C53.8459 107.725 53.8169 100.744 53.7928 93.7673C53.7205 74.9339 53.653 56.1004 53.5806 37.267C53.5614 32.6129 53.5469 27.9587 53.5276 23.2997C53.5131 18.8383 53.6964 14.3239 53.407 9.87207L53.4022 9.87689Z" fill="#0C0C0C"/>
        <path d="M68.1973 12.5268C68.2166 14.9647 68.2358 17.3977 68.2551 19.8356L68.3757 34.4485C68.4577 44.4024 68.5348 54.3563 68.6168 64.3103C68.7518 81.0816 68.8869 97.8578 69.0267 114.629C71.7658 114.759 74.5097 114.865 77.2439 114.918C77.5332 114.923 77.8178 114.928 78.1071 114.933C78.2373 108.554 78.3627 102.179 78.4929 95.8005C78.8642 77.338 79.3995 58.8708 79.5586 40.4035C79.6358 31.1916 79.5007 21.97 78.6761 12.7918C78.4784 10.5659 78.3193 8.30143 77.9238 6.09962C77.6152 4.39888 76.9931 2.23079 75.0739 1.73936C73.2655 1.27684 71.4813 2.49578 70.5072 3.97972C68.8483 6.04662 68.4046 8.78804 68.4432 11.5391C68.3612 11.5536 68.2792 11.5584 68.1973 11.5487C68.1973 11.8764 68.1973 12.204 68.1973 12.5316V12.5268Z" fill="#0C0C0C"/>
        <path d="M13.531 95.9883C13.9265 80.0601 14.3267 64.1271 14.7221 48.1989L15.3249 23.9838C15.4214 20.0475 15.6287 16.0968 15.6046 12.1605C15.5998 11.3752 15.513 10.4357 15.3153 9.49137C15.3056 9.45765 15.296 9.4191 15.2912 9.38056C14.6884 6.62468 13.1404 3.86881 9.93842 4.77459C9.68766 4.84686 9.47547 4.79868 9.31152 4.69268C8.45797 5.52137 7.56584 6.32597 6.65443 7.1113C6.67372 7.18357 6.68336 7.26066 6.68336 7.34738C6.40849 15.8029 6.1288 24.2584 5.85393 32.7091C4.95698 60.133 4.06003 87.5617 3.16309 114.986C6.46154 114.966 9.76481 114.947 13.0633 114.933L13.5358 95.9883H13.531Z" fill="#0C0C0C"/>
        <path d="M0.139847 89.3105C0.0916237 97.3613 0.048223 105.407 0 113.458C0 113.858 0.178425 114.176 0.448474 114.378C0.617254 114.735 0.959637 115 1.47562 115C1.50456 115 1.53349 115 1.56242 115C1.76014 108.92 1.96268 102.835 2.16039 96.7543C3.12485 67.3165 4.08449 37.8787 5.04895 8.4458C3.60708 9.60211 2.11217 10.691 0.583498 11.7076C0.434007 37.5752 0.289338 63.4429 0.139847 89.3105Z" fill="#0C0C0C"/>
        <path d="M99.0215 114.19C99.2674 114.099 99.4507 113.935 99.5664 113.728C99.8364 113.526 100.015 113.222 99.9956 112.832C98.7128 85.3116 97.7821 57.7769 97.2083 30.2326C97.1022 25.1352 97.0154 20.033 96.9334 14.9308C94.8695 13.6636 92.9791 12.1315 91.2383 10.4404C92.7428 15.1139 92.222 20.6401 92.2317 25.3376C92.2895 55.0885 92.3474 84.8394 92.4101 114.59C92.9213 114.557 93.4373 114.523 93.9484 114.484C95.3855 114.475 96.8273 114.47 98.2644 114.46C98.5826 114.46 98.8334 114.354 99.0215 114.19Z" fill="#0C0C0C"/>
        <path d="M88.8606 8.82656L88.7352 8.74948C88.2771 7.8967 87.6599 7.174 86.816 6.6633C84.7375 5.41544 82.5193 6.75002 81.5211 8.70611C80.6193 10.4695 80.6193 12.5508 80.5807 14.4829C80.5807 14.6274 80.5421 14.7527 80.4843 14.8587C80.5904 16.4727 80.6723 18.0819 80.7591 19.6766C81.0388 24.6921 81.1449 29.7173 81.1642 34.7424C81.198 45.048 80.899 55.3536 80.6916 65.6545C80.3589 82.0837 80.031 98.513 79.6982 114.942C83.3921 114.971 87.086 114.894 90.7702 114.687C90.7847 114.687 90.7992 114.687 90.8136 114.687L90.7702 93.0687C90.7413 78.0173 90.7124 62.966 90.6786 47.9099C90.6641 40.3842 90.6497 32.8586 90.6352 25.3329C90.6256 20.1921 91.4309 13.6156 88.8606 8.82174V8.82656Z" fill="#0C0C0C"/>
        <path d="M39.3697 114.07C39.2636 114.176 39.1141 114.239 38.9502 114.239C38.5596 114.239 38.2751 113.955 38.2895 113.579C38.2992 113.29 38.5982 113.068 38.9502 113.087C39.1238 113.097 39.2685 113.16 39.3746 113.261C39.3746 112.384 39.3746 111.507 39.3697 110.63C39.1286 110.601 38.8971 110.409 38.8634 110.182C38.8152 109.888 39.0418 109.59 39.3697 109.479C39.3601 104.449 39.3456 99.4236 39.336 94.3937C39.2926 76.2974 39.2492 58.2011 39.2058 40.1048C39.1865 31.1097 39.1624 22.1146 39.1431 13.1194C39.1334 9.40959 40.0931 3.68585 36.9538 0.939606C35.049 -0.72741 32.6523 -0.0384407 31.2538 1.87429C30.0289 3.55094 29.783 5.77684 29.5467 7.7763C29.5322 7.90638 29.4888 8.0172 29.431 8.11837C29.4888 9.68421 29.3924 11.2645 29.3586 12.8159L29.2043 19.8212C29.1031 24.4898 29.0018 29.1584 28.8957 33.827C28.6835 43.5882 28.4665 53.3542 28.2543 63.1154C27.8782 80.3638 27.4972 97.6121 27.1211 114.86C31.2056 114.836 35.2949 114.817 39.3794 114.793C39.3794 114.552 39.3794 114.311 39.3794 114.075L39.3697 114.07ZM27.7914 111.141C27.5503 111.232 27.3381 110.996 27.2995 110.678C27.2706 110.428 27.4153 110.221 27.6323 110.211C27.9264 110.197 28.1193 110.375 28.1482 110.799C28.0711 110.881 27.9602 111.083 27.7962 111.141H27.7914ZM28.3556 114.634C28.1627 114.682 28.018 114.547 28.0084 114.364C28.0084 114.273 28.129 114.171 28.2592 113.988C28.3942 114.147 28.5244 114.249 28.5678 114.379C28.5871 114.441 28.452 114.615 28.3604 114.634H28.3556ZM28.2592 106.983C27.9457 107.012 27.6515 106.771 27.6178 106.453C27.5744 105.995 27.8444 105.634 28.2543 105.605C28.6064 105.581 28.9246 105.904 28.9198 106.275C28.915 106.651 28.6401 106.944 28.2592 106.983ZM31.9289 44.6723C31.9868 44.7205 32.0447 44.7686 32.1025 44.8168C32.035 44.8939 31.9675 44.971 31.9 45.0481C31.8614 44.9806 31.7891 44.9084 31.7891 44.8457C31.7891 44.7879 31.8807 44.7301 31.9289 44.6723ZM31.0898 103.606C31.0802 103.529 31.0609 103.451 31.0609 103.374C31.0609 103.365 31.1381 103.355 31.1766 103.345C31.1863 103.423 31.2056 103.5 31.2056 103.577C31.2056 103.586 31.1284 103.596 31.0898 103.606ZM31.9482 98.5468C31.1911 98.6431 30.4726 98.0939 30.4003 97.3664C30.3327 96.6774 30.7812 95.9932 31.3454 95.9258C32.0832 95.8391 32.9705 96.4943 33.0381 97.1736C33.0911 97.7229 32.4931 98.4745 31.9482 98.5419V98.5468ZM33.4431 87.9569C33.0429 87.9569 32.7391 87.6533 32.768 87.2872C32.7969 86.9547 33.067 86.7331 33.4142 86.7524C33.8241 86.7765 34.1182 87.0607 34.1086 87.4221C34.099 87.7063 33.7855 87.9617 33.4431 87.9617V87.9569ZM35.7964 84.7481C35.3962 84.6277 35.1599 84.2229 35.237 83.7942C35.3094 83.3702 35.6566 83.11 36.2352 83.0522C36.7657 82.9992 37.2093 83.2256 37.3154 83.6448C37.354 83.8038 37.3395 84.0061 37.272 84.1603C37.0695 84.6228 36.7126 84.8204 36.1436 84.8107C36.0616 84.7963 35.9266 84.7866 35.8012 84.7481H35.7964ZM37.6096 99.2261C37.5758 99.3706 37.4263 99.4814 37.3637 99.5633C36.9972 99.5633 36.7464 99.3514 36.7175 99.0912C36.6934 98.884 36.8959 98.7106 37.1611 98.7154C37.4697 98.7202 37.6867 98.937 37.6144 99.2213L37.6096 99.2261Z" fill="#0C0C0C"/>
        <path d="M26.5905 65.77C26.7689 57.6951 26.9425 49.6202 27.1209 41.5501C26.9618 41.4923 26.8702 41.3718 26.9039 41.2417C26.9328 41.1357 27.0293 41.0201 27.1306 40.9526C27.145 40.2781 27.1595 39.6036 27.174 38.9291C27.2559 35.1277 27.3427 31.3264 27.4247 27.525C27.3331 27.5105 27.2463 27.4864 27.1788 27.4383C26.8798 27.2407 26.8075 26.8071 27.01 26.465C27.0968 26.3157 27.2801 26.2241 27.4585 26.1037C27.5549 21.676 27.6514 17.2531 27.7478 12.8254C27.825 9.36607 28.7171 2.7221 24.1938 1.52242C23.4415 1.32007 22.7616 1.32007 22.1443 1.46943C22.0382 1.74887 21.7682 1.92713 21.3968 1.94159C21.2811 1.94159 21.175 1.93195 21.0786 1.90304C18.8121 3.2328 17.6113 6.74028 16.9555 9.12035C17.187 10.3923 17.2111 11.7076 17.1918 12.9988C17.158 15.3933 17.0761 17.7879 17.0182 20.1824C16.2322 51.769 15.4413 83.3556 14.6553 114.947C18.2768 114.928 21.8984 114.908 25.5151 114.884C25.6839 107.185 25.8527 99.4861 26.0214 91.7822C26.2047 83.3507 26.3927 74.9193 26.576 66.4879C26.4796 66.4156 26.3927 66.3096 26.359 66.2084C26.3011 66.0302 26.4265 65.8278 26.5905 65.7796V65.77ZM25.1148 49.1914C25.1486 49.7021 24.8641 50.0345 24.3433 50.102C23.9623 50.1501 23.7116 49.8996 23.6826 49.4371C23.6537 48.989 23.9237 48.7288 24.4397 48.7048C24.84 48.6855 25.0956 48.8686 25.1148 49.1914ZM24.1697 61.9108C24.1311 62.012 24.0346 62.0939 23.9237 62.2336C23.8369 62.0698 23.7839 61.9686 23.726 61.8674C23.8273 61.8193 23.9237 61.747 24.0346 61.7277C24.0732 61.7229 24.189 61.8674 24.1697 61.9108ZM23.21 39.9794C23.7164 39.7241 24.242 39.7096 24.7098 40.071C24.8207 40.1577 24.8882 40.3745 24.8785 40.519C24.8593 40.7166 24.6615 40.7744 24.4735 40.7792C23.972 40.7792 23.5428 40.5528 23.0557 40.4082C23.1281 40.2059 23.1329 40.0228 23.2149 39.9842L23.21 39.9794ZM22.2745 24.0657C22.4481 24.4126 22.1009 24.7836 21.6958 24.7402C21.3245 24.7017 21.0111 24.4174 20.9821 24.0368C20.9628 23.8151 21.0014 23.5887 21.04 23.3719C21.1461 22.7986 21.2666 22.23 21.3824 21.6519C21.7103 21.5025 21.9852 21.6519 21.9418 21.9602C21.8357 22.707 21.9418 23.3863 22.2697 24.0609L22.2745 24.0657ZM20.9339 13.4324C21.0207 13.1964 21.2281 13.0566 21.4499 13.1482C21.6187 13.2204 21.7248 13.4324 21.8887 13.6155C21.6958 13.8805 21.5656 14.0973 21.3872 14.2756C21.3486 14.3141 21.1268 14.2467 21.0496 14.1696C20.8375 13.9624 20.8375 13.6926 20.9291 13.4276L20.9339 13.4324ZM19.8392 46.8932C20.0804 46.8113 20.2974 46.8787 20.4565 47.057C20.7748 47.4232 20.8278 47.8568 20.741 48.5072C20.3456 48.3338 20.0707 48.2615 19.8682 48.1073C19.7042 47.9821 19.5933 47.7556 19.5113 47.5533C19.4101 47.2979 19.5933 46.9799 19.8392 46.8932ZM17.2931 51.7208C17.3365 51.6582 17.4329 51.6003 17.5053 51.6052C17.5631 51.6052 17.6162 51.7063 17.674 51.7593C17.621 51.8172 17.5776 51.9039 17.5101 51.928C17.3558 51.9858 17.2111 51.8364 17.2931 51.7208ZM16.7723 58.8225C16.806 58.7743 16.9169 58.7406 16.97 58.7598C17.0134 58.7791 17.0182 58.8851 17.0423 58.9526C16.97 58.9718 16.888 59.02 16.8253 59.0056C16.7916 58.9959 16.7482 58.8562 16.7723 58.8225ZM17.6065 105.08C17.3509 104.916 17.1098 104.723 16.8928 104.511C16.8205 104.439 16.7916 104.241 16.8398 104.155C16.9121 104.015 17.0664 103.923 17.1339 103.861C17.756 103.817 18.1273 104.164 18.1611 104.733C18.1756 104.998 17.8332 105.229 17.6065 105.085V105.08ZM19.9212 106.973C19.8537 106.944 19.656 106.911 19.5451 106.795C19.14 106.385 19.1641 105.778 19.5692 105.369C19.7717 105.166 20.1141 105.181 20.254 105.427C20.4035 105.692 20.5337 105.976 20.6108 106.27C20.7121 106.66 20.4324 106.968 19.9212 106.968V106.973ZM20.8326 90.3464C20.6397 90.385 20.5095 90.226 20.5288 90.0381C20.5385 89.9369 20.6687 89.7731 20.7458 89.7731C20.8809 89.7731 21.0159 89.8743 21.2811 89.9899C21.0593 90.173 20.958 90.3223 20.8326 90.3464ZM21.6573 73.9942C21.3293 74.0087 21.04 73.7293 21.0641 73.4209C21.0882 73.1029 21.3631 72.862 21.7055 72.8717C22.0286 72.8813 22.3565 73.18 22.3324 73.445C22.3083 73.7148 21.9852 73.9798 21.6621 73.9942H21.6573ZM23.4174 65.6977C23.2583 66.0012 22.641 66.1843 22.3468 66.0157C21.9996 65.8182 21.826 65.2834 22.0093 64.9557C22.0286 64.9172 22.0623 64.8835 22.0913 64.8546C22.3083 64.6618 22.694 64.6378 22.9737 64.8016C23.2679 64.9702 23.4608 65.2834 23.4415 65.5628C23.4319 65.6062 23.4319 65.6544 23.4126 65.6929L23.4174 65.6977ZM24.2082 106.357C23.8562 106.299 23.5813 105.875 23.6103 105.436C23.6344 105.041 24.0539 104.723 24.459 104.791C24.8159 104.853 25.1245 105.219 25.0907 105.537C25.0425 106.005 24.5989 106.419 24.2131 106.357H24.2082ZM25.6019 79.4771C25.3174 79.824 24.8544 79.9059 24.5024 79.7421C24.1166 79.559 24.0539 79.2025 24.078 78.8315C24.0925 78.6099 24.1311 78.3834 24.2082 78.1811C24.3674 77.7667 24.8544 77.574 25.3415 77.6993C25.7273 77.8004 25.9539 78.1473 25.9395 78.8267C25.8816 78.9471 25.7851 79.2506 25.5971 79.4771H25.6019Z" fill="#0C0C0C"/>
        <path d="M55.336 81.2839C55.3794 92.4231 55.418 103.557 55.4614 114.697C59.4494 114.672 63.4423 114.653 67.4303 114.629C67.3724 107.701 67.3194 100.777 67.2615 93.8492C67.1892 84.989 67.1169 76.1239 67.0445 67.2637C66.9143 67.3118 66.7745 67.3456 66.6491 67.3456C66.2296 67.3504 65.8582 66.9409 65.8775 66.5602C65.9016 66.1218 66.3453 65.6882 66.7648 65.6978C66.8564 65.6978 66.9625 65.6882 67.0301 65.7316C66.9577 56.9966 66.8902 48.2616 66.8179 39.5266C66.7455 30.4207 66.6684 21.3147 66.596 12.204C66.5671 8.73503 67.059 2.40905 62.5212 1.38764C61.0938 1.06483 59.7291 1.65744 58.6585 2.59213C56.3245 3.84962 55.5337 7.439 55.3312 10.8453C55.2685 10.932 55.1913 10.9995 55.1045 11.0428C55.172 13.0327 55.0852 15.0417 55.09 16.9448C55.1093 22.235 55.1286 27.5251 55.1479 32.8152C55.1865 42.9715 55.2251 53.1278 55.2636 63.284C55.2636 63.5105 55.2636 63.7321 55.2636 63.9585C55.2926 63.9345 55.3167 63.9055 55.3456 63.8766C55.5337 64.0983 55.7121 64.2332 55.7845 64.4114C55.8616 64.5897 55.5723 64.792 55.336 64.7535C55.3119 64.7535 55.2878 64.7439 55.2636 64.7342C55.2829 70.1111 55.3022 75.4831 55.3215 80.86C55.3553 80.8407 55.3842 80.8214 55.4131 80.8166C55.4855 80.8021 55.5867 80.9467 55.7169 81.0623C55.5819 81.1779 55.4806 81.3177 55.3987 81.308C55.3746 81.308 55.3456 81.2888 55.3167 81.2743L55.336 81.2839ZM60.6067 88.7373C60.5392 88.7373 60.409 88.641 60.4139 88.6169C60.4524 88.482 60.5199 88.3519 60.6116 88.1544C60.7659 88.2989 60.9057 88.3663 60.9202 88.4531C60.9491 88.6554 60.7948 88.747 60.6067 88.7373ZM62.7478 90.8331C62.4103 90.9199 62.121 90.7898 61.9474 90.4814C61.7545 90.1345 61.7641 89.7877 61.9715 89.4552C62.2029 89.0842 62.5308 88.8722 62.989 88.9108C63.3362 88.9397 63.558 89.2529 63.5339 89.7154C63.505 90.3658 63.2687 90.6934 62.743 90.8331H62.7478ZM62.1788 63.5201C62.2415 63.3804 62.3669 63.2551 62.5019 63.178C62.5405 63.1539 62.6803 63.3081 62.7478 63.3563C62.7478 63.6695 62.5453 63.8911 62.3572 63.8092C62.2704 63.7706 62.1547 63.5827 62.1836 63.5249L62.1788 63.5201ZM63.505 96.2967C63.4326 96.1377 63.3313 96.0125 63.3603 95.945C63.394 95.8679 63.5435 95.8294 63.6496 95.8149C63.6834 95.8149 63.7846 95.9595 63.7654 95.998C63.7171 96.0944 63.6255 96.1666 63.505 96.2967ZM64.725 111.526C64.373 111.483 64.0161 111.151 63.9775 110.833C63.9486 110.572 64.2958 110.201 64.5755 110.192C64.9613 110.182 65.3905 110.596 65.3712 110.963C65.3567 111.271 65.0192 111.56 64.7202 111.526H64.725ZM66.1765 83.2738C66.3163 83.3027 66.4369 83.4231 66.625 83.5436C66.4514 83.6881 66.3646 83.8134 66.2633 83.8326C66.0511 83.8712 65.9209 83.7315 65.9499 83.5291C65.9643 83.4279 66.1186 83.2545 66.1765 83.2689V83.2738ZM64.8938 103.943C65.212 103.644 65.9065 103.654 66.2681 103.957C66.6153 104.256 66.6732 104.738 66.4128 105.171C66.109 105.677 65.6991 105.952 65.1252 105.962C64.995 105.865 64.725 105.754 64.6044 105.552C64.3247 105.07 64.4935 104.314 64.8938 103.938V103.943ZM63.8956 65.3606C64.0788 65.5244 64.1849 65.7749 64.2669 65.9002C64.2476 66.6181 63.8522 67.0709 63.2928 67.1191C63.042 67.1432 62.7382 66.9312 62.6755 66.6951C62.5405 66.1748 62.7093 65.6834 63.1481 65.4087C63.3844 65.2594 63.6641 65.1582 63.8956 65.3654V65.3606ZM62.039 9.83353C62.092 9.65045 62.2849 9.51073 62.3717 9.40473C62.8009 9.40473 63.0854 9.70344 63.0613 10.0166C63.0468 10.2334 62.8298 10.431 62.6032 10.431C62.2608 10.431 61.9473 10.1322 62.0341 9.83353H62.039ZM62.2367 35.3254C62.2367 35.3254 62.3765 35.4747 62.3572 35.4988C62.2994 35.5904 62.2029 35.6578 62.1161 35.7397C62.0438 35.6385 61.9522 35.5229 61.9618 35.5133C62.039 35.4362 62.1354 35.3687 62.2319 35.3206L62.2367 35.3254ZM62.4006 47.6642C62.9214 47.6546 63.3169 47.9629 63.3892 48.411C63.4664 48.8976 63.1192 49.4276 62.6273 49.548C62.4971 49.5817 62.3572 49.5817 62.2512 49.5914C62.1306 49.5817 62.039 49.5817 61.9474 49.5721C61.4844 49.5047 61.1179 49.2059 61.06 48.8494C60.9925 48.4447 61.2963 47.9292 61.7352 47.7798C61.9425 47.7076 62.1788 47.6738 62.4006 47.669V47.6642ZM59.9654 15.3356C60.274 15.1381 60.6019 15.008 60.9829 15.061C61.2915 15.1044 61.5905 15.3597 61.6532 15.6488C61.7111 15.9138 61.5471 16.3185 61.2674 16.4438C60.9877 16.569 60.6791 16.6269 60.5344 16.6702C60.0088 16.6509 59.7146 16.4486 59.6471 16.1643C59.57 15.8512 59.6953 15.5139 59.9654 15.3405V15.3356ZM59.8641 67.9767C60.3271 67.9815 60.6839 68.3573 60.6887 68.8343C60.6887 69.2776 60.3512 69.6052 59.9316 69.5667C59.5217 69.5281 59.2806 69.2149 59.2758 68.7187C59.2758 68.2899 59.5217 67.9719 59.8641 67.9767ZM59.3915 111.733C59.5796 111.512 59.8352 111.454 60.1149 111.512C60.409 111.57 60.5778 111.767 60.6405 112.047C60.6791 112.215 60.7225 112.422 60.6646 112.567C60.5923 112.75 60.4428 112.977 60.2692 113.039C59.8448 113.193 59.406 113.145 58.9816 112.986C58.9045 112.471 59.0974 112.08 59.3915 111.733ZM58.7598 69.8991C58.8129 69.9473 58.8611 69.9955 58.9141 70.0436C58.8563 70.0822 58.7984 70.1303 58.7357 70.1593C58.7212 70.1641 58.6441 70.0966 58.6489 70.087C58.6778 70.0195 58.7212 69.9617 58.7598 69.8991ZM57.9063 108.024C58.0027 108.072 58.0847 108.144 58.2149 108.245C58.0943 108.356 58.0124 108.428 57.9352 108.501C57.8773 108.399 57.8002 108.308 57.7761 108.202C57.7664 108.154 57.8918 108.019 57.9063 108.028V108.024ZM56.7537 68.9596C57.0672 68.9596 57.3324 69.2246 57.3517 69.5667C57.371 69.8798 57.0913 70.1833 56.7778 70.193C56.4692 70.2026 56.1702 69.9039 56.1751 69.5907C56.1799 69.2631 56.4548 68.9596 56.7489 68.9548L56.7537 68.9596ZM56.0593 95.309C56.204 95.338 56.3245 95.4777 56.4065 95.5355C56.421 95.8583 56.2281 96.0655 55.9966 96.0606C55.7941 96.051 55.6687 95.9354 55.6543 95.733C55.6398 95.5066 55.8471 95.2657 56.0593 95.309Z" fill="#0C0C0C"/>
    </g>
    <defs>
        <clipPath id="clip0_1459_95083">
            <rect width="100" height="115" fill="white"/>
        </clipPath>
    </defs>
</svg>
