<svg width="34" height="34" viewBox="0 0 34 34" fill="none" xmlns="http://www.w3.org/2000/svg">
    <path d="M17 33C25.8365 33 33 25.8365 33 17C33 8.16347 25.8365 1 17 1C8.16347 1 1 8.16347 1 17C1 25.8365 8.16347 33 17 33Z" fill="white" stroke="#DADADA"/>
    <path d="M6.57235 16.734C8.32584 15.7681 10.2832 14.962 12.1121 14.1517C15.2585 12.8246 18.4173 11.5205 21.6081 10.3063C22.2289 10.0995 23.3443 9.89716 23.4537 10.8172C23.3938 12.1194 23.1475 13.414 22.9785 14.7087C22.5495 17.5557 22.0538 20.3929 21.5703 23.2305C21.4038 24.1757 20.2197 24.665 19.4621 24.0602C17.6413 22.8303 15.8066 21.6124 14.0091 20.354C13.4203 19.7557 13.9663 18.8965 14.4922 18.4693C15.9918 16.9914 17.5822 15.7358 19.0034 14.1815C19.3868 13.2557 18.254 14.036 17.8804 14.275C15.8274 15.6898 13.8247 17.1909 11.6602 18.4343C10.5545 19.0429 9.2659 18.5228 8.16078 18.1832C7.16989 17.7729 5.71788 17.3596 6.57225 16.734L6.57235 16.734Z" fill="#171717"/>
</svg>
