<svg width="32" height="32" viewBox="0 0 32 32" fill="none" xmlns="http://www.w3.org/2000/svg">
    <rect x="0.5" y="0.5" width="31" height="31" rx="15.5" fill="white"/>
    <path d="M22.4794 9.89532C21.2711 9.32149 19.9791 8.90446 18.6284 8.66699C18.4625 8.97141 18.2687 9.38086 18.135 9.70658C16.6992 9.4874 15.2765 9.4874 13.867 9.70658C13.7334 9.38086 13.5352 8.97141 13.3678 8.66699C12.0156 8.90446 10.7221 9.32302 9.51381 9.89836C7.0766 13.6366 6.41592 17.2819 6.74626 20.8755C8.36274 22.1008 9.92931 22.8451 11.4694 23.3322C11.8497 22.8009 12.1889 22.2363 12.481 21.6411C11.9246 21.4265 11.3916 21.1617 10.888 20.8542C11.0216 20.7538 11.1523 20.6487 11.2786 20.5407C14.35 21.9988 17.6872 21.9988 20.722 20.5407C20.8497 20.6487 20.9804 20.7538 21.1125 20.8542C20.6075 21.1632 20.0731 21.428 19.5166 21.6427C19.8088 22.2363 20.1465 22.8025 20.5282 23.3337C22.0698 22.8466 23.6378 22.1023 25.2543 20.8755C25.6419 16.7096 24.5922 13.0977 22.4794 9.89532ZM12.8995 18.6655C11.9774 18.6655 11.2213 17.7918 11.2213 16.7279C11.2213 15.664 11.9613 14.7888 12.8995 14.7888C13.8377 14.7888 14.5938 15.6624 14.5776 16.7279C14.5791 17.7918 13.8377 18.6655 12.8995 18.6655ZM19.1011 18.6655C18.1791 18.6655 17.423 17.7918 17.423 16.7279C17.423 15.664 18.1629 14.7888 19.1011 14.7888C20.0393 14.7888 20.7954 15.6624 20.7793 16.7279C20.7793 17.7918 20.0393 18.6655 19.1011 18.6655Z" fill="#171717"/>
    <rect x="0.5" y="0.5" width="31" height="31" rx="15.5" stroke="#DADADA"/>
</svg>
