<svg width="12" height="12" viewBox="0 0 12 12" fill="none" xmlns="http://www.w3.org/2000/svg">
    <path fill-rule="evenodd" clip-rule="evenodd" d="M0 6C0 9.3138 2.6862 12 6 12C9.3138 12 12 9.3138 12 6C12 2.6862 9.3138 0 6 0C2.6862 0 0 2.6862 0 6ZM10.8001 6.00008C10.8001 8.65105 8.65105 10.8001 6.00008 10.8001C3.34912 10.8001 1.20008 8.65105 1.20008 6.00008C1.20008 3.34912 3.34912 1.20008 6.00008 1.20008C8.65105 1.20008 10.8001 3.34912 10.8001 6.00008ZM6.6 7.79992V8.99992H5.4V7.79992H6.6ZM6.60006 7.19994V6.81294C7.58624 6.519 8.21428 5.55392 8.08364 4.53319C7.953 3.51246 7.10215 2.73666 6.07373 2.70056C5.04531 2.66445 4.14215 3.37869 3.94026 4.38774L5.11746 4.62354C5.21038 4.15865 5.64801 3.84555 6.11801 3.90771C6.58801 3.96988 6.9292 4.38598 6.89806 4.85905C6.86693 5.33211 6.47415 5.69991 6.00006 5.69994C5.66869 5.69994 5.40006 5.96857 5.40006 6.29994V7.19994H6.60006Z" fill="#757575"/>
</svg>
