<svg width="84" height="47" viewBox="0 0 84 47" fill="none" xmlns="http://www.w3.org/2000/svg">
    <g clip-path="url(#clip0_1197_117783)">
        <path d="M55.5411 41.9774C55.3973 42.1918 55.3204 42.436 55.2808 42.6927C55.3328 42.6728 55.3824 42.6504 55.4345 42.6304C56.0617 42.3837 56.7113 42.1793 57.3732 42.0472C58.0178 41.9201 58.6797 41.8877 59.2946 41.6384C59.4929 41.5587 59.6838 41.454 59.8623 41.3294C59.1185 41.0153 58.3103 40.8957 57.4848 41.0153C56.803 41.115 55.9501 41.3668 55.5411 41.9774Z" fill="#0C0C0C"/>
        <path d="M44.0978 0.221827C43.6912 0.0897278 43.2673 0.0224319 42.8334 -1.58351e-07C40.9641 1.24124 39.1667 2.58965 37.456 4.04773C35.1876 5.98436 33.0009 8.09296 31.1068 10.4035C30.6581 10.9518 30.2094 11.5575 29.8598 12.208C31.4564 11.0415 33.8612 10.0819 34.5827 12.1656C34.7636 12.689 33.9405 12.9109 33.762 12.3924C33.3679 11.2559 31.5704 12.0983 30.9159 12.4697C30.2664 12.8386 29.7284 13.3271 29.2574 13.9028C29.2549 13.9053 29.2524 13.9078 29.2499 13.9103C29.2202 14.0873 29.2003 14.2667 29.1954 14.4462C29.1681 15.2837 29.4805 16.2059 30.4226 16.3081C31.1663 16.3903 31.925 16.0289 32.5795 15.7173C35.4826 14.334 38.0461 12.1656 40.6418 10.2888C41.1823 9.89749 41.7227 9.50867 42.2607 9.11736L43.3243 7.91351C44.4226 6.67227 46.1803 5.24909 46.4282 3.50438C46.6514 1.95158 45.501 0.67296 44.0978 0.216842L44.0978 0.221827Z" fill="#0C0C0C"/>
        <path d="M52.9757 22.4271C52.6832 20.2711 50.0329 20.8369 48.6099 21.2631C48.5529 21.2806 48.5008 21.283 48.4537 21.2806C48.2603 21.6295 48.1438 22.0183 48.1488 22.4545C48.1661 24.3064 50.3577 24.5157 51.7337 24.3861C54.8847 24.0895 58.0184 23.5013 61.1298 22.8034C61.9678 22.4994 62.8057 22.1928 63.6387 21.8713C64.9106 21.3803 66.2022 20.7945 67.1617 19.7926C68.9368 17.9357 69.1202 14.9024 66.8022 13.4169C66.2568 13.068 65.6543 12.8611 65.0321 12.7539C62.6446 13.4867 60.3018 14.3565 58.0209 15.3809C55.4971 16.5125 53.0427 17.8136 50.6949 19.2816C50.2908 19.5358 49.8495 19.82 49.4479 20.1515C50.3156 19.9471 51.2155 19.8574 52.0609 20.1789C52.9534 20.5179 53.6674 21.2332 53.7988 22.2052C53.8732 22.7461 53.0501 22.9754 52.9782 22.4321L52.9757 22.4271Z" fill="#0C0C0C"/>
        <path d="M43.2467 16.9664C42.7112 14.9525 40.2717 16.4031 39.3569 17.1458C39.2701 17.2181 39.1734 17.2455 39.0817 17.2455C38.7668 17.7789 38.5239 18.3572 38.5834 18.9778C38.6776 19.9498 39.4883 20.2888 40.3634 20.2464C41.8014 20.1791 43.3013 19.6109 44.6326 19.0974C48.3886 17.6493 51.7727 15.4285 55.3278 13.5717C55.6353 13.3424 55.9427 13.1106 56.2476 12.8788C57.3261 12.0588 58.5136 11.2662 59.4011 10.2268C60.1796 9.31458 60.7523 8.17553 60.4573 6.94676C60.1771 5.78279 59.1607 4.96277 58.045 4.66119C56.6815 4.28981 55.2857 4.71103 53.994 5.15469C53.2751 5.40144 52.5586 5.65318 51.8421 5.90741C49.8215 7.15363 47.8332 8.45219 45.9565 9.90778C43.8665 11.5279 41.908 13.3598 40.3015 15.4709C40.8345 15.2017 41.4097 15.0422 42.0294 15.102C42.9864 15.1942 43.8145 15.785 44.0673 16.7321C44.2087 17.2655 43.388 17.4923 43.2467 16.9589L43.2467 16.9664ZM53.3594 11.817C53.3445 11.5777 53.5056 11.3983 53.7461 11.3858C54.0858 11.3684 54.3461 11.5702 54.3609 11.8594C54.3709 12.1036 54.1701 12.3304 53.9221 12.3479C53.6197 12.3703 53.3817 12.1435 53.3594 11.8145L53.3594 11.817ZM49.4745 15.3912C49.2414 15.2989 49.1373 15.1294 49.1447 14.8777C49.1522 14.601 49.291 14.3792 49.529 14.3219C49.6902 14.2845 49.8662 14.2745 50.0298 14.2945C50.3397 14.3319 50.5182 14.5362 50.5356 14.8254C50.5529 15.1145 50.3992 15.3363 50.1091 15.426C50.0174 15.4535 49.9207 15.4659 49.8116 15.4884C49.7025 15.4584 49.5835 15.436 49.472 15.3912L49.4745 15.3912Z" fill="#0C0C0C"/>
        <path d="M47.9176 45.9059C50.2233 45.2155 52.2661 44.0117 54.4404 43.0471C54.5445 41.7087 55.1817 40.7416 56.689 40.3104C57.9683 39.944 59.3368 40.101 60.5119 40.6843C60.8268 40.2331 60.978 39.6823 60.8466 39.0941C60.5789 37.8927 59.3269 37.2796 58.2757 36.9207C57.0088 36.487 55.6378 36.3873 54.309 36.4521C51.1926 36.6016 48.1457 37.5662 45.007 37.2272C44.8781 37.2123 44.7517 37.1973 44.6228 37.1799C43.2295 37.2098 41.8411 37.0827 40.4825 36.806C40.4726 37.0079 40.2817 37.1749 40.0933 37.1425C39.9321 37.1151 39.8082 36.9481 39.8181 36.7686C39.8181 36.7312 39.8305 36.6964 39.8454 36.664C38.219 36.2726 36.6398 35.662 35.1473 34.8345C34.6663 34.5678 35.0977 33.8275 35.5762 34.0942C37.7678 35.313 40.1801 36.0483 42.6469 36.2677C51.4083 34.0569 60.6136 34.2712 69.5709 33.2618C72.1567 32.9701 74.7375 32.5863 77.2787 32.0131C78.558 31.7239 79.8323 31.3924 81.0843 30.9936C82.1057 30.6671 83.1693 30.226 83.7072 29.2265C84.1907 28.3267 84.0642 27.2301 83.3354 26.5072C82.609 25.7844 81.5429 25.5651 80.5785 25.3782C77.8439 24.8423 75.0549 24.6255 72.2707 24.5906C69.0503 24.5507 65.8298 24.7476 62.6167 24.9345C61.0325 25.0267 59.4459 25.1165 57.8592 25.1763C57.0956 25.2037 56.3295 25.2261 55.5659 25.2361C55.5163 25.2361 55.0304 25.2286 54.5222 25.2062C55.0899 24.9993 55.6577 24.79 56.2254 24.5831C55.1569 24.7675 54.0834 24.937 53.0099 25.0816C51.5794 25.2735 49.9952 25.5327 48.6787 24.765C47.6945 24.1893 47.159 23.1574 47.3226 22.0208C47.5061 20.7372 48.4234 19.7926 49.4349 19.0748C52.0207 17.2403 54.9734 15.7872 57.8617 14.5111C59.2946 13.878 60.7499 13.2998 62.2226 12.7764C60.7673 12.9608 59.3145 13.2375 57.879 13.5266C57.5394 13.5939 57.2022 13.6662 56.865 13.7385C54.7056 14.7878 52.6281 16.0166 50.5282 17.178C47.6697 18.7607 44.6699 20.2961 41.4469 20.9541C40.304 21.1884 38.8314 21.2681 38.0975 20.154C37.2472 18.8629 37.9711 17.36 38.7198 16.2284C41.1817 12.5147 44.5856 9.68076 48.2449 7.20577C46.9458 7.67933 45.6492 8.16286 44.355 8.65138L38.4744 12.901C36.9993 13.9678 35.5415 15.0769 33.9523 15.9667C32.8392 16.5898 31.3343 17.4522 30.0055 17.1182C28.7708 16.8067 28.2725 15.5056 28.3419 14.3317C28.4287 12.886 29.1551 11.5626 30.003 10.431C32.0012 7.75909 34.5399 5.39127 37.0786 3.25026C38.4 2.13365 39.771 1.08183 41.1866 0.0898419C40.366 0.199509 39.5503 0.376473 38.7967 0.49611C35.0779 1.08682 31.4855 1.94173 28.1014 3.64407C24.762 5.32397 21.6431 7.34285 18.202 8.82585C16.0352 9.76052 13.7717 10.8397 12.0809 12.4648C11.0818 14.374 10.4521 16.4752 10.2537 18.6536C10.2661 18.6436 10.2785 18.6336 10.2884 18.6311C10.405 18.5962 10.5314 18.6236 10.5562 18.7632C10.5686 18.828 10.4967 18.9078 10.4372 19.0399C10.343 18.9452 10.276 18.8804 10.2215 18.8156C10.0678 19.2368 9.35378 19.1994 9.39841 18.6959C9.41328 18.5339 9.43312 18.3719 9.45295 18.2099C9.32651 18.1625 9.22486 18.0354 9.22734 17.9008C9.22734 17.7388 9.36618 17.6042 9.53724 17.5843C9.80747 15.7997 10.3455 14.0799 11.1264 12.4773C7.84644 12.4 4.56647 12.4648 1.28897 12.6767C0.800575 12.7091 0.475799 13.0456 0.436126 13.5341C-0.196069 21.3603 -0.144006 29.2265 0.594794 37.0428C0.646857 37.6011 1.12038 37.8753 1.55672 37.8603C1.68812 37.965 1.85918 38.0323 2.07735 38.0298C7.04069 37.9899 12.004 37.9525 16.9699 37.9127C16.3129 36.2726 15.8518 34.5528 15.6088 32.7782C15.5344 32.2374 16.355 32.0081 16.4294 32.5514C16.6848 34.4033 17.1756 36.2004 17.8872 37.9052C18.0632 37.9052 18.2392 37.9027 18.4152 37.9002C24.3107 43.2689 31.7012 46.8705 39.8528 46.9951C42.5675 47.035 45.312 46.6861 47.9151 45.9059L47.9176 45.9059ZM32.6979 3.79361C32.7053 3.65653 32.7772 3.57428 32.9111 3.55434C33.0573 3.53191 33.1838 3.64905 33.1937 3.80109C33.2036 3.95064 33.0871 4.07775 32.9408 4.07775C32.7945 4.07775 32.6904 3.95811 32.7003 3.79112L32.6979 3.79361ZM29.5592 4.83047C29.5146 4.70834 29.6782 4.5563 29.8195 4.59369C29.8865 4.61113 29.9881 4.72828 29.9757 4.77314C29.9484 4.86536 29.8567 4.93764 29.7625 5.0523C29.6708 4.95509 29.5865 4.90275 29.5592 4.83047ZM22.6547 7.48243C22.615 7.46249 22.5976 7.37774 22.5902 7.32042C22.5902 7.30297 22.6745 7.25312 22.6968 7.26309C22.7489 7.28802 22.7836 7.34285 22.8555 7.41264C22.7613 7.44753 22.6894 7.49987 22.6547 7.48243ZM20.1779 16.7967C20.1779 16.6496 20.2845 16.5948 20.4035 16.5724C20.5573 16.5449 20.711 16.6671 20.6787 16.8042C20.6564 16.8989 20.5622 16.9761 20.5225 17.031C20.3093 17.0509 20.1779 16.9437 20.1779 16.7967ZM4.29623 14.2768C4.32846 14.2045 4.41275 14.1298 4.48713 14.1098C4.58878 14.0849 4.69538 14.2295 4.67555 14.4039C4.63093 14.4264 4.5615 14.4887 4.48465 14.5011C4.36069 14.5186 4.24665 14.3815 4.29623 14.2768ZM0.143584 19.825C0.09896 19.7602 0.208045 19.653 0.304732 19.653C0.436126 19.653 0.545211 19.7428 0.530341 19.8574C0.522903 19.9122 0.458442 19.9596 0.393981 20.0468C0.297294 19.9646 0.200606 19.9073 0.143584 19.825ZM3.37645 20.5104C3.26736 20.4705 3.22027 20.3335 3.28224 20.2138C3.33183 20.1166 3.42603 20.0742 3.51281 20.1366C3.57727 20.1814 3.63924 20.2786 3.63924 20.3509C3.63924 20.4681 3.48553 20.5478 3.37645 20.5079L3.37645 20.5104ZM49.7101 31.1108C49.6704 31.0535 49.5812 30.9737 49.5588 30.8765C49.5266 30.7419 49.6729 30.6397 49.844 30.6472C49.9729 30.6547 50.0745 30.7569 50.0621 30.8715C50.0472 31.0186 49.9159 31.1282 49.7101 31.1108ZM23.0761 30.7643C23.1207 30.7145 23.1778 30.6023 23.2695 30.56C23.3934 30.5001 23.5521 30.6198 23.5868 30.7643C23.6141 30.874 23.5248 31.0011 23.4034 31.0285C23.2546 31.0609 23.1059 30.9662 23.0761 30.7618L23.0761 30.7643ZM68.4255 27.4718C68.247 28.3915 68.3635 29.3112 68.7676 30.1562C69.0056 30.6497 68.2693 31.0859 68.0313 30.5874C67.5206 29.5231 67.3768 28.404 67.6024 27.245C67.709 26.7041 68.5296 26.9335 68.423 27.4718L68.4255 27.4718ZM33.5631 21.637C33.5631 21.637 33.4986 21.7292 33.4813 21.7218C33.4267 21.7018 33.3796 21.6594 33.3276 21.6221C33.3747 21.5672 33.4044 21.5373 33.4317 21.5049C33.4763 21.5473 33.5259 21.5872 33.5606 21.637L33.5631 21.637ZM6.51511 22.3399C6.5275 22.1903 6.63163 22.0732 6.7779 22.0483C6.89194 22.0283 6.99112 22.1305 6.9936 22.2701C6.99608 22.4421 6.9093 22.5418 6.74815 22.5492C6.62171 22.5567 6.50767 22.4545 6.51758 22.3399L6.51511 22.3399ZM17.4905 23.3668C17.4831 23.1898 17.6144 23.0253 17.7706 23.0178C17.907 23.0103 18.0409 23.1275 18.0607 23.2721C18.0855 23.4366 17.9491 23.5587 17.7434 23.5587C17.6045 23.5587 17.4979 23.4764 17.493 23.3668L17.4905 23.3668ZM8.25054 25.8841C8.22822 25.7919 8.26046 25.7022 8.37698 25.6997C8.41169 25.6997 8.47615 25.747 8.47615 25.772C8.47615 25.8492 8.44888 25.924 8.41913 26.0586C8.3274 25.9664 8.26294 25.9315 8.25054 25.8816L8.25054 25.8841ZM10.2314 26.1483C10.1719 26.1259 10.1322 26.0561 10.0876 26.0038C10.0752 25.9888 10.0802 25.9589 10.0777 25.9365C10.1174 25.7695 10.3876 25.6474 10.5413 25.7271C10.5612 25.7371 10.5909 25.762 10.5884 25.7795C10.581 25.8692 10.5884 25.9739 10.5438 26.0461C10.4793 26.1608 10.3529 26.1932 10.2314 26.1508L10.2314 26.1483ZM6.63659 26.6044C6.65394 26.435 6.80269 26.3103 6.97871 26.3178C7.15226 26.3253 7.29109 26.4773 7.27622 26.6418C7.26134 26.8088 7.11507 26.931 6.93409 26.9235C6.75311 26.916 6.61924 26.7714 6.63659 26.602L6.63659 26.6044ZM16.6426 27.1004C16.6699 27.0705 16.6947 27.0356 16.7244 27.0132C16.7319 27.0057 16.7814 27.0307 16.7814 27.0406C16.7814 27.078 16.7666 27.1154 16.7567 27.1503C16.7195 27.1353 16.6798 27.1179 16.6426 27.1004ZM19.454 21.8738C18.9111 21.8289 18.9086 20.9715 19.454 21.0164C25.8677 21.5573 32.0954 23.5313 37.6364 26.7814C37.691 26.7316 37.7628 26.6942 37.8645 26.6742C37.9612 26.7365 38.0901 26.8014 38.1942 26.8961C38.3207 27.0107 38.4025 27.1353 38.4446 27.2649C39.2652 27.7709 40.071 28.3043 40.8594 28.8676C41.3031 29.1841 40.8767 29.9269 40.4305 29.6078C39.6842 29.0745 38.9206 28.566 38.1422 28.0825C37.9116 28.2121 37.4282 28.0326 37.3612 27.7859C37.3439 27.7211 37.3364 27.6563 37.3339 27.594C31.8896 24.3812 25.771 22.4072 19.459 21.8738L19.454 21.8738ZM16.5732 28.3168C16.5137 28.1049 16.6005 27.9354 16.7418 27.7958C16.893 27.6438 17.0864 27.6264 17.2773 27.7011C17.4806 27.7809 17.55 27.9578 17.5549 28.1647C17.5599 28.5336 17.3888 28.7853 17.1161 28.8078C16.888 28.8277 16.6575 28.6208 16.5732 28.3168ZM20.4878 29.401C20.4978 29.2714 20.6391 29.1567 20.8002 29.1492C21.0159 29.1393 21.1944 29.2788 21.2167 29.4733C21.2366 29.6602 21.0556 29.8546 20.8622 29.8546C20.6539 29.8546 20.4705 29.6353 20.4878 29.401ZM40.1949 30.2359C40.1776 30.0914 40.2966 29.9543 40.4429 29.9443C40.5594 29.9368 40.6561 30.0341 40.6635 30.1736C40.6709 30.3007 40.6412 30.4154 40.5024 30.4578C40.366 30.5001 40.2123 30.388 40.1949 30.2384L40.1949 30.2359ZM9.60666 30.3905C9.80747 30.4004 9.96367 30.555 9.97358 30.7519C9.98102 30.9114 9.84962 31.0086 9.62649 31.0111C9.42072 31.0111 9.30668 30.9064 9.31164 30.722C9.31908 30.53 9.45047 30.3855 9.60666 30.393L9.60666 30.3905ZM4.38548 31.5345C4.43259 31.4049 4.49705 31.2529 4.60117 31.1756C4.85653 30.9862 5.159 30.8964 5.53583 30.9014C5.59285 30.9413 5.73169 30.9862 5.76887 31.0759C5.80854 31.1631 5.78126 31.3202 5.72424 31.4024C5.64739 31.5146 5.52344 31.6217 5.39699 31.6616C5.1466 31.7414 4.88132 31.7813 4.62101 31.8261C4.48713 31.8485 4.33341 31.6666 4.383 31.5345L4.38548 31.5345ZM59.2302 31.9283C59.2624 31.9134 59.2971 31.8959 59.3293 31.881C59.3368 31.8984 59.3541 31.9333 59.3517 31.9333C59.3194 31.9532 59.2872 31.9682 59.2525 31.9831C59.245 31.9657 59.2351 31.9458 59.2277 31.9283L59.2302 31.9283ZM8.2555 35.6645C8.26046 35.7118 8.18856 35.7642 8.12906 35.8414C8.07204 35.7642 8.00014 35.7093 8.00262 35.6645C8.00758 35.6146 8.08443 35.5723 8.12906 35.5274C8.17369 35.5723 8.25054 35.6171 8.25302 35.667L8.2555 35.6645ZM8.90505 34.3111C8.76126 34.3385 8.68192 34.3709 8.61251 34.3584C8.5778 34.351 8.55796 34.2612 8.53069 34.2064C8.59019 34.184 8.65217 34.1391 8.70919 34.1466C8.75877 34.1541 8.80092 34.2189 8.90752 34.3086L8.90505 34.3111ZM6.47048 33.4587C6.54486 33.7129 6.49775 33.9372 6.30685 34.1241C6.0986 34.326 5.85564 34.3908 5.65235 34.2936C5.39203 34.1715 5.23337 33.9596 5.20609 33.678C5.18378 33.4412 5.32509 33.2593 5.52591 33.1521C5.64987 33.0873 5.79862 33.0748 5.87299 33.0549C6.22752 33.0674 6.39611 33.197 6.47296 33.4587L6.47048 33.4587ZM32.388 36.7138C32.3533 36.7437 32.3185 36.7711 32.2838 36.801C32.2566 36.7512 32.2293 36.6988 32.1995 36.649C32.2417 36.634 32.2888 36.5991 32.321 36.6091C32.3508 36.6166 32.3632 36.6789 32.3855 36.7138L32.388 36.7138ZM22.1191 36.7088C22.1167 36.5742 22.2605 36.4496 22.4117 36.4571C22.5951 36.4646 22.7216 36.5967 22.7216 36.7811C22.7216 36.9282 22.5951 37.0403 22.4365 37.0353C22.2654 37.0278 22.1216 36.8783 22.1191 36.7113L22.1191 36.7088ZM29.3881 36.7686C29.3881 36.6041 29.5245 36.4646 29.703 36.4546C29.9137 36.4421 30.06 36.5792 30.065 36.7961C30.0674 37.0104 29.9137 37.1749 29.7228 37.1599C29.5418 37.1475 29.3906 36.9705 29.3881 36.7686ZM38.8958 38.4161C38.8958 38.0622 39.0917 37.8204 39.3818 37.8204C39.7313 37.8204 40.0115 38.1021 40.0288 38.4635C40.0437 38.78 39.8206 39.0318 39.5181 39.0417C39.1289 39.0542 38.8958 38.8199 38.8958 38.4161ZM50.5902 43.4309C50.4662 43.3985 50.372 43.3238 50.3745 43.1792C50.3745 43.0371 50.5307 42.9324 50.6869 42.9599C50.8406 42.9873 50.967 43.1343 50.9422 43.259C50.9174 43.3836 50.7464 43.4733 50.5877 43.4309L50.5902 43.4309ZM44.4393 46.2873C44.3501 46.1527 44.298 45.9932 44.2187 45.8137C44.303 45.7165 44.3575 45.6019 44.4492 45.5545C44.6129 45.4648 44.7963 45.5146 44.9079 45.6367C45.1137 45.8611 45.0442 46.2275 44.7616 46.367C44.6401 46.4269 44.5087 46.392 44.4393 46.2873Z" fill="#0C0C0C"/>
    </g>
    <defs>
        <clipPath id="clip0_1197_117783">
            <rect width="47" height="84" fill="white" transform="translate(84) rotate(90)"/>
        </clipPath>
    </defs>
</svg>
