<svg width="34" height="34" viewBox="0 0 34 34" fill="none" xmlns="http://www.w3.org/2000/svg">
    <path d="M1 17C1 8.16344 8.16344 1 17 1C25.8366 1 33 8.16344 33 17C33 25.8366 25.8366 33 17 33C8.16344 33 1 25.8366 1 17Z" fill="white" stroke="#DADADA"/>
    <path d="M17.0678 13.7827L17.1044 14.3774L16.4947 14.3046C14.2756 14.0255 12.3369 13.0788 10.6908 11.4888L9.88605 10.6998L9.67877 11.2824C9.23982 12.5811 9.52026 13.9526 10.4347 14.8751C10.9225 15.3848 10.8127 15.4577 9.9714 15.1542C9.67877 15.0571 9.42271 14.9843 9.39833 15.0207C9.31298 15.1057 9.60561 16.2102 9.83728 16.6471C10.1543 17.254 10.8005 17.8487 11.5077 18.2007L12.1052 18.4798L11.398 18.492C10.7152 18.492 10.6908 18.5041 10.764 18.759C11.0078 19.5479 11.9711 20.3854 13.0441 20.7495L13.8 21.0044L13.1416 21.3928C12.1662 21.9511 11.02 22.2667 9.87386 22.2909C9.32517 22.3031 8.87402 22.3516 8.87402 22.388C8.87402 22.5094 10.3616 23.1891 11.2273 23.4561C13.8244 24.245 16.9093 23.9052 19.226 22.558C20.8721 21.5991 22.5181 19.6936 23.2863 17.8487C23.7009 16.8656 24.1154 15.0693 24.1154 14.2075C24.1154 13.6492 24.152 13.5764 24.8348 12.9088C25.2372 12.5204 25.6152 12.0956 25.6883 11.9743C25.8103 11.7437 25.7981 11.7437 25.1762 11.95C24.1398 12.3141 23.9935 12.2656 24.5056 11.7194C24.8836 11.331 25.3347 10.627 25.3347 10.4207C25.3347 10.3843 25.1518 10.445 24.9446 10.5542C24.7251 10.6756 24.2374 10.8576 23.8716 10.9669L23.2131 11.1732L22.6157 10.7727C22.2865 10.5542 21.8231 10.3115 21.5793 10.2386C20.9574 10.0687 20.0063 10.093 19.4455 10.2872C17.9213 10.8334 16.9581 12.2413 17.0678 13.7827Z" fill="#171717" stroke="black"/>
</svg>
