<svg width="24" height="24" viewBox="0 0 24 24" fill="none" xmlns="http://www.w3.org/2000/svg">
    <path d="M17.25 9.75V12.75C17.25 12.9489 17.171 13.1397 17.0303 13.2803C16.8897 13.421 16.6989 13.5 16.5 13.5H9.31031L10.2806 14.4694C10.3503 14.5391 10.4056 14.6218 10.4433 14.7128C10.481 14.8039 10.5004 14.9015 10.5004 15C10.5004 15.0985 10.481 15.1961 10.4433 15.2872C10.4056 15.3782 10.3503 15.4609 10.2806 15.5306C10.2109 15.6003 10.1282 15.6556 10.0372 15.6933C9.94613 15.731 9.84855 15.7504 9.75 15.7504C9.65145 15.7504 9.55387 15.731 9.46283 15.6933C9.37178 15.6556 9.28906 15.6003 9.21937 15.5306L6.96937 13.2806C6.89964 13.211 6.84432 13.1283 6.80658 13.0372C6.76884 12.9462 6.74941 12.8486 6.74941 12.75C6.74941 12.6514 6.76884 12.5538 6.80658 12.4628C6.84432 12.3717 6.89964 12.289 6.96937 12.2194L9.21937 9.96937C9.36011 9.82864 9.55098 9.74958 9.75 9.74958C9.94902 9.74958 10.1399 9.82864 10.2806 9.96937C10.4214 10.1101 10.5004 10.301 10.5004 10.5C10.5004 10.699 10.4214 10.8899 10.2806 11.0306L9.31031 12H15.75V9.75C15.75 9.55109 15.829 9.36032 15.9697 9.21967C16.1103 9.07902 16.3011 9 16.5 9C16.6989 9 16.8897 9.07902 17.0303 9.21967C17.171 9.36032 17.25 9.55109 17.25 9.75ZM21.75 5.25V18.75C21.75 19.1478 21.592 19.5294 21.3107 19.8107C21.0294 20.092 20.6478 20.25 20.25 20.25H3.75C3.35218 20.25 2.97064 20.092 2.68934 19.8107C2.40804 19.5294 2.25 19.1478 2.25 18.75V5.25C2.25 4.85218 2.40804 4.47064 2.68934 4.18934C2.97064 3.90804 3.35218 3.75 3.75 3.75H20.25C20.6478 3.75 21.0294 3.90804 21.3107 4.18934C21.592 4.47064 21.75 4.85218 21.75 5.25ZM20.25 18.75V5.25H3.75V18.75H20.25Z" fill="#2832F5"/>
</svg>
