<svg width="24" height="24" viewBox="0 0 24 24" fill="none" xmlns="http://www.w3.org/2000/svg">
    <path d="M5.25 3C4.65326 3 4.08097 3.23705 3.65901 3.65901C3.23705 4.08097 3 4.65326 3 5.25V7.0395C3 7.8195 3.405 8.5425 4.0665 8.952L9.8655 12.537C8.98346 13.0122 8.28524 13.7683 7.88151 14.6853C7.47778 15.6022 7.39162 16.6277 7.63669 17.5992C7.88176 18.5707 8.44403 19.4327 9.23441 20.0484C10.0248 20.6642 10.9981 20.9986 12 20.9986C13.0019 20.9986 13.9752 20.6642 14.7656 20.0484C15.556 19.4327 16.1182 18.5707 16.3633 17.5992C16.6084 16.6277 16.5222 15.6022 16.1185 14.6853C15.7148 13.7683 15.0165 13.0122 14.1345 12.537L19.9335 8.952C20.2594 8.75042 20.5285 8.46894 20.7151 8.13424C20.9018 7.79955 20.9998 7.42272 21 7.0395V5.25C21 4.65326 20.7629 4.08097 20.341 3.65901C19.919 3.23705 19.3467 3 18.75 3H5.25ZM4.5 5.25C4.5 5.05109 4.57902 4.86032 4.71967 4.71967C4.86032 4.57902 5.05109 4.5 5.25 4.5H7.5V9.312L4.8555 7.677C4.74686 7.60981 4.65718 7.51598 4.59496 7.40442C4.53275 7.29285 4.50006 7.16724 4.5 7.0395V5.25ZM9 10.239V4.5H15V10.239L12.3945 11.85C12.276 11.9233 12.1394 11.9621 12 11.9621C11.8606 11.9621 11.724 11.9233 11.6055 11.85L9 10.239ZM16.5 9.312V4.5H18.75C18.9489 4.5 19.1397 4.57902 19.2803 4.71967C19.421 4.86032 19.5 5.05109 19.5 5.25V7.0395C19.4999 7.16724 19.4673 7.29285 19.405 7.40442C19.3428 7.51598 19.2531 7.60981 19.1445 7.677L16.5 9.312ZM9 16.5C9 15.7044 9.31607 14.9413 9.87868 14.3787C10.4413 13.8161 11.2044 13.5 12 13.5C12.7956 13.5 13.5587 13.8161 14.1213 14.3787C14.6839 14.9413 15 15.7044 15 16.5C15 17.2956 14.6839 18.0587 14.1213 18.6213C13.5587 19.1839 12.7956 19.5 12 19.5C11.2044 19.5 10.4413 19.1839 9.87868 18.6213C9.31607 18.0587 9 17.2956 9 16.5Z" fill="#2832F5"/>
</svg>
