<svg width="95" height="107" viewBox="0 0 95 107" fill="none" xmlns="http://www.w3.org/2000/svg">
    <g clip-path="url(#clip0_1459_95168)">
        <path d="M21.3652 59.4192C23.8095 59.8858 26.4752 59.8769 28.9505 59.8458C33.5424 59.7925 38.0901 59.1615 42.527 58.0016C42.4473 57.9661 42.372 57.9172 42.2967 57.8416C42.0266 57.5661 41.7521 57.2995 41.4687 57.0328C40.003 56.0196 38.6214 54.9042 37.3196 53.7044C35.2118 52.2512 32.9668 50.9936 30.6819 49.8249C29.6812 49.3138 28.6715 48.8205 27.6619 48.3273C26.6258 47.8251 25.532 47.1585 24.3852 46.9674C21.5202 46.4964 20.7896 50.5225 20.329 52.5801C20.0412 53.8644 19.8508 55.1664 19.7755 56.4818C19.6958 57.895 19.7578 59.1081 21.3652 59.4148V59.4192Z" fill="#0C0C0C"/>
        <path d="M38.1519 52.5713C39.6353 53.5934 41.0478 54.7133 42.3674 55.9531C42.6596 56.1531 42.9519 56.3486 43.2486 56.5397C43.6382 56.7886 43.6427 57.2285 43.4523 57.5352C43.4213 57.6329 43.3681 57.7218 43.2973 57.7973C43.656 57.6996 44.0146 57.5974 44.3689 57.4907C44.4663 57.4641 44.5504 57.4596 44.6346 57.4685C44.6656 57.4552 44.6921 57.4418 44.7276 57.4285C45.0774 57.313 45.5069 57.5618 45.591 57.9218C45.622 58.0462 45.6486 58.1751 45.6796 58.2995C45.7327 58.535 45.6796 58.7572 45.5423 58.9261C45.5202 61.0814 45.5822 63.2322 45.7504 65.3786C45.8301 66.3741 45.7947 67.5206 46.1268 68.4716C46.6183 69.8714 48.1947 69.1426 49.1291 68.6582C50.2228 68.0938 50.794 67.5073 50.763 66.1741C50.7409 65.2498 50.5903 64.3165 50.4973 63.3967C50.2848 61.2947 50.0678 59.1927 49.8553 57.0908C49.8243 56.8019 49.9483 56.6108 50.1342 56.5086C50.1918 56.402 50.2759 56.3086 50.3822 56.2553C50.4442 56.2242 50.5062 56.1887 50.5682 56.1576C50.7807 56.0465 51.0154 56.042 51.2147 56.1309C56.7719 55.6198 62.2672 54.58 67.6119 52.9891C69.7772 52.3447 72.1639 51.6292 73.6783 49.8339C75.392 47.8075 75.5337 44.9856 75.2813 42.4659C75.1573 41.2127 75.0688 39.6885 74.6082 38.4975C73.9219 36.7111 72.3942 37.7243 71.2207 38.4842C69.1838 39.7951 67.231 41.2439 65.3801 42.8125C62.7587 45.0434 60.3542 47.5142 58.1801 50.1761C57.4229 51.487 56.5195 52.7224 55.4037 53.8512C54.8546 54.4067 53.8405 53.6645 54.3011 52.9979C55.1734 51.7403 56.0989 50.5183 57.0642 49.3317C59.6413 44.839 60.4207 39.3552 61.8332 34.4136C62.6568 31.5473 63.5779 28.6854 64.0296 25.7302C64.5299 22.4506 64.2111 19.3088 63.0598 16.1981C62.5196 14.7405 61.9041 13.2873 61.2133 11.8964C60.6598 10.7899 59.9159 9.48781 58.6317 9.15452C55.2088 8.25686 54.0177 13.0074 53.4774 15.3715C50.6568 27.7033 49.5896 40.3951 50.1962 53.0246C50.2184 53.509 49.8287 53.7312 49.4523 53.6956C49.0538 53.8378 48.487 53.6245 48.4383 53.0602C47.7785 45.2967 47.1231 37.5288 46.4634 29.7653C46.1755 26.3435 45.8833 22.9261 45.5955 19.5043C45.3298 16.3803 45.0951 13.0474 43.3504 10.341C41.9157 8.1191 39.343 6.45264 36.6507 7.33253C32.9179 8.55015 33.8832 12.3941 34.5651 15.3582C37.5231 28.2233 41.7032 40.7995 47.008 52.8824C47.3711 53.709 46.3305 54.3356 45.7947 53.5934C42.2788 48.6874 38.9932 43.6169 35.9821 38.3864C34.6891 36.1467 33.4492 33.8759 32.2537 31.5784C31.1732 29.5031 30.2964 26.9212 28.6005 25.2547C27.5378 24.2149 25.8374 23.5705 24.4957 24.4904C23.5481 25.1436 23.0743 26.3968 23.0167 27.5078C22.8794 30.1208 24.5621 32.7294 25.7045 34.978C28.968 41.3905 32.878 47.6742 38.1563 52.5624L38.1519 52.5713Z" fill="#0C0C0C"/>
        <path d="M17.8588 100.859C18.8595 103.503 21.3393 104.907 23.9563 105.556C27.3437 106.396 30.9925 106.502 34.4597 106.711C42.5276 107.196 50.6177 107.036 58.6812 106.542C62.6045 106.302 66.5544 106.053 70.4599 105.605C73.0725 105.302 76.0216 104.64 77.474 102.192C78.86 99.8631 78.3153 96.9079 77.536 94.1882C74.888 95.0548 72.2046 95.8103 69.4946 96.4591C52.3757 100.552 34.3002 100.356 17.2964 95.8547C17.1857 97.5923 17.2787 99.3165 17.8632 100.859H17.8588Z" fill="#0C0C0C"/>
        <path d="M33.4854 85.9048C33.2818 85.8737 33.1002 85.6782 33.1445 85.496C28.4064 84.9138 23.7304 83.8829 19.2802 82.2297C18.7754 84.9227 18.3414 87.6291 17.9916 90.3487C17.8233 91.633 17.5842 93.0195 17.4248 94.4282C20.985 95.3837 24.5939 96.1613 28.2382 96.7302C44.5645 99.2898 61.4266 97.9167 77.1286 92.824C76.916 92.1307 76.7035 91.4641 76.5264 90.8376C75.747 88.0646 74.9057 85.3138 74.0201 82.5719C73.3869 82.7541 72.7537 82.9274 72.116 83.0919C61.8517 85.7271 50.9011 86.4425 40.3401 86.0559C38.1925 85.9759 36.036 85.8248 33.8928 85.5804C33.9637 85.7449 33.698 85.9315 33.481 85.8959L33.4854 85.9048ZM19.196 91.3219C18.7399 91.2686 18.4256 90.8598 18.4521 90.3487C18.4698 90.0243 18.8108 89.7444 19.1385 89.7888C19.661 89.8599 20.0639 90.2376 20.0374 90.6376C20.0108 91.0864 19.6566 91.3753 19.196 91.3219ZM20.0905 86.3981C19.785 86.3714 19.5149 86.1315 19.5016 85.8693C19.4883 85.6027 19.7761 85.3316 20.0639 85.336C20.3695 85.3405 20.5643 85.5804 20.5422 85.9182C20.5245 86.2026 20.3252 86.4159 20.0905 86.3981ZM21.1045 91.7797C21.0691 91.7308 21.0293 91.6819 20.9938 91.633C21.047 91.6019 21.0957 91.5664 21.1488 91.5441C21.1532 91.5441 21.2064 91.6063 21.202 91.6241C21.1798 91.6819 21.14 91.7308 21.1045 91.7797ZM73.8341 84.9983C73.8562 84.9139 74.0245 84.7939 74.0998 84.8072C74.2371 84.8383 74.4363 84.9361 74.4629 85.0427C74.5647 85.4471 74.4629 85.8382 74.2194 86.3714C73.7854 85.8693 73.719 85.4471 73.8341 84.9983ZM68.4407 84.1139C68.4894 84.2162 68.5558 84.305 68.5691 84.4028C68.5736 84.4383 68.4628 84.4917 68.4009 84.5406C68.3389 84.4517 68.2724 84.3717 68.2282 84.2739C68.2193 84.2562 68.3389 84.1895 68.4407 84.1139ZM63.3307 85.1716C63.344 85.1983 63.3573 85.2249 63.3661 85.2516C63.3484 85.2738 63.3307 85.296 63.313 85.3182C63.3174 85.2694 63.3263 85.2205 63.3307 85.1671V85.1716ZM58.5528 88.8556C58.5794 88.7978 58.6812 88.78 58.7698 88.7267C58.8539 88.7889 58.9735 88.8334 59.031 88.9267C59.1462 89.1044 59.1683 89.3177 59.0133 89.4777C58.9558 89.5355 58.7698 89.5444 58.7034 89.4955C58.482 89.3355 58.4421 89.1 58.5528 88.8556ZM53.3277 95.4548C53.3764 95.5259 53.5225 95.6503 53.5092 95.7481C53.4915 95.8725 53.3498 96.0458 53.2391 96.0636C53.1373 96.0813 52.9513 95.948 52.8981 95.8325C52.814 95.6547 53.0133 95.4548 53.3277 95.4503V95.4548ZM52.0878 89.4511C52.1498 89.5266 52.2915 89.6333 52.3181 89.7621C52.3579 89.9577 52.1852 90.0465 52.0125 90.0465C51.831 90.0465 51.6981 89.9399 51.6937 89.7488C51.6937 89.5577 51.8133 89.4555 52.0878 89.4466V89.4511ZM43.9756 86.767C44.0597 86.767 44.1571 86.7581 44.2191 86.7981C44.6442 87.0647 45.0693 87.0025 45.5298 86.8736C45.8619 86.7803 46.1675 87.1136 46.1675 87.4691C46.1675 87.7402 45.9682 87.9801 45.7247 87.9801C45.6007 87.9801 45.4678 87.9801 45.3571 87.9357C45.0073 87.7979 44.7239 87.8913 44.4317 88.1046C44.2767 88.2157 44.0553 88.2823 43.8649 88.2868C43.4796 88.2912 43.1387 87.9135 43.1564 87.5624C43.1785 87.158 43.5859 86.7581 43.9711 86.767H43.9756ZM40.6457 86.4959C40.8626 86.3581 41.1195 86.2648 41.332 86.4559C41.5003 86.607 41.5977 86.8381 41.673 86.9536C41.6553 87.6157 41.2922 88.0335 40.7785 88.0779C40.5482 88.1001 40.2693 87.9046 40.2117 87.6868C40.0877 87.2069 40.2427 86.7536 40.6457 86.5003V86.4959ZM37.6301 88.8689C38.0552 88.8734 38.3829 89.22 38.3873 89.6599C38.3873 90.0688 38.0774 90.3709 37.6921 90.3354C37.3157 90.2998 37.0943 90.011 37.0899 89.5533C37.0855 89.1578 37.3157 88.8645 37.6301 88.8689ZM36.6161 90.642C36.6648 90.6865 36.7091 90.7309 36.7578 90.7753C36.7047 90.8109 36.6515 90.8553 36.594 90.882C36.5807 90.8864 36.5098 90.8242 36.5143 90.8153C36.5408 90.7531 36.5807 90.6998 36.6161 90.642ZM34.774 89.7755C35.0618 89.7755 35.3054 90.0199 35.3231 90.3354C35.3408 90.6242 35.084 90.9042 34.7962 90.9131C34.5128 90.922 34.2382 90.6465 34.2427 90.3576C34.2471 90.0554 34.4995 89.7755 34.7696 89.771L34.774 89.7755Z" fill="#0C0C0C"/>
        <path d="M0.402925 20.7085C0.451634 20.6774 0.509199 20.6508 0.57562 20.6419C0.695178 20.6241 0.819164 20.6197 0.903298 20.6108C1.18669 20.6285 1.4391 20.6285 1.52766 20.9352C1.60736 21.224 1.50994 21.464 1.21769 21.664C1.014 21.8017 0.797024 21.9395 0.544623 21.784C0.522483 21.7706 0.504771 21.7528 0.48263 21.7351C1.24869 30.8673 2.84722 39.9595 4.80001 48.9095C5.80961 53.5444 6.90777 58.1616 8.05907 62.7611C8.97569 66.4317 10.003 70.1068 11.6724 73.5108C12.6731 75.555 13.944 77.4526 15.4938 79.0879C19.0097 80.8077 22.7337 82.0742 26.564 82.9541C36.9213 85.3271 47.9295 85.0872 58.4462 84.0295C63.5518 83.514 68.6485 82.643 73.5769 81.2254C73.5194 81.0477 73.4618 80.8655 73.3998 80.6877C75.0648 79.5679 76.619 78.2747 78.0404 76.7904C82.163 72.4754 84.9128 67.0894 86.9054 61.4723C86.7062 61.3301 86.5911 61.0457 86.6265 60.7302C86.6575 60.4813 86.8922 60.2947 87.149 60.3125C87.1977 60.3125 87.2508 60.3258 87.2951 60.3436C87.7335 59.0415 88.1365 57.7261 88.504 56.4152C91.0236 47.443 92.352 38.1686 93.2819 28.9075C93.7601 24.1437 94.1232 19.3665 94.4819 14.5937C94.8317 9.93654 95.2302 5.24823 94.8273 0.577706C94.8184 0.466608 94.8051 0.359955 94.7963 0.248858C89.4914 0.368843 84.1822 0.471052 78.8773 0.542155C52.7472 0.915441 26.6083 0.724354 0.48263 0C-0.168297 6.89692 -0.124017 13.8161 0.402925 20.7085ZM7.45243 55.6508C7.42586 55.4642 7.62955 55.2909 7.87309 55.3176C8.09007 55.3398 8.27605 55.4242 8.30262 55.6775C8.32476 55.8997 8.15649 56.1041 7.95723 56.0997C7.68711 56.0908 7.49671 55.9175 7.45243 55.6464V55.6508ZM8.29376 57.8017C8.19634 57.7972 8.05465 57.7173 8.01479 57.6328C7.93952 57.4595 8.0325 57.2817 8.21406 57.264C8.33804 57.2506 8.47531 57.3706 8.5683 57.4106C8.58601 57.6995 8.47531 57.8106 8.29376 57.8017ZM8.76757 61.1035C8.57716 61.1035 8.51959 60.9346 8.56387 60.7658C8.60373 60.5924 8.741 60.4813 8.90484 60.5391C9.01997 60.5791 9.09524 60.7258 9.25908 60.8991C9.02882 61.0013 8.89598 61.1035 8.76757 61.1035ZM9.37421 57.4151C9.37421 57.4151 9.28565 57.3751 9.28565 57.3528C9.28565 57.2906 9.31222 57.224 9.3255 57.1618C9.3875 57.1929 9.44949 57.224 9.51148 57.2551C9.4672 57.3084 9.42292 57.3662 9.37421 57.4151ZM10.4148 62.8588C10.2067 62.9299 10.0251 62.7833 9.99857 62.5389C9.972 62.2811 10.0916 62.05 10.2643 62.0456C10.5122 62.0723 10.5565 62.2811 10.6096 62.4767C10.6584 62.6589 10.6052 62.8011 10.4148 62.8633V62.8588ZM11.7831 49.7494C11.4421 49.7405 11.1764 49.4561 11.1853 49.105C11.1942 48.785 11.4953 48.5628 11.8849 48.5895C12.1949 48.6117 12.4252 48.8517 12.4207 49.145C12.4163 49.4872 12.1285 49.7582 11.7831 49.7494ZM12.4916 58.9704C12.4916 58.9349 12.4783 58.8727 12.4827 58.8727C12.5403 58.8593 12.6023 58.8549 12.6598 58.846C12.6598 58.8815 12.6687 58.9171 12.6731 58.9527C12.6111 58.9571 12.5536 58.966 12.4916 58.9704ZM12.3809 43.6612C12.2436 43.6257 12.0798 43.5057 12.0311 43.3768C11.9381 43.1457 12.2082 42.8391 12.4384 42.9102C12.5669 42.9502 12.6598 43.1013 12.7174 43.1546C12.7351 43.4968 12.5801 43.7101 12.3809 43.6612ZM14.6835 44.79C14.4975 44.7633 14.3337 44.55 14.3425 44.3367C14.3558 44.0123 14.5861 43.7945 14.9005 43.8079C15.1617 43.8168 15.3875 44.0301 15.392 44.27C15.3964 44.5722 15.0333 44.8389 14.6835 44.79ZM14.9934 35.76C13.9661 36.8754 11.4864 36.0799 10.6141 35.0845C9.3875 33.6802 10.437 31.325 11.1322 29.9163C11.2606 29.6496 11.4776 29.5519 11.699 29.5608C12.6333 28.8808 14.0724 29.2808 14.7942 30.2896C15.6798 31.5294 16.1093 34.5601 14.9979 35.7644L14.9934 35.76ZM15.9898 65.7296C15.9676 65.7163 15.9632 65.6629 15.9499 65.6318C15.9853 65.6185 16.0208 65.6052 16.0518 65.5918C16.065 65.6274 16.0783 65.6629 16.0916 65.6985C16.0562 65.7118 16.0119 65.7429 15.9898 65.7296ZM16.9551 59.6237C16.3529 59.6148 16.0075 59.2015 16.158 58.6682C16.2643 58.295 16.5521 58.1572 16.9152 58.3038C17.1898 58.4149 17.4333 58.5483 17.513 58.8682C17.6193 59.2771 17.358 59.6281 16.9507 59.6237H16.9551ZM19.9352 80.7855C19.6828 80.8566 19.4348 80.6166 19.4747 80.3678C19.5057 80.19 19.6296 80.0922 19.8112 80.0834C20.0415 80.0745 20.2009 80.2211 20.2141 80.5455C20.1522 80.6033 20.0547 80.7499 19.9308 80.7855H19.9352ZM20.4223 77.1237C20.192 77.1459 19.9485 76.9193 19.944 76.6793C19.9396 76.4838 20.1212 76.3238 20.3426 76.3194C20.5861 76.3194 20.7057 76.4527 20.7455 76.6882C20.7632 76.8838 20.6038 77.1015 20.4223 77.1193V77.1237ZM22.0252 64.8897C21.7596 64.863 21.5824 64.6719 21.5869 64.4142C21.5869 64.2098 21.7684 64.0187 21.9588 64.0142C22.2378 64.0098 22.4769 64.2764 22.4592 64.5742C22.4459 64.7653 22.2466 64.9119 22.0252 64.8897ZM23.8407 69.5113C23.6681 69.658 23.4466 69.6669 23.2828 69.538C23.1367 69.4225 23.0171 69.2358 22.9463 69.0581C22.8533 68.827 23.1013 68.5559 23.4599 68.5915C23.5618 68.6714 23.7876 68.7825 23.916 68.9603C24.0312 69.1203 24.0134 69.3558 23.8363 69.5113H23.8407ZM27.2371 72.7598C27.1707 72.9731 27.0378 73.1242 26.7943 73.1242C26.5862 73.1242 26.4135 72.9154 26.44 72.702C26.471 72.4354 26.7013 72.2488 26.9537 72.2799C27.1441 72.3065 27.2991 72.551 27.2371 72.7598ZM30.9434 80.7721C30.8327 81.0877 30.5581 81.2921 30.2925 81.2343C30.0622 81.1854 29.9471 81.0121 29.9382 80.7899C29.9249 80.4166 30.1596 80.1278 30.4961 80.0834C30.7486 80.0478 30.9877 80.27 30.9788 80.5277C30.97 80.6077 30.97 80.6966 30.9434 80.7721ZM35.1722 81.9231C34.9464 82.1942 34.5124 82.172 34.291 81.9098C34.012 81.5854 33.8349 81.2121 33.8393 80.7766C33.8393 80.5189 33.9191 80.2789 34.1759 80.1589C34.415 80.0434 34.6674 80.0567 34.8844 80.2078C35.2475 80.4566 35.4423 80.8121 35.4556 81.3721C35.3936 81.501 35.3183 81.7409 35.1678 81.9231H35.1722ZM35.398 71.6888C35.0128 71.7288 34.7073 71.5289 34.6718 71.2089C34.6408 70.9112 34.9287 70.609 35.2785 70.5734C35.6017 70.5379 35.925 70.8178 35.9427 71.1422C35.956 71.4089 35.7124 71.6533 35.398 71.6888ZM37.2357 79.8034C37.1737 79.479 37.4261 79.1324 37.7538 79.0879C38.1124 79.039 38.4445 79.2746 38.4755 79.5945C38.5065 79.9145 38.232 80.3189 37.9663 80.35C37.6829 80.3855 37.2844 80.0878 37.2357 79.8034ZM38.7589 84.5228C38.3471 84.505 38.0903 84.2917 38.0859 83.9451C38.077 83.3896 38.4091 83.0252 38.8918 83.0696C39.3125 83.1096 39.5604 83.3807 39.5649 83.8118C39.5693 84.2917 39.2859 84.5406 38.7589 84.5184V84.5228ZM39.1442 70.289C38.8608 70.4401 38.5287 70.5023 38.3737 70.5556C37.7626 70.569 37.4084 70.3779 37.28 70.0624C37.0896 69.5913 37.2578 69.0136 37.6696 68.7337C38.1833 68.3781 38.9449 68.4492 39.3833 68.8936C39.7464 69.2625 39.6401 70.0224 39.1442 70.289ZM44.9273 73.893C44.8343 74.2307 44.6306 74.4752 44.2055 74.644C43.7538 74.484 43.3243 74.3507 42.9125 74.173C42.7841 74.1197 42.6468 73.9419 42.6379 73.813C42.6291 73.6842 42.7442 73.4531 42.8505 73.422C43.3553 73.2798 43.8734 73.1464 44.3959 73.0976C44.7723 73.062 45.0335 73.5108 44.9317 73.893H44.9273ZM46.6232 76.586C46.5745 76.546 46.5258 76.5105 46.4859 76.4616C46.4815 76.4571 46.5258 76.4083 46.5435 76.3816C46.5922 76.4216 46.6365 76.4616 46.6852 76.5016C46.6631 76.5282 46.6454 76.5593 46.6232 76.586ZM48.1066 79.95C48.0712 79.95 48.0313 79.95 47.9959 79.95C47.9959 79.8834 48.0003 79.8123 48.0092 79.7456C48.0092 79.7412 48.0801 79.7456 48.1155 79.7456C48.1155 79.8123 48.111 79.8789 48.1066 79.9456V79.95ZM54.8417 58.9926C54.669 59.0726 54.4255 58.8282 54.4919 58.6327C54.5362 58.5038 54.6779 58.3438 54.7974 58.3261C54.8904 58.3083 55.0144 58.486 55.1827 58.6194C55.0366 58.7838 54.9613 58.9393 54.8417 58.9926ZM55.7938 71.0756C55.6078 71.0667 55.4927 70.96 55.4794 70.7734C55.4661 70.5645 55.6565 70.3423 55.8513 70.3823C55.9842 70.409 56.0949 70.5379 56.1702 70.5912C56.1834 70.8889 56.0063 71.08 55.7938 71.0756ZM57.5739 82.5497C57.5207 82.4564 57.4499 82.372 57.4277 82.2742C57.4189 82.2298 57.534 82.1053 57.5473 82.1142C57.6358 82.1586 57.7111 82.2253 57.8307 82.3186C57.72 82.4208 57.6447 82.4875 57.5739 82.5542V82.5497ZM60.0359 64.3164C59.9739 64.3164 59.8543 64.2275 59.8587 64.2053C59.8942 64.0809 59.9562 63.9609 60.0403 63.7787C60.182 63.912 60.3104 63.9742 60.3237 64.0542C60.3503 64.2409 60.2086 64.3253 60.0359 64.3164ZM62.0019 66.2495C61.692 66.3295 61.4263 66.2095 61.2669 65.9251C61.0897 65.6052 61.0986 65.2852 61.289 64.9786C61.5016 64.6364 61.8027 64.4409 62.2233 64.4764C62.5422 64.5031 62.7458 64.7919 62.7237 65.2185C62.6971 65.8185 62.4802 66.1206 61.9975 66.2495H62.0019ZM62.6927 71.2933C62.6263 71.1467 62.5333 71.0311 62.5599 70.9689C62.5909 70.8978 62.7281 70.8623 62.8256 70.8489C62.8566 70.8489 62.9495 70.9823 62.9363 71.0178C62.892 71.1067 62.8078 71.1733 62.6971 71.2933H62.6927ZM65.3584 79.4834C65.0794 79.95 64.7031 80.2033 64.1761 80.2122C64.0566 80.1233 63.8086 80.0211 63.6979 79.8345C63.4411 79.3901 63.596 78.6924 63.9636 78.3458C64.2558 78.0703 64.8935 78.0792 65.2256 78.3591C65.5444 78.6346 65.5975 79.079 65.3584 79.479V79.4834ZM65.2256 59.8014C65.0307 59.837 64.9112 59.7081 64.9377 59.5215C64.951 59.4281 65.0927 59.2682 65.1459 59.2815C65.2743 59.3082 65.385 59.4193 65.5577 59.5304C65.3983 59.6637 65.3186 59.7792 65.2256 59.797V59.8014ZM67.9666 82.2742C67.8116 82.3053 67.6256 82.332 67.4839 82.2742C67.351 82.2253 67.1961 82.0831 67.1651 81.9542C67.0278 81.3987 67.3023 81.061 67.8514 81.061C68.2854 81.061 68.5466 81.2565 68.5466 81.5854C68.5466 81.9409 68.3474 82.1898 67.9621 82.2697L67.9666 82.2742ZM68.6396 76.9726C68.4226 77.0037 68.25 76.8615 68.2234 76.6216C68.1924 76.3727 68.3119 76.1372 68.4802 76.115C68.6972 76.0883 68.954 76.3016 69.0027 76.5505C69.0381 76.746 68.8743 76.9371 68.6441 76.9726H68.6396ZM70.4994 55.7842C70.371 55.7664 70.2603 55.6286 70.0478 55.4731C70.2603 55.3264 70.371 55.1931 70.4994 55.1753C70.6765 55.1487 70.8138 55.2864 70.8049 55.4775C70.8005 55.6597 70.6765 55.8108 70.495 55.7842H70.4994ZM71.6684 72.1066C71.6241 72.1243 71.5444 72.0621 71.4824 72.0355C71.5134 71.9733 71.5267 71.8755 71.5754 71.8533C71.6197 71.8355 71.6994 71.8977 71.7614 71.9244C71.7304 71.9866 71.7171 72.0844 71.6684 72.1021V72.1066ZM71.788 62.0678C71.7437 62.1345 71.7127 62.2322 71.6507 62.2589C71.54 62.3033 71.4116 62.33 71.292 62.3211C70.9909 62.2945 70.7341 62.0678 70.8049 61.8723C70.8537 61.739 70.9998 61.5923 71.1326 61.5523C71.4514 61.459 71.7348 61.6501 71.7924 61.9434C71.8013 61.9834 71.7924 62.0234 71.7924 62.0678H71.788ZM75.4766 77.9547C75.2729 78.5369 74.8611 78.919 74.3164 79.1679C74.2544 79.1946 74.126 79.1812 74.0906 79.1368C74.0153 79.0479 73.9223 78.9102 73.9445 78.8213C74.0994 78.2347 74.4581 77.7992 74.9851 77.5014C75.1445 77.4126 75.4766 77.5548 75.4854 77.6303C75.4854 77.7947 75.5076 77.8836 75.4854 77.9547H75.4766ZM75.0382 51.758C75.0869 51.8291 75.233 51.9535 75.2197 52.0513C75.202 52.1757 75.0603 52.349 74.9496 52.3668C74.8478 52.3846 74.6618 52.2513 74.6087 52.1357C74.5245 51.958 74.7238 51.758 75.0382 51.7535V51.758ZM76.805 65.4407C76.7519 65.6674 76.4596 65.8585 76.2338 65.7962C75.9592 65.7207 75.6803 65.6363 75.4367 65.4941C75.3304 65.4318 75.2419 65.2052 75.2685 65.0763C75.295 64.9519 75.4633 64.8452 75.5917 64.7608C75.6493 64.7208 75.7511 64.7564 75.9415 64.7564C76.0699 64.8008 76.3046 64.8719 76.5305 64.9608C76.743 65.0452 76.8581 65.2096 76.805 65.4407ZM80.7194 45.781C80.6618 45.8387 80.4759 45.8476 80.4095 45.7987C80.188 45.6388 80.1482 45.4032 80.2589 45.1588C80.2855 45.101 80.3873 45.0833 80.4759 45.0299C80.56 45.0922 80.6796 45.1366 80.7371 45.2299C80.8523 45.4077 80.8744 45.621 80.7194 45.781ZM80.7327 41.2171C80.6751 41.1726 80.5556 41.1238 80.5069 41.0393C80.4272 40.906 80.5644 40.666 80.715 40.6794C80.8124 40.6838 80.9364 40.7638 80.9895 40.8482C81.0781 40.9904 80.9541 41.1815 80.7371 41.2171H80.7327ZM82.9556 69.3336C82.7298 69.3114 82.5748 69.1647 82.5526 68.9425C82.5084 68.5603 82.8892 68.187 83.2434 68.2937C83.3984 68.3381 83.5091 68.5426 83.5888 68.6181C83.5667 69.0936 83.2966 69.3647 82.9556 69.3336ZM85.0235 41.6215C85.0279 41.5726 85.0368 41.5237 85.0412 41.4704C85.0545 41.497 85.0678 41.5237 85.0767 41.5504C85.0589 41.5726 85.0412 41.5948 85.0235 41.617V41.6215ZM85.8737 38.0175C84.8995 39.1285 82.5704 40.2616 81.5032 38.6485C80.9674 37.8397 81.2021 36.7643 81.3438 35.8755C81.5475 34.5735 81.8264 33.2936 82.1585 32.0182C82.2205 31.7827 82.3667 31.6361 82.5394 31.5694C83.8988 30.494 85.7054 31.9205 86.4051 33.2003C87.2553 34.7557 87.0471 36.6843 85.8781 38.0175H85.8737ZM90.1069 40.8438C90.045 40.7549 89.9785 40.6749 89.9342 40.5772C89.9254 40.5594 90.045 40.4927 90.1468 40.4172C90.1955 40.5194 90.2619 40.6083 90.2752 40.706C90.2796 40.7416 90.1645 40.7949 90.1069 40.8438ZM92.0066 0.844339C92.3697 0.679915 92.7904 0.737686 93.0206 1.00876C93.149 1.1643 93.273 1.33761 93.3527 1.52425C93.5431 1.9642 93.3439 2.5108 92.9542 2.693C92.5778 2.86631 91.9933 2.67078 91.7896 2.26638C91.6833 2.05308 91.6568 1.79978 91.6125 1.64868C91.6435 1.26206 91.7011 0.9821 92.0066 0.844339ZM90.9129 19.442C90.9439 19.4998 90.9837 19.5576 91.0014 19.6198C91.0058 19.6376 90.9439 19.6998 90.935 19.6953C90.8774 19.6598 90.8287 19.6153 90.7756 19.5753C90.8199 19.5309 90.8641 19.4865 90.9129 19.442ZM90.3638 30.2318C90.6782 30.2318 90.8907 30.4495 90.8907 30.7784C90.8907 31.0806 90.6472 31.2983 90.3284 31.2805C90.0671 31.2672 89.89 31.0806 89.8767 30.8006C89.8545 30.4673 90.0582 30.2362 90.3682 30.2318H90.3638ZM87.6272 9.76323C87.6715 9.7499 87.7379 9.82544 87.8353 9.8921C87.7556 9.96765 87.6848 10.0299 87.6095 10.0965C87.5697 10.0387 87.4944 9.98098 87.4988 9.92765C87.4988 9.86988 87.5697 9.78545 87.6272 9.76767V9.76323ZM85.4973 6.217C85.5239 6.23033 85.5283 6.28366 85.5416 6.31921C85.5062 6.33254 85.4619 6.36365 85.4398 6.35032C85.4132 6.33699 85.4088 6.28366 85.391 6.24811C85.4265 6.23478 85.4707 6.20367 85.4929 6.217H85.4973ZM84.0848 9.39883C84.2575 9.27884 84.4833 9.24329 84.6338 9.4166C84.7224 9.51881 84.7933 9.74545 84.7401 9.83877C84.6338 10.0254 84.4346 10.1632 84.2929 10.3054C84.1556 10.2343 84.067 10.2121 84.0228 10.1587C83.8324 9.93654 83.8633 9.56325 84.0892 9.40327L84.0848 9.39883ZM80.8833 2.31527C81.2818 2.21306 81.6715 2.06197 82.0744 1.97309C82.3357 1.91532 82.5571 2.03975 82.6899 2.2886C82.7962 2.48413 82.8095 2.67522 82.6899 2.8752C82.4552 3.26626 82.2338 3.65732 81.9991 4.04394C81.9371 4.15059 81.8574 4.2528 81.7733 4.33724C81.4722 4.63942 81.1534 4.9105 80.684 4.74163C80.1659 4.55499 79.8604 4.13726 79.8515 3.61733C79.8427 2.85742 80.1305 2.50191 80.8833 2.30638V2.31527ZM81.3128 9.47437C81.3128 9.781 81.0648 10.0343 80.7637 10.0299C80.5069 10.0299 80.2899 9.80767 80.281 9.55881C80.2722 9.2744 80.5334 9.07887 80.8921 9.09664C81.1224 9.10997 81.3128 9.27884 81.3128 9.47437ZM77.2788 7.30576C77.4072 7.34131 77.5091 7.47907 77.6862 7.62572C77.5312 7.7857 77.4515 7.94123 77.3319 7.98123C77.1637 8.039 77.022 7.93234 76.9865 7.74126C76.9423 7.51017 77.1017 7.25687 77.2788 7.30576ZM77.5312 16.1135C78.3725 14.0605 79.5327 12.1985 80.932 10.4876C81.2154 10.1454 81.5918 10.2121 81.8397 10.4476C85.3556 9.46549 88.4863 12.5851 89.1372 15.9091C89.7483 19.0243 89.5313 24.7925 86.0331 26.1967C84.2087 26.93 82.2781 26.3256 80.5777 25.5479C78.9615 24.8102 77.1061 23.9703 76.5526 22.1128C75.9681 20.1486 76.7873 17.9089 77.5268 16.1091L77.5312 16.1135ZM70.8227 17.6289C71.1149 17.5356 71.3408 17.6734 71.385 17.9222C71.4205 18.14 71.2743 18.3399 71.0662 18.3533C70.8227 18.3666 70.557 18.1711 70.5127 17.8689C70.5924 17.8067 70.6943 17.6734 70.8227 17.6289ZM68.8079 15.5447C69.1533 15.1359 69.6404 15.0159 70.1585 15.2114C70.3931 15.3003 70.5127 15.5714 70.4374 15.8291C70.3046 16.2691 69.9415 16.4868 69.3215 16.4779C69.2374 16.4557 69.1134 16.4335 69.0027 16.3846C68.6928 16.2602 68.5909 15.798 68.8123 15.5403L68.8079 15.5447ZM70.0478 37.3509C70.0168 37.422 69.9902 37.4887 69.9592 37.5598C69.8751 37.5109 69.7909 37.4576 69.7024 37.4087C69.7555 37.3509 69.7998 37.262 69.8618 37.2487C69.9149 37.2354 69.9858 37.3153 70.0478 37.3509ZM68.2987 22.575C68.3474 22.615 68.3828 22.6638 68.4226 22.7127C68.3651 22.7394 68.3031 22.7661 68.2455 22.7927C68.2322 22.7349 68.2145 22.6772 68.2145 22.6194C68.2145 22.6016 68.2898 22.5661 68.3031 22.575H68.2987ZM67.2315 32.1427C67.2802 32.1249 67.4396 32.2493 67.4618 32.3293C67.506 32.4982 67.4042 32.6448 67.2271 32.6493C67.1429 32.6493 67.0499 32.5426 66.8861 32.4315C67.0278 32.3026 67.1164 32.1871 67.2315 32.1427ZM50.4845 12.5051C50.5642 12.5007 50.6572 12.6206 50.7856 12.7229C50.6528 12.8251 50.5598 12.9451 50.4801 12.9406C50.3959 12.9317 50.3207 12.7984 50.2454 12.7229C50.3251 12.6473 50.4004 12.514 50.4845 12.5096V12.5051ZM48.1686 11.3852C48.2129 11.6341 48.2705 11.7674 48.2483 11.8919C48.235 11.9541 48.08 11.9852 47.9915 12.0341C47.9516 11.9318 47.8764 11.8252 47.8896 11.7274C47.9029 11.643 48.0136 11.5674 48.1686 11.3852ZM27.5692 14.6915C27.8659 14.6871 28.0341 14.8382 28.0474 15.1181C28.0607 15.3403 27.8836 15.5314 27.6887 15.5181C27.4363 15.4958 27.2327 15.3136 27.1884 15.0648C27.153 14.8693 27.3301 14.6959 27.5692 14.6915ZM23.9249 20.6996C24.0046 20.5885 24.1684 20.4819 24.2924 20.4819C24.4961 20.4819 24.6289 20.7485 24.5625 20.9352C24.4961 21.1218 24.2614 21.2018 24.0577 21.0996C23.8895 21.0152 23.8186 20.8507 23.9249 20.7041V20.6996ZM21.578 8.53671C21.6887 8.51894 21.826 8.63892 22.0518 8.74113C21.8437 8.94555 21.7241 9.08331 21.578 9.18552C21.5559 9.2033 21.3743 9.07887 21.3522 8.99888C21.2946 8.79446 21.3389 8.57671 21.578 8.53671ZM20.1123 9.60769C20.4134 9.60769 20.6835 9.94543 20.6614 10.2921C20.6437 10.5809 20.378 10.8342 20.099 10.8342C19.7758 10.8342 19.5234 10.5187 19.5544 10.1587C19.5809 9.85655 19.8333 9.61214 20.1123 9.60769ZM21.6666 46.2742C23.1101 45.1233 24.8858 45.5188 26.4489 46.2031C28.4902 47.0964 30.4873 48.1318 32.4622 49.1672C32.812 49.3538 33.1619 49.5405 33.5117 49.7316C32.2674 48.2695 31.1028 46.7364 30.0135 45.1455C28.4681 42.888 27.0688 40.5283 25.767 38.1197C24.4872 35.7555 23.119 33.3247 22.2068 30.7873C21.4319 28.6409 21.2902 26.1434 22.7647 24.2592C24.0489 22.6105 26.1522 22.2283 28.012 23.1304C30.3633 24.2725 31.4172 26.8189 32.5331 29.0275C33.9323 31.8005 35.4069 34.5335 36.9479 37.2265C38.9051 40.6438 40.9774 43.9945 43.1516 47.2785C40.88 41.6348 38.8386 35.8977 37.0586 30.0763C35.9737 26.5256 34.9818 22.9482 34.0873 19.3443C33.6224 17.4778 33.1619 15.6069 32.7722 13.7272C32.4976 12.4029 32.2762 11.0075 32.6083 9.67435C33.2061 7.27909 35.5353 5.81261 37.9043 5.69262C40.4062 5.56819 42.6468 7.03023 44.1081 8.97666C45.5782 10.932 46.2291 13.2606 46.5922 15.6336C46.6321 15.6158 46.6719 15.6025 46.7162 15.5892C47.1546 15.4603 47.5354 15.5447 47.8542 15.8736C48.1996 16.2335 48.3103 16.6513 48.142 17.0068C47.9339 17.4556 47.5708 17.7311 47.0882 17.78C47.004 17.7889 46.9287 17.78 46.8535 17.7667C47.2299 21.5751 47.5088 25.4013 47.8321 29.2141C48.142 32.8803 48.452 36.551 48.7664 40.2172C48.8328 38.6307 48.9258 37.0487 49.0454 35.4667C49.0055 35.3867 48.9834 35.32 48.9834 35.2534C48.9834 35.1467 49.0232 35.0578 49.0852 34.9956C49.2712 32.6715 49.5103 30.3518 49.8114 28.0409C50.2675 24.5614 50.8476 21.0951 51.5605 17.66C52.145 14.847 52.517 11.2164 54.7133 9.12331C56.3694 7.54573 58.827 7.13689 60.6425 8.68336C62.6617 10.4031 63.6536 13.6561 64.5215 16.0691C66.9924 22.9171 64.6765 29.3786 62.8477 36.0577C62.4137 37.6398 62.0285 39.2573 61.6167 40.8705C61.6698 40.8171 61.7318 40.7683 61.7938 40.7283C61.8292 40.706 61.9576 40.8482 62.0196 40.8927C62.0196 41.1815 61.8337 41.386 61.661 41.3104C61.6211 41.2926 61.5724 41.2393 61.5414 41.186C61.134 42.7636 60.6956 44.3323 60.1554 45.8521C60.7488 45.2299 61.3554 44.6255 61.9754 44.0301C61.9665 44.0123 61.9576 43.9945 61.9532 43.9723C61.8292 43.4924 61.9842 43.0391 62.3872 42.7858C62.6041 42.648 62.861 42.5547 63.0735 42.7458C63.1222 42.7902 63.1621 42.8391 63.1975 42.888C63.7112 42.4214 64.2292 41.9637 64.765 41.5193C66.4787 40.0883 68.2765 38.7463 70.1407 37.5242C71.509 36.6265 73.3998 35.2223 74.9762 36.5021C76.3179 37.5909 76.371 39.875 76.5792 41.4393C76.8847 43.7101 76.9688 46.0787 76.1718 48.2651C74.6397 52.4646 70.3754 53.7089 66.4699 54.7887C62.8344 55.7975 59.137 56.5441 55.4041 57.0596C55.4572 57.104 55.5148 57.1751 55.5856 57.2329C55.4617 57.3351 55.3687 57.4684 55.2934 57.4595C55.2093 57.4462 55.0764 57.3084 55.0808 57.2284C55.0808 57.1884 55.1163 57.1351 55.1605 57.0951C53.8853 57.2684 52.61 57.4106 51.3258 57.5306C51.6491 60.4502 52.2026 63.4765 52.1982 66.4006C52.1982 67.8182 51.5074 68.7825 50.5155 69.4758C50.5642 69.4624 50.6129 69.4491 50.6616 69.4491C50.914 69.4402 51.1664 69.6402 51.193 69.8668C51.224 70.1424 50.945 70.4179 50.6483 70.4001C50.4004 70.3823 50.1922 70.1646 50.1834 69.9113C50.1834 69.8091 50.2188 69.7113 50.2852 69.6358C49.776 69.9602 49.1959 70.2224 48.5981 70.4445C46.4904 71.2311 44.9671 70.1957 44.6306 68.036C44.1701 65.0852 44.1258 62.0145 44.1568 59.0282C43.6963 59.1571 43.2357 59.2815 42.7752 59.4015C42.7752 59.4015 42.7752 59.4104 42.7708 59.4148C42.5671 59.757 42.266 59.9614 41.77 59.9747C41.5796 59.9836 41.4158 59.8992 41.3051 59.7659C37.0054 60.7613 32.6039 61.2768 28.1847 61.2635C25.8688 61.259 23.5086 61.1613 21.2149 60.8102C19.4968 60.548 18.4916 59.557 18.3765 57.7928C18.2348 55.6375 18.6909 53.2867 19.2444 51.2158C19.6961 49.5227 20.254 47.4252 21.6887 46.2787L21.6666 46.2742ZM22.964 38.2619C22.9728 37.8086 23.0083 37.3598 23.0393 36.831C23.2341 36.871 23.4378 36.8487 23.5131 36.9376C23.7522 37.222 23.9559 37.5375 24.1419 37.8619C24.2924 38.1197 24.1729 38.4796 23.9249 38.6307C23.6813 38.7818 23.2828 38.7729 23.1101 38.5907C23.0304 38.5063 22.9596 38.373 22.9596 38.2663L22.964 38.2619ZM34.5965 32.4848C34.5833 32.0405 34.8445 31.7205 35.2209 31.7249C35.5353 31.7249 35.801 32.0316 35.8054 32.396C35.8054 32.7248 35.5264 32.9959 35.1633 33.0092C34.849 33.0181 34.6054 32.7959 34.5965 32.4848ZM35.8807 28.7386C35.8586 28.552 35.9958 28.352 36.1331 28.4053C36.2615 28.4542 36.3678 28.5742 36.5582 28.7253C36.3899 28.872 36.2925 29.023 36.1774 29.0453C36.0002 29.0764 35.9028 28.9164 35.8807 28.7386ZM10.8133 9.87432C10.8753 9.68324 11.017 9.51881 11.265 9.44327C11.3713 9.41216 11.4776 9.38105 11.5838 9.34995C11.6414 9.32773 11.6945 9.30995 11.7477 9.30106C13.3373 8.84779 15.0732 8.55005 16.5743 9.43438C18.0798 10.3187 18.4252 12.0341 18.5182 13.6516C18.651 15.8958 18.4783 18.2155 18.0045 20.4108C17.6857 21.8995 17.0215 23.1927 15.4053 23.4815C13.8776 23.757 11.8805 23.1038 10.5078 22.4816C8.83399 21.7173 7.76239 20.3041 7.39929 18.4999C6.73951 15.207 8.23177 11.883 10.8089 9.87877L10.8133 9.87432ZM6.86349 31.8005C6.94763 31.7871 7.0539 31.8849 7.14689 31.9382C7.08932 32.036 7.06718 32.1382 7.01405 32.1604C6.85906 32.2138 6.67751 32.2182 6.63766 32.0138C6.62438 31.956 6.7705 31.8138 6.85906 31.8005H6.86349ZM5.83618 37.2265C5.93802 36.8887 6.19042 36.6621 6.5181 36.5554C7.23545 36.3155 7.90409 36.431 8.49745 36.8976C8.71443 37.0665 8.75428 37.3109 8.67458 37.5686C8.32476 38.6841 7.6694 39.0707 6.50039 38.8396C6.30113 38.7996 6.10629 38.7241 5.89374 38.6574C5.59706 38.1064 5.70334 37.662 5.83618 37.222V37.2265ZM2.89593 36.7065C3.01549 36.7332 3.10848 36.871 3.18819 36.9376C3.09962 37.2265 2.93136 37.2442 2.7808 37.1909C2.69224 37.1598 2.57711 37.0398 2.57268 36.9598C2.57268 36.7732 2.73209 36.671 2.89593 36.7065Z" fill="#0C0C0C"/>
    </g>
    <defs>
        <clipPath id="clip0_1459_95168">
            <rect width="95" height="107" fill="white"/>
        </clipPath>
    </defs>
</svg>
