<svg width="22" height="22" viewBox="0 0 22 22" fill="none" xmlns="http://www.w3.org/2000/svg">
    <path fill-rule="evenodd" clip-rule="evenodd" d="M16.0996 19.1491C16.3568 19.3391 16.6882 19.3866 16.9837 19.27C17.2791 19.1525 17.4964 18.8891 17.5618 18.57C18.2558 15.1666 19.9393 6.55246 20.5709 3.45663C20.6189 3.22329 20.539 2.98079 20.3633 2.82496C20.1876 2.66913 19.944 2.62413 19.7268 2.70829C16.3783 4.00163 6.0661 8.03913 1.85112 9.66663C1.5836 9.76997 1.4095 10.0383 1.41829 10.3325C1.42787 10.6275 1.61793 10.8833 1.89185 10.9691C3.78212 11.5591 6.26335 12.38 6.26335 12.38C6.26335 12.38 7.42291 16.0341 8.02744 17.8925C8.10331 18.1258 8.2782 18.3091 8.50899 18.3725C8.73899 18.435 8.98495 18.3691 9.15665 18.2C10.1277 17.2433 11.6291 15.7641 11.6291 15.7641C11.6291 15.7641 14.4817 17.9466 16.0996 19.1491ZM7.30711 11.9183L8.64795 16.5333L8.94582 13.6108C8.94582 13.6108 14.1263 8.73497 17.0795 5.9558C17.1657 5.87413 17.1777 5.73746 17.1058 5.64163C17.0348 5.5458 16.9038 5.5233 16.8056 5.5883C13.3828 7.86913 7.30711 11.9183 7.30711 11.9183Z" fill="#F2F3F8"/>
</svg>
