<svg xmlns="http://www.w3.org/2000/svg" width="12" height="12" viewBox="0 0 12 12" fill="none">
    <g clip-path="url(#clip0_1930_63685)">
        <path d="M3.8475 11.1969L5.16506 9.84694C4.70469 9.74695 4.26615 9.56465 3.87056 9.30881L3.8475 11.1969ZM8.1525 0.80325L6.83531 2.15306C7.2957 2.25312 7.73423 2.43548 8.12981 2.69138L8.1525 0.80325ZM2.15325 6.83512L0.803062 8.15231L2.69119 8.12944C2.43536 7.73393 2.25312 7.29545 2.15325 6.83512ZM9.84675 5.16506L11.1969 3.8475L9.30881 3.87056C9.56463 4.26614 9.74687 4.70468 9.84675 5.16506ZM2.69138 3.87038L0.80325 3.84731L2.15344 5.16488C2.25311 4.70443 2.43537 4.26585 2.69138 3.87038ZM9.30863 8.12963L11.1967 8.1525L9.84656 6.83512C9.74685 7.29556 9.5646 7.73413 9.30863 8.12963ZM5.16506 2.15306L3.8475 0.803062L3.87056 2.69119C4.26615 2.43535 4.70469 2.25305 5.16506 2.15306ZM6.83494 9.84694L8.1525 11.1967L8.12944 9.30881C7.73381 9.56457 7.29529 9.74687 6.83494 9.84694ZM2.766 8.24288L2.02219 9.97744L3.75694 9.234C3.37028 8.96522 3.03471 8.62958 2.766 8.24288ZM9.234 3.75731L9.97744 2.02256L8.24306 2.766C8.62972 3.03485 8.9653 3.37055 9.234 3.75731ZM2.0625 6C2.0625 5.76038 2.08744 5.52675 2.1285 5.29856L0.375 5.99981L2.1285 6.70106C2.08564 6.46981 2.06355 6.23519 2.0625 6ZM11.625 6L9.8715 5.29856C9.91256 5.52675 9.9375 5.76038 9.9375 6C9.9375 6.23981 9.91256 6.47344 9.8715 6.70144L11.625 6ZM3.75731 2.76581L2.02256 2.02238L2.766 3.75712C3.03494 3.37044 3.37062 3.03475 3.75731 2.76581ZM8.24269 9.234L9.97744 9.97744L9.234 8.24288C8.96511 8.62955 8.62941 8.96518 8.24269 9.234ZM6.70125 2.1285L6 0.375L5.29875 2.1285C5.52656 2.08744 5.76019 2.0625 6 2.0625C6.23981 2.0625 6.47344 2.08744 6.70125 2.1285ZM5.29875 9.8715L6 11.625L6.70125 9.8715C6.47344 9.91256 6.23981 9.9375 6 9.9375C5.76019 9.9375 5.52656 9.91256 5.29875 9.8715Z" fill="#757575"/>
        <path d="M6 9.5625C7.96751 9.5625 9.5625 7.96751 9.5625 6C9.5625 4.03249 7.96751 2.4375 6 2.4375C4.03249 2.4375 2.4375 4.03249 2.4375 6C2.4375 7.96751 4.03249 9.5625 6 9.5625Z" fill="#757575"/>
    </g>
    <defs>
        <clipPath id="clip0_1930_63685">
            <rect width="12" height="12" fill="white"/>
        </clipPath>
    </defs>
</svg>
