<svg width="80" height="93" viewBox="0 0 80 93" fill="none" xmlns="http://www.w3.org/2000/svg">
    <g clip-path="url(#clip0_1194_107871)">
        <path d="M30.624 44.1729C30.5509 44.2303 30.4727 44.2825 30.3892 44.3243C30.5744 45.5167 31.7642 46.2446 32.9149 46.2837C34.1568 46.3255 35.3884 45.7645 36.419 45.1096C37.4861 44.4312 38.3315 43.505 38.6055 42.2421C38.8716 41.0289 38.6394 39.7373 38.3419 38.5528C37.674 35.9044 35.9937 33.6971 32.9879 34.2346C31.8112 34.4433 30.5196 34.9025 29.6351 35.7296C28.7663 36.5411 28.2914 37.9553 29.0976 38.9833C29.142 39.0407 29.1707 39.1007 29.1837 39.1607C29.322 39.3146 29.4603 39.4712 29.596 39.6303C30.4753 40.6584 31.6911 42.0021 31.125 43.4554C32.907 44.2199 35.2083 42.4196 35.8893 40.5201C35.3936 41.0628 34.7804 41.4803 34.0185 41.6185C33.0192 41.8012 32.0199 41.3654 31.4641 40.5122C30.2013 38.5762 31.9912 36.1706 34.1699 36.4106C36.6199 36.6794 37.5148 39.4503 36.432 41.4359C35.3805 43.3641 32.8288 45.2923 30.6214 44.1729H30.624Z" fill="#DEDEDE"/>
        <path d="M17.2302 35.0356C16.4865 34.6598 15.7403 34.2789 14.981 33.9319C14.6001 33.7571 14.1618 33.5144 13.7234 33.5457C12.7006 33.6188 12.7919 34.5894 13.2825 35.1425C13.7939 35.7192 14.6706 36.0166 15.362 36.3193C16.1317 36.6585 16.9118 36.969 17.6946 37.269C19.1557 37.8274 20.6325 38.3388 22.0963 38.8841C23.8679 39.5442 25.6265 40.2591 27.2964 41.1384C26.8084 40.781 26.3127 40.4418 25.8483 40.113C24.4889 39.1476 23.0799 38.2553 21.6397 37.4151C20.1968 36.5724 18.7226 35.787 17.2302 35.0356Z" fill="#DEDEDE"/>
        <path d="M34.9213 37.5382C33.4158 36.6928 31.198 38.1304 32.0929 39.8786C32.5469 40.7657 33.5462 41.0031 34.4151 40.5961C35.1352 40.2569 35.5996 39.589 35.9754 38.9158C35.9858 38.8949 35.9988 38.8793 36.0119 38.8636C35.8684 38.3444 35.524 37.88 34.9213 37.5408V37.5382Z" fill="#DEDEDE"/>
        <path d="M19.2379 15.9653C20.7277 15.6731 22.2306 15.4591 23.7361 15.3286C23.5378 10.4651 22.1863 5.73209 19.8093 1.5C17.615 1.93312 15.4494 2.50975 13.3438 3.2638C16.4095 6.89317 18.4577 11.2766 19.2379 15.9679V15.9653Z" fill="#DEDEDE"/>
        <path d="M24.5973 15.2577C25.5601 15.195 26.5255 15.1663 27.4883 15.1742C27.9919 10.1906 27.0082 5.17057 24.6521 0.763672C23.3293 0.907177 22.0142 1.09243 20.707 1.32725C23.0579 5.6037 24.3912 10.3707 24.5973 15.2577Z" fill="#DEDEDE"/>
        <path d="M28.9626 52.854C30.2985 52.8593 31.5796 52.3035 32.9234 52.4679C35.329 52.7601 36.5997 54.8135 36.811 57.0652C37.0302 59.39 36.2318 62.8707 38.8305 64.1492C41.351 65.3885 43.8219 63.5256 45.1291 61.4487C39.7855 58.0985 35.8796 52.7418 32.9834 47.1217C31.384 47.0591 29.8576 46.185 29.5523 44.5151C28.8296 44.5281 28.0129 44.2724 27.3554 44.1237C27.0814 44.0611 26.8101 44.0011 26.5361 43.9385C27.872 45.6579 26.5935 48.1601 26.5257 50.1796C26.4735 51.7582 27.3397 52.8514 28.9626 52.8566V52.854Z" fill="#DEDEDE"/>
        <path d="M6.39568 65.4382C5.44855 65.3104 4.50403 65.1825 3.5569 65.0547C3.53081 65.2608 3.53863 65.4748 3.60386 65.6939C3.73693 66.1401 4.06569 66.3645 4.3527 66.6541C5.65468 66.3932 6.94361 66.0697 8.21428 65.6757C8.16471 65.6731 8.11774 65.6678 8.08382 65.6652C7.52285 65.5843 6.96188 65.5139 6.39829 65.4382H6.39568Z" fill="#DEDEDE"/>
        <path d="M4.48093 69.748C5.93685 68.9705 7.31449 68.0051 8.47036 66.8257C8.61125 66.6927 8.74171 66.5466 8.86173 66.39C8.86173 66.3822 8.86174 66.377 8.85913 66.3691C7.49714 66.8049 6.1221 67.1675 4.72619 67.4598C4.71314 67.8094 4.54876 68.1721 4.47832 68.5217C4.39482 68.9287 4.36351 69.3514 4.48353 69.748H4.48093Z" fill="#DEDEDE"/>
        <path d="M15.8196 17.6847C15.1673 18.9893 14.9638 20.5704 15.7361 21.7315C15.6526 21.7811 15.5717 21.8333 15.4909 21.8854C16.1432 21.8776 16.8789 21.6611 17.3147 21.5071C18.374 21.1314 19.4385 20.7739 20.5214 20.4608C22.5852 19.8685 24.6856 19.4145 26.8095 19.1041C30.6424 18.5431 34.7048 18.2535 38.496 19.2241C41.6844 20.0408 44.3275 21.8907 46.3261 24.4894C48.4813 27.2917 49.7859 30.5923 51.0853 33.8511C51.8132 35.6749 52.549 37.4988 53.4674 39.2365C53.7049 39.6853 53.9554 40.3428 54.4955 40.468C54.9234 40.5672 55.046 40.4863 55.2391 40.061C55.2939 39.941 55.3252 39.7661 55.3487 39.6409C55.4817 38.8764 55.3226 38.0023 55.2104 37.2483C54.7277 33.9659 53.4596 30.8297 51.6332 28.0666C47.7168 22.1359 41.3374 18.3265 34.4752 16.8054C32.3044 16.3227 30.1075 16.0774 27.9053 16.0331C27.8401 16.0435 27.7775 16.0435 27.7149 16.0304C23.7098 15.9704 19.6995 16.5758 15.83 17.6612C15.8248 17.6716 15.8196 17.6794 15.8144 17.6899L15.8196 17.6847Z" fill="#DEDEDE"/>
        <path d="M6.82289 7.45373C10.5227 9.79938 13.5728 13.0061 15.7489 16.7868C16.6256 16.5441 17.5075 16.3275 18.3946 16.1371C17.6118 11.4901 15.5793 7.14063 12.4848 3.5791C11.8925 3.8061 11.3055 4.04614 10.7236 4.30445C9.37989 4.89935 8.08052 5.58034 6.82289 6.337C6.3976 6.5927 6.41325 7.19542 6.82289 7.45634V7.45373Z" fill="#DEDEDE"/>
        <path d="M45.8692 61.8892C44.5333 64.0313 42.3077 65.7717 39.6463 65.3046C37.118 64.861 36.1265 62.6145 36.0117 60.2715C35.9413 58.8338 36.15 57.3414 35.7456 55.9377C35.2733 54.286 33.8696 53.2319 32.1449 53.2998C30.7751 53.3546 29.4783 53.9051 28.0929 53.6364C27.0101 53.425 26.1986 52.7127 25.8516 51.6664C25.4628 50.4949 25.7342 49.2686 26.0055 48.1049C26.3186 46.7586 26.7022 44.9113 25.3402 43.9876C25.2019 43.8937 25.1445 43.758 25.1471 43.6249C19.6652 42.4012 14.1416 41.2558 8.55273 40.7705C9.71382 42.6126 11.6394 43.9093 13.8128 44.2224C15.9967 44.5382 18.3241 43.4501 20.4297 44.3581C24.594 46.1532 21.7865 51.6612 23.412 54.7374C23.926 55.7107 24.8418 56.4673 25.8907 56.8039C26.8535 57.1118 27.8659 56.9839 28.8574 56.9605C30.5768 56.9213 32.1475 57.3675 32.8546 59.0791C33.6922 61.109 32.779 63.3216 33.3425 65.3985C33.8591 67.3058 35.2759 68.8687 36.9719 69.8289C39.8394 71.4544 43.1139 71.1022 45.9944 69.8133C45.9944 69.7402 45.9944 69.6671 45.9944 69.5941C47.5469 67.7964 48.4001 65.5133 48.4471 63.1755C47.5521 62.7998 46.6937 62.3693 45.8666 61.8918L45.8692 61.8892Z" fill="#DEDEDE"/>
        <path d="M56.0244 13.7316C54.1562 15.3989 53.5978 17.6689 53.0003 20.0015C52.5228 21.8671 51.8862 23.7639 50.459 25.1051C51.2783 26.0548 52.0297 27.0672 52.7003 28.1369C53.83 27.5942 54.4223 26.5401 54.9885 25.4703C55.526 24.4528 56.0818 23.4717 56.8202 22.5846C58.2891 20.8156 60.233 19.4771 62.3438 18.5873C65.8636 17.1053 69.6938 17.0009 73.3937 17.6924C72.0995 15.412 70.5549 13.3168 68.7493 11.4512C64.3685 10.8589 59.4998 10.6267 56.0218 13.729L56.0244 13.7316Z" fill="#DEDEDE"/>
        <path d="M69.2349 33.6395C66.7953 33.209 64.2879 33.209 61.83 33.462C59.7062 33.6812 57.4283 34.0439 55.7559 35.4685C55.8028 35.672 55.8472 35.8781 55.8863 36.0843C55.9646 36.4809 56.0585 36.9218 56.1368 37.3784C61.9474 35.9721 67.5624 38.8944 71.6979 42.829C74.2393 45.2477 76.5562 48.1674 77.8191 51.4315C78.6566 49.8268 79.2854 48.1335 79.622 46.307C80.0186 44.1571 80.0734 41.9706 79.9142 39.7971C77.3546 36.3869 73.3861 34.37 69.2349 33.6395Z" fill="#DEDEDE"/>
        <path d="M55.8945 40.6849C58.2741 41.5537 60.5154 42.7514 62.561 44.2464C67.4819 47.8445 71.0069 52.7341 73.436 58.1794C74.2866 56.7209 75.3355 55.3589 76.28 53.9786C76.6323 53.4646 76.9636 52.9428 77.2741 52.4131C76.1209 48.9795 73.6891 45.9163 71.0852 43.4376C67.1531 39.696 61.7939 36.8494 56.2546 38.2375C56.3355 39.0724 56.3016 39.9047 55.9545 40.5831C55.9363 40.6197 55.9154 40.651 55.8945 40.6823V40.6849Z" fill="#DEDEDE"/>
        <path d="M73.9358 18.6813C69.9646 17.8229 65.8003 17.8725 62.064 19.6519C59.9453 20.6617 58.0276 22.175 56.7282 24.1449C55.6428 25.7913 55.0453 27.9596 53.1484 28.8754C53.5607 29.5877 53.9416 30.3209 54.2834 31.0801C54.3174 31.1584 54.3513 31.2367 54.3852 31.315C57.3936 27.6125 61.9753 25.8252 66.6483 25.3086C70.0559 24.9303 73.8131 24.9981 77.0589 26.2505C76.404 24.2754 75.6552 22.342 74.815 20.4816C74.5385 19.8711 74.2436 19.271 73.9358 18.6839V18.6813Z" fill="#DEDEDE"/>
        <path d="M5.02583 25.1656C3.9378 25.87 3.56991 27.6886 3.18636 28.8262C2.64626 30.4335 2.2027 32.0721 1.86351 33.7341C1.59215 35.0648 1.09641 36.7164 1.37559 38.0784C1.59476 39.1482 2.3149 39.5474 3.19419 39.6622C3.64297 39.6622 4.09175 39.6674 4.54052 39.6778C4.59793 39.6778 4.65272 39.6726 4.71012 39.67C4.71012 39.6726 4.70751 39.6778 4.7049 39.6804C7.93767 39.7639 11.16 40.1083 14.3589 40.6093C18.1474 41.2016 21.8968 42.0104 25.6357 42.848C26.6637 43.0776 27.6918 43.315 28.7224 43.5446C29.0407 43.6151 29.4034 43.7142 29.7217 43.6516C26.9716 41.653 23.8093 40.4188 20.6339 39.2656C19.2563 38.7646 17.876 38.2741 16.514 37.7314C15.3164 37.2539 13.8475 36.8103 12.8716 35.9415C12.1385 35.2892 11.721 34.0994 12.4176 33.2645C13.1325 32.4086 14.3041 32.6748 15.186 33.0766C18.0587 34.3812 20.8714 35.8945 23.551 37.5592C24.9234 38.4098 26.2593 39.3177 27.543 40.2962C28.5789 41.0842 29.646 41.8695 30.3636 42.9732C30.3688 42.9836 30.374 42.9915 30.3792 43.0019C30.4731 42.6262 30.3531 42.1983 30.1887 41.8617C29.8052 41.0816 29.2077 40.3484 28.558 39.6648C28.5345 39.6465 28.511 39.623 28.4902 39.5943C28.4902 39.5943 28.4902 39.5917 28.4876 39.5891C27.9501 39.0333 27.3813 38.5115 26.8673 38.034C22.0846 33.5776 16.0914 30.7883 10.7739 27.052C10.7582 27.0833 10.7425 27.112 10.7295 27.1433L8.99439 26.1492C7.87245 25.5074 6.34086 24.315 5.02583 25.1656Z" fill="#DEDEDE"/>
        <path d="M77.4042 27.3253C74.2157 25.885 70.4011 25.7989 66.9622 26.1407C62.3257 26.6025 57.6214 28.382 54.7617 32.2253C55.0566 32.9846 55.3149 33.7621 55.5288 34.5475C57.1622 33.3316 59.1817 32.9141 61.1933 32.6689C63.8364 32.3453 66.5187 32.3271 69.1513 32.7524C73.1903 33.4047 77.0337 35.2363 79.7707 38.2656C79.7446 38.0412 79.7185 37.8194 79.6872 37.5976C79.228 34.1692 78.4557 30.6963 77.4042 27.3253Z" fill="#DEDEDE"/>
        <path d="M36.9581 16.5577C38.6279 11.3211 38.7923 5.72704 37.4303 0.414758C35.6248 0.336482 33.8166 0.315609 32.0137 0.34431C33.6392 5.26261 33.9366 10.541 32.8825 15.6289C34.2523 15.8507 35.6143 16.1585 36.9581 16.5604V16.5577Z" fill="#DEDEDE"/>
        <path d="M58.4177 4.50293C55.2319 5.59618 52.3931 7.43565 50.9554 10.7232C50.0448 12.8053 49.6743 15.0753 48.949 17.2201C48.4663 18.6499 47.8061 20.552 46.3711 21.2799C47.6339 22.2349 48.8107 23.2942 49.883 24.4553C51.6234 22.775 51.9887 20.2858 52.6122 18.0315C53.2202 15.8372 54.243 13.9429 56.0955 12.5653C59.4874 10.0422 63.696 10.0005 67.7429 10.4623C66.5531 9.34556 65.2642 8.32277 63.8656 7.40434C62.1357 6.26934 60.3093 5.31177 58.4151 4.50293H58.4177Z" fill="#DEDEDE"/>
        <path d="M56.2376 58.1348C55.254 60.363 54.252 62.5965 53.9911 65.0439C53.6754 67.9975 54.7191 71.0215 56.7595 73.1741C57.8736 74.3482 59.2512 75.2327 60.3914 76.3755C62.7371 70.0848 61.1638 62.873 56.2376 58.1348Z" fill="#DEDEDE"/>
        <path d="M32.0384 15.5004C32.0384 15.4822 32.0384 15.4639 32.0437 15.443C33.0926 10.4151 32.7534 5.20723 31.1148 0.359375C30.0503 0.385467 28.9883 0.429823 27.9316 0.492443C27.1462 0.539408 26.3635 0.599419 25.5781 0.672476C27.8794 5.12634 28.8579 10.1908 28.3465 15.1926C29.5806 15.2317 30.8121 15.3334 32.0358 15.5004H32.0384Z" fill="#DEDEDE"/>
        <path d="M45.1224 8.73817C44.7023 10.849 44.5771 13.0042 44.2092 15.1254C43.9665 16.5135 43.5178 17.8755 42.4062 18.7705C43.4917 19.3393 44.5379 19.9785 45.5373 20.6778C45.5373 20.6778 45.5399 20.6778 45.5425 20.6778C46.774 20.3829 47.3506 18.9896 47.7812 17.9225C48.2038 16.871 48.5039 15.7777 48.8013 14.6871C49.3467 12.6728 49.8659 10.5959 50.9931 8.81384C52.4725 6.47601 54.7242 4.994 57.2159 4.01556C54.5389 2.9745 51.7471 2.21262 48.9188 1.67773C46.8001 3.29021 45.6521 6.1029 45.1276 8.74078L45.1224 8.73817Z" fill="#DEDEDE"/>
        <path d="M41.5841 18.3524C41.6154 18.3002 41.6598 18.2506 41.7198 18.2115C43.4158 17.0556 43.4706 14.423 43.6949 12.5966C43.9454 10.5614 44.1724 8.50798 44.7804 6.54066C45.3648 4.65161 46.3746 2.80432 47.8174 1.47363C47.4522 1.41101 47.0869 1.35361 46.7216 1.29882C43.9559 0.88396 41.151 0.604778 38.3357 0.456055C39.6638 5.83879 39.4811 11.519 37.7852 16.813C38.0122 16.886 38.2365 16.9643 38.4609 17.0426C39.5281 17.4209 40.5718 17.8567 41.5867 18.3498L41.5841 18.3524Z" fill="#DEDEDE"/>
        <path d="M60.8408 86.8826C61.8662 87.3757 62.9673 87.6418 64.0814 87.7071C64.5615 87.0757 65.0103 86.4155 65.4199 85.7319C68.9084 79.9213 69.4772 72.8165 67.7238 66.3405C66.1166 60.3968 62.6281 55.1576 58.2316 50.9072C58.2525 52.9346 57.6133 54.9228 56.7888 56.864C56.7288 57.0075 56.6661 57.1484 56.6035 57.2919C62.0802 62.3433 63.7631 70.3065 61.0365 77.0955C61.6157 77.847 62.0489 78.7706 62.0984 79.6969C62.3489 79.9161 62.5733 80.1848 62.7638 80.5031C63.8701 82.353 62.7273 84.8135 60.499 84.8396C59.9433 84.8448 59.9433 83.9838 60.499 83.9759C62.4194 83.9525 62.8603 81.6068 61.6105 80.4327C61.6053 80.4275 61.6001 80.4249 61.5975 80.4196C60.5095 79.8117 58.8761 80.1561 58.2056 81.3668C56.9427 83.6446 58.837 85.9172 60.8356 86.88L60.8408 86.8826Z" fill="#DEDEDE"/>
        <path d="M1.35119 62.1949C2.20961 62.4089 3.08368 62.5628 3.96297 62.6646C3.8847 63.1081 3.74119 63.5386 3.54551 63.9744C3.50898 64.0552 3.47245 64.1361 3.43592 64.217C4.88401 64.4127 6.33211 64.6032 7.7802 64.8041C8.61775 64.9215 9.61967 65.1772 9.45008 66.2496C9.28831 67.2854 7.93675 68.1777 7.17748 68.7726C6.3582 69.4171 5.48152 69.9807 4.56569 70.4764C4.62831 70.5443 4.69093 70.6147 4.74051 70.6956C5.01447 71.1183 4.90228 71.4079 4.81096 71.8697C4.5683 73.0934 4.83966 74.0327 5.9329 74.7163C7.10964 75.4495 8.60992 75.8409 9.94843 76.1566C10.2276 76.2218 10.5068 76.2819 10.7886 76.3366C16.4766 76.7254 22.0107 74.051 25.2382 69.2971C25.5487 68.8405 26.2975 69.271 25.9844 69.7328C23.3935 73.5527 19.4537 76.0731 15.0833 76.9107C14.8093 78.771 14.5328 80.6287 14.2588 82.4891C14.0918 83.6241 13.917 84.7591 13.7552 85.8941C13.6169 86.8516 13.476 87.8614 13.7709 88.8059C14.3214 90.5671 16.0904 91.0681 17.729 91.3055C20.1529 91.6577 22.5873 91.9813 25.0243 92.237C29.8669 92.7458 34.7721 92.9232 39.5965 92.1378C41.4699 91.8326 43.5468 91.5273 44.6844 89.8287C45.7646 88.2162 45.7359 86.0924 45.8038 84.2346C45.9681 79.7416 46.0308 75.2486 45.9994 70.753C42.9128 72.0367 39.4347 72.2794 36.4264 70.5182C34.8922 69.6206 33.5928 68.2743 32.8701 66.6409C32.45 65.6912 32.2647 64.6893 32.2673 63.6508C32.2699 62.4767 32.51 61.2765 32.2673 60.1128C31.9882 58.7795 31.135 57.955 29.7625 57.8402C28.7554 57.7567 27.7482 57.9367 26.7411 57.8454C24.9616 57.6836 23.3257 56.5852 22.556 54.9597C21.6349 53.0132 22.1698 50.8685 22.0498 48.8098C21.9846 47.6853 21.7106 46.4224 20.8391 45.6318C19.9807 44.8517 18.8066 44.8152 17.7107 44.8987C15.5738 45.0578 13.703 45.3683 11.6574 44.5047C9.92234 43.7715 8.48468 42.4747 7.57669 40.8257C7.55059 40.7814 7.53755 40.737 7.52972 40.6927C6.46257 40.617 5.3928 40.5648 4.32304 40.5439C3.69162 42.0051 3.09673 43.4819 2.5488 44.9769C2.14699 46.0754 1.67472 47.2939 2.44704 48.3402C2.8619 48.9038 3.33155 49.196 3.34199 49.9787C3.34982 50.5762 3.13586 51.179 2.93235 51.7321C1.91477 54.5083 0.847615 57.2636 0.0909538 60.1258C-0.219538 61.3026 0.203149 61.9131 1.34336 62.1975L1.35119 62.1949ZM14.8485 89.059C14.7128 89.1503 14.551 89.2025 14.371 89.2834C14.2718 89.1999 14.1596 89.1425 14.1101 89.0512C14.0214 88.8842 14.0709 88.7015 14.1936 88.5867C14.4206 88.378 14.7885 88.4485 14.9293 88.7329C14.9894 88.8555 14.9528 88.9886 14.8485 89.059ZM18.7962 90.4784C18.6187 90.4862 18.4674 90.3401 18.4674 90.1627C18.4674 90.014 18.5848 89.8809 18.7335 89.86C18.9214 89.8339 19.0727 89.9513 19.0858 90.1392C19.1014 90.3427 18.9918 90.4706 18.7935 90.4784H18.7962ZM44.8462 79.0789C44.8775 79.0972 44.8827 79.1572 44.901 79.2015C44.8671 79.2276 44.8358 79.2537 44.8018 79.2798C44.7757 79.2224 44.7496 79.1676 44.7236 79.1102C44.7653 79.0998 44.8227 79.0658 44.8488 79.0815L44.8462 79.0789ZM40.8098 72.4881C40.7733 72.796 40.6298 73.0413 40.3897 73.2317C40.0218 73.5213 39.5678 73.4692 39.3069 73.083C39.1869 72.9056 39.1269 72.689 39.0382 72.4881H40.8098ZM38.8112 90.3819C38.9808 90.3871 39.1451 90.5593 39.1347 90.7184C39.1217 90.9115 38.9129 91.0811 38.7224 91.0524C38.5894 91.0341 38.4824 90.8802 38.4928 90.721C38.5033 90.528 38.6468 90.3766 38.8112 90.3819ZM36.8099 74.2963C36.8804 74.3119 36.9665 74.4111 36.9821 74.4841C37.016 74.6459 36.8882 74.8233 36.7656 74.7946C36.6716 74.7711 36.5986 74.6668 36.5464 74.6224C36.5464 74.3954 36.6612 74.2624 36.8125 74.2963H36.8099ZM29.0059 89.4165C29.1024 89.4399 29.1833 89.5339 29.3085 89.6252C29.2172 89.7296 29.1729 89.8235 29.1024 89.8548C28.9537 89.9174 28.8023 89.8078 28.7919 89.6539C28.7815 89.5365 28.8963 89.3904 29.0059 89.4191V89.4165ZM25.4 74.1136C25.1208 74.1162 24.9329 73.8997 24.9329 73.5735C24.9329 73.31 25.1208 73.0908 25.3661 73.0726C25.6766 73.0465 25.8983 73.2343 25.9088 73.5266C25.9192 73.8736 25.7157 74.1084 25.4026 74.1136H25.4ZM26.3184 84.7434C26.4489 84.7669 26.5376 84.8765 26.5245 85.0017C26.5037 85.1896 26.3419 85.3148 26.1697 85.2835C26.021 85.2548 25.914 85.1165 25.927 84.9678C25.9401 84.806 26.1149 84.7095 26.321 84.746L26.3184 84.7434ZM14.3553 51.4033C13.3273 50.631 12.1349 50.2136 10.9373 50.1614C11.6131 50.8137 11.2687 52.1391 10.2198 52.2618C9.65359 52.327 9.0874 52.0139 8.87084 51.4842C8.73255 51.145 8.75342 50.7667 8.89693 50.4406C8.23681 50.6545 7.60017 50.9911 7.02093 51.4529C6.59042 51.7973 5.97726 51.1894 6.41038 50.8424C8.87084 48.8777 12.2497 48.7524 14.7885 50.6571C15.2268 50.9859 14.7963 51.7347 14.3527 51.4033H14.3553ZM6.47561 47.7296C9.15785 46.8973 12.0123 46.9704 14.6423 47.954C15.159 48.1471 14.9346 48.982 14.4127 48.7863C11.9131 47.8523 9.25439 47.7688 6.70522 48.562C6.17295 48.7263 5.94595 47.894 6.47561 47.7296Z" fill="#DEDEDE"/>
        <path d="M11.1667 26.2763C14.3681 28.5333 17.7992 30.4432 21.0868 32.5723C23.4585 34.1091 25.7781 35.7815 27.8184 37.7463C27.8341 36.1442 29.2613 34.6622 30.8112 34.0047C33.1907 32.9897 35.9278 32.9167 37.6811 35.0719C39.1971 36.9348 39.9563 40.1258 39.4423 42.4741C38.9205 44.8641 36.4496 46.5261 34.1692 47.0193C34.0883 47.0375 34.0074 47.0506 33.9265 47.0636C37.2245 53.357 41.8245 59.3189 48.4205 62.2282C48.4153 62.176 48.4153 62.1238 48.4101 62.069C48.7049 61.7142 48.9841 61.3489 49.2528 60.9758C49.245 60.9419 49.2398 60.9105 49.2424 60.8818C49.2502 60.8375 49.3416 60.7696 49.3859 60.7775C49.3885 60.7775 49.3911 60.7775 49.3937 60.7801C50.6931 58.9302 51.7003 56.8611 52.4047 54.7111C53.7015 50.7426 53.9494 46.5705 53.6937 42.4219C53.6676 42.3749 53.6441 42.3228 53.6311 42.2654C53.605 42.1479 53.5997 42.0227 53.5867 41.9079C53.6023 41.7801 53.6049 41.6574 53.6337 41.5374C53.6728 41.3704 53.7719 41.2426 53.8998 41.1669C53.6389 41.0103 53.3962 40.786 53.2057 40.512C52.089 38.9126 51.395 36.9113 50.667 35.111C49.1746 31.4242 47.8048 27.5679 45.2164 24.4786C42.576 21.3267 38.9544 19.8212 34.9024 19.5368C32.3323 19.3568 29.7153 19.5159 27.1375 19.9021C27.0931 20.103 26.9105 20.2517 26.6652 20.2439C26.6234 20.2152 26.5426 20.1839 26.5139 20.1291C26.493 20.09 26.4825 20.0508 26.4773 20.0065C25.0658 20.2387 23.6699 20.5361 22.3026 20.8779C21.2616 21.1388 20.231 21.4363 19.2082 21.7677C18.2193 22.0886 17.2356 22.5556 16.2076 22.733C15.6492 22.8296 15.0387 22.767 14.5221 22.5478C13.1757 23.5445 12.0173 24.7604 11.1641 26.2815L11.1667 26.2763ZM37.7568 47.9873C37.6864 47.9664 37.6003 47.8803 37.5872 47.8099C37.5559 47.6585 37.6837 47.5072 37.8064 47.5098C37.9081 47.5098 37.9864 47.635 37.976 47.7759C37.9655 47.9116 37.869 48.0212 37.7568 47.9873ZM52.0186 51.6114C52.1699 51.5879 52.3317 51.721 52.376 51.9037C52.4047 52.0185 52.3186 52.1385 52.1882 52.1672C51.9977 52.2089 51.8177 52.1046 51.7968 51.9428C51.7785 51.8019 51.8907 51.6297 52.016 51.6114H52.0186ZM45.8557 41.0938C45.6 41.0808 45.48 40.9295 45.5008 40.6424C45.5165 40.3998 45.6417 40.2824 45.8766 40.2928C46.1975 40.3059 46.3984 40.4702 46.3828 40.7051C46.3645 40.9582 46.1584 41.1095 45.8583 41.0938H45.8557ZM47.2229 46.3174C47.3821 46.307 47.476 46.4009 47.4525 46.4948C47.4264 46.607 47.3403 46.6618 47.236 46.6357C47.1812 46.6227 47.0951 46.534 47.1029 46.5001C47.1238 46.4218 47.1916 46.3565 47.2203 46.3148L47.2229 46.3174ZM46.1479 35.1867C46.4636 35.1658 46.6932 35.3771 46.782 35.7711C46.7924 35.8181 46.8002 35.8677 46.8054 35.9146C46.8289 36.246 46.628 36.5043 46.3253 36.5382C45.9496 36.58 45.7096 36.3921 45.6678 36.0242C45.6626 35.9746 45.6626 35.9277 45.66 35.8781C45.66 35.4554 45.8348 35.2075 46.1505 35.184L46.1479 35.1867ZM45.0234 39.5414C45.099 39.437 45.2399 39.3822 45.3078 39.3353C45.5609 39.3509 45.7018 39.5753 45.6443 39.7658C45.5843 39.9667 45.3626 40.1102 45.1408 40.0815C45.099 40.0763 45.0468 40.0449 45.0234 40.0084C44.9164 39.8545 44.9216 39.6771 45.0234 39.5388V39.5414ZM44.1806 57.1899C44.2928 57.2812 44.4467 57.3464 44.4937 57.456C44.5563 57.5995 44.5589 57.7821 44.5433 57.9439C44.5224 58.1448 44.3058 58.2518 44.1023 58.1996C43.9197 58.1526 43.8075 58.0326 43.7736 57.8526C43.737 57.6595 43.7162 57.4612 43.8988 57.3229C43.9719 57.2681 44.0684 57.242 44.1832 57.1899H44.1806ZM43.6692 53.7327C43.724 53.7536 43.7684 53.8084 43.8492 53.8788C43.7501 53.9232 43.6823 53.978 43.6353 53.9649C43.5935 53.9519 43.5674 53.8605 43.5596 53.8005C43.557 53.7823 43.6431 53.7223 43.6692 53.7327ZM43.2622 54.9773C43.2309 55.2669 43.0221 55.4417 42.7586 55.4052C42.696 55.3974 42.6203 55.3504 42.5838 55.3008C42.4716 55.1521 42.5159 54.9068 42.6673 54.7816C42.816 54.6563 43.0743 54.6642 43.1917 54.8077C43.2335 54.8599 43.2465 54.9355 43.2648 54.9773H43.2622ZM43.0221 52.4307C43.03 52.7308 42.7873 52.9238 42.422 52.9082C42.182 52.8978 42.0489 52.736 42.0567 52.462C42.0672 52.1202 42.2498 51.8958 42.5081 51.9115C42.7899 51.9298 43.0143 52.1567 43.0221 52.4307ZM42.1298 29.363C42.2263 29.3865 42.3072 29.4804 42.4325 29.5717C42.3411 29.6761 42.2968 29.77 42.2263 29.8013C42.0776 29.8639 41.9263 29.7543 41.9158 29.6004C41.9054 29.483 42.0202 29.3369 42.1298 29.3656V29.363ZM39.9094 44.3162C39.8963 44.5667 39.8181 44.7389 39.6563 44.8667C39.5284 44.9711 39.3067 44.9763 39.1762 44.885C39.0483 44.7936 39.004 44.5875 39.0744 44.4205C39.1684 44.1961 39.351 44.0918 39.5806 44.0553C39.758 44.0292 39.9198 44.1805 39.9094 44.311V44.3162ZM39.4423 24.6899C39.5728 24.7134 39.6615 24.823 39.6485 24.9482C39.6276 25.1361 39.4658 25.2613 39.2936 25.23C39.1449 25.2013 39.0379 25.063 39.051 24.9143C39.064 24.7526 39.2388 24.656 39.4449 24.6925L39.4423 24.6899ZM31.8575 29.8039C32.0453 29.7778 32.1966 29.8952 32.2097 30.0831C32.2253 30.2866 32.1158 30.4145 31.9175 30.4223C31.74 30.4301 31.5887 30.284 31.5887 30.1066C31.5887 29.9579 31.7061 29.8248 31.8548 29.8039H31.8575ZM27.3149 28.5306C27.5419 28.3219 27.9098 28.3924 28.0507 28.6768C28.1107 28.7994 28.0741 28.9325 27.9698 29.0029C27.8341 29.0942 27.6723 29.1464 27.4923 29.2273C27.3932 29.1438 27.281 29.0864 27.2314 28.9951C27.1427 28.8281 27.1922 28.6454 27.3149 28.5306ZM24.917 22.4121C25.0423 22.4382 25.1336 22.613 25.0919 22.7696C25.0579 22.8948 24.9849 22.9887 24.8388 22.9887C24.6953 22.9887 24.5909 22.8296 24.617 22.6704C24.6431 22.5165 24.7944 22.386 24.917 22.4121Z" fill="#DEDEDE"/>
        <path d="M55.1739 41.334C55.033 41.3862 54.8869 41.4097 54.7382 41.4097C54.9365 41.7436 54.9052 42.2472 54.6286 42.5238C54.4773 42.6751 54.2973 42.7221 54.1016 42.6855C55.5105 44.131 56.7707 45.7096 57.5405 47.5699C57.6083 47.5699 57.6761 47.596 57.7388 47.6534C57.7727 47.6821 57.7831 47.7343 57.8249 47.81C57.7883 47.8674 57.757 47.9456 57.7101 48.0083C57.7205 48.0344 57.7309 48.0604 57.7388 48.0839C57.9214 48.5979 58.0466 49.1093 58.1275 49.6181C60.8985 52.1725 63.3459 55.0896 65.261 58.3432C65.5559 58.8468 65.8376 59.3556 66.1064 59.8748C66.1194 59.8748 66.1325 59.8722 66.1481 59.8748C66.5004 59.9009 66.7456 59.7574 66.9909 59.5434C67.1292 59.4234 67.3092 59.4365 67.471 59.5382C67.6328 59.64 67.6875 59.7913 67.6719 59.9766C67.6484 60.227 67.4971 60.3497 67.2257 60.3288C67.1527 60.3236 67.0822 60.2923 67.0118 60.2871C66.9674 60.2844 66.9205 60.3105 66.8631 60.3262C66.7169 60.4932 66.6361 60.6732 66.6047 60.8741C69.1983 66.3351 70.2524 72.5293 69.0939 78.5122C68.4546 81.8232 67.0979 84.9829 65.1436 87.7095C67.9589 87.5582 70.7325 86.1753 72.4623 83.9393C75.8412 79.5715 73.7722 73.9331 72.5458 69.1844C71.8596 66.5334 71.343 63.7442 72.1466 61.0568C72.3475 60.381 72.6163 59.7339 72.932 59.1103C70.649 53.8293 67.2362 48.9763 62.7458 45.4721C62.6257 45.5635 62.4666 45.6156 62.2735 45.613C61.8613 45.6052 61.6108 45.3417 61.6029 44.9138C61.6029 44.8172 61.6134 44.7285 61.6343 44.6476C59.6722 43.27 57.5196 42.1428 55.1818 41.3392C55.1792 41.3392 55.1765 41.3392 55.1739 41.3366V41.334ZM70.5446 80.1012C70.6177 80.0933 70.7507 80.169 70.769 80.2316C70.8186 80.4143 70.8264 80.6099 70.842 80.7482C70.829 80.9491 70.8238 81.0926 70.8055 81.2361C70.782 81.4057 70.5368 81.4918 70.4063 81.3797C70.2185 81.2179 70.0932 81.0117 70.0384 80.7717C69.9732 80.469 70.2211 80.1351 70.5472 80.1012H70.5446ZM69.8636 70.8333C70.0019 70.8151 70.1376 70.9403 70.1428 71.0943C70.148 71.2508 70.0462 71.3891 69.908 71.4074C69.7749 71.423 69.634 71.2926 69.6262 71.1438C69.6183 70.9899 69.7227 70.8516 69.861 70.836L69.8636 70.8333ZM68.2877 58.0666C68.4416 58.0745 68.5512 58.2023 68.5381 58.3589C68.5251 58.518 68.4077 58.6198 68.2485 58.6146C68.0946 58.6094 67.9902 58.4867 68.0006 58.3223C68.0111 58.1658 68.1311 58.0588 68.2903 58.0666H68.2877ZM67.2466 51.4393C67.3849 51.4315 67.471 51.4967 67.4945 51.6324C67.518 51.7629 67.4371 51.8751 67.2544 51.8959C67.2075 51.8464 67.1109 51.7811 67.0744 51.6898C67.0248 51.5724 67.1266 51.4472 67.2466 51.4393ZM65.6602 57.7614C65.8272 57.7483 65.9785 57.897 65.9811 58.0745C65.9811 58.2415 65.8376 58.3902 65.6654 58.4058C65.4984 58.4189 65.3367 58.2623 65.3471 58.0953C65.3549 57.9179 65.4906 57.7744 65.6602 57.764V57.7614ZM62.9675 52.9996C63.0928 53.0205 63.1867 53.0936 63.1945 53.2866C63.1424 53.3206 63.0719 53.3936 62.9936 53.404C62.8841 53.4197 62.7666 53.2788 62.7797 53.164C62.7901 53.0596 62.8554 52.9787 62.9675 52.9996Z" fill="#DEDEDE"/>
    </g>
    <defs>
        <clipPath id="clip0_1194_107871">
            <rect width="80" height="92.3388" fill="white" transform="translate(0 0.331055)"/>
        </clipPath>
    </defs>
</svg>
