<svg width="16" height="16" viewBox="0 0 16 16" fill="none" xmlns="http://www.w3.org/2000/svg">
    <path d="M14.2607 1.73828C12.6084 0.0859374 9.93457 0.0859374 8.28418 1.73828L6.3916 3.63086L7.3877 4.62695L9.28027 2.73438C10.3311 1.68359 12.1045 1.57227 13.2646 2.73438C14.4268 3.89648 14.3154 5.66797 13.2646 6.71875L11.3721 8.61133L12.3701 9.60938L14.2627 7.7168C15.9111 6.06445 15.9111 3.39063 14.2607 1.73828ZM6.71973 13.2656C5.66895 14.3164 3.89551 14.4277 2.73535 13.2656C1.57324 12.1035 1.68457 10.332 2.73535 9.28125L4.62793 7.38867L3.62988 6.39063L1.7373 8.2832C0.0849609 9.93555 0.0849609 12.6094 1.7373 14.2598C3.38965 15.9102 6.06348 15.9121 7.71387 14.2598L9.60644 12.3672L8.61035 11.3711L6.71973 13.2656ZM3.08301 2.08984C3.05364 2.06077 3.01398 2.04445 2.97266 2.04445C2.93133 2.04445 2.89167 2.06077 2.8623 2.08984L2.08887 2.86328C2.05979 2.89265 2.04348 2.93231 2.04348 2.97363C2.04348 3.01496 2.05979 3.05462 2.08887 3.08398L12.917 13.9121C12.9775 13.9727 13.0771 13.9727 13.1377 13.9121L13.9111 13.1387C13.9717 13.0781 13.9717 12.9785 13.9111 12.918L3.08301 2.08984Z" fill="#DEDEDE"/>
</svg>
