<svg width="120" height="140" viewBox="0 0 120 140" fill="none" xmlns="http://www.w3.org/2000/svg">
    <path d="M63.588 73.6319C64.1568 73.6097 64.7256 73.5963 65.2988 73.5919C65.5966 73.5919 66.7564 73.783 67.0008 73.5475C67.4363 73.5563 67.4096 73.3208 66.9208 72.8409C66.6231 72.7609 66.3253 72.6898 66.0232 72.6321C65.3922 72.5032 64.7567 72.4099 64.1168 72.3477C62.8859 72.2277 61.6373 72.2188 60.4019 72.321C59.1488 72.4232 53.6653 73.032 53.332 74.8895C55.5005 74.4495 57.6868 74.1074 59.8909 73.8896C61.1218 73.7696 62.3527 73.6852 63.588 73.6363V73.6319Z" fill="#DEDEDE"/>
    <path d="M28.9108 80.355C29.4929 80.7016 31.3548 79.9328 32.0124 79.7951C34.1632 79.3329 36.3139 78.8708 38.4647 78.4131C36.2073 77.3599 33.4389 77.1155 31.2304 77.6843C30.7638 77.8043 30.3016 77.9732 29.8795 78.2087C29.444 78.4531 27.6354 79.5995 28.9063 80.3594L28.9108 80.355Z" fill="#DEDEDE"/>
    <path d="M33.9133 43.2192C32.5891 45.2677 31.5448 47.5384 29.6518 49.147C27.6922 50.809 25.1948 51.6755 23.3329 53.4663C21.4577 55.2704 20.249 57.6522 19.3914 60.0829C17.3028 66.0241 16.0586 73.2406 17.2273 79.7373C19.5869 81.8747 22.3286 83.6922 24.9237 85.2741C23.8173 80.2172 22.2886 75.1914 22.6353 69.9923C22.9552 65.1443 24.866 60.0118 29.2385 57.4389C31.7226 55.977 34.6465 55.617 37.2327 54.4039C40.1789 53.0175 41.6853 50.7068 41.4986 47.4184C41.3564 44.8589 40.1389 42.1527 40.4499 39.5887C37.7482 38.6289 35.2508 41.1573 33.9133 43.2281V43.2192Z" fill="#DEDEDE"/>
    <path d="M59.4814 111.234C55.5976 111.678 51.8027 112.598 48.1367 113.962C51.8827 116.966 57.5084 115.7 59.4814 111.234Z" fill="#DEDEDE"/>
    <path d="M101.644 83.4924C109.527 75.0184 112.313 62.4828 107.901 51.338C106.51 47.8231 104.332 44.9169 102.342 41.7441C101.342 40.1489 100.489 38.4825 100.075 36.6295C99.6221 34.5987 99.6709 32.488 99.7243 30.4216C99.8176 26.7956 99.9687 23.0763 98.3823 19.708C97.0758 16.9395 94.694 14.7577 92.01 13.3402C84.598 9.42973 76.2706 11.4161 68.6719 13.7357C72.2268 17.3528 75.4529 21.2899 78.3991 25.4314C78.4213 25.4225 78.4435 25.4136 78.4702 25.4047C84.6336 23.6806 90.9613 27.991 91.3079 34.4609C91.4146 36.4206 90.948 38.3492 90.9258 40.3044C90.9036 42.6062 91.8456 44.0148 93.2454 45.7301C95.2406 48.1697 95.8627 51.0803 94.3608 53.9598C94.3385 53.9998 94.3119 54.0353 94.2897 54.0709C95.3295 56.3238 96.3604 58.5768 97.378 60.8386C98.1379 62.5272 100.324 65.7489 98.2223 67.3041C98.2045 67.3175 98.1912 67.3264 98.1734 67.3352C100.04 70.6236 98.5156 74.4762 98.5867 78.0623C98.64 80.6752 99.8709 82.4171 101.648 83.4836L101.644 83.4924Z" fill="#DEDEDE"/>
    <path d="M11.0909 66.0688C10.5444 70.8902 12.5173 74.8006 15.5168 78.0445C15.0236 73.3209 15.6812 68.5439 16.7699 63.9403C17.7298 59.8743 19.1118 55.6084 22.1379 52.5867C23.7287 50.9958 25.7462 50.0893 27.5947 48.854C29.8432 47.352 31.003 45.1213 32.3939 42.8861C34.1047 40.1311 36.9709 37.3715 40.317 38.0603C41.2501 36.1717 38.2062 35.1008 36.8242 34.8386C35.4112 34.572 33.9492 34.6298 32.5183 34.692C25.6573 36.6117 19.4006 40.4732 15.1169 46.3611C14.9703 46.5655 14.7658 46.6588 14.5659 46.6766C13.2328 48.7073 12.5351 51.1291 12.744 53.6265C12.9306 55.8839 14.3704 58.1279 13.295 60.3231C12.3396 62.2739 11.3442 63.8558 11.0909 66.0732V66.0688Z" fill="#DEDEDE"/>
    <path d="M56.9455 107.955C55.448 107.19 54.2171 107.497 52.9684 108.484C52.0708 109.19 51.5953 109.083 50.5244 109.061C48.5869 109.021 48.0537 110.879 47.8359 112.51C51.502 111.154 55.2924 110.252 59.1718 109.794C58.5185 109.07 57.8075 108.395 56.9455 107.955Z" fill="#DEDEDE"/>
    <path d="M96.5564 67.5528C95.5077 67.0551 94.7479 65.4198 94.2146 64.5622C92.766 62.2248 91.1751 59.9763 89.4554 57.8345C85.9716 53.5063 81.9678 49.5781 77.5553 46.1965C69.4011 39.9531 59.6206 35.194 49.3691 33.7275C46.694 34.0786 44.9654 36.296 44.9609 38.7222C45.0676 38.8067 45.152 38.9355 45.1787 39.1222C46.0852 45.25 53.3728 45.8232 58.252 45.9388C67.3037 46.1476 76.9198 48.7472 82.0123 56.8924C84.563 60.9673 85.2651 65.8597 87.558 70.0501C89.6376 73.8495 93.0859 76.6801 97.1608 78.071C97.1652 74.4805 98.7116 70.6545 96.5564 67.5528Z" fill="#DEDEDE"/>
    <path d="M86.4103 71.0143C83.9085 66.575 83.2508 61.3093 80.3713 57.0656C77.5185 52.8618 72.9637 50.0934 68.1468 48.7026C65.4583 47.9249 62.6855 47.5605 59.8904 47.4539C57.202 47.3561 54.478 47.4272 51.8296 46.8584C49.5278 46.3608 47.2171 45.2098 45.6484 43.4546C45.8751 45.983 45.6484 49.2936 47.4437 51.1155C49.1856 52.8796 52.1406 53.0707 54.4425 53.444C57.3664 53.9239 60.2859 54.4927 63.1387 55.3014C68.2312 56.7456 73.137 59.0074 77.0697 62.6157C78.856 64.2554 80.4246 66.1706 81.6066 68.2903C82.8909 70.5921 83.3575 73.045 84.144 75.529C84.6195 77.031 85.3838 78.5463 86.868 79.2662C88.4232 80.0216 89.6453 79.1373 90.965 78.3774C91.5738 78.0264 92.1959 77.7731 92.818 77.6353C90.1829 76.0089 87.9567 73.756 86.4147 71.0187L86.4103 71.0143Z" fill="#DEDEDE"/>
    <path d="M41.8991 37.0957C42.3079 36.8868 42.7967 36.8379 43.3566 37.0557C43.4677 37.1001 43.5655 37.149 43.6632 37.2068C44.0454 35.6737 44.9741 34.3095 46.2939 33.3896C45.7518 33.3497 45.2141 33.3141 44.672 33.2919C42.4368 33.1986 40.1838 33.3008 37.9531 33.5852C38.5308 33.7451 39.0951 33.954 39.6373 34.2428C40.8015 34.8605 41.7347 35.9048 41.8947 37.0957H41.8991Z" fill="#DEDEDE"/>
    <path d="M87.2105 28.7861C85.1042 26.7509 82.1047 26.0799 79.3008 26.7154C81.1449 29.3816 82.8735 32.1322 84.5043 34.9273C87.7749 40.5352 90.681 46.3519 93.4317 52.2309C93.445 52.2576 93.4539 52.2843 93.4672 52.3109C93.9427 50.8623 93.8227 49.2937 93.0317 47.9295C92.3741 46.7963 91.3698 45.9076 90.6455 44.8189C89.0635 42.446 89.4679 39.6909 89.7301 37.0069C90.0278 33.9274 89.5212 31.0124 87.2105 28.7817V28.7861Z" fill="#DEDEDE"/>
    <path d="M18.5381 20.9031C15.0409 27.9285 15.0543 35.8116 15.5475 43.4814C19.849 38.5533 25.5636 35.1806 31.7847 33.3676C31.8914 33.292 32.0247 33.2387 32.1846 33.2298C32.2113 33.2298 32.238 33.2298 32.2646 33.2298C36.024 32.1855 39.9611 31.7101 43.8759 31.7945C45.7512 31.8389 47.6131 31.99 49.4572 32.2389C49.6261 32.2211 49.7994 32.2122 49.9727 32.2078C50.186 32.2033 50.3459 32.2744 50.4659 32.3855C51.8612 32.6032 53.2432 32.8832 54.6163 33.212C54.5896 33.1276 54.5674 33.0432 54.5674 32.9454C54.5674 32.3455 55.0518 31.8567 55.6694 31.8256C56.2116 31.7989 56.6426 32.1855 56.6604 32.7099C56.6737 33.132 56.5182 33.4475 56.2294 33.6253C72.8665 38.1489 87.5306 50.5246 96.2135 65.0243C96.3513 65.2598 96.489 65.4953 96.6357 65.7308C96.9379 65.4553 97.24 65.1798 97.5422 64.9043C97.5955 64.7488 97.1334 63.8956 97.0134 63.6201C96.7157 62.9402 96.4046 62.2648 96.098 61.5893C95.4892 60.234 94.876 58.8831 94.2583 57.5278C92.9474 54.6572 91.6188 51.791 90.2412 48.9515C87.7439 43.7969 85.0777 38.7133 82.1182 33.8075C82.0604 33.7364 82.0116 33.6608 81.976 33.5764C81.776 33.2476 81.5805 32.9187 81.3806 32.5899C77.0302 25.5467 71.9644 18.8767 65.9965 13.14C61.7173 10.5271 56.9803 8.65184 52.0523 7.70089C39.7211 5.32797 24.5682 8.79848 18.5381 20.9031ZM18.7114 31.279C18.3337 31.319 18.0271 31.0968 18.0004 30.7591C17.9693 30.3547 18.2537 30.017 18.6448 30.0037C18.978 29.9904 19.2624 30.2614 19.2935 30.6169C19.3246 30.9724 19.0847 31.239 18.7114 31.279ZM88.015 50.4801C88.1749 50.0935 88.486 49.9202 88.877 49.858C89.1792 49.8136 89.4547 50.0713 89.4369 50.2935C89.4147 50.7201 89.277 51.0134 89.0059 51.2311C88.7882 51.4089 88.4104 51.4178 88.1883 51.2622C87.9705 51.1067 87.895 50.7556 88.015 50.4713V50.4801ZM84.7933 38.6378C84.8288 38.6555 84.8599 38.6733 84.8955 38.6911C84.8599 38.7444 84.8288 38.8022 84.7888 38.8466C84.7844 38.8555 84.7266 38.8155 84.6911 38.7977C84.7266 38.7444 84.7577 38.6911 84.7933 38.6378ZM81.1406 43.4325C81.3494 43.197 81.6649 43.1036 81.9049 43.2236C82.1626 43.3525 82.216 43.5836 82.2115 43.9435C82.1671 44.0812 82.1182 44.3212 82.016 44.539C81.9049 44.7745 81.5405 44.8811 81.2606 44.8056C81.0384 44.7434 80.8917 44.5167 80.8873 44.2323C80.8873 43.9391 80.9273 43.6635 81.1361 43.4325H81.1406ZM79.0343 42.7926C79.5187 42.7615 79.8564 43.1925 79.8475 43.828C79.843 44.4101 79.5409 44.7878 79.0965 44.7834C78.5099 44.7745 78.0878 44.3434 78.0878 43.748C78.0878 43.2325 78.4922 42.8237 79.0343 42.7926ZM77.0613 37.478C77.1191 37.3491 77.2435 37.1936 77.3679 37.1669C77.4701 37.1447 77.6123 37.2824 77.8478 37.4113C77.6256 37.5713 77.519 37.6868 77.3901 37.7312C77.2257 37.789 77.0035 37.6068 77.0657 37.478H77.0613ZM75.7282 25.5822C76.0481 25.5378 76.3059 25.7378 76.3281 26.0577C76.3548 26.4043 76.1681 26.6221 75.8304 26.6354C75.5282 26.6487 75.2705 26.3999 75.2705 26.0977C75.2705 25.8444 75.4705 25.6178 75.7238 25.5822H75.7282ZM67.9918 23.4137C68.3784 23.0582 69.0049 23.1782 69.2449 23.667C69.3471 23.8759 69.2849 24.1025 69.1071 24.2225C68.8761 24.378 68.6005 24.4669 68.2939 24.6046C68.1251 24.4624 67.934 24.3647 67.8496 24.2091C67.6985 23.9247 67.7829 23.6137 67.9918 23.4182V23.4137ZM63.908 12.9933C64.1213 13.0377 64.2768 13.3355 64.2057 13.6021C64.148 13.8154 64.0236 13.9798 63.7747 13.9754C63.5303 13.9754 63.3526 13.7043 63.397 13.4332C63.4414 13.1711 63.6992 12.9489 63.908 12.9889V12.9933ZM52.8388 31.0435C53.1899 31.0613 53.4743 31.3901 53.421 31.7145C53.3765 31.99 53.0832 32.2078 52.7811 32.19C52.5011 32.1766 52.2878 31.9145 52.2789 31.5812C52.27 31.2835 52.5367 31.0302 52.8388 31.0435ZM42.645 14.5219C42.8983 14.5486 43.085 14.7752 43.0539 15.1263C42.9561 15.1929 42.8183 15.3485 42.6495 15.3885C42.4184 15.4418 42.2407 15.1929 42.2584 14.8952C42.2718 14.673 42.4495 14.4997 42.645 14.5175V14.5219ZM41.4364 30.7369C41.6541 30.728 41.8496 30.7769 41.9207 31.0169C41.9918 31.2524 41.8007 31.5145 41.543 31.5456C41.2942 31.5768 41.0587 31.3723 41.0409 31.1191C41.0275 30.9191 41.1964 30.7502 41.4364 30.7369Z" fill="#DEDEDE"/>
    <path d="M32.9402 108.879C33.7756 111.803 34.8288 114.754 36.1885 117.54C37.3439 119.904 38.7259 122.139 40.3789 124.134C40.4678 124.214 40.5611 124.294 40.65 124.374C41.7387 125.33 42.9029 126.205 44.1338 126.987C45.0048 127.543 45.898 128.04 46.8134 128.489C52.3857 131.222 58.7269 132.013 64.7703 130.858C67.4542 130.342 70.0804 129.444 72.5511 128.16C81.4785 123.517 87.2864 114.114 87.7485 104.107C87.7752 103.507 88.3439 103.249 88.855 103.471C89.9748 103.96 91.1968 103.969 92.2899 103.6C93.6497 102.143 94.7917 100.467 95.6627 98.6942C97.5379 94.8682 98.2311 90.6867 98.4666 86.4608C98.4755 86.4519 98.4844 86.443 98.4933 86.4386C98.48 85.7365 98.4444 85.0344 98.3555 84.3323C97.9734 81.315 95.5427 77.5912 92.0766 79.4265C89.9703 80.5374 88.1706 81.7905 85.8244 80.3907C83.527 79.0176 82.8116 76.4003 82.1939 73.9741C79.4299 63.1093 69.1073 57.9768 58.9313 55.7772C56.3673 55.2218 53.7633 54.9152 51.1993 54.3775C49.2796 53.9731 47.2933 53.2843 46.0091 51.7202C44.5471 49.9382 44.596 47.5653 44.396 45.3879C44.2449 43.7393 44.0183 42.0952 43.6939 40.4732C43.6939 40.4688 43.6939 40.4643 43.6939 40.4599C43.6095 40.1444 43.5428 39.8244 43.5073 39.5089C43.4584 39.3356 43.3962 39.1712 43.3073 39.0379C42.5608 37.927 42.0231 38.9357 41.9164 39.6645C41.5743 41.9752 42.7163 44.6147 42.9252 46.9388C43.1251 49.1517 42.7874 51.4224 41.3343 53.1821C37.9927 57.2303 31.9093 56.5282 28.2033 60.0387C24.8483 63.2204 23.844 68.2328 24.0795 72.6854C24.3462 77.7645 25.9681 82.6526 26.8702 87.6473C29.8074 94.3528 30.9406 101.894 32.9358 108.884L32.9402 108.879ZM91.2146 83.2391C95.2716 85.9053 94.6095 90.9845 93.2098 94.9615C92.8987 95.8503 91.4767 95.4637 91.7922 94.5705C92.9387 91.3133 93.9163 86.7763 90.4725 84.51C89.6859 83.9901 90.4236 82.7192 91.2146 83.2391ZM80.292 118.571C80.5142 118.611 80.6653 118.797 80.6431 119.011C80.6075 119.331 80.332 119.544 80.0387 119.491C79.7854 119.442 79.6032 119.206 79.6255 118.953C79.6477 118.677 79.9454 118.513 80.2964 118.575L80.292 118.571ZM78.6701 98.6942C79.1989 98.6498 79.5766 98.9697 79.5943 99.4674C79.6121 100.058 79.2655 100.458 78.7323 100.467C78.2568 100.472 77.9369 100.103 77.9369 99.5474C77.9369 99.0986 78.2568 98.7253 78.6745 98.6942H78.6701ZM36.0997 100.392C36.073 100.334 36.0463 100.276 36.0197 100.218C36.0508 100.205 36.1086 100.174 36.1086 100.178C36.1397 100.232 36.1663 100.29 36.193 100.347C36.1619 100.361 36.1308 100.374 36.0997 100.387V100.392ZM39.0592 84.63C37.806 84.2212 36.544 84.0701 35.3176 84.159C35.5131 84.2923 35.6953 84.4523 35.8508 84.6522C36.7662 85.8031 36.4507 87.4873 35.1843 88.2427C33.9934 88.9537 32.4381 88.5182 31.736 87.3362C31.3449 86.683 31.3049 85.9453 31.5227 85.2832C30.4606 85.8698 29.4964 86.6696 28.6698 87.6784C28.07 88.4116 27.0346 87.3673 27.63 86.6385C30.5095 83.1192 35.1309 81.8127 39.4458 83.2169C40.3434 83.5102 39.9568 84.9277 39.0547 84.6344L39.0592 84.63ZM60.7532 125.921C60.5221 126.076 60.2466 126.165 59.94 126.303C59.7711 126.161 59.5756 126.063 59.4956 125.907C59.3445 125.623 59.429 125.312 59.6378 125.116C60.0244 124.761 60.651 124.881 60.8909 125.365C60.9931 125.574 60.9309 125.801 60.7532 125.921ZM61.2109 110.794C61.2109 110.794 61.2109 110.821 61.202 110.834C59.1268 117.313 50.9104 119.233 46.2535 114.212C45.938 113.874 46.0046 113.443 46.2846 113.172C46.4579 111.43 46.7067 109.563 48.1287 108.364C48.7019 107.884 49.444 107.546 50.1994 107.533C50.7993 107.524 51.2926 107.799 51.9236 107.439C52.1858 107.288 52.4035 106.982 52.6568 106.804C55.8518 104.538 59.149 107.475 61.1487 109.848C61.4064 110.154 61.3975 110.532 61.2064 110.794H61.2109ZM67.4764 128.334C67.1743 128.347 66.9165 128.098 66.9165 127.796C66.9165 127.543 67.1165 127.316 67.3698 127.28C67.6897 127.236 67.9475 127.436 67.9741 127.756C68.0008 128.102 67.8142 128.32 67.4764 128.334ZM69.6094 80.1597C67.8408 79.2309 65.9656 78.7821 64.1126 78.7777C64.9613 79.7642 65.0013 81.2173 64.1704 82.2571C63.2727 83.3769 61.6597 83.5813 60.4821 82.7681C59.4912 82.0838 59.1446 80.8173 59.4823 79.7242C57.7892 80.4529 56.2428 81.5861 54.9808 83.1014C54.3721 83.8301 53.3367 82.7814 53.941 82.0616C57.9981 77.2046 64.7747 75.9604 70.356 78.8888C71.1958 79.3287 70.4493 80.5996 69.6139 80.1597H69.6094ZM58.1003 71.1479C59.9089 70.8191 61.753 70.6991 63.5838 70.8279C64.9658 70.9257 66.8055 70.9835 68.0141 71.7211C68.854 72.2322 69.3428 73.2897 68.7429 74.1785C68.1208 75.1028 66.8366 75.0494 65.859 75.0539C61.5397 75.085 57.2693 75.5294 53.0434 76.4314C52.6923 76.507 52.4168 76.347 52.2613 76.1115C52.0836 76.0404 51.9414 75.8893 51.9014 75.6271C51.3726 72.4143 55.7763 71.57 58.0959 71.1479H58.1003ZM28.9631 77.0358C31.5316 75.4805 35.0287 75.7738 37.7838 76.6225C40.49 77.4579 42.8629 79.2709 43.7206 82.0038C43.845 82.1193 43.9383 82.2749 43.9605 82.4748C44.3116 85.261 44.6626 88.0472 45.0137 90.8378C45.3381 93.3885 45.6402 95.9747 46.489 98.4187C46.9156 99.6452 47.4932 101.058 48.4131 102.009C49.7106 103.351 50.5372 102.085 51.5992 101.32C52.2702 100.841 52.9634 100.729 53.7677 100.836C54.301 100.907 54.7986 101.129 55.323 101.223C55.6607 101.312 56.0029 101.329 56.3451 101.276C56.4384 100.178 56.034 99.6674 55.123 99.7474C54.1943 99.6407 54.1854 98.1699 55.123 98.2765C56.425 98.4276 57.9314 98.832 58.2958 100.294C58.5847 101.445 57.8248 102.418 56.7361 102.694C56.1451 102.845 55.5185 102.769 54.932 102.64C54.4298 102.529 53.8344 102.236 53.3145 102.254C52.4879 102.28 52.2924 102.685 51.8125 103.138C50.8749 104.027 49.8306 104.44 48.5731 103.907C45.6358 102.662 44.6404 97.8677 44.1472 95.126C43.4451 91.1844 43.0629 87.1718 42.5741 83.1947C42.5119 83.1192 42.4675 83.0214 42.4408 82.9059C42.112 81.5061 41.3032 80.3685 40.2278 79.502C40.1745 79.5287 40.1168 79.5509 40.0457 79.5642C37.9482 80.013 35.8508 80.4618 33.7534 80.9106C32.1804 81.2484 30.3451 81.9594 28.7187 81.7994C27.6656 81.6927 26.8568 81.0173 26.8479 79.9153C26.8391 78.6533 27.9589 77.6357 28.9498 77.0313L28.9631 77.0358Z" fill="#DEDEDE"/>
    <path d="M23.7418 111.43C23.3424 112.508 22.7967 113.538 22.3815 114.604C21.7172 116.32 21.2862 118.14 20.8986 119.94C20.4795 121.899 20.1473 123.877 19.9654 125.876C19.8349 127.283 19.8033 128.678 20.2976 130.024C20.6653 131.026 21.3415 132.023 22.3934 132.303C22.6979 132.327 23.0063 132.315 23.3187 132.266C26.8934 131.699 27.7435 127.62 27.3481 124.518C26.8064 120.265 25.6201 115.995 24.1847 111.977C24.0937 111.718 23.9316 111.543 23.7418 111.43Z" fill="#DEDEDE"/>
</svg>
