<svg width="24" height="24" viewBox="0 0 24 24" fill="none" xmlns="http://www.w3.org/2000/svg">
    <path d="M22.5 19.5004H21V10.8332C21 10.6256 20.957 10.4202 20.8735 10.2301C20.7901 10.04 20.6681 9.86932 20.5153 9.7288L13.0153 2.65255C13.0116 2.64935 13.0082 2.6459 13.005 2.64223C12.7289 2.39111 12.369 2.25195 11.9958 2.25195C11.6225 2.25195 11.2627 2.39111 10.9866 2.64223L10.9762 2.65255L3.48469 9.7288C3.33187 9.86932 3.20989 10.04 3.12646 10.2301C3.04303 10.4202 2.99997 10.6256 3 10.8332V19.5004H1.5C1.30109 19.5004 1.11032 19.5794 0.96967 19.72C0.829018 19.8607 0.75 20.0514 0.75 20.2504C0.75 20.4493 0.829018 20.64 0.96967 20.7807C1.11032 20.9213 1.30109 21.0004 1.5 21.0004H22.5C22.6989 21.0004 22.8897 20.9213 23.0303 20.7807C23.171 20.64 23.25 20.4493 23.25 20.2504C23.25 20.0514 23.171 19.8607 23.0303 19.72C22.8897 19.5794 22.6989 19.5004 22.5 19.5004ZM4.5 10.8332L4.51031 10.8238L12 3.75036L19.4906 10.8219L19.5009 10.8313V19.5004H15V15.0004C15 14.6025 14.842 14.221 14.5607 13.9397C14.2794 13.6584 13.8978 13.5004 13.5 13.5004H10.5C10.1022 13.5004 9.72064 13.6584 9.43934 13.9397C9.15804 14.221 9 14.6025 9 15.0004V19.5004H4.5V10.8332ZM13.5 19.5004H10.5V15.0004H13.5V19.5004Z" fill="#DEDEDE"/>
</svg>

