<svg width="120" height="140" viewBox="0 0 120 140" fill="none" xmlns="http://www.w3.org/2000/svg">
    <g clip-path="url(#clip0_1467_95287)">
        <path d="M64.4012 21.8766C64.1553 18.109 62.3421 12.6695 57.6114 12.8815C56.0104 12.9538 54.882 13.7921 54.0815 14.9725C53.6716 15.3724 53.3051 15.8253 52.9965 16.336C52.0272 17.9211 51.8102 19.7567 51.8295 21.5827C51.8006 21.5972 51.7765 21.6117 51.7475 21.6213C51.7379 22.5801 51.7186 23.534 51.7234 24.4832C51.7282 26.8102 51.7331 29.1373 51.7379 31.4692C51.7475 36.5473 51.762 41.6303 51.7765 46.7084L51.8488 76.5509C51.8874 93.2933 51.926 110.036 51.9694 126.778C56.2708 126.754 60.5675 126.73 64.869 126.706C64.8449 119.725 64.816 112.743 64.7918 105.767C64.7195 86.9336 64.652 68.1002 64.5797 49.2668C64.5604 44.6126 64.5459 39.9585 64.5266 35.2995C64.5122 30.8381 64.6954 26.3236 64.4061 21.8718L64.4012 21.8766Z" fill="#DEDEDE"/>
        <path d="M79.1953 24.5265C79.2146 26.9644 79.2339 29.3975 79.2532 31.8354L79.3737 46.4483C79.4557 56.4022 79.5329 66.3561 79.6149 76.31C79.7499 93.0814 79.8849 109.858 80.0247 126.629C82.7638 126.759 85.5077 126.865 88.2419 126.918C88.5313 126.923 88.8158 126.928 89.1051 126.932C89.2353 120.553 89.3607 114.179 89.4909 107.8C89.8622 89.3378 90.3975 70.8705 90.5566 52.4033C90.6338 43.1913 90.4988 33.9698 89.6742 24.7915C89.4764 22.5656 89.3173 20.3012 88.9219 18.0994C88.6133 16.3986 87.9912 14.2305 86.0719 13.7391C84.2635 13.2766 82.4793 14.4955 81.5052 15.9795C79.8463 18.0464 79.4027 20.7878 79.4412 23.5389C79.3593 23.5533 79.2773 23.5581 79.1953 23.5485C79.1953 23.8761 79.1953 24.2037 79.1953 24.5314V24.5265Z" fill="#DEDEDE"/>
        <path d="M24.532 107.989C24.9274 92.0603 25.3277 76.1273 25.7231 60.1991L26.3259 35.9841C26.4223 32.0478 26.6297 28.097 26.6056 24.1608C26.6008 23.3754 26.514 22.4359 26.3163 21.4916C26.3066 21.4579 26.297 21.4193 26.2921 21.3808C25.6894 18.6249 24.1414 15.8691 20.9394 16.7748C20.6886 16.8471 20.4765 16.7989 20.3125 16.6929C19.4589 17.5216 18.5668 18.3262 17.6554 19.1115C17.6747 19.1838 17.6843 19.2609 17.6843 19.3476C17.4095 27.8032 17.1298 36.2587 16.8549 44.7094C15.958 72.1332 15.061 99.5619 14.1641 126.986C17.4625 126.966 20.7658 126.947 24.0642 126.933L24.5368 107.989H24.532Z" fill="#DEDEDE"/>
        <path d="M11.1398 101.311C11.0916 109.361 11.0482 117.407 11 125.458C11 125.858 11.1784 126.176 11.4485 126.378C11.6173 126.735 11.9596 127 12.4756 127C12.5046 127 12.5335 127 12.5624 127C12.7601 120.92 12.9627 114.835 13.1604 108.754C14.1248 79.3165 15.0845 49.8787 16.0489 20.4458C14.6071 21.6021 13.1122 22.691 11.5835 23.7076C11.434 49.5752 11.2893 75.4429 11.1398 101.311Z" fill="#DEDEDE"/>
        <path d="M110.021 126.19C110.267 126.099 110.451 125.935 110.566 125.728C110.836 125.526 111.015 125.222 110.996 124.832C109.713 97.3116 108.782 69.7769 108.208 42.2326C108.102 37.1352 108.015 32.033 107.933 26.9308C105.869 25.6636 103.979 24.1315 102.238 22.4404C103.743 27.1139 103.222 32.6401 103.232 37.3376C103.29 67.0885 103.347 96.8394 103.41 126.59C103.921 126.557 104.437 126.523 104.948 126.484C106.385 126.475 107.827 126.47 109.264 126.46C109.583 126.46 109.833 126.354 110.021 126.19Z" fill="#DEDEDE"/>
        <path d="M99.8616 20.8266L99.7362 20.7495C99.2781 19.8967 98.6608 19.174 97.8169 18.6633C95.7385 17.4154 93.5203 18.75 92.522 20.7061C91.6203 22.4695 91.6203 24.5508 91.5817 26.4829C91.5817 26.6274 91.5431 26.7527 91.4852 26.8587C91.5913 28.4727 91.6733 30.0819 91.7601 31.6766C92.0398 36.6921 92.1459 41.7173 92.1652 46.7424C92.199 57.048 91.9 67.3536 91.6926 77.6545C91.3599 94.0837 91.032 110.513 90.6992 126.942C94.3931 126.971 98.087 126.894 101.771 126.687C101.786 126.687 101.8 126.687 101.815 126.687L101.771 105.069C101.742 90.0173 101.713 74.966 101.68 59.9099C101.665 52.3842 101.651 44.8586 101.636 37.3329C101.627 32.1921 102.432 25.6156 99.8616 20.8217V20.8266Z" fill="#DEDEDE"/>
        <path d="M50.3697 126.07C50.2636 126.176 50.1141 126.239 49.9502 126.239C49.5596 126.239 49.2751 125.955 49.2895 125.579C49.2992 125.29 49.5982 125.068 49.9502 125.087C50.1238 125.097 50.2685 125.16 50.3746 125.261C50.3746 124.384 50.3746 123.507 50.3697 122.63C50.1286 122.601 49.8971 122.409 49.8634 122.182C49.8152 121.888 50.0418 121.59 50.3697 121.479C50.3601 116.449 50.3456 111.424 50.336 106.394C50.2926 88.2974 50.2492 70.2011 50.2058 52.1048C50.1865 43.1097 50.1624 34.1146 50.1431 25.1194C50.1334 21.4096 51.0931 15.6858 47.9538 12.9396C46.049 11.2726 43.6523 11.9616 42.2538 13.8743C41.0289 15.5509 40.783 17.7768 40.5467 19.7763C40.5322 19.9064 40.4888 20.0172 40.431 20.1184C40.4888 21.6842 40.3924 23.2645 40.3586 24.8159L40.2043 31.8212C40.1031 36.4898 40.0018 41.1584 39.8957 45.827C39.6835 55.5882 39.4665 65.3542 39.2543 75.1154C38.8782 92.3638 38.4972 109.612 38.1211 126.86C42.2056 126.836 46.2949 126.817 50.3794 126.793C50.3794 126.552 50.3794 126.311 50.3794 126.075L50.3697 126.07ZM38.7914 123.141C38.5503 123.232 38.3381 122.996 38.2995 122.678C38.2706 122.428 38.4153 122.221 38.6323 122.211C38.9264 122.197 39.1193 122.375 39.1482 122.799C39.0711 122.881 38.9602 123.083 38.7962 123.141H38.7914ZM39.3556 126.634C39.1627 126.682 39.018 126.547 39.0084 126.364C39.0084 126.273 39.129 126.171 39.2592 125.988C39.3942 126.147 39.5244 126.249 39.5678 126.379C39.5871 126.441 39.452 126.615 39.3604 126.634H39.3556ZM39.2592 118.983C38.9457 119.012 38.6515 118.771 38.6178 118.453C38.5744 117.995 38.8444 117.634 39.2543 117.605C39.6064 117.581 39.9246 117.904 39.9198 118.275C39.915 118.651 39.6401 118.944 39.2592 118.983ZM42.9289 56.6723C42.9868 56.7205 43.0447 56.7686 43.1025 56.8168C43.035 56.8939 42.9675 56.971 42.9 57.0481C42.8614 56.9806 42.7891 56.9084 42.7891 56.8457C42.7891 56.7879 42.8807 56.7301 42.9289 56.6723ZM42.0898 115.606C42.0802 115.529 42.0609 115.451 42.0609 115.374C42.0609 115.365 42.1381 115.355 42.1766 115.345C42.1863 115.423 42.2056 115.5 42.2056 115.577C42.2056 115.586 42.1284 115.596 42.0898 115.606ZM42.9482 110.547C42.1911 110.643 41.4726 110.094 41.4003 109.366C41.3327 108.677 41.7812 107.993 42.3454 107.926C43.0832 107.839 43.9705 108.494 44.0381 109.174C44.0911 109.723 43.4931 110.474 42.9482 110.542V110.547ZM44.4431 99.9569C44.0429 99.9569 43.7391 99.6533 43.768 99.2872C43.7969 98.9547 44.067 98.7331 44.4142 98.7524C44.8241 98.7765 45.1182 99.0607 45.1086 99.4221C45.099 99.7063 44.7855 99.9617 44.4431 99.9617V99.9569ZM46.7964 96.7481C46.3962 96.6277 46.1599 96.2229 46.237 95.7942C46.3094 95.3702 46.6566 95.11 47.2352 95.0522C47.7657 94.9992 48.2093 95.2256 48.3154 95.6448C48.354 95.8038 48.3395 96.0061 48.272 96.1603C48.0695 96.6228 47.7126 96.8204 47.1436 96.8107C47.0616 96.7963 46.9266 96.7866 46.8012 96.7481H46.7964ZM48.6096 111.226C48.5758 111.371 48.4263 111.481 48.3637 111.563C47.9972 111.563 47.7464 111.351 47.7175 111.091C47.6934 110.884 47.8959 110.711 48.1611 110.715C48.4697 110.72 48.6867 110.937 48.6144 111.221L48.6096 111.226Z" fill="#DEDEDE"/>
        <path d="M37.5914 77.77C37.7699 69.6951 37.9435 61.6202 38.1219 53.5501C37.9628 53.4923 37.8711 53.3718 37.9049 53.2417C37.9338 53.1357 38.0303 53.0201 38.1315 52.9526C38.146 52.2781 38.1605 51.6036 38.1749 50.9291C38.2569 47.1277 38.3437 43.3264 38.4257 39.525C38.3341 39.5105 38.2473 39.4864 38.1798 39.4383C37.8808 39.2407 37.8084 38.8071 38.011 38.465C38.0978 38.3157 38.281 38.2241 38.4595 38.1037C38.5559 33.676 38.6523 29.2531 38.7488 24.8254C38.8259 21.3661 39.7181 14.7221 35.1948 13.5224C34.4425 13.3201 33.7625 13.3201 33.1453 13.4694C33.0392 13.7489 32.7691 13.9271 32.3978 13.9416C32.2821 13.9416 32.176 13.932 32.0796 13.903C29.8131 15.2328 28.6123 18.7403 27.9565 21.1204C28.188 22.3923 28.2121 23.7076 28.1928 24.9988C28.159 27.3933 28.077 29.7879 28.0192 32.1824C27.2331 63.769 26.4423 95.3556 25.6562 126.947C29.2778 126.928 32.8993 126.908 36.5161 126.884C36.6848 119.185 36.8536 111.486 37.0224 103.782C37.2057 95.3507 37.3937 86.9193 37.577 78.4879C37.4805 78.4156 37.3937 78.3096 37.36 78.2084C37.3021 78.0302 37.4275 77.8278 37.5914 77.7796V77.77ZM36.1158 61.1914C36.1496 61.7021 35.8651 62.0345 35.3442 62.102C34.9633 62.1501 34.7125 61.8996 34.6836 61.4371C34.6547 60.989 34.9247 60.7288 35.4407 60.7048C35.8409 60.6855 36.0965 60.8686 36.1158 61.1914ZM35.1706 73.9108C35.1321 74.012 35.0356 74.0939 34.9247 74.2336C34.8379 74.0698 34.7849 73.9686 34.727 73.8674C34.8283 73.8193 34.9247 73.747 35.0356 73.7277C35.0742 73.7229 35.1899 73.8674 35.1706 73.9108ZM34.211 51.9794C34.7174 51.7241 35.243 51.7096 35.7107 52.071C35.8217 52.1577 35.8892 52.3745 35.8795 52.519C35.8602 52.7166 35.6625 52.7744 35.4745 52.7792C34.9729 52.7792 34.5437 52.5528 34.0567 52.4082C34.129 52.2059 34.1339 52.0228 34.2158 51.9842L34.211 51.9794ZM33.2755 36.0657C33.4491 36.4126 33.1019 36.7836 32.6968 36.7402C32.3255 36.7017 32.012 36.4174 31.9831 36.0368C31.9638 35.8151 32.0024 35.5887 32.041 35.3719C32.1471 34.7986 32.2676 34.23 32.3834 33.6519C32.7113 33.5025 32.9861 33.6519 32.9427 33.9602C32.8367 34.707 32.9427 35.3863 33.2707 36.0609L33.2755 36.0657ZM31.9349 25.4324C32.0217 25.1964 32.229 25.0566 32.4509 25.1482C32.6196 25.2204 32.7257 25.4324 32.8897 25.6155C32.6968 25.8805 32.5666 26.0973 32.3882 26.2756C32.3496 26.3141 32.1278 26.2467 32.0506 26.1696C31.8384 25.9624 31.8384 25.6926 31.9301 25.4276L31.9349 25.4324ZM30.8402 58.8932C31.0813 58.8113 31.2983 58.8787 31.4575 59.057C31.7757 59.4232 31.8288 59.8568 31.742 60.5072C31.3466 60.3338 31.0717 60.2615 30.8692 60.1073C30.7052 59.9821 30.5943 59.7556 30.5123 59.5533C30.411 59.2979 30.5943 58.9799 30.8402 58.8932ZM28.294 63.7208C28.3374 63.6582 28.4339 63.6003 28.5062 63.6052C28.5641 63.6052 28.6171 63.7063 28.675 63.7593C28.622 63.8172 28.5786 63.9039 28.5111 63.928C28.3567 63.9858 28.2121 63.8364 28.294 63.7208ZM27.7732 70.8225C27.807 70.7743 27.9179 70.7406 27.971 70.7598C28.0144 70.7791 28.0192 70.8851 28.0433 70.9526C27.971 70.9718 27.889 71.02 27.8263 71.0056C27.7925 70.9959 27.7491 70.8562 27.7732 70.8225ZM28.6075 117.08C28.3519 116.916 28.1108 116.723 27.8938 116.511C27.8215 116.439 27.7925 116.241 27.8408 116.155C27.9131 116.015 28.0674 115.923 28.1349 115.861C28.757 115.817 29.1283 116.164 29.1621 116.733C29.1765 116.998 28.8341 117.229 28.6075 117.085V117.08ZM30.9222 118.973C30.8547 118.944 30.657 118.911 30.5461 118.795C30.141 118.385 30.1651 117.778 30.5702 117.369C30.7727 117.166 31.1151 117.181 31.2549 117.427C31.4044 117.692 31.5346 117.976 31.6118 118.27C31.7131 118.66 31.4334 118.968 30.9222 118.968V118.973ZM31.8336 102.346C31.6407 102.385 31.5105 102.226 31.5298 102.038C31.5395 101.937 31.6697 101.773 31.7468 101.773C31.8818 101.773 32.0169 101.874 32.2821 101.99C32.0603 102.173 31.959 102.322 31.8336 102.346ZM32.6582 85.9942C32.3303 86.0087 32.041 85.7293 32.0651 85.4209C32.0892 85.1029 32.3641 84.862 32.7064 84.8717C33.0295 84.8813 33.3575 85.18 33.3334 85.445C33.3092 85.7148 32.9861 85.9798 32.663 85.9942H32.6582ZM34.4184 77.6977C34.2592 78.0012 33.642 78.1843 33.3478 78.0157C33.0006 77.8182 32.827 77.2834 33.0103 76.9557C33.0295 76.9172 33.0633 76.8835 33.0922 76.8546C33.3092 76.6618 33.695 76.6378 33.9747 76.8016C34.2689 76.9702 34.4618 77.2834 34.4425 77.5628C34.4328 77.6062 34.4328 77.6544 34.4135 77.6929L34.4184 77.6977ZM35.2092 118.357C34.8572 118.299 34.5823 117.875 34.6113 117.436C34.6354 117.041 35.0549 116.723 35.46 116.791C35.8168 116.853 36.1255 117.219 36.0917 117.537C36.0435 118.005 35.5998 118.419 35.214 118.357H35.2092ZM36.6029 91.4771C36.3184 91.824 35.8554 91.9059 35.5034 91.7421C35.1176 91.559 35.0549 91.2025 35.079 90.8315C35.0935 90.6099 35.1321 90.3834 35.2092 90.1811C35.3684 89.7667 35.8554 89.574 36.3425 89.6993C36.7282 89.8004 36.9549 90.1473 36.9404 90.8267C36.8826 90.9471 36.7861 91.2506 36.598 91.4771H36.6029Z" fill="#DEDEDE"/>
        <path d="M66.336 93.2839C66.3794 104.423 66.418 115.557 66.4614 126.697C70.4494 126.672 74.4423 126.653 78.4303 126.629C78.3724 119.701 78.3194 112.777 78.2615 105.849C78.1892 96.989 78.1169 88.1239 78.0445 79.2637C77.9143 79.3118 77.7745 79.3456 77.6491 79.3456C77.2296 79.3504 76.8582 78.9409 76.8775 78.5602C76.9016 78.1218 77.3453 77.6882 77.7648 77.6978C77.8564 77.6978 77.9625 77.6882 78.0301 77.7316C77.9577 68.9966 77.8902 60.2616 77.8179 51.5266C77.7455 42.4207 77.6684 33.3147 77.596 24.204C77.5671 20.735 78.059 14.409 73.5212 13.3876C72.0938 13.0648 70.7291 13.6574 69.6585 14.5921C67.3245 15.8496 66.5337 19.439 66.3312 22.8453C66.2685 22.932 66.1913 22.9995 66.1045 23.0428C66.172 25.0327 66.0852 27.0417 66.09 28.9448C66.1093 34.235 66.1286 39.5251 66.1479 44.8152C66.1865 54.9715 66.2251 65.1278 66.2636 75.284C66.2636 75.5105 66.2636 75.7321 66.2636 75.9585C66.2926 75.9345 66.3167 75.9055 66.3456 75.8766C66.5337 76.0983 66.7121 76.2332 66.7845 76.4114C66.8616 76.5897 66.5723 76.792 66.336 76.7535C66.3119 76.7535 66.2878 76.7439 66.2636 76.7342C66.2829 82.1111 66.3022 87.4831 66.3215 92.86C66.3553 92.8407 66.3842 92.8214 66.4131 92.8166C66.4855 92.8021 66.5867 92.9467 66.7169 93.0623C66.5819 93.1779 66.4806 93.3177 66.3987 93.308C66.3746 93.308 66.3456 93.2888 66.3167 93.2743L66.336 93.2839ZM71.6067 100.737C71.5392 100.737 71.409 100.641 71.4139 100.617C71.4524 100.482 71.5199 100.352 71.6116 100.154C71.7659 100.299 71.9057 100.366 71.9202 100.453C71.9491 100.655 71.7948 100.747 71.6067 100.737ZM73.7478 102.833C73.4103 102.92 73.121 102.79 72.9474 102.481C72.7545 102.135 72.7641 101.788 72.9715 101.455C73.2029 101.084 73.5308 100.872 73.989 100.911C74.3362 100.94 74.558 101.253 74.5339 101.715C74.505 102.366 74.2687 102.693 73.743 102.833H73.7478ZM73.1788 75.5201C73.2415 75.3804 73.3669 75.2551 73.5019 75.178C73.5405 75.1539 73.6803 75.3081 73.7478 75.3563C73.7478 75.6695 73.5453 75.8911 73.3572 75.8092C73.2704 75.7706 73.1547 75.5827 73.1836 75.5249L73.1788 75.5201ZM74.505 108.297C74.4326 108.138 74.3313 108.012 74.3603 107.945C74.394 107.868 74.5435 107.829 74.6496 107.815C74.6834 107.815 74.7846 107.959 74.7654 107.998C74.7171 108.094 74.6255 108.167 74.505 108.297ZM75.725 123.526C75.373 123.483 75.0161 123.151 74.9775 122.833C74.9486 122.572 75.2958 122.201 75.5755 122.192C75.9613 122.182 76.3905 122.596 76.3712 122.963C76.3567 123.271 76.0192 123.56 75.7202 123.526H75.725ZM77.1765 95.2738C77.3163 95.3027 77.4369 95.4231 77.625 95.5436C77.4514 95.6881 77.3646 95.8134 77.2633 95.8326C77.0511 95.8712 76.9209 95.7315 76.9499 95.5291C76.9643 95.4279 77.1186 95.2545 77.1765 95.2689V95.2738ZM75.8938 115.943C76.212 115.644 76.9065 115.654 77.2681 115.957C77.6153 116.256 77.6732 116.738 77.4128 117.171C77.109 117.677 76.6991 117.952 76.1252 117.962C75.995 117.865 75.725 117.754 75.6044 117.552C75.3247 117.07 75.4935 116.314 75.8938 115.938V115.943ZM74.8956 77.3606C75.0788 77.5244 75.1849 77.7749 75.2669 77.9002C75.2476 78.6181 74.8522 79.0709 74.2928 79.1191C74.042 79.1432 73.7382 78.9312 73.6755 78.6951C73.5405 78.1748 73.7093 77.6834 74.1481 77.4087C74.3844 77.2594 74.6641 77.1582 74.8956 77.3654V77.3606ZM73.039 21.8335C73.092 21.6504 73.2849 21.5107 73.3717 21.4047C73.8009 21.4047 74.0854 21.7034 74.0613 22.0166C74.0468 22.2334 73.8298 22.431 73.6032 22.431C73.2608 22.431 72.9473 22.1322 73.0341 21.8335H73.039ZM73.2367 47.3254C73.2367 47.3254 73.3765 47.4747 73.3572 47.4988C73.2994 47.5904 73.2029 47.6578 73.1161 47.7397C73.0438 47.6385 72.9522 47.5229 72.9618 47.5133C73.039 47.4362 73.1354 47.3687 73.2319 47.3206L73.2367 47.3254ZM73.4006 59.6642C73.9214 59.6546 74.3169 59.9629 74.3892 60.411C74.4664 60.8976 74.1192 61.4276 73.6273 61.548C73.4971 61.5817 73.3572 61.5817 73.2512 61.5914C73.1306 61.5817 73.039 61.5817 72.9474 61.5721C72.4844 61.5047 72.1179 61.2059 72.06 60.8494C71.9925 60.4447 72.2963 59.9292 72.7352 59.7798C72.9425 59.7076 73.1788 59.6738 73.4006 59.669V59.6642ZM70.9654 27.3356C71.274 27.1381 71.6019 27.008 71.9829 27.061C72.2915 27.1044 72.5905 27.3597 72.6532 27.6488C72.7111 27.9138 72.5471 28.3185 72.2674 28.4438C71.9877 28.569 71.6791 28.6269 71.5344 28.6702C71.0088 28.6509 70.7146 28.4486 70.6471 28.1643C70.57 27.8512 70.6953 27.5139 70.9654 27.3405V27.3356ZM70.8641 79.9767C71.3271 79.9815 71.6839 80.3573 71.6887 80.8343C71.6887 81.2776 71.3512 81.6052 70.9316 81.5667C70.5217 81.5281 70.2806 81.2149 70.2758 80.7187C70.2758 80.2899 70.5217 79.9719 70.8641 79.9767ZM70.3915 123.733C70.5796 123.512 70.8352 123.454 71.1149 123.512C71.409 123.57 71.5778 123.767 71.6405 124.047C71.6791 124.215 71.7225 124.422 71.6646 124.567C71.5923 124.75 71.4428 124.977 71.2692 125.039C70.8448 125.193 70.406 125.145 69.9816 124.986C69.9045 124.471 70.0974 124.08 70.3915 123.733ZM69.7598 81.8991C69.8129 81.9473 69.8611 81.9955 69.9141 82.0436C69.8563 82.0822 69.7984 82.1303 69.7357 82.1593C69.7212 82.1641 69.6441 82.0966 69.6489 82.087C69.6778 82.0195 69.7212 81.9617 69.7598 81.8991ZM68.9063 120.024C69.0027 120.072 69.0847 120.144 69.2149 120.245C69.0943 120.356 69.0124 120.428 68.9352 120.501C68.8773 120.399 68.8002 120.308 68.7761 120.202C68.7664 120.154 68.8918 120.019 68.9063 120.028V120.024ZM67.7537 80.9596C68.0672 80.9596 68.3324 81.2246 68.3517 81.5667C68.371 81.8798 68.0913 82.1833 67.7778 82.193C67.4692 82.2026 67.1702 81.9039 67.1751 81.5907C67.1799 81.2631 67.4548 80.9596 67.7489 80.9548L67.7537 80.9596ZM67.0593 107.309C67.204 107.338 67.3245 107.478 67.4065 107.535C67.421 107.858 67.2281 108.065 66.9966 108.061C66.7941 108.051 66.6687 107.935 66.6543 107.733C66.6398 107.507 66.8471 107.266 67.0593 107.309Z" fill="#DEDEDE"/>
    </g>
    <defs>
        <clipPath id="clip0_1467_95287">
            <rect width="100" height="115" fill="white" transform="translate(11 12)"/>
        </clipPath>
    </defs>
</svg>
