<svg width="34" height="34" viewBox="0 0 34 34" fill="none" xmlns="http://www.w3.org/2000/svg">
    <path d="M1 17C1 8.16344 8.16344 1 17 1C25.8366 1 33 8.16344 33 17C33 25.8366 25.8366 33 17 33C8.16344 33 1 25.8366 1 17Z" fill="#4B4B4B" stroke="#727272"/>
    <path d="M17.0668 13.7827L17.1034 14.3774L16.4937 14.3046C14.2746 14.0255 12.3359 13.0788 10.6898 11.4888L9.88508 10.6998L9.67779 11.2824C9.23884 12.5811 9.51928 13.9526 10.4338 14.8751C10.9215 15.3848 10.8118 15.4577 9.97043 15.1542C9.67779 15.0571 9.42174 14.9843 9.39735 15.0207C9.312 15.1057 9.60463 16.2102 9.8363 16.6471C10.1533 17.254 10.7996 17.8487 11.5068 18.2007L12.1042 18.4798L11.397 18.492C10.7142 18.492 10.6898 18.5041 10.763 18.759C11.0068 19.5479 11.9701 20.3854 13.0431 20.7495L13.7991 21.0044L13.1406 21.3928C12.1652 21.9511 11.019 22.2667 9.87288 22.2909C9.32419 22.3031 8.87305 22.3516 8.87305 22.388C8.87305 22.5094 10.3606 23.1891 11.2263 23.4561C13.8235 24.245 16.9083 23.9052 19.225 22.558C20.8711 21.5991 22.5171 19.6936 23.2853 17.8487C23.6999 16.8656 24.1144 15.0693 24.1144 14.2075C24.1144 13.6492 24.151 13.5764 24.8338 12.9088C25.2362 12.5204 25.6142 12.0956 25.6874 11.9743C25.8093 11.7437 25.7971 11.7437 25.1752 11.95C24.1388 12.3141 23.9925 12.2656 24.5046 11.7194C24.8826 11.331 25.3338 10.627 25.3338 10.4207C25.3338 10.3843 25.1509 10.445 24.9436 10.5542C24.7241 10.6756 24.2364 10.8576 23.8706 10.9669L23.2122 11.1732L22.6147 10.7727C22.2855 10.5542 21.8221 10.3115 21.5783 10.2386C20.9564 10.0687 20.0054 10.093 19.4445 10.2872C17.9203 10.8334 16.9571 12.2413 17.0668 13.7827Z" fill="#DEDEDE"/>
</svg>
