<svg width="34" height="34" viewBox="0 0 34 34" fill="none" xmlns="http://www.w3.org/2000/svg">
    <path d="M17 33C25.8365 33 33 25.8365 33 17C33 8.16347 25.8365 1 17 1C8.16347 1 1 8.16347 1 17C1 25.8365 8.16347 33 17 33Z" fill="#4B4B4B" stroke="#727272"/>
    <path d="M6.57333 16.734C8.32682 15.7681 10.2842 14.962 12.1131 14.1517C15.2594 12.8246 18.4183 11.5205 21.6091 10.3063C22.2299 10.0995 23.3453 9.89716 23.4547 10.8172C23.3948 12.1194 23.1484 13.414 22.9794 14.7087C22.5505 17.5557 22.0548 20.3929 21.5713 23.2305C21.4048 24.1757 20.2207 24.665 19.4631 24.0602C17.6423 22.8303 15.8076 21.6124 14.0101 20.354C13.4213 19.7557 13.9673 18.8965 14.4931 18.4693C15.9928 16.9914 17.5831 15.7358 19.0044 14.1815C19.3878 13.2557 18.255 14.036 17.8814 14.275C15.8284 15.6898 13.8256 17.1909 11.6611 18.4343C10.5555 19.0429 9.26688 18.5228 8.16176 18.1832C7.17087 17.7729 5.71886 17.3596 6.57323 16.734L6.57333 16.734Z" fill="#DEDEDE"/>
</svg>
