<svg width="95" height="107" viewBox="0 0 95 107" fill="none" xmlns="http://www.w3.org/2000/svg">
    <g clip-path="url(#clip0_1467_95311)">
        <path d="M21.3652 59.4195C23.8095 59.8861 26.4752 59.8772 28.9505 59.8461C33.5424 59.7927 38.0901 59.1617 42.527 58.0019C42.4473 57.9663 42.372 57.9174 42.2967 57.8419C42.0266 57.5664 41.7521 57.2997 41.4687 57.0331C40.003 56.0199 38.6214 54.9045 37.3196 53.7046C35.2118 52.2515 32.9668 50.9938 30.6819 49.8251C29.6812 49.3141 28.6715 48.8208 27.6619 48.3275C26.6258 47.8253 25.532 47.1588 24.3852 46.9677C21.5202 46.4966 20.7896 50.5228 20.329 52.5803C20.0412 53.8646 19.8508 55.1667 19.7755 56.482C19.6958 57.8952 19.7578 59.1084 21.3652 59.415V59.4195Z" fill="#DEDEDE"/>
        <path d="M38.1509 52.5711C39.6343 53.5932 41.0468 54.713 42.3664 55.9529C42.6587 56.1529 42.9509 56.3484 43.2476 56.5395C43.6373 56.7883 43.6417 57.2283 43.4513 57.5349C43.4203 57.6327 43.3672 57.7216 43.2963 57.7971C43.655 57.6993 44.0137 57.5971 44.3679 57.4905C44.4653 57.4638 44.5495 57.4594 44.6336 57.4683C44.6646 57.4549 44.6912 57.4416 44.7266 57.4283C45.0764 57.3127 45.5059 57.5616 45.5901 57.9215C45.621 58.046 45.6476 58.1748 45.6786 58.2993C45.7318 58.5348 45.6786 58.757 45.5413 58.9259C45.5192 61.0811 45.5812 63.232 45.7495 65.3784C45.8292 66.3738 45.7937 67.5203 46.1259 68.4713C46.6174 69.8712 48.1938 69.1424 49.1281 68.658C50.2218 68.0936 50.793 67.507 50.762 66.1738C50.7399 65.2495 50.5894 64.3163 50.4964 63.3964C50.2838 61.2944 50.0668 59.1925 49.8543 57.0905C49.8233 56.8017 49.9473 56.6106 50.1333 56.5084C50.1908 56.4017 50.275 56.3084 50.3812 56.2551C50.4432 56.224 50.5052 56.1884 50.5672 56.1573C50.7798 56.0462 51.0145 56.0418 51.2137 56.1306C56.771 55.6196 62.2662 54.5797 67.6109 52.9888C69.7762 52.3444 72.163 51.629 73.6774 49.8337C75.391 47.8072 75.5327 44.9854 75.2803 42.4657C75.1563 41.2125 75.0678 39.6882 74.6073 38.4973C73.9209 36.7108 72.3932 37.724 71.2198 38.484C69.1829 39.7949 67.2301 41.2436 65.3791 42.8123C62.7577 45.0431 60.3533 47.5139 58.1791 50.1758C57.4219 51.4868 56.5186 52.7222 55.4027 53.8509C54.8536 54.4064 53.8396 53.6643 54.3001 52.9977C55.1724 51.7401 56.0979 50.518 57.0632 49.3315C59.6403 44.8387 60.4197 39.355 61.8322 34.4134C62.6559 31.547 63.5769 28.6852 64.0286 25.73C64.5289 22.4504 64.2101 19.3086 63.0588 16.1978C62.5186 14.7402 61.9031 13.2871 61.2123 11.8962C60.6588 10.7896 59.9149 9.48757 58.6307 9.15428C55.2078 8.25661 54.0167 13.0071 53.4765 15.3713C50.6558 27.7031 49.5886 40.3948 50.1953 53.0244C50.2174 53.5087 49.8277 53.7309 49.4513 53.6954C49.0528 53.8376 48.486 53.6243 48.4373 53.0599C47.7775 45.2964 47.1222 37.5285 46.4624 29.765C46.1746 26.3432 45.8823 22.9259 45.5945 19.5041C45.3288 16.38 45.0941 13.0471 43.3494 10.3408C41.9147 8.11885 39.342 6.45239 36.6498 7.33228C32.9169 8.54991 33.8822 12.3939 34.5641 15.358C37.5221 28.223 41.7022 40.7992 47.007 52.8822C47.3701 53.7087 46.3295 54.3353 45.7937 53.5932C42.2779 48.6871 38.9922 43.6166 35.9811 38.3862C34.6881 36.1465 33.4483 33.8756 32.2527 31.5781C31.1722 29.5029 30.2955 26.921 28.5995 25.2545C27.5368 24.2146 25.8364 23.5703 24.4947 24.4901C23.5471 25.1434 23.0733 26.3966 23.0157 27.5075C22.8784 30.1206 24.5611 32.7291 25.7036 34.9777C28.967 41.3903 32.877 47.6739 38.1553 52.5622L38.1509 52.5711Z" fill="#DEDEDE"/>
        <path d="M17.8568 100.859C18.8576 103.503 21.3373 104.907 23.9543 105.556C27.3418 106.396 30.9905 106.503 34.4577 106.711C42.5257 107.196 50.6158 107.036 58.6793 106.542C62.6026 106.303 66.5524 106.054 70.458 105.605C73.0705 105.303 76.0196 104.641 77.4721 102.192C78.858 99.8633 78.3134 96.9081 77.534 94.1885C74.8861 95.055 72.2026 95.8105 69.4927 96.4593C52.3737 100.552 34.2983 100.357 17.2945 95.8549C17.1838 97.5925 17.2768 99.3167 17.8613 100.859H17.8568Z" fill="#DEDEDE"/>
        <path d="M33.4864 85.9051C33.2827 85.874 33.1012 85.6784 33.1455 85.4962C28.4074 84.9141 23.7314 83.8831 19.2811 82.23C18.7763 84.923 18.3424 87.6293 17.9926 90.349C17.8243 91.6333 17.5852 93.0198 17.4258 94.4285C20.986 95.3839 24.5948 96.1616 28.2392 96.7304C44.5655 99.2901 61.4276 97.9169 77.1296 92.8242C76.917 92.131 76.7045 91.4644 76.5274 90.8378C75.748 88.0648 74.9067 85.314 74.0211 82.5722C73.3878 82.7544 72.7546 82.9277 72.117 83.0921C61.8527 85.7273 50.9021 86.4428 40.3411 86.0562C38.1935 85.9762 36.037 85.8251 33.8938 85.5807C33.9647 85.7451 33.699 85.9317 33.482 85.8962L33.4864 85.9051ZM19.197 91.3222C18.7409 91.2689 18.4265 90.86 18.4531 90.349C18.4708 90.0246 18.8118 89.7446 19.1394 89.789C19.662 89.8601 20.0649 90.2379 20.0383 90.6378C20.0118 91.0867 19.6575 91.3755 19.197 91.3222ZM20.0915 86.3984C19.7859 86.3717 19.5158 86.1317 19.5026 85.8695C19.4893 85.6029 19.7771 85.3318 20.0649 85.3363C20.3705 85.3407 20.5653 85.5807 20.5431 85.9184C20.5254 86.2028 20.3262 86.4161 20.0915 86.3984ZM21.1055 91.7799C21.0701 91.731 21.0302 91.6821 20.9948 91.6333C21.048 91.6021 21.0967 91.5666 21.1498 91.5444C21.1542 91.5444 21.2074 91.6066 21.2029 91.6244C21.1808 91.6821 21.1409 91.731 21.1055 91.7799ZM73.8351 84.9985C73.8572 84.9141 74.0255 84.7941 74.1008 84.8074C74.238 84.8385 74.4373 84.9363 74.4639 85.043C74.5657 85.4474 74.4639 85.8384 74.2203 86.3717C73.7864 85.8695 73.72 85.4474 73.8351 84.9985ZM68.4417 84.1142C68.4904 84.2164 68.5568 84.3053 68.5701 84.403C68.5745 84.4386 68.4638 84.4919 68.4018 84.5408C68.3398 84.4519 68.2734 84.3719 68.2291 84.2742C68.2203 84.2564 68.3398 84.1897 68.4417 84.1142ZM63.3317 85.1718C63.345 85.1985 63.3582 85.2252 63.3671 85.2518C63.3494 85.274 63.3317 85.2963 63.314 85.3185C63.3184 85.2696 63.3273 85.2207 63.3317 85.1674V85.1718ZM58.5538 88.8558C58.5803 88.7981 58.6822 88.7803 58.7708 88.727C58.8549 88.7892 58.9744 88.8336 59.032 88.9269C59.1471 89.1047 59.1693 89.318 59.0143 89.478C58.9567 89.5357 58.7708 89.5446 58.7043 89.4957C58.4829 89.3358 58.4431 89.1002 58.5538 88.8558ZM53.3286 95.455C53.3774 95.5261 53.5235 95.6505 53.5102 95.7483C53.4925 95.8727 53.3508 96.046 53.2401 96.0638C53.1382 96.0816 52.9523 95.9483 52.8991 95.8327C52.815 95.655 53.0143 95.455 53.3286 95.4506V95.455ZM52.0888 89.4513C52.1508 89.5268 52.2925 89.6335 52.319 89.7624C52.3589 89.9579 52.1862 90.0468 52.0135 90.0468C51.832 90.0468 51.6991 89.9401 51.6947 89.749C51.6947 89.558 51.8142 89.4557 52.0888 89.4469V89.4513ZM43.9765 86.7672C44.0607 86.7672 44.1581 86.7583 44.2201 86.7983C44.6452 87.0649 45.0703 87.0027 45.5308 86.8739C45.8629 86.7805 46.1684 87.1138 46.1684 87.4693C46.1684 87.7404 45.9692 87.9804 45.7256 87.9804C45.6017 87.9804 45.4688 87.9804 45.3581 87.9359C45.0083 87.7982 44.7249 87.8915 44.4326 88.1048C44.2777 88.2159 44.0562 88.2826 43.8658 88.287C43.4806 88.2914 43.1396 87.9137 43.1573 87.5626C43.1795 87.1583 43.5869 86.7583 43.9721 86.7672H43.9765ZM40.6466 86.4961C40.8636 86.3584 41.1204 86.265 41.333 86.4561C41.5012 86.6072 41.5987 86.8383 41.6739 86.9538C41.6562 87.616 41.2931 88.0337 40.7795 88.0781C40.5492 88.1004 40.2702 87.9048 40.2127 87.6871C40.0887 87.2071 40.2437 86.7539 40.6466 86.5006V86.4961ZM37.6311 88.8692C38.0562 88.8736 38.3839 89.2202 38.3883 89.6602C38.3883 90.069 38.0783 90.3712 37.6931 90.3356C37.3167 90.3001 37.0953 90.0112 37.0909 89.5535C37.0865 89.158 37.3167 88.8647 37.6311 88.8692ZM36.6171 90.6423C36.6658 90.6867 36.7101 90.7311 36.7588 90.7756C36.7056 90.8111 36.6525 90.8556 36.5949 90.8822C36.5817 90.8867 36.5108 90.8245 36.5152 90.8156C36.5418 90.7534 36.5817 90.7 36.6171 90.6423ZM34.775 89.7757C35.0628 89.7757 35.3064 90.0201 35.3241 90.3356C35.3418 90.6245 35.085 90.9045 34.7971 90.9133C34.5137 90.9222 34.2392 90.6467 34.2436 90.3579C34.2481 90.0557 34.5005 89.7757 34.7706 89.7713L34.775 89.7757Z" fill="#DEDEDE"/>
        <path d="M0.401948 20.7085C0.450657 20.6774 0.508222 20.6508 0.574643 20.6419C0.694201 20.6241 0.818187 20.6197 0.902321 20.6108C1.18572 20.6285 1.43812 20.6285 1.52668 20.9352C1.60639 21.224 1.50897 21.464 1.21671 21.664C1.01302 21.8017 0.796047 21.9395 0.543647 21.784C0.521506 21.7706 0.503794 21.7528 0.481654 21.7351C1.24771 30.8673 2.84625 39.9595 4.79903 48.9095C5.80863 53.5444 6.9068 58.1616 8.0581 62.7611C8.97471 66.4317 10.002 70.1068 11.6714 73.5108C12.6722 75.555 13.943 77.4526 15.4928 79.0879C19.0087 80.8077 22.7327 82.0742 26.563 82.9541C36.9203 85.3271 47.9285 85.0872 58.4452 84.0295C63.5508 83.514 68.6475 82.643 73.576 81.2254C73.5184 81.0477 73.4608 80.8655 73.3988 80.6877C75.0638 79.5679 76.618 78.2747 78.0395 76.7904C82.162 72.4754 84.9118 67.0894 86.9045 61.4723C86.7052 61.3301 86.5901 61.0457 86.6255 60.7302C86.6565 60.4813 86.8912 60.2947 87.148 60.3125C87.1967 60.3125 87.2499 60.3258 87.2941 60.3436C87.7325 59.0415 88.1355 57.7261 88.503 56.4152C91.0226 47.443 92.351 38.1686 93.2809 28.9075C93.7591 24.1437 94.1222 19.3665 94.4809 14.5937C94.8307 9.93654 95.2293 5.24823 94.8263 0.577706C94.8174 0.466608 94.8042 0.359955 94.7953 0.248858C89.4905 0.368843 84.1812 0.471052 78.8764 0.542155C52.7463 0.915441 26.6073 0.724354 0.481654 0C-0.169274 6.89692 -0.124993 13.8161 0.401948 20.7085ZM7.45145 55.6508C7.42488 55.4642 7.62857 55.2909 7.87212 55.3176C8.08909 55.3398 8.27507 55.4242 8.30164 55.6775C8.32378 55.8997 8.15551 56.1041 7.95625 56.0997C7.68614 56.0908 7.49573 55.9175 7.45145 55.6464V55.6508ZM8.29278 57.8017C8.19537 57.7972 8.05367 57.7173 8.01382 57.6328C7.93854 57.4595 8.03153 57.2817 8.21308 57.264C8.33707 57.2506 8.47434 57.3706 8.56733 57.4106C8.58504 57.6995 8.47434 57.8106 8.29278 57.8017ZM8.76659 61.1035C8.57618 61.1035 8.51862 60.9346 8.5629 60.7658C8.60275 60.5924 8.74002 60.4813 8.90386 60.5391C9.01899 60.5791 9.09427 60.7258 9.25811 60.8991C9.02785 61.0013 8.895 61.1035 8.76659 61.1035ZM9.37324 57.4151C9.37324 57.4151 9.28467 57.3751 9.28467 57.3528C9.28467 57.2906 9.31124 57.224 9.32453 57.1618C9.38652 57.1929 9.44851 57.224 9.51051 57.2551C9.46623 57.3084 9.42194 57.3662 9.37324 57.4151ZM10.4138 62.8588C10.2057 62.9299 10.0242 62.7833 9.99759 62.5389C9.97103 62.2811 10.0906 62.05 10.2633 62.0456C10.5113 62.0723 10.5555 62.2811 10.6087 62.4767C10.6574 62.6589 10.6042 62.8011 10.4138 62.8633V62.8588ZM11.7821 49.7494C11.4411 49.7405 11.1755 49.4561 11.1843 49.105C11.1932 48.785 11.4943 48.5628 11.884 48.5895C12.1939 48.6117 12.4242 48.8517 12.4198 49.145C12.4153 49.4872 12.1275 49.7582 11.7821 49.7494ZM12.4906 58.9704C12.4906 58.9349 12.4773 58.8727 12.4817 58.8727C12.5393 58.8593 12.6013 58.8549 12.6589 58.846C12.6589 58.8815 12.6677 58.9171 12.6722 58.9527C12.6102 58.9571 12.5526 58.966 12.4906 58.9704ZM12.3799 43.6612C12.2426 43.6257 12.0788 43.5057 12.0301 43.3768C11.9371 43.1457 12.2072 42.8391 12.4375 42.9102C12.5659 42.9502 12.6589 43.1013 12.7164 43.1546C12.7341 43.4968 12.5792 43.7101 12.3799 43.6612ZM14.6825 44.79C14.4965 44.7633 14.3327 44.55 14.3415 44.3367C14.3548 44.0123 14.5851 43.7945 14.8995 43.8079C15.1607 43.8168 15.3866 44.0301 15.391 44.27C15.3954 44.5722 15.0323 44.8389 14.6825 44.79ZM14.9925 35.76C13.9652 36.8754 11.4854 36.0799 10.6131 35.0845C9.38652 33.6802 10.436 31.325 11.1312 29.9163C11.2596 29.6496 11.4766 29.5519 11.698 29.5608C12.6323 28.8808 14.0714 29.2808 14.7932 30.2896C15.6788 31.5294 16.1083 34.5601 14.9969 35.7644L14.9925 35.76ZM15.9888 65.7296C15.9666 65.7163 15.9622 65.6629 15.9489 65.6318C15.9844 65.6185 16.0198 65.6052 16.0508 65.5918C16.0641 65.6274 16.0773 65.6629 16.0906 65.6985C16.0552 65.7118 16.0109 65.7429 15.9888 65.7296ZM16.9541 59.6237C16.3519 59.6148 16.0065 59.2015 16.1571 58.6682C16.2633 58.295 16.5512 58.1572 16.9143 58.3038C17.1888 58.4149 17.4323 58.5483 17.512 58.8682C17.6183 59.2771 17.3571 59.6281 16.9497 59.6237H16.9541ZM19.9342 80.7855C19.6818 80.8566 19.4338 80.6166 19.4737 80.3678C19.5047 80.19 19.6287 80.0922 19.8102 80.0834C20.0405 80.0745 20.1999 80.2211 20.2132 80.5455C20.1512 80.6033 20.0538 80.7499 19.9298 80.7855H19.9342ZM20.4213 77.1237C20.191 77.1459 19.9475 76.9193 19.9431 76.6793C19.9386 76.4838 20.1202 76.3238 20.3416 76.3194C20.5851 76.3194 20.7047 76.4527 20.7445 76.6882C20.7623 76.8838 20.6028 77.1015 20.4213 77.1193V77.1237ZM22.0243 64.8897C21.7586 64.863 21.5814 64.6719 21.5859 64.4142C21.5859 64.2098 21.7674 64.0187 21.9578 64.0142C22.2368 64.0098 22.4759 64.2764 22.4582 64.5742C22.4449 64.7653 22.2457 64.9119 22.0243 64.8897ZM23.8398 69.5113C23.6671 69.658 23.4457 69.6669 23.2818 69.538C23.1357 69.4225 23.0161 69.2358 22.9453 69.0581C22.8523 68.827 23.1003 68.5559 23.459 68.5915C23.5608 68.6714 23.7866 68.7825 23.915 68.9603C24.0302 69.1203 24.0125 69.3558 23.8353 69.5113H23.8398ZM27.2361 72.7598C27.1697 72.9731 27.0368 73.1242 26.7933 73.1242C26.5852 73.1242 26.4125 72.9154 26.4391 72.702C26.47 72.4354 26.7003 72.2488 26.9527 72.2799C27.1431 72.3065 27.2981 72.551 27.2361 72.7598ZM30.9424 80.7721C30.8317 81.0877 30.5572 81.2921 30.2915 81.2343C30.0612 81.1854 29.9461 81.0121 29.9372 80.7899C29.924 80.4166 30.1586 80.1278 30.4952 80.0834C30.7476 80.0478 30.9867 80.27 30.9778 80.5277C30.969 80.6077 30.969 80.6966 30.9424 80.7721ZM35.1712 81.9231C34.9454 82.1942 34.5114 82.172 34.29 81.9098C34.0111 81.5854 33.8339 81.2121 33.8384 80.7766C33.8384 80.5189 33.9181 80.2789 34.1749 80.1589C34.414 80.0434 34.6664 80.0567 34.8834 80.2078C35.2465 80.4566 35.4413 80.8121 35.4546 81.3721C35.3926 81.501 35.3173 81.7409 35.1668 81.9231H35.1712ZM35.3971 71.6888C35.0118 71.7288 34.7063 71.5289 34.6709 71.2089C34.6399 70.9112 34.9277 70.609 35.2775 70.5734C35.6007 70.5379 35.924 70.8178 35.9417 71.1422C35.955 71.4089 35.7114 71.6533 35.3971 71.6888ZM37.2347 79.8034C37.1727 79.479 37.4251 79.1324 37.7528 79.0879C38.1115 79.039 38.4436 79.2746 38.4746 79.5945C38.5056 79.9145 38.231 80.3189 37.9653 80.35C37.6819 80.3855 37.2834 80.0878 37.2347 79.8034ZM38.758 84.5228C38.3462 84.505 38.0893 84.2917 38.0849 83.9451C38.076 83.3896 38.4081 83.0252 38.8908 83.0696C39.3115 83.1096 39.5594 83.3807 39.5639 83.8118C39.5683 84.2917 39.2849 84.5406 38.758 84.5184V84.5228ZM39.1432 70.289C38.8598 70.4401 38.5277 70.5023 38.3727 70.5556C37.7617 70.569 37.4074 70.3779 37.279 70.0624C37.0886 69.5913 37.2568 69.0136 37.6687 68.7337C38.1823 68.3781 38.9439 68.4492 39.3823 68.8936C39.7454 69.2625 39.6392 70.0224 39.1432 70.289ZM44.9263 73.893C44.8333 74.2307 44.6296 74.4752 44.2045 74.644C43.7528 74.484 43.3233 74.3507 42.9115 74.173C42.7831 74.1197 42.6458 73.9419 42.637 73.813C42.6281 73.6842 42.7432 73.4531 42.8495 73.422C43.3543 73.2798 43.8724 73.1464 44.3949 73.0976C44.7713 73.062 45.0326 73.5108 44.9307 73.893H44.9263ZM46.6222 76.586C46.5735 76.546 46.5248 76.5105 46.485 76.4616C46.4805 76.4571 46.5248 76.4083 46.5425 76.3816C46.5912 76.4216 46.6355 76.4616 46.6842 76.5016C46.6621 76.5282 46.6444 76.5593 46.6222 76.586ZM48.1056 79.95C48.0702 79.95 48.0304 79.95 47.9949 79.95C47.9949 79.8834 47.9994 79.8123 48.0082 79.7456C48.0082 79.7412 48.0791 79.7456 48.1145 79.7456C48.1145 79.8123 48.1101 79.8789 48.1056 79.9456V79.95ZM54.8407 58.9926C54.6681 59.0726 54.4245 58.8282 54.4909 58.6327C54.5352 58.5038 54.6769 58.3438 54.7965 58.3261C54.8895 58.3083 55.0134 58.486 55.1817 58.6194C55.0356 58.7838 54.9603 58.9393 54.8407 58.9926ZM55.7928 71.0756C55.6068 71.0667 55.4917 70.96 55.4784 70.7734C55.4651 70.5645 55.6555 70.3423 55.8503 70.3823C55.9832 70.409 56.0939 70.5379 56.1692 70.5912C56.1825 70.8889 56.0053 71.08 55.7928 71.0756ZM57.5729 82.5497C57.5197 82.4564 57.4489 82.372 57.4268 82.2742C57.4179 82.2298 57.533 82.1053 57.5463 82.1142C57.6349 82.1586 57.7101 82.2253 57.8297 82.3186C57.719 82.4208 57.6437 82.4875 57.5729 82.5542V82.5497ZM60.0349 64.3164C59.9729 64.3164 59.8533 64.2275 59.8578 64.2053C59.8932 64.0809 59.9552 63.9609 60.0393 63.7787C60.181 63.912 60.3094 63.9742 60.3227 64.0542C60.3493 64.2409 60.2076 64.3253 60.0349 64.3164ZM62.001 66.2495C61.691 66.3295 61.4253 66.2095 61.2659 65.9251C61.0888 65.6052 61.0976 65.2852 61.288 64.9786C61.5006 64.6364 61.8017 64.4409 62.2224 64.4764C62.5412 64.5031 62.7449 64.7919 62.7227 65.2185C62.6962 65.8185 62.4792 66.1206 61.9965 66.2495H62.001ZM62.6917 71.2933C62.6253 71.1467 62.5323 71.0311 62.5589 70.9689C62.5899 70.8978 62.7272 70.8623 62.8246 70.8489C62.8556 70.8489 62.9486 70.9823 62.9353 71.0178C62.891 71.1067 62.8069 71.1733 62.6962 71.2933H62.6917ZM65.3574 79.4834C65.0785 79.95 64.7021 80.2033 64.1751 80.2122C64.0556 80.1233 63.8076 80.0211 63.6969 79.8345C63.4401 79.3901 63.5951 78.6924 63.9626 78.3458C64.2548 78.0703 64.8925 78.0792 65.2246 78.3591C65.5434 78.6346 65.5966 79.079 65.3574 79.479V79.4834ZM65.2246 59.8014C65.0298 59.837 64.9102 59.7081 64.9368 59.5215C64.9501 59.4281 65.0918 59.2682 65.1449 59.2815C65.2733 59.3082 65.384 59.4193 65.5567 59.5304C65.3973 59.6637 65.3176 59.7792 65.2246 59.797V59.8014ZM67.9656 82.2742C67.8106 82.3053 67.6246 82.332 67.4829 82.2742C67.3501 82.2253 67.1951 82.0831 67.1641 81.9542C67.0268 81.3987 67.3014 81.061 67.8504 81.061C68.2844 81.061 68.5457 81.2565 68.5457 81.5854C68.5457 81.9409 68.3464 82.1898 67.9611 82.2697L67.9656 82.2742ZM68.6386 76.9726C68.4217 77.0037 68.249 76.8615 68.2224 76.6216C68.1914 76.3727 68.311 76.1372 68.4792 76.115C68.6962 76.0883 68.953 76.3016 69.0017 76.5505C69.0372 76.746 68.8733 76.9371 68.6431 76.9726H68.6386ZM70.4984 55.7842C70.37 55.7664 70.2593 55.6286 70.0468 55.4731C70.2593 55.3264 70.37 55.1931 70.4984 55.1753C70.6756 55.1487 70.8128 55.2864 70.804 55.4775C70.7995 55.6597 70.6756 55.8108 70.494 55.7842H70.4984ZM71.6674 72.1066C71.6232 72.1243 71.5435 72.0621 71.4815 72.0355C71.5125 71.9733 71.5257 71.8755 71.5745 71.8533C71.6187 71.8355 71.6984 71.8977 71.7604 71.9244C71.7294 71.9866 71.7162 72.0844 71.6674 72.1021V72.1066ZM71.787 62.0678C71.7427 62.1345 71.7117 62.2322 71.6497 62.2589C71.539 62.3033 71.4106 62.33 71.2911 62.3211C70.99 62.2945 70.7331 62.0678 70.804 61.8723C70.8527 61.739 70.9988 61.5923 71.1317 61.5523C71.4505 61.459 71.7339 61.6501 71.7914 61.9434C71.8003 61.9834 71.7914 62.0234 71.7914 62.0678H71.787ZM75.4756 77.9547C75.2719 78.5369 74.8601 78.919 74.3154 79.1679C74.2534 79.1946 74.125 79.1812 74.0896 79.1368C74.0143 79.0479 73.9213 78.9102 73.9435 78.8213C74.0985 78.2347 74.4571 77.7992 74.9841 77.5014C75.1435 77.4126 75.4756 77.5548 75.4845 77.6303C75.4845 77.7947 75.5066 77.8836 75.4845 77.9547H75.4756ZM75.0372 51.758C75.0859 51.8291 75.232 51.9535 75.2188 52.0513C75.2011 52.1757 75.0594 52.349 74.9487 52.3668C74.8468 52.3846 74.6608 52.2513 74.6077 52.1357C74.5236 51.958 74.7228 51.758 75.0372 51.7535V51.758ZM76.804 65.4407C76.7509 65.6674 76.4586 65.8585 76.2328 65.7962C75.9583 65.7207 75.6793 65.6363 75.4357 65.4941C75.3295 65.4318 75.2409 65.2052 75.2675 65.0763C75.294 64.9519 75.4623 64.8452 75.5907 64.7608C75.6483 64.7208 75.7501 64.7564 75.9405 64.7564C76.069 64.8008 76.3036 64.8719 76.5295 64.9608C76.742 65.0452 76.8572 65.2096 76.804 65.4407ZM80.7184 45.781C80.6609 45.8387 80.4749 45.8476 80.4085 45.7987C80.1871 45.6388 80.1472 45.4032 80.2579 45.1588C80.2845 45.101 80.3863 45.0833 80.4749 45.0299C80.559 45.0922 80.6786 45.1366 80.7362 45.2299C80.8513 45.4077 80.8734 45.621 80.7184 45.781ZM80.7317 41.2171C80.6742 41.1726 80.5546 41.1238 80.5059 41.0393C80.4262 40.906 80.5635 40.666 80.714 40.6794C80.8114 40.6838 80.9354 40.7638 80.9886 40.8482C81.0771 40.9904 80.9531 41.1815 80.7362 41.2171H80.7317ZM82.9546 69.3336C82.7288 69.3114 82.5738 69.1647 82.5517 68.9425C82.5074 68.5603 82.8882 68.187 83.2424 68.2937C83.3974 68.3381 83.5081 68.5426 83.5878 68.6181C83.5657 69.0936 83.2956 69.3647 82.9546 69.3336ZM85.0225 41.6215C85.027 41.5726 85.0358 41.5237 85.0402 41.4704C85.0535 41.497 85.0668 41.5237 85.0757 41.5504C85.058 41.5726 85.0402 41.5948 85.0225 41.617V41.6215ZM85.8727 38.0175C84.8985 39.1285 82.5694 40.2616 81.5022 38.6485C80.9664 37.8397 81.2011 36.7643 81.3428 35.8755C81.5465 34.5735 81.8255 33.2936 82.1576 32.0182C82.2196 31.7827 82.3657 31.6361 82.5384 31.5694C83.8978 30.494 85.7045 31.9205 86.4041 33.2003C87.2543 34.7557 87.0462 36.6843 85.8772 38.0175H85.8727ZM90.106 40.8438C90.044 40.7549 89.9776 40.6749 89.9333 40.5772C89.9244 40.5594 90.044 40.4927 90.1458 40.4172C90.1945 40.5194 90.2609 40.6083 90.2742 40.706C90.2787 40.7416 90.1635 40.7949 90.106 40.8438ZM92.0056 0.844339C92.3687 0.679915 92.7894 0.737686 93.0196 1.00876C93.1481 1.1643 93.272 1.33761 93.3518 1.52425C93.5422 1.9642 93.3429 2.5108 92.9532 2.693C92.5768 2.86631 91.9923 2.67078 91.7886 2.26638C91.6824 2.05308 91.6558 1.79978 91.6115 1.64868C91.6425 1.26206 91.7001 0.9821 92.0056 0.844339ZM90.9119 19.442C90.9429 19.4998 90.9827 19.5576 91.0004 19.6198C91.0049 19.6376 90.9429 19.6998 90.934 19.6953C90.8765 19.6598 90.8277 19.6153 90.7746 19.5753C90.8189 19.5309 90.8632 19.4865 90.9119 19.442ZM90.3628 30.2318C90.6772 30.2318 90.8897 30.4495 90.8897 30.7784C90.8897 31.0806 90.6462 31.2983 90.3274 31.2805C90.0661 31.2672 89.889 31.0806 89.8757 30.8006C89.8536 30.4673 90.0573 30.2362 90.3672 30.2318H90.3628ZM87.6262 9.76323C87.6705 9.7499 87.7369 9.82544 87.8344 9.8921C87.7547 9.96765 87.6838 10.0299 87.6085 10.0965C87.5687 10.0387 87.4934 9.98098 87.4978 9.92765C87.4978 9.86988 87.5687 9.78545 87.6262 9.76767V9.76323ZM85.4963 6.217C85.5229 6.23033 85.5273 6.28366 85.5406 6.31921C85.5052 6.33254 85.4609 6.36365 85.4388 6.35032C85.4122 6.33699 85.4078 6.28366 85.3901 6.24811C85.4255 6.23478 85.4698 6.20367 85.4919 6.217H85.4963ZM84.0838 9.39883C84.2565 9.27884 84.4823 9.24329 84.6329 9.4166C84.7214 9.51881 84.7923 9.74545 84.7391 9.83877C84.6329 10.0254 84.4336 10.1632 84.2919 10.3054C84.1546 10.2343 84.0661 10.2121 84.0218 10.1587C83.8314 9.93654 83.8624 9.56325 84.0882 9.40327L84.0838 9.39883ZM80.8823 2.31527C81.2808 2.21306 81.6705 2.06197 82.0734 1.97309C82.3347 1.91532 82.5561 2.03975 82.6889 2.2886C82.7952 2.48413 82.8085 2.67522 82.6889 2.8752C82.4543 3.26626 82.2328 3.65732 81.9982 4.04394C81.9362 4.15059 81.8565 4.2528 81.7723 4.33724C81.4712 4.63942 81.1524 4.9105 80.683 4.74163C80.1649 4.55499 79.8594 4.13726 79.8505 3.61733C79.8417 2.85742 80.1295 2.50191 80.8823 2.30638V2.31527ZM81.3118 9.47437C81.3118 9.781 81.0638 10.0343 80.7627 10.0299C80.5059 10.0299 80.2889 9.80767 80.2801 9.55881C80.2712 9.2744 80.5325 9.07887 80.8911 9.09664C81.1214 9.10997 81.3118 9.27884 81.3118 9.47437ZM77.2778 7.30576C77.4062 7.34131 77.5081 7.47907 77.6852 7.62572C77.5302 7.7857 77.4505 7.94123 77.331 7.98123C77.1627 8.039 77.021 7.93234 76.9856 7.74126C76.9413 7.51017 77.1007 7.25687 77.2778 7.30576ZM77.5302 16.1135C78.3716 14.0605 79.5317 12.1985 80.931 10.4876C81.2144 10.1454 81.5908 10.2121 81.8388 10.4476C85.3546 9.46549 88.4853 12.5851 89.1362 15.9091C89.7473 19.0243 89.5303 24.7925 86.0321 26.1967C84.2078 26.93 82.2771 26.3256 80.5767 25.5479C78.9605 24.8102 77.1051 23.9703 76.5516 22.1128C75.9671 20.1486 76.7863 17.9089 77.5258 16.1091L77.5302 16.1135ZM70.8217 17.6289C71.1139 17.5356 71.3398 17.6734 71.3841 17.9222C71.4195 18.14 71.2734 18.3399 71.0652 18.3533C70.8217 18.3666 70.556 18.1711 70.5117 17.8689C70.5914 17.8067 70.6933 17.6734 70.8217 17.6289ZM68.8069 15.5447C69.1523 15.1359 69.6394 15.0159 70.1575 15.2114C70.3922 15.3003 70.5117 15.5714 70.4364 15.8291C70.3036 16.2691 69.9405 16.4868 69.3206 16.4779C69.2364 16.4557 69.1124 16.4335 69.0017 16.3846C68.6918 16.2602 68.5899 15.798 68.8113 15.5403L68.8069 15.5447ZM70.0468 37.3509C70.0158 37.422 69.9892 37.4887 69.9582 37.5598C69.8741 37.5109 69.7899 37.4576 69.7014 37.4087C69.7545 37.3509 69.7988 37.262 69.8608 37.2487C69.9139 37.2354 69.9848 37.3153 70.0468 37.3509ZM68.2977 22.575C68.3464 22.615 68.3818 22.6638 68.4217 22.7127C68.3641 22.7394 68.3021 22.7661 68.2445 22.7927C68.2313 22.7349 68.2135 22.6772 68.2135 22.6194C68.2135 22.6016 68.2888 22.5661 68.3021 22.575H68.2977ZM67.2305 32.1427C67.2792 32.1249 67.4386 32.2493 67.4608 32.3293C67.5051 32.4982 67.4032 32.6448 67.2261 32.6493C67.142 32.6493 67.049 32.5426 66.8851 32.4315C67.0268 32.3026 67.1154 32.1871 67.2305 32.1427ZM50.4835 12.5051C50.5632 12.5007 50.6562 12.6206 50.7846 12.7229C50.6518 12.8251 50.5588 12.9451 50.4791 12.9406C50.395 12.9317 50.3197 12.7984 50.2444 12.7229C50.3241 12.6473 50.3994 12.514 50.4835 12.5096V12.5051ZM48.1676 11.3852C48.2119 11.6341 48.2695 11.7674 48.2473 11.8919C48.2341 11.9541 48.0791 11.9852 47.9905 12.0341C47.9507 11.9318 47.8754 11.8252 47.8887 11.7274C47.902 11.643 48.0127 11.5674 48.1676 11.3852ZM27.5682 14.6915C27.8649 14.6871 28.0332 14.8382 28.0464 15.1181C28.0597 15.3403 27.8826 15.5314 27.6878 15.5181C27.4354 15.4958 27.2317 15.3136 27.1874 15.0648C27.152 14.8693 27.3291 14.6959 27.5682 14.6915ZM23.9239 20.6996C24.0036 20.5885 24.1674 20.4819 24.2914 20.4819C24.4951 20.4819 24.628 20.7485 24.5615 20.9352C24.4951 21.1218 24.2604 21.2018 24.0567 21.0996C23.8885 21.0152 23.8176 20.8507 23.9239 20.7041V20.6996ZM21.577 8.53671C21.6877 8.51894 21.825 8.63892 22.0508 8.74113C21.8427 8.94555 21.7231 9.08331 21.577 9.18552C21.5549 9.2033 21.3733 9.07887 21.3512 8.99888C21.2936 8.79446 21.3379 8.57671 21.577 8.53671ZM20.1113 9.60769C20.4124 9.60769 20.6825 9.94543 20.6604 10.2921C20.6427 10.5809 20.377 10.8342 20.098 10.8342C19.7748 10.8342 19.5224 10.5187 19.5534 10.1587C19.58 9.85655 19.8324 9.61214 20.1113 9.60769ZM21.6656 46.2742C23.1091 45.1233 24.8848 45.5188 26.4479 46.2031C28.4893 47.0964 30.4863 48.1318 32.4612 49.1672C32.8111 49.3538 33.1609 49.5405 33.5107 49.7316C32.2664 48.2695 31.1018 46.7364 30.0125 45.1455C28.4671 42.888 27.0678 40.5283 25.766 38.1197C24.4863 35.7555 23.118 33.3247 22.2058 30.7873C21.4309 28.6409 21.2892 26.1434 22.7637 24.2592C24.0479 22.6105 26.1512 22.2283 28.011 23.1304C30.3623 24.2725 31.4162 26.8189 32.5321 29.0275C33.9314 31.8005 35.4059 34.5335 36.9469 37.2265C38.9041 40.6438 40.9764 43.9945 43.1506 47.2785C40.879 41.6348 38.8377 35.8977 37.0576 30.0763C35.9727 26.5256 34.9808 22.9482 34.0863 19.3443C33.6214 17.4778 33.1609 15.6069 32.7712 13.7272C32.4967 12.4029 32.2753 11.0075 32.6074 9.67435C33.2052 7.27909 35.5343 5.81261 37.9033 5.69262C40.4052 5.56819 42.6458 7.03023 44.1071 8.97666C45.5772 10.932 46.2281 13.2606 46.5912 15.6336C46.6311 15.6158 46.6709 15.6025 46.7152 15.5892C47.1536 15.4603 47.5344 15.5447 47.8532 15.8736C48.1986 16.2335 48.3093 16.6513 48.1411 17.0068C47.9329 17.4556 47.5698 17.7311 47.0872 17.78C47.003 17.7889 46.9278 17.78 46.8525 17.7667C47.2289 21.5751 47.5079 25.4013 47.8311 29.2141C48.1411 32.8803 48.451 36.551 48.7654 40.2172C48.8318 38.6307 48.9248 37.0487 49.0444 35.4667C49.0045 35.3867 48.9824 35.32 48.9824 35.2534C48.9824 35.1467 49.0223 35.0578 49.0842 34.9956C49.2702 32.6715 49.5093 30.3518 49.8105 28.0409C50.2665 24.5614 50.8466 21.0951 51.5595 17.66C52.1441 14.847 52.516 11.2164 54.7123 9.12331C56.3684 7.54573 58.826 7.13689 60.6415 8.68336C62.6607 10.4031 63.6526 13.6561 64.5205 16.0691C66.9914 22.9171 64.6755 29.3786 62.8467 36.0577C62.4128 37.6398 62.0275 39.2573 61.6157 40.8705C61.6688 40.8171 61.7308 40.7683 61.7928 40.7283C61.8283 40.706 61.9567 40.8482 62.0187 40.8927C62.0187 41.1815 61.8327 41.386 61.66 41.3104C61.6201 41.2926 61.5714 41.2393 61.5404 41.186C61.133 42.7636 60.6947 44.3323 60.1544 45.8521C60.7478 45.2299 61.3545 44.6255 61.9744 44.0301C61.9655 44.0123 61.9567 43.9945 61.9522 43.9723C61.8283 43.4924 61.9832 43.0391 62.3862 42.7858C62.6032 42.648 62.86 42.5547 63.0725 42.7458C63.1213 42.7902 63.1611 42.8391 63.1965 42.888C63.7102 42.4214 64.2283 41.9637 64.7641 41.5193C66.4777 40.0883 68.2755 38.7463 70.1398 37.5242C71.508 36.6265 73.3988 35.2223 74.9752 36.5021C76.3169 37.5909 76.3701 39.875 76.5782 41.4393C76.8837 43.7101 76.9679 46.0787 76.1708 48.2651C74.6387 52.4646 70.3745 53.7089 66.4689 54.7887C62.8334 55.7975 59.136 56.5441 55.4031 57.0596C55.4563 57.104 55.5138 57.1751 55.5847 57.2329C55.4607 57.3351 55.3677 57.4684 55.2924 57.4595C55.2083 57.4462 55.0754 57.3084 55.0799 57.2284C55.0799 57.1884 55.1153 57.1351 55.1596 57.0951C53.8843 57.2684 52.609 57.4106 51.3249 57.5306C51.6481 60.4502 52.2016 63.4765 52.1972 66.4006C52.1972 67.8182 51.5064 68.7825 50.5145 69.4758C50.5632 69.4624 50.6119 69.4491 50.6606 69.4491C50.913 69.4402 51.1654 69.6402 51.192 69.8668C51.223 70.1424 50.944 70.4179 50.6474 70.4001C50.3994 70.3823 50.1913 70.1646 50.1824 69.9113C50.1824 69.8091 50.2178 69.7113 50.2843 69.6358C49.775 69.9602 49.195 70.2224 48.5972 70.4445C46.4894 71.2311 44.9661 70.1957 44.6296 68.036C44.1691 65.0852 44.1248 62.0145 44.1558 59.0282C43.6953 59.1571 43.2348 59.2815 42.7742 59.4015C42.7742 59.4015 42.7742 59.4104 42.7698 59.4148C42.5661 59.757 42.265 59.9614 41.7691 59.9747C41.5787 59.9836 41.4148 59.8992 41.3041 59.7659C37.0044 60.7613 32.6029 61.2768 28.1837 61.2635C25.8678 61.259 23.5077 61.1613 21.2139 60.8102C19.4958 60.548 18.4907 59.557 18.3755 57.7928C18.2338 55.6375 18.6899 53.2867 19.2434 51.2158C19.6951 49.5227 20.253 47.4252 21.6877 46.2787L21.6656 46.2742ZM22.963 38.2619C22.9719 37.8086 23.0073 37.3598 23.0383 36.831C23.2331 36.871 23.4368 36.8487 23.5121 36.9376C23.7512 37.222 23.9549 37.5375 24.1409 37.8619C24.2914 38.1197 24.1719 38.4796 23.9239 38.6307C23.6804 38.7818 23.2818 38.7729 23.1091 38.5907C23.0294 38.5063 22.9586 38.373 22.9586 38.2663L22.963 38.2619ZM34.5956 32.4848C34.5823 32.0405 34.8435 31.7205 35.2199 31.7249C35.5343 31.7249 35.8 32.0316 35.8044 32.396C35.8044 32.7248 35.5255 32.9959 35.1624 33.0092C34.848 33.0181 34.6044 32.7959 34.5956 32.4848ZM35.8797 28.7386C35.8576 28.552 35.9948 28.352 36.1321 28.4053C36.2605 28.4542 36.3668 28.5742 36.5572 28.7253C36.3889 28.872 36.2915 29.023 36.1764 29.0453C35.9993 29.0764 35.9019 28.9164 35.8797 28.7386ZM10.8124 9.87432C10.8744 9.68324 11.0161 9.51881 11.264 9.44327C11.3703 9.41216 11.4766 9.38105 11.5828 9.34995C11.6404 9.32773 11.6936 9.30995 11.7467 9.30106C13.3364 8.84779 15.0722 8.55005 16.5733 9.43438C18.0788 10.3187 18.4242 12.0341 18.5172 13.6516C18.6501 15.8958 18.4774 18.2155 18.0036 20.4108C17.6847 21.8995 17.0205 23.1927 15.4043 23.4815C13.8766 23.757 11.8795 23.1038 10.5068 22.4816C8.83301 21.7173 7.76142 20.3041 7.39831 18.4999C6.73853 15.207 8.23079 11.883 10.8079 9.87877L10.8124 9.87432ZM6.86251 31.8005C6.94665 31.7871 7.05292 31.8849 7.14591 31.9382C7.08835 32.036 7.06621 32.1382 7.01307 32.1604C6.85809 32.2138 6.67654 32.2182 6.63668 32.0138C6.6234 31.956 6.76953 31.8138 6.85809 31.8005H6.86251ZM5.8352 37.2265C5.93705 36.8887 6.18945 36.6621 6.51713 36.5554C7.23447 36.3155 7.90311 36.431 8.49648 36.8976C8.71345 37.0665 8.75331 37.3109 8.6736 37.5686C8.32378 38.6841 7.66843 39.0707 6.49941 38.8396C6.30015 38.7996 6.10531 38.7241 5.89277 38.6574C5.59608 38.1064 5.70236 37.662 5.8352 37.222V37.2265ZM2.89496 36.7065C3.01451 36.7332 3.1075 36.871 3.18721 36.9376C3.09865 37.2265 2.93038 37.2442 2.77983 37.1909C2.69127 37.1598 2.57613 37.0398 2.57171 36.9598C2.57171 36.7732 2.73112 36.671 2.89496 36.7065Z" fill="#DEDEDE"/>
    </g>
    <defs>
        <clipPath id="clip0_1467_95311">
            <rect width="95" height="107" fill="white"/>
        </clipPath>
    </defs>
</svg>
